%TF.GenerationSoftware,KiCad,Pcbnew,(5.1.12)-1*%
%TF.CreationDate,2023-10-03T16:06:21+02:00*%
%TF.ProjectId,PICO-AT,5049434f-2d41-4542-9e6b-696361645f70,rev?*%
%TF.SameCoordinates,Original*%
%TF.FileFunction,Copper,L1,Top*%
%TF.FilePolarity,Positive*%
%FSLAX46Y46*%
G04 Gerber Fmt 4.6, Leading zero omitted, Abs format (unit mm)*
G04 Created by KiCad (PCBNEW (5.1.12)-1) date 2023-10-03 16:06:21*
%MOMM*%
%LPD*%
G01*
G04 APERTURE LIST*
%TA.AperFunction,ComponentPad*%
%ADD10R,2.000000X1.905000*%
%TD*%
%TA.AperFunction,ComponentPad*%
%ADD11O,2.000000X1.905000*%
%TD*%
%TA.AperFunction,ComponentPad*%
%ADD12R,2.300000X2.300000*%
%TD*%
%TA.AperFunction,ComponentPad*%
%ADD13C,2.300000*%
%TD*%
%TA.AperFunction,ComponentPad*%
%ADD14O,1.700000X1.700000*%
%TD*%
%TA.AperFunction,ComponentPad*%
%ADD15R,1.700000X1.700000*%
%TD*%
%TA.AperFunction,ComponentPad*%
%ADD16C,4.000000*%
%TD*%
%TA.AperFunction,ComponentPad*%
%ADD17C,6.000000*%
%TD*%
%TA.AperFunction,ViaPad*%
%ADD18C,0.800000*%
%TD*%
%TA.AperFunction,Conductor*%
%ADD19C,1.250000*%
%TD*%
%TA.AperFunction,Conductor*%
%ADD20C,2.000000*%
%TD*%
%TA.AperFunction,Conductor*%
%ADD21C,0.254000*%
%TD*%
%TA.AperFunction,Conductor*%
%ADD22C,0.100000*%
%TD*%
G04 APERTURE END LIST*
D10*
%TO.P,U1,1*%
%TO.N,/GND*%
X151638000Y-113538000D03*
D11*
%TO.P,U1,2*%
%TO.N,/-12V*%
X151638000Y-116078000D03*
%TO.P,U1,3*%
%TO.N,/-5V*%
X151638000Y-118618000D03*
%TD*%
D12*
%TO.P,J1,1*%
%TO.N,/3.3V*%
X171958000Y-107696000D03*
D13*
%TO.P,J1,2*%
X167758000Y-107696000D03*
%TO.P,J1,3*%
%TO.N,/GND*%
X163558000Y-107696000D03*
%TO.P,J1,4*%
%TO.N,/5V*%
X159358000Y-107696000D03*
%TO.P,J1,5*%
%TO.N,/GND*%
X155158000Y-107696000D03*
%TO.P,J1,6*%
%TO.N,/5V*%
X150958000Y-107696000D03*
%TO.P,J1,7*%
%TO.N,/GND*%
X146758000Y-107696000D03*
%TO.P,J1,8*%
%TO.N,/PG*%
X142558000Y-107696000D03*
%TO.P,J1,9*%
%TO.N,Net-(J1-Pad9)*%
X138358000Y-107696000D03*
%TO.P,J1,10*%
%TO.N,/12V*%
X134158000Y-107696000D03*
%TO.P,J1,11*%
X129958000Y-107696000D03*
%TO.P,J1,12*%
%TO.N,Net-(J1-Pad12)*%
X125758000Y-107696000D03*
%TO.P,J1,13*%
%TO.N,/3.3V*%
X171958000Y-102196000D03*
%TO.P,J1,14*%
%TO.N,/-12V*%
X167758000Y-102196000D03*
%TO.P,J1,15*%
%TO.N,/GND*%
X163558000Y-102196000D03*
%TO.P,J1,16*%
%TO.N,/PS-ON*%
X159358000Y-102196000D03*
%TO.P,J1,17*%
%TO.N,/GND*%
X155158000Y-102196000D03*
%TO.P,J1,18*%
X150958000Y-102196000D03*
%TO.P,J1,19*%
X146758000Y-102196000D03*
%TO.P,J1,20*%
%TO.N,Net-(J1-Pad20)*%
X142558000Y-102196000D03*
%TO.P,J1,21*%
%TO.N,/5V*%
X138358000Y-102196000D03*
%TO.P,J1,22*%
X134158000Y-102196000D03*
%TO.P,J1,23*%
X129958000Y-102196000D03*
%TO.P,J1,24*%
%TO.N,/GND*%
X125758000Y-102196000D03*
%TD*%
D14*
%TO.P,+12V,2*%
%TO.N,/GND*%
X137000000Y-91540000D03*
D15*
%TO.P,+12V,1*%
%TO.N,/12V*%
X137000000Y-89000000D03*
%TD*%
D16*
%TO.P,GND,2*%
%TO.N,/GND*%
X128000000Y-93000000D03*
%TO.P,GND,1*%
%TO.N,/PS-ON*%
X128000000Y-87000000D03*
%TD*%
D17*
%TO.P,+3.3V,1*%
%TO.N,/3.3V*%
X161000000Y-89000000D03*
%TD*%
%TO.P,+5V Red,1*%
%TO.N,/5V*%
X137000000Y-79000000D03*
%TD*%
%TO.P,+12V Blue,1*%
%TO.N,/12V*%
X128000000Y-79000000D03*
%TD*%
%TO.P,GND,1*%
%TO.N,/GND*%
X170300000Y-78800000D03*
%TD*%
%TO.P,GND,1*%
%TO.N,/GND*%
X161000000Y-78900000D03*
%TD*%
%TO.P,GND,1*%
%TO.N,/GND*%
X170500000Y-89000000D03*
%TD*%
D16*
%TO.P,-12V,1*%
%TO.N,/-12V*%
X153000000Y-79000000D03*
%TD*%
%TO.P,-5V,1*%
%TO.N,/-5V*%
X145500000Y-79000000D03*
%TD*%
%TO.P,PG,1*%
%TO.N,/PG*%
X149500000Y-86000000D03*
%TD*%
D18*
%TO.N,/GND*%
X173012000Y-118364000D03*
X173012000Y-119380000D03*
X124206000Y-113030000D03*
X126238000Y-115062000D03*
X124206000Y-117348000D03*
X126238000Y-119380000D03*
X122428000Y-115062000D03*
X122428000Y-119380000D03*
X124206000Y-121158000D03*
%TD*%
D19*
%TO.N,/-12V*%
X167758000Y-102196000D02*
X160062000Y-94500000D01*
X160062000Y-94500000D02*
X154500000Y-94500000D01*
X153000000Y-93000000D02*
X154500000Y-94500000D01*
X153000000Y-79000000D02*
X153000000Y-93000000D01*
X162500000Y-105000000D02*
X166500000Y-105000000D01*
X161430000Y-106070000D02*
X162500000Y-105000000D01*
X166500000Y-105000000D02*
X167758000Y-103742000D01*
X161430000Y-110070000D02*
X161430000Y-106070000D01*
X167758000Y-103742000D02*
X167758000Y-102196000D01*
X155422000Y-116078000D02*
X161430000Y-110070000D01*
X151638000Y-116078000D02*
X155422000Y-116078000D01*
%TO.N,/-5V*%
X146528000Y-118618000D02*
X151638000Y-118618000D01*
X140450000Y-112540000D02*
X146528000Y-118618000D01*
X140450000Y-99840000D02*
X140450000Y-112540000D01*
X145500000Y-94790000D02*
X140450000Y-99840000D01*
X145500000Y-79000000D02*
X145500000Y-94790000D01*
%TO.N,/PG*%
X149500000Y-95000000D02*
X149500000Y-86000000D01*
X144670000Y-99830000D02*
X149500000Y-95000000D01*
X144670000Y-105584000D02*
X144670000Y-99830000D01*
X142558000Y-107696000D02*
X144670000Y-105584000D01*
D20*
%TO.N,/3.3V*%
X167758000Y-107696000D02*
X171958000Y-107696000D01*
X171958000Y-107696000D02*
X171958000Y-102196000D01*
X171958000Y-99958000D02*
X161000000Y-89000000D01*
X171958000Y-102196000D02*
X171958000Y-99958000D01*
%TD*%
D21*
%TO.N,/5V*%
X175569796Y-121548000D02*
X124939594Y-121548000D01*
X125001218Y-121399227D01*
X125033000Y-121239452D01*
X125033000Y-121076548D01*
X125001218Y-120916773D01*
X124938877Y-120766269D01*
X124848372Y-120630819D01*
X124733181Y-120515628D01*
X124597731Y-120425123D01*
X124447227Y-120362782D01*
X124287452Y-120331000D01*
X124124548Y-120331000D01*
X123964773Y-120362782D01*
X123814269Y-120425123D01*
X123678819Y-120515628D01*
X123563628Y-120630819D01*
X123473123Y-120766269D01*
X123410782Y-120916773D01*
X123379000Y-121076548D01*
X123379000Y-121239452D01*
X123410782Y-121399227D01*
X123472406Y-121548000D01*
X121952000Y-121548000D01*
X121952000Y-120056570D01*
X122036269Y-120112877D01*
X122186773Y-120175218D01*
X122346548Y-120207000D01*
X122509452Y-120207000D01*
X122669227Y-120175218D01*
X122819731Y-120112877D01*
X122955181Y-120022372D01*
X123070372Y-119907181D01*
X123160877Y-119771731D01*
X123223218Y-119621227D01*
X123255000Y-119461452D01*
X123255000Y-119298548D01*
X125411000Y-119298548D01*
X125411000Y-119461452D01*
X125442782Y-119621227D01*
X125505123Y-119771731D01*
X125595628Y-119907181D01*
X125710819Y-120022372D01*
X125846269Y-120112877D01*
X125996773Y-120175218D01*
X126156548Y-120207000D01*
X126319452Y-120207000D01*
X126479227Y-120175218D01*
X126629731Y-120112877D01*
X126765181Y-120022372D01*
X126880372Y-119907181D01*
X126970877Y-119771731D01*
X127033218Y-119621227D01*
X127065000Y-119461452D01*
X127065000Y-119298548D01*
X127033218Y-119138773D01*
X126970877Y-118988269D01*
X126880372Y-118852819D01*
X126765181Y-118737628D01*
X126629731Y-118647123D01*
X126479227Y-118584782D01*
X126319452Y-118553000D01*
X126156548Y-118553000D01*
X125996773Y-118584782D01*
X125846269Y-118647123D01*
X125710819Y-118737628D01*
X125595628Y-118852819D01*
X125505123Y-118988269D01*
X125442782Y-119138773D01*
X125411000Y-119298548D01*
X123255000Y-119298548D01*
X123223218Y-119138773D01*
X123160877Y-118988269D01*
X123070372Y-118852819D01*
X122955181Y-118737628D01*
X122819731Y-118647123D01*
X122669227Y-118584782D01*
X122509452Y-118553000D01*
X122346548Y-118553000D01*
X122186773Y-118584782D01*
X122036269Y-118647123D01*
X121952000Y-118703430D01*
X121952000Y-117266548D01*
X123379000Y-117266548D01*
X123379000Y-117429452D01*
X123410782Y-117589227D01*
X123473123Y-117739731D01*
X123563628Y-117875181D01*
X123678819Y-117990372D01*
X123814269Y-118080877D01*
X123964773Y-118143218D01*
X124124548Y-118175000D01*
X124287452Y-118175000D01*
X124447227Y-118143218D01*
X124597731Y-118080877D01*
X124733181Y-117990372D01*
X124848372Y-117875181D01*
X124938877Y-117739731D01*
X125001218Y-117589227D01*
X125033000Y-117429452D01*
X125033000Y-117266548D01*
X125001218Y-117106773D01*
X124938877Y-116956269D01*
X124848372Y-116820819D01*
X124733181Y-116705628D01*
X124597731Y-116615123D01*
X124447227Y-116552782D01*
X124287452Y-116521000D01*
X124124548Y-116521000D01*
X123964773Y-116552782D01*
X123814269Y-116615123D01*
X123678819Y-116705628D01*
X123563628Y-116820819D01*
X123473123Y-116956269D01*
X123410782Y-117106773D01*
X123379000Y-117266548D01*
X121952000Y-117266548D01*
X121952000Y-115738570D01*
X122036269Y-115794877D01*
X122186773Y-115857218D01*
X122346548Y-115889000D01*
X122509452Y-115889000D01*
X122669227Y-115857218D01*
X122819731Y-115794877D01*
X122955181Y-115704372D01*
X123070372Y-115589181D01*
X123160877Y-115453731D01*
X123223218Y-115303227D01*
X123255000Y-115143452D01*
X123255000Y-114980548D01*
X125411000Y-114980548D01*
X125411000Y-115143452D01*
X125442782Y-115303227D01*
X125505123Y-115453731D01*
X125595628Y-115589181D01*
X125710819Y-115704372D01*
X125846269Y-115794877D01*
X125996773Y-115857218D01*
X126156548Y-115889000D01*
X126319452Y-115889000D01*
X126447223Y-115863584D01*
X132801000Y-115863584D01*
X132801000Y-116292416D01*
X132884660Y-116713008D01*
X133048767Y-117109196D01*
X133287013Y-117465757D01*
X133590243Y-117768987D01*
X133946804Y-118007233D01*
X134342992Y-118171340D01*
X134763584Y-118255000D01*
X135192416Y-118255000D01*
X135613008Y-118171340D01*
X136009196Y-118007233D01*
X136365757Y-117768987D01*
X136668987Y-117465757D01*
X136907233Y-117109196D01*
X137071340Y-116713008D01*
X137155000Y-116292416D01*
X137155000Y-115863584D01*
X137071340Y-115442992D01*
X136907233Y-115046804D01*
X136668987Y-114690243D01*
X136365757Y-114387013D01*
X136009196Y-114148767D01*
X135613008Y-113984660D01*
X135192416Y-113901000D01*
X134763584Y-113901000D01*
X134342992Y-113984660D01*
X133946804Y-114148767D01*
X133590243Y-114387013D01*
X133287013Y-114690243D01*
X133048767Y-115046804D01*
X132884660Y-115442992D01*
X132801000Y-115863584D01*
X126447223Y-115863584D01*
X126479227Y-115857218D01*
X126629731Y-115794877D01*
X126765181Y-115704372D01*
X126880372Y-115589181D01*
X126970877Y-115453731D01*
X127033218Y-115303227D01*
X127065000Y-115143452D01*
X127065000Y-114980548D01*
X127033218Y-114820773D01*
X126970877Y-114670269D01*
X126880372Y-114534819D01*
X126765181Y-114419628D01*
X126629731Y-114329123D01*
X126479227Y-114266782D01*
X126319452Y-114235000D01*
X126156548Y-114235000D01*
X125996773Y-114266782D01*
X125846269Y-114329123D01*
X125710819Y-114419628D01*
X125595628Y-114534819D01*
X125505123Y-114670269D01*
X125442782Y-114820773D01*
X125411000Y-114980548D01*
X123255000Y-114980548D01*
X123223218Y-114820773D01*
X123160877Y-114670269D01*
X123070372Y-114534819D01*
X122955181Y-114419628D01*
X122819731Y-114329123D01*
X122669227Y-114266782D01*
X122509452Y-114235000D01*
X122346548Y-114235000D01*
X122186773Y-114266782D01*
X122036269Y-114329123D01*
X121952000Y-114385430D01*
X121952000Y-112948548D01*
X123379000Y-112948548D01*
X123379000Y-113111452D01*
X123410782Y-113271227D01*
X123473123Y-113421731D01*
X123563628Y-113557181D01*
X123678819Y-113672372D01*
X123814269Y-113762877D01*
X123964773Y-113825218D01*
X124124548Y-113857000D01*
X124287452Y-113857000D01*
X124447227Y-113825218D01*
X124597731Y-113762877D01*
X124733181Y-113672372D01*
X124848372Y-113557181D01*
X124938877Y-113421731D01*
X125001218Y-113271227D01*
X125033000Y-113111452D01*
X125033000Y-112948548D01*
X125001218Y-112788773D01*
X124938877Y-112638269D01*
X124848372Y-112502819D01*
X124733181Y-112387628D01*
X124597731Y-112297123D01*
X124447227Y-112234782D01*
X124287452Y-112203000D01*
X124124548Y-112203000D01*
X123964773Y-112234782D01*
X123814269Y-112297123D01*
X123678819Y-112387628D01*
X123563628Y-112502819D01*
X123473123Y-112638269D01*
X123410782Y-112788773D01*
X123379000Y-112948548D01*
X121952000Y-112948548D01*
X121952000Y-107540679D01*
X124181000Y-107540679D01*
X124181000Y-107851321D01*
X124241604Y-108155994D01*
X124360481Y-108442989D01*
X124533064Y-108701279D01*
X124752721Y-108920936D01*
X125011011Y-109093519D01*
X125298006Y-109212396D01*
X125602679Y-109273000D01*
X125913321Y-109273000D01*
X126217994Y-109212396D01*
X126504989Y-109093519D01*
X126763279Y-108920936D01*
X126982936Y-108701279D01*
X127155519Y-108442989D01*
X127274396Y-108155994D01*
X127335000Y-107851321D01*
X127335000Y-107540679D01*
X128381000Y-107540679D01*
X128381000Y-107851321D01*
X128441604Y-108155994D01*
X128560481Y-108442989D01*
X128733064Y-108701279D01*
X128952721Y-108920936D01*
X129211011Y-109093519D01*
X129498006Y-109212396D01*
X129802679Y-109273000D01*
X130113321Y-109273000D01*
X130417994Y-109212396D01*
X130704989Y-109093519D01*
X130963279Y-108920936D01*
X131182936Y-108701279D01*
X131355519Y-108442989D01*
X131474396Y-108155994D01*
X131535000Y-107851321D01*
X131535000Y-107540679D01*
X132581000Y-107540679D01*
X132581000Y-107851321D01*
X132641604Y-108155994D01*
X132760481Y-108442989D01*
X132933064Y-108701279D01*
X133152721Y-108920936D01*
X133411011Y-109093519D01*
X133698006Y-109212396D01*
X134002679Y-109273000D01*
X134313321Y-109273000D01*
X134617994Y-109212396D01*
X134904989Y-109093519D01*
X135163279Y-108920936D01*
X135382936Y-108701279D01*
X135555519Y-108442989D01*
X135674396Y-108155994D01*
X135735000Y-107851321D01*
X135735000Y-107540679D01*
X136781000Y-107540679D01*
X136781000Y-107851321D01*
X136841604Y-108155994D01*
X136960481Y-108442989D01*
X137133064Y-108701279D01*
X137352721Y-108920936D01*
X137611011Y-109093519D01*
X137898006Y-109212396D01*
X138202679Y-109273000D01*
X138513321Y-109273000D01*
X138817994Y-109212396D01*
X139104989Y-109093519D01*
X139363279Y-108920936D01*
X139398001Y-108886214D01*
X139398001Y-112488311D01*
X139392910Y-112540000D01*
X139413222Y-112746227D01*
X139473376Y-112944530D01*
X139473377Y-112944531D01*
X139571063Y-113127288D01*
X139702525Y-113287476D01*
X139742675Y-113320426D01*
X145747574Y-119325326D01*
X145780524Y-119365476D01*
X145940712Y-119496938D01*
X146123469Y-119594624D01*
X146321772Y-119654778D01*
X146527999Y-119675090D01*
X146579678Y-119670000D01*
X150697848Y-119670000D01*
X150820383Y-119770562D01*
X151060034Y-119898658D01*
X151320071Y-119977539D01*
X151522738Y-119997500D01*
X151753262Y-119997500D01*
X151955929Y-119977539D01*
X152215966Y-119898658D01*
X152455617Y-119770562D01*
X152665673Y-119598173D01*
X152838062Y-119388117D01*
X152966158Y-119148466D01*
X153045039Y-118888429D01*
X153071674Y-118618000D01*
X153045039Y-118347571D01*
X153025315Y-118282548D01*
X172185000Y-118282548D01*
X172185000Y-118445452D01*
X172216782Y-118605227D01*
X172279123Y-118755731D01*
X172356812Y-118872000D01*
X172279123Y-118988269D01*
X172216782Y-119138773D01*
X172185000Y-119298548D01*
X172185000Y-119461452D01*
X172216782Y-119621227D01*
X172279123Y-119771731D01*
X172369628Y-119907181D01*
X172484819Y-120022372D01*
X172620269Y-120112877D01*
X172770773Y-120175218D01*
X172930548Y-120207000D01*
X173093452Y-120207000D01*
X173253227Y-120175218D01*
X173403731Y-120112877D01*
X173539181Y-120022372D01*
X173654372Y-119907181D01*
X173744877Y-119771731D01*
X173807218Y-119621227D01*
X173839000Y-119461452D01*
X173839000Y-119298548D01*
X173807218Y-119138773D01*
X173744877Y-118988269D01*
X173667188Y-118872000D01*
X173744877Y-118755731D01*
X173807218Y-118605227D01*
X173839000Y-118445452D01*
X173839000Y-118282548D01*
X173807218Y-118122773D01*
X173744877Y-117972269D01*
X173654372Y-117836819D01*
X173539181Y-117721628D01*
X173403731Y-117631123D01*
X173253227Y-117568782D01*
X173093452Y-117537000D01*
X172930548Y-117537000D01*
X172770773Y-117568782D01*
X172620269Y-117631123D01*
X172484819Y-117721628D01*
X172369628Y-117836819D01*
X172279123Y-117972269D01*
X172216782Y-118122773D01*
X172185000Y-118282548D01*
X153025315Y-118282548D01*
X152966158Y-118087534D01*
X152838062Y-117847883D01*
X152665673Y-117637827D01*
X152455617Y-117465438D01*
X152235906Y-117348000D01*
X152455617Y-117230562D01*
X152578152Y-117130000D01*
X155370321Y-117130000D01*
X155422000Y-117135090D01*
X155473679Y-117130000D01*
X155628228Y-117114778D01*
X155826531Y-117054624D01*
X156009288Y-116956938D01*
X156169476Y-116825476D01*
X156202431Y-116785320D01*
X162137326Y-110850426D01*
X162177476Y-110817476D01*
X162308938Y-110657288D01*
X162406624Y-110474531D01*
X162466778Y-110276228D01*
X162482000Y-110121679D01*
X162482000Y-110121678D01*
X162487090Y-110070001D01*
X162482000Y-110018322D01*
X162482000Y-108850215D01*
X162552721Y-108920936D01*
X162811011Y-109093519D01*
X163098006Y-109212396D01*
X163402679Y-109273000D01*
X163713321Y-109273000D01*
X164017994Y-109212396D01*
X164304989Y-109093519D01*
X164563279Y-108920936D01*
X164782936Y-108701279D01*
X164955519Y-108442989D01*
X165074396Y-108155994D01*
X165135000Y-107851321D01*
X165135000Y-107540679D01*
X165074396Y-107236006D01*
X164955519Y-106949011D01*
X164782936Y-106690721D01*
X164563279Y-106471064D01*
X164304989Y-106298481D01*
X164017994Y-106179604D01*
X163713321Y-106119000D01*
X163402679Y-106119000D01*
X163098006Y-106179604D01*
X162811011Y-106298481D01*
X162552721Y-106471064D01*
X162482000Y-106541785D01*
X162482000Y-106505752D01*
X162935752Y-106052000D01*
X166448321Y-106052000D01*
X166500000Y-106057090D01*
X166551679Y-106052000D01*
X166706228Y-106036778D01*
X166904531Y-105976624D01*
X167087288Y-105878938D01*
X167247476Y-105747476D01*
X167280430Y-105707321D01*
X168465331Y-104522422D01*
X168505476Y-104489476D01*
X168636938Y-104329288D01*
X168734624Y-104146531D01*
X168794778Y-103948228D01*
X168810000Y-103793679D01*
X168810000Y-103793678D01*
X168815090Y-103742000D01*
X168810000Y-103690321D01*
X168810000Y-103374215D01*
X168982936Y-103201279D01*
X169155519Y-102942989D01*
X169274396Y-102655994D01*
X169335000Y-102351321D01*
X169335000Y-102040679D01*
X169274396Y-101736006D01*
X169155519Y-101449011D01*
X168982936Y-101190721D01*
X168763279Y-100971064D01*
X168504989Y-100798481D01*
X168217994Y-100679604D01*
X167913321Y-100619000D01*
X167668753Y-100619000D01*
X160842431Y-93792680D01*
X160809476Y-93752524D01*
X160649288Y-93621062D01*
X160466531Y-93523376D01*
X160268228Y-93463222D01*
X160113679Y-93448000D01*
X160062000Y-93442910D01*
X160010321Y-93448000D01*
X154935753Y-93448000D01*
X154052000Y-92564249D01*
X154052000Y-88662470D01*
X157573000Y-88662470D01*
X157573000Y-89337530D01*
X157704697Y-89999619D01*
X157963032Y-90623293D01*
X158338075Y-91184585D01*
X158815415Y-91661925D01*
X159376707Y-92036968D01*
X160000381Y-92295303D01*
X160662470Y-92427000D01*
X161337530Y-92427000D01*
X161999619Y-92295303D01*
X162195913Y-92213995D01*
X170531001Y-100549083D01*
X170531000Y-101520184D01*
X170441604Y-101736006D01*
X170381000Y-102040679D01*
X170381000Y-102351321D01*
X170441604Y-102655994D01*
X170531001Y-102871818D01*
X170531000Y-106220943D01*
X170504605Y-106242605D01*
X170482943Y-106269000D01*
X168433815Y-106269000D01*
X168217994Y-106179604D01*
X167913321Y-106119000D01*
X167602679Y-106119000D01*
X167298006Y-106179604D01*
X167011011Y-106298481D01*
X166752721Y-106471064D01*
X166533064Y-106690721D01*
X166360481Y-106949011D01*
X166241604Y-107236006D01*
X166181000Y-107540679D01*
X166181000Y-107851321D01*
X166241604Y-108155994D01*
X166360481Y-108442989D01*
X166533064Y-108701279D01*
X166752721Y-108920936D01*
X167011011Y-109093519D01*
X167298006Y-109212396D01*
X167602679Y-109273000D01*
X167913321Y-109273000D01*
X168217994Y-109212396D01*
X168433815Y-109123000D01*
X170482943Y-109123000D01*
X170504605Y-109149395D01*
X170569624Y-109202755D01*
X170643804Y-109242405D01*
X170724293Y-109266822D01*
X170808000Y-109275066D01*
X173108000Y-109275066D01*
X173191707Y-109266822D01*
X173272196Y-109242405D01*
X173346376Y-109202755D01*
X173411395Y-109149395D01*
X173464755Y-109084376D01*
X173504405Y-109010196D01*
X173528822Y-108929707D01*
X173537066Y-108846000D01*
X173537066Y-106546000D01*
X173528822Y-106462293D01*
X173504405Y-106381804D01*
X173464755Y-106307624D01*
X173411395Y-106242605D01*
X173385000Y-106220943D01*
X173385000Y-102871815D01*
X173474396Y-102655994D01*
X173535000Y-102351321D01*
X173535000Y-102040679D01*
X173474396Y-101736006D01*
X173385000Y-101520185D01*
X173385000Y-100028087D01*
X173391903Y-99957999D01*
X173385000Y-99887911D01*
X173385000Y-99887902D01*
X173364352Y-99678259D01*
X173282755Y-99409269D01*
X173150248Y-99161366D01*
X172971923Y-98944077D01*
X172917472Y-98899390D01*
X164213995Y-90195913D01*
X164295303Y-89999619D01*
X164427000Y-89337530D01*
X164427000Y-88662470D01*
X167073000Y-88662470D01*
X167073000Y-89337530D01*
X167204697Y-89999619D01*
X167463032Y-90623293D01*
X167838075Y-91184585D01*
X168315415Y-91661925D01*
X168876707Y-92036968D01*
X169500381Y-92295303D01*
X170162470Y-92427000D01*
X170837530Y-92427000D01*
X171499619Y-92295303D01*
X172123293Y-92036968D01*
X172684585Y-91661925D01*
X173161925Y-91184585D01*
X173536968Y-90623293D01*
X173795303Y-89999619D01*
X173927000Y-89337530D01*
X173927000Y-88662470D01*
X173795303Y-88000381D01*
X173536968Y-87376707D01*
X173161925Y-86815415D01*
X172684585Y-86338075D01*
X172123293Y-85963032D01*
X171499619Y-85704697D01*
X170837530Y-85573000D01*
X170162470Y-85573000D01*
X169500381Y-85704697D01*
X168876707Y-85963032D01*
X168315415Y-86338075D01*
X167838075Y-86815415D01*
X167463032Y-87376707D01*
X167204697Y-88000381D01*
X167073000Y-88662470D01*
X164427000Y-88662470D01*
X164295303Y-88000381D01*
X164036968Y-87376707D01*
X163661925Y-86815415D01*
X163184585Y-86338075D01*
X162623293Y-85963032D01*
X161999619Y-85704697D01*
X161337530Y-85573000D01*
X160662470Y-85573000D01*
X160000381Y-85704697D01*
X159376707Y-85963032D01*
X158815415Y-86338075D01*
X158338075Y-86815415D01*
X157963032Y-87376707D01*
X157704697Y-88000381D01*
X157573000Y-88662470D01*
X154052000Y-88662470D01*
X154052000Y-82868000D01*
X161789813Y-82868000D01*
X161798540Y-82956607D01*
X161824386Y-83041810D01*
X161866357Y-83120333D01*
X161922841Y-83189159D01*
X161991667Y-83245643D01*
X162070190Y-83287614D01*
X162155393Y-83313460D01*
X162221795Y-83320000D01*
X162266205Y-83320000D01*
X162332607Y-83313460D01*
X162417810Y-83287614D01*
X162496333Y-83245643D01*
X162565159Y-83189159D01*
X162621643Y-83120333D01*
X162663614Y-83041810D01*
X162689460Y-82956607D01*
X162698187Y-82868000D01*
X162689460Y-82779393D01*
X162663614Y-82694190D01*
X162621643Y-82615667D01*
X162565159Y-82546841D01*
X162496333Y-82490357D01*
X162417810Y-82448386D01*
X162332607Y-82422540D01*
X162266205Y-82416000D01*
X162221795Y-82416000D01*
X162155393Y-82422540D01*
X162070190Y-82448386D01*
X161991667Y-82490357D01*
X161922841Y-82546841D01*
X161866357Y-82615667D01*
X161824386Y-82694190D01*
X161798540Y-82779393D01*
X161789813Y-82868000D01*
X154052000Y-82868000D01*
X154052000Y-81191213D01*
X154149615Y-81150779D01*
X154547122Y-80885174D01*
X154885174Y-80547122D01*
X155150779Y-80149615D01*
X155333732Y-79707930D01*
X155427000Y-79239039D01*
X155427000Y-78760961D01*
X155387518Y-78562470D01*
X157573000Y-78562470D01*
X157573000Y-79237530D01*
X157704697Y-79899619D01*
X157963032Y-80523293D01*
X158338075Y-81084585D01*
X158815415Y-81561925D01*
X159376707Y-81936968D01*
X160000381Y-82195303D01*
X160662470Y-82327000D01*
X161337530Y-82327000D01*
X161999619Y-82195303D01*
X162623293Y-81936968D01*
X163184585Y-81561925D01*
X163661925Y-81084585D01*
X164036968Y-80523293D01*
X164295303Y-79899619D01*
X164427000Y-79237530D01*
X164427000Y-78562470D01*
X164407109Y-78462470D01*
X166873000Y-78462470D01*
X166873000Y-79137530D01*
X167004697Y-79799619D01*
X167263032Y-80423293D01*
X167638075Y-80984585D01*
X168115415Y-81461925D01*
X168676707Y-81836968D01*
X169300381Y-82095303D01*
X169962470Y-82227000D01*
X170637530Y-82227000D01*
X171299619Y-82095303D01*
X171923293Y-81836968D01*
X172484585Y-81461925D01*
X172961925Y-80984585D01*
X173336968Y-80423293D01*
X173595303Y-79799619D01*
X173727000Y-79137530D01*
X173727000Y-78462470D01*
X173595303Y-77800381D01*
X173336968Y-77176707D01*
X172961925Y-76615415D01*
X172484585Y-76138075D01*
X171923293Y-75763032D01*
X171299619Y-75504697D01*
X170637530Y-75373000D01*
X169962470Y-75373000D01*
X169300381Y-75504697D01*
X168676707Y-75763032D01*
X168115415Y-76138075D01*
X167638075Y-76615415D01*
X167263032Y-77176707D01*
X167004697Y-77800381D01*
X166873000Y-78462470D01*
X164407109Y-78462470D01*
X164295303Y-77900381D01*
X164036968Y-77276707D01*
X163661925Y-76715415D01*
X163184585Y-76238075D01*
X162623293Y-75863032D01*
X161999619Y-75604697D01*
X161337530Y-75473000D01*
X160662470Y-75473000D01*
X160000381Y-75604697D01*
X159376707Y-75863032D01*
X158815415Y-76238075D01*
X158338075Y-76715415D01*
X157963032Y-77276707D01*
X157704697Y-77900381D01*
X157573000Y-78562470D01*
X155387518Y-78562470D01*
X155333732Y-78292070D01*
X155150779Y-77850385D01*
X154885174Y-77452878D01*
X154547122Y-77114826D01*
X154149615Y-76849221D01*
X153707930Y-76666268D01*
X153239039Y-76573000D01*
X152760961Y-76573000D01*
X152292070Y-76666268D01*
X151850385Y-76849221D01*
X151452878Y-77114826D01*
X151114826Y-77452878D01*
X150849221Y-77850385D01*
X150666268Y-78292070D01*
X150573000Y-78760961D01*
X150573000Y-79239039D01*
X150666268Y-79707930D01*
X150849221Y-80149615D01*
X151114826Y-80547122D01*
X151452878Y-80885174D01*
X151850385Y-81150779D01*
X151948000Y-81191213D01*
X151948001Y-92948311D01*
X151942910Y-93000000D01*
X151963222Y-93206227D01*
X152023376Y-93404530D01*
X152023377Y-93404531D01*
X152121063Y-93587288D01*
X152252525Y-93747476D01*
X152292675Y-93780426D01*
X153719578Y-95207331D01*
X153752524Y-95247476D01*
X153912712Y-95378938D01*
X154095469Y-95476624D01*
X154293772Y-95536778D01*
X154499999Y-95557090D01*
X154551678Y-95552000D01*
X159626249Y-95552000D01*
X166181000Y-102106753D01*
X166181000Y-102351321D01*
X166241604Y-102655994D01*
X166360481Y-102942989D01*
X166533064Y-103201279D01*
X166672016Y-103340231D01*
X166064248Y-103948000D01*
X162551686Y-103948000D01*
X162500000Y-103942909D01*
X162293772Y-103963222D01*
X162095469Y-104023376D01*
X161912712Y-104121062D01*
X161752524Y-104252524D01*
X161719580Y-104292667D01*
X160722674Y-105289574D01*
X160682525Y-105322524D01*
X160551063Y-105482712D01*
X160498848Y-105580399D01*
X160453376Y-105665470D01*
X160393222Y-105863773D01*
X160372910Y-106070000D01*
X160378001Y-106121688D01*
X160378000Y-109634248D01*
X154986249Y-115026000D01*
X152578152Y-115026000D01*
X152455617Y-114925438D01*
X152444631Y-114919566D01*
X152638000Y-114919566D01*
X152721707Y-114911322D01*
X152802196Y-114886905D01*
X152876376Y-114847255D01*
X152941395Y-114793895D01*
X152994755Y-114728876D01*
X153034405Y-114654696D01*
X153058822Y-114574207D01*
X153067066Y-114490500D01*
X153067066Y-112585500D01*
X153058822Y-112501793D01*
X153034405Y-112421304D01*
X152994755Y-112347124D01*
X152941395Y-112282105D01*
X152876376Y-112228745D01*
X152802196Y-112189095D01*
X152721707Y-112164678D01*
X152638000Y-112156434D01*
X150638000Y-112156434D01*
X150554293Y-112164678D01*
X150473804Y-112189095D01*
X150399624Y-112228745D01*
X150334605Y-112282105D01*
X150281245Y-112347124D01*
X150241595Y-112421304D01*
X150217178Y-112501793D01*
X150208934Y-112585500D01*
X150208934Y-114490500D01*
X150217178Y-114574207D01*
X150241595Y-114654696D01*
X150281245Y-114728876D01*
X150334605Y-114793895D01*
X150399624Y-114847255D01*
X150473804Y-114886905D01*
X150554293Y-114911322D01*
X150638000Y-114919566D01*
X150831369Y-114919566D01*
X150820383Y-114925438D01*
X150610327Y-115097827D01*
X150437938Y-115307883D01*
X150309842Y-115547534D01*
X150230961Y-115807571D01*
X150204326Y-116078000D01*
X150230961Y-116348429D01*
X150309842Y-116608466D01*
X150437938Y-116848117D01*
X150610327Y-117058173D01*
X150820383Y-117230562D01*
X151040094Y-117348000D01*
X150820383Y-117465438D01*
X150697848Y-117566000D01*
X146963752Y-117566000D01*
X141502000Y-112104249D01*
X141502000Y-108870215D01*
X141552721Y-108920936D01*
X141811011Y-109093519D01*
X142098006Y-109212396D01*
X142402679Y-109273000D01*
X142713321Y-109273000D01*
X143017994Y-109212396D01*
X143304989Y-109093519D01*
X143563279Y-108920936D01*
X143782936Y-108701279D01*
X143955519Y-108442989D01*
X144074396Y-108155994D01*
X144135000Y-107851321D01*
X144135000Y-107606751D01*
X144201072Y-107540679D01*
X145181000Y-107540679D01*
X145181000Y-107851321D01*
X145241604Y-108155994D01*
X145360481Y-108442989D01*
X145533064Y-108701279D01*
X145752721Y-108920936D01*
X146011011Y-109093519D01*
X146298006Y-109212396D01*
X146602679Y-109273000D01*
X146913321Y-109273000D01*
X147217994Y-109212396D01*
X147504989Y-109093519D01*
X147763279Y-108920936D01*
X147982936Y-108701279D01*
X148155519Y-108442989D01*
X148274396Y-108155994D01*
X148335000Y-107851321D01*
X148335000Y-107540679D01*
X153581000Y-107540679D01*
X153581000Y-107851321D01*
X153641604Y-108155994D01*
X153760481Y-108442989D01*
X153933064Y-108701279D01*
X154152721Y-108920936D01*
X154411011Y-109093519D01*
X154698006Y-109212396D01*
X155002679Y-109273000D01*
X155313321Y-109273000D01*
X155617994Y-109212396D01*
X155904989Y-109093519D01*
X156163279Y-108920936D01*
X156382936Y-108701279D01*
X156555519Y-108442989D01*
X156674396Y-108155994D01*
X156735000Y-107851321D01*
X156735000Y-107540679D01*
X156674396Y-107236006D01*
X156555519Y-106949011D01*
X156382936Y-106690721D01*
X156163279Y-106471064D01*
X155904989Y-106298481D01*
X155617994Y-106179604D01*
X155313321Y-106119000D01*
X155002679Y-106119000D01*
X154698006Y-106179604D01*
X154411011Y-106298481D01*
X154152721Y-106471064D01*
X153933064Y-106690721D01*
X153760481Y-106949011D01*
X153641604Y-107236006D01*
X153581000Y-107540679D01*
X148335000Y-107540679D01*
X148274396Y-107236006D01*
X148155519Y-106949011D01*
X147982936Y-106690721D01*
X147763279Y-106471064D01*
X147504989Y-106298481D01*
X147217994Y-106179604D01*
X146913321Y-106119000D01*
X146602679Y-106119000D01*
X146298006Y-106179604D01*
X146011011Y-106298481D01*
X145752721Y-106471064D01*
X145533064Y-106690721D01*
X145360481Y-106949011D01*
X145241604Y-107236006D01*
X145181000Y-107540679D01*
X144201072Y-107540679D01*
X145377326Y-106364426D01*
X145417476Y-106331476D01*
X145548938Y-106171288D01*
X145646624Y-105988531D01*
X145706778Y-105790228D01*
X145710989Y-105747475D01*
X145727090Y-105584001D01*
X145722000Y-105532322D01*
X145722000Y-103390215D01*
X145752721Y-103420936D01*
X146011011Y-103593519D01*
X146298006Y-103712396D01*
X146602679Y-103773000D01*
X146913321Y-103773000D01*
X147217994Y-103712396D01*
X147504989Y-103593519D01*
X147763279Y-103420936D01*
X147982936Y-103201279D01*
X148155519Y-102942989D01*
X148274396Y-102655994D01*
X148335000Y-102351321D01*
X148335000Y-102040679D01*
X149381000Y-102040679D01*
X149381000Y-102351321D01*
X149441604Y-102655994D01*
X149560481Y-102942989D01*
X149733064Y-103201279D01*
X149952721Y-103420936D01*
X150211011Y-103593519D01*
X150498006Y-103712396D01*
X150802679Y-103773000D01*
X151113321Y-103773000D01*
X151417994Y-103712396D01*
X151704989Y-103593519D01*
X151963279Y-103420936D01*
X152182936Y-103201279D01*
X152355519Y-102942989D01*
X152474396Y-102655994D01*
X152535000Y-102351321D01*
X152535000Y-102040679D01*
X153581000Y-102040679D01*
X153581000Y-102351321D01*
X153641604Y-102655994D01*
X153760481Y-102942989D01*
X153933064Y-103201279D01*
X154152721Y-103420936D01*
X154411011Y-103593519D01*
X154698006Y-103712396D01*
X155002679Y-103773000D01*
X155313321Y-103773000D01*
X155617994Y-103712396D01*
X155904989Y-103593519D01*
X156163279Y-103420936D01*
X156382936Y-103201279D01*
X156555519Y-102942989D01*
X156674396Y-102655994D01*
X156735000Y-102351321D01*
X156735000Y-102040679D01*
X157781000Y-102040679D01*
X157781000Y-102351321D01*
X157841604Y-102655994D01*
X157960481Y-102942989D01*
X158133064Y-103201279D01*
X158352721Y-103420936D01*
X158611011Y-103593519D01*
X158898006Y-103712396D01*
X159202679Y-103773000D01*
X159513321Y-103773000D01*
X159817994Y-103712396D01*
X160104989Y-103593519D01*
X160363279Y-103420936D01*
X160582936Y-103201279D01*
X160755519Y-102942989D01*
X160874396Y-102655994D01*
X160935000Y-102351321D01*
X160935000Y-102040679D01*
X161981000Y-102040679D01*
X161981000Y-102351321D01*
X162041604Y-102655994D01*
X162160481Y-102942989D01*
X162333064Y-103201279D01*
X162552721Y-103420936D01*
X162811011Y-103593519D01*
X163098006Y-103712396D01*
X163402679Y-103773000D01*
X163713321Y-103773000D01*
X164017994Y-103712396D01*
X164304989Y-103593519D01*
X164563279Y-103420936D01*
X164782936Y-103201279D01*
X164955519Y-102942989D01*
X165074396Y-102655994D01*
X165135000Y-102351321D01*
X165135000Y-102040679D01*
X165074396Y-101736006D01*
X164955519Y-101449011D01*
X164782936Y-101190721D01*
X164563279Y-100971064D01*
X164304989Y-100798481D01*
X164017994Y-100679604D01*
X163713321Y-100619000D01*
X163402679Y-100619000D01*
X163098006Y-100679604D01*
X162811011Y-100798481D01*
X162552721Y-100971064D01*
X162333064Y-101190721D01*
X162160481Y-101449011D01*
X162041604Y-101736006D01*
X161981000Y-102040679D01*
X160935000Y-102040679D01*
X160874396Y-101736006D01*
X160755519Y-101449011D01*
X160582936Y-101190721D01*
X160363279Y-100971064D01*
X160104989Y-100798481D01*
X159817994Y-100679604D01*
X159513321Y-100619000D01*
X159202679Y-100619000D01*
X158898006Y-100679604D01*
X158611011Y-100798481D01*
X158352721Y-100971064D01*
X158133064Y-101190721D01*
X157960481Y-101449011D01*
X157841604Y-101736006D01*
X157781000Y-102040679D01*
X156735000Y-102040679D01*
X156674396Y-101736006D01*
X156555519Y-101449011D01*
X156382936Y-101190721D01*
X156163279Y-100971064D01*
X155904989Y-100798481D01*
X155617994Y-100679604D01*
X155313321Y-100619000D01*
X155002679Y-100619000D01*
X154698006Y-100679604D01*
X154411011Y-100798481D01*
X154152721Y-100971064D01*
X153933064Y-101190721D01*
X153760481Y-101449011D01*
X153641604Y-101736006D01*
X153581000Y-102040679D01*
X152535000Y-102040679D01*
X152474396Y-101736006D01*
X152355519Y-101449011D01*
X152182936Y-101190721D01*
X151963279Y-100971064D01*
X151704989Y-100798481D01*
X151417994Y-100679604D01*
X151113321Y-100619000D01*
X150802679Y-100619000D01*
X150498006Y-100679604D01*
X150211011Y-100798481D01*
X149952721Y-100971064D01*
X149733064Y-101190721D01*
X149560481Y-101449011D01*
X149441604Y-101736006D01*
X149381000Y-102040679D01*
X148335000Y-102040679D01*
X148274396Y-101736006D01*
X148155519Y-101449011D01*
X147982936Y-101190721D01*
X147763279Y-100971064D01*
X147504989Y-100798481D01*
X147217994Y-100679604D01*
X146913321Y-100619000D01*
X146602679Y-100619000D01*
X146298006Y-100679604D01*
X146011011Y-100798481D01*
X145752721Y-100971064D01*
X145722000Y-101001785D01*
X145722000Y-100265751D01*
X150207331Y-95780422D01*
X150247476Y-95747476D01*
X150378938Y-95587288D01*
X150476624Y-95404531D01*
X150536778Y-95206228D01*
X150537930Y-95194531D01*
X150557091Y-95000000D01*
X150552000Y-94948314D01*
X150552000Y-88191213D01*
X150649615Y-88150779D01*
X151047122Y-87885174D01*
X151385174Y-87547122D01*
X151650779Y-87149615D01*
X151833732Y-86707930D01*
X151927000Y-86239039D01*
X151927000Y-85760961D01*
X151833732Y-85292070D01*
X151650779Y-84850385D01*
X151385174Y-84452878D01*
X151047122Y-84114826D01*
X150649615Y-83849221D01*
X150207930Y-83666268D01*
X149739039Y-83573000D01*
X149260961Y-83573000D01*
X148792070Y-83666268D01*
X148350385Y-83849221D01*
X147952878Y-84114826D01*
X147614826Y-84452878D01*
X147349221Y-84850385D01*
X147166268Y-85292070D01*
X147073000Y-85760961D01*
X147073000Y-86239039D01*
X147166268Y-86707930D01*
X147349221Y-87149615D01*
X147614826Y-87547122D01*
X147952878Y-87885174D01*
X148350385Y-88150779D01*
X148448001Y-88191213D01*
X148448000Y-94564247D01*
X143962675Y-99049574D01*
X143922525Y-99082524D01*
X143791063Y-99242712D01*
X143738848Y-99340399D01*
X143693376Y-99425470D01*
X143633222Y-99623773D01*
X143612910Y-99830000D01*
X143618001Y-99881689D01*
X143618001Y-101025786D01*
X143563279Y-100971064D01*
X143304989Y-100798481D01*
X143017994Y-100679604D01*
X142713321Y-100619000D01*
X142402679Y-100619000D01*
X142098006Y-100679604D01*
X141811011Y-100798481D01*
X141552721Y-100971064D01*
X141502000Y-101021785D01*
X141502000Y-100275751D01*
X146207331Y-95570422D01*
X146247476Y-95537476D01*
X146378938Y-95377288D01*
X146476624Y-95194531D01*
X146536778Y-94996228D01*
X146552000Y-94841679D01*
X146557090Y-94790001D01*
X146552000Y-94738322D01*
X146552000Y-81191213D01*
X146649615Y-81150779D01*
X147047122Y-80885174D01*
X147385174Y-80547122D01*
X147650779Y-80149615D01*
X147833732Y-79707930D01*
X147927000Y-79239039D01*
X147927000Y-78760961D01*
X147833732Y-78292070D01*
X147650779Y-77850385D01*
X147385174Y-77452878D01*
X147047122Y-77114826D01*
X146649615Y-76849221D01*
X146207930Y-76666268D01*
X145739039Y-76573000D01*
X145260961Y-76573000D01*
X144792070Y-76666268D01*
X144350385Y-76849221D01*
X143952878Y-77114826D01*
X143614826Y-77452878D01*
X143349221Y-77850385D01*
X143166268Y-78292070D01*
X143073000Y-78760961D01*
X143073000Y-79239039D01*
X143166268Y-79707930D01*
X143349221Y-80149615D01*
X143614826Y-80547122D01*
X143952878Y-80885174D01*
X144350385Y-81150779D01*
X144448000Y-81191213D01*
X144448001Y-94354246D01*
X139742680Y-99059569D01*
X139702524Y-99092524D01*
X139571062Y-99252712D01*
X139487381Y-99409268D01*
X139473376Y-99435470D01*
X139413222Y-99633773D01*
X139392910Y-99840000D01*
X139398000Y-99891679D01*
X139398001Y-106505786D01*
X139363279Y-106471064D01*
X139104989Y-106298481D01*
X138817994Y-106179604D01*
X138513321Y-106119000D01*
X138202679Y-106119000D01*
X137898006Y-106179604D01*
X137611011Y-106298481D01*
X137352721Y-106471064D01*
X137133064Y-106690721D01*
X136960481Y-106949011D01*
X136841604Y-107236006D01*
X136781000Y-107540679D01*
X135735000Y-107540679D01*
X135674396Y-107236006D01*
X135555519Y-106949011D01*
X135382936Y-106690721D01*
X135163279Y-106471064D01*
X134904989Y-106298481D01*
X134617994Y-106179604D01*
X134313321Y-106119000D01*
X134002679Y-106119000D01*
X133698006Y-106179604D01*
X133411011Y-106298481D01*
X133152721Y-106471064D01*
X132933064Y-106690721D01*
X132760481Y-106949011D01*
X132641604Y-107236006D01*
X132581000Y-107540679D01*
X131535000Y-107540679D01*
X131474396Y-107236006D01*
X131355519Y-106949011D01*
X131182936Y-106690721D01*
X130963279Y-106471064D01*
X130704989Y-106298481D01*
X130417994Y-106179604D01*
X130113321Y-106119000D01*
X129802679Y-106119000D01*
X129498006Y-106179604D01*
X129211011Y-106298481D01*
X128952721Y-106471064D01*
X128733064Y-106690721D01*
X128560481Y-106949011D01*
X128441604Y-107236006D01*
X128381000Y-107540679D01*
X127335000Y-107540679D01*
X127274396Y-107236006D01*
X127155519Y-106949011D01*
X126982936Y-106690721D01*
X126763279Y-106471064D01*
X126504989Y-106298481D01*
X126217994Y-106179604D01*
X125913321Y-106119000D01*
X125602679Y-106119000D01*
X125298006Y-106179604D01*
X125011011Y-106298481D01*
X124752721Y-106471064D01*
X124533064Y-106690721D01*
X124360481Y-106949011D01*
X124241604Y-107236006D01*
X124181000Y-107540679D01*
X121952000Y-107540679D01*
X121952000Y-102040679D01*
X124181000Y-102040679D01*
X124181000Y-102351321D01*
X124241604Y-102655994D01*
X124360481Y-102942989D01*
X124533064Y-103201279D01*
X124752721Y-103420936D01*
X125011011Y-103593519D01*
X125298006Y-103712396D01*
X125602679Y-103773000D01*
X125913321Y-103773000D01*
X126217994Y-103712396D01*
X126504989Y-103593519D01*
X126763279Y-103420936D01*
X126982936Y-103201279D01*
X127155519Y-102942989D01*
X127274396Y-102655994D01*
X127335000Y-102351321D01*
X127335000Y-102040679D01*
X127274396Y-101736006D01*
X127155519Y-101449011D01*
X126982936Y-101190721D01*
X126763279Y-100971064D01*
X126504989Y-100798481D01*
X126217994Y-100679604D01*
X125913321Y-100619000D01*
X125602679Y-100619000D01*
X125298006Y-100679604D01*
X125011011Y-100798481D01*
X124752721Y-100971064D01*
X124533064Y-101190721D01*
X124360481Y-101449011D01*
X124241604Y-101736006D01*
X124181000Y-102040679D01*
X121952000Y-102040679D01*
X121952000Y-92760961D01*
X125573000Y-92760961D01*
X125573000Y-93239039D01*
X125666268Y-93707930D01*
X125849221Y-94149615D01*
X126114826Y-94547122D01*
X126452878Y-94885174D01*
X126850385Y-95150779D01*
X127292070Y-95333732D01*
X127760961Y-95427000D01*
X128239039Y-95427000D01*
X128707930Y-95333732D01*
X129149615Y-95150779D01*
X129547122Y-94885174D01*
X129885174Y-94547122D01*
X130150779Y-94149615D01*
X130333732Y-93707930D01*
X130427000Y-93239039D01*
X130427000Y-92760961D01*
X130333732Y-92292070D01*
X130150779Y-91850385D01*
X129885174Y-91452878D01*
X129547122Y-91114826D01*
X129149615Y-90849221D01*
X128707930Y-90666268D01*
X128239039Y-90573000D01*
X127760961Y-90573000D01*
X127292070Y-90666268D01*
X126850385Y-90849221D01*
X126452878Y-91114826D01*
X126114826Y-91452878D01*
X125849221Y-91850385D01*
X125666268Y-92292070D01*
X125573000Y-92760961D01*
X121952000Y-92760961D01*
X121952000Y-86760961D01*
X125573000Y-86760961D01*
X125573000Y-87239039D01*
X125666268Y-87707930D01*
X125849221Y-88149615D01*
X126114826Y-88547122D01*
X126452878Y-88885174D01*
X126850385Y-89150779D01*
X127292070Y-89333732D01*
X127760961Y-89427000D01*
X128239039Y-89427000D01*
X128707930Y-89333732D01*
X129149615Y-89150779D01*
X129547122Y-88885174D01*
X129885174Y-88547122D01*
X130150521Y-88150000D01*
X135720934Y-88150000D01*
X135720934Y-89850000D01*
X135729178Y-89933707D01*
X135753595Y-90014196D01*
X135793245Y-90088376D01*
X135846605Y-90153395D01*
X135911624Y-90206755D01*
X135985804Y-90246405D01*
X136066293Y-90270822D01*
X136150000Y-90279066D01*
X136793456Y-90279066D01*
X136627513Y-90312074D01*
X136395114Y-90408337D01*
X136185960Y-90548089D01*
X136008089Y-90725960D01*
X135868337Y-90935114D01*
X135772074Y-91167513D01*
X135723000Y-91414226D01*
X135723000Y-91665774D01*
X135772074Y-91912487D01*
X135868337Y-92144886D01*
X136008089Y-92354040D01*
X136185960Y-92531911D01*
X136395114Y-92671663D01*
X136627513Y-92767926D01*
X136874226Y-92817000D01*
X137125774Y-92817000D01*
X137372487Y-92767926D01*
X137604886Y-92671663D01*
X137814040Y-92531911D01*
X137991911Y-92354040D01*
X138131663Y-92144886D01*
X138227926Y-91912487D01*
X138277000Y-91665774D01*
X138277000Y-91414226D01*
X138227926Y-91167513D01*
X138131663Y-90935114D01*
X137991911Y-90725960D01*
X137814040Y-90548089D01*
X137604886Y-90408337D01*
X137372487Y-90312074D01*
X137206544Y-90279066D01*
X137850000Y-90279066D01*
X137933707Y-90270822D01*
X138014196Y-90246405D01*
X138088376Y-90206755D01*
X138153395Y-90153395D01*
X138206755Y-90088376D01*
X138246405Y-90014196D01*
X138270822Y-89933707D01*
X138279066Y-89850000D01*
X138279066Y-88150000D01*
X138270822Y-88066293D01*
X138246405Y-87985804D01*
X138206755Y-87911624D01*
X138153395Y-87846605D01*
X138088376Y-87793245D01*
X138014196Y-87753595D01*
X137933707Y-87729178D01*
X137850000Y-87720934D01*
X136150000Y-87720934D01*
X136066293Y-87729178D01*
X135985804Y-87753595D01*
X135911624Y-87793245D01*
X135846605Y-87846605D01*
X135793245Y-87911624D01*
X135753595Y-87985804D01*
X135729178Y-88066293D01*
X135720934Y-88150000D01*
X130150521Y-88150000D01*
X130150779Y-88149615D01*
X130333732Y-87707930D01*
X130427000Y-87239039D01*
X130427000Y-86760961D01*
X130333732Y-86292070D01*
X130150779Y-85850385D01*
X129885174Y-85452878D01*
X129547122Y-85114826D01*
X129149615Y-84849221D01*
X128707930Y-84666268D01*
X128239039Y-84573000D01*
X127760961Y-84573000D01*
X127292070Y-84666268D01*
X126850385Y-84849221D01*
X126452878Y-85114826D01*
X126114826Y-85452878D01*
X125849221Y-85850385D01*
X125666268Y-86292070D01*
X125573000Y-86760961D01*
X121952000Y-86760961D01*
X121952000Y-78662470D01*
X124573000Y-78662470D01*
X124573000Y-79337530D01*
X124704697Y-79999619D01*
X124963032Y-80623293D01*
X125338075Y-81184585D01*
X125815415Y-81661925D01*
X126376707Y-82036968D01*
X127000381Y-82295303D01*
X127662470Y-82427000D01*
X128337530Y-82427000D01*
X128999619Y-82295303D01*
X129623293Y-82036968D01*
X130184585Y-81661925D01*
X130661925Y-81184585D01*
X131036968Y-80623293D01*
X131295303Y-79999619D01*
X131427000Y-79337530D01*
X131427000Y-78662470D01*
X131295303Y-78000381D01*
X131036968Y-77376707D01*
X130661925Y-76815415D01*
X130184585Y-76338075D01*
X129623293Y-75963032D01*
X128999619Y-75704697D01*
X128337530Y-75573000D01*
X127662470Y-75573000D01*
X127000381Y-75704697D01*
X126376707Y-75963032D01*
X125815415Y-76338075D01*
X125338075Y-76815415D01*
X124963032Y-77376707D01*
X124704697Y-78000381D01*
X124573000Y-78662470D01*
X121952000Y-78662470D01*
X121952000Y-73952000D01*
X175548205Y-73952000D01*
X175569796Y-121548000D01*
%TA.AperFunction,Conductor*%
D22*
G36*
X175569796Y-121548000D02*
G01*
X124939594Y-121548000D01*
X125001218Y-121399227D01*
X125033000Y-121239452D01*
X125033000Y-121076548D01*
X125001218Y-120916773D01*
X124938877Y-120766269D01*
X124848372Y-120630819D01*
X124733181Y-120515628D01*
X124597731Y-120425123D01*
X124447227Y-120362782D01*
X124287452Y-120331000D01*
X124124548Y-120331000D01*
X123964773Y-120362782D01*
X123814269Y-120425123D01*
X123678819Y-120515628D01*
X123563628Y-120630819D01*
X123473123Y-120766269D01*
X123410782Y-120916773D01*
X123379000Y-121076548D01*
X123379000Y-121239452D01*
X123410782Y-121399227D01*
X123472406Y-121548000D01*
X121952000Y-121548000D01*
X121952000Y-120056570D01*
X122036269Y-120112877D01*
X122186773Y-120175218D01*
X122346548Y-120207000D01*
X122509452Y-120207000D01*
X122669227Y-120175218D01*
X122819731Y-120112877D01*
X122955181Y-120022372D01*
X123070372Y-119907181D01*
X123160877Y-119771731D01*
X123223218Y-119621227D01*
X123255000Y-119461452D01*
X123255000Y-119298548D01*
X125411000Y-119298548D01*
X125411000Y-119461452D01*
X125442782Y-119621227D01*
X125505123Y-119771731D01*
X125595628Y-119907181D01*
X125710819Y-120022372D01*
X125846269Y-120112877D01*
X125996773Y-120175218D01*
X126156548Y-120207000D01*
X126319452Y-120207000D01*
X126479227Y-120175218D01*
X126629731Y-120112877D01*
X126765181Y-120022372D01*
X126880372Y-119907181D01*
X126970877Y-119771731D01*
X127033218Y-119621227D01*
X127065000Y-119461452D01*
X127065000Y-119298548D01*
X127033218Y-119138773D01*
X126970877Y-118988269D01*
X126880372Y-118852819D01*
X126765181Y-118737628D01*
X126629731Y-118647123D01*
X126479227Y-118584782D01*
X126319452Y-118553000D01*
X126156548Y-118553000D01*
X125996773Y-118584782D01*
X125846269Y-118647123D01*
X125710819Y-118737628D01*
X125595628Y-118852819D01*
X125505123Y-118988269D01*
X125442782Y-119138773D01*
X125411000Y-119298548D01*
X123255000Y-119298548D01*
X123223218Y-119138773D01*
X123160877Y-118988269D01*
X123070372Y-118852819D01*
X122955181Y-118737628D01*
X122819731Y-118647123D01*
X122669227Y-118584782D01*
X122509452Y-118553000D01*
X122346548Y-118553000D01*
X122186773Y-118584782D01*
X122036269Y-118647123D01*
X121952000Y-118703430D01*
X121952000Y-117266548D01*
X123379000Y-117266548D01*
X123379000Y-117429452D01*
X123410782Y-117589227D01*
X123473123Y-117739731D01*
X123563628Y-117875181D01*
X123678819Y-117990372D01*
X123814269Y-118080877D01*
X123964773Y-118143218D01*
X124124548Y-118175000D01*
X124287452Y-118175000D01*
X124447227Y-118143218D01*
X124597731Y-118080877D01*
X124733181Y-117990372D01*
X124848372Y-117875181D01*
X124938877Y-117739731D01*
X125001218Y-117589227D01*
X125033000Y-117429452D01*
X125033000Y-117266548D01*
X125001218Y-117106773D01*
X124938877Y-116956269D01*
X124848372Y-116820819D01*
X124733181Y-116705628D01*
X124597731Y-116615123D01*
X124447227Y-116552782D01*
X124287452Y-116521000D01*
X124124548Y-116521000D01*
X123964773Y-116552782D01*
X123814269Y-116615123D01*
X123678819Y-116705628D01*
X123563628Y-116820819D01*
X123473123Y-116956269D01*
X123410782Y-117106773D01*
X123379000Y-117266548D01*
X121952000Y-117266548D01*
X121952000Y-115738570D01*
X122036269Y-115794877D01*
X122186773Y-115857218D01*
X122346548Y-115889000D01*
X122509452Y-115889000D01*
X122669227Y-115857218D01*
X122819731Y-115794877D01*
X122955181Y-115704372D01*
X123070372Y-115589181D01*
X123160877Y-115453731D01*
X123223218Y-115303227D01*
X123255000Y-115143452D01*
X123255000Y-114980548D01*
X125411000Y-114980548D01*
X125411000Y-115143452D01*
X125442782Y-115303227D01*
X125505123Y-115453731D01*
X125595628Y-115589181D01*
X125710819Y-115704372D01*
X125846269Y-115794877D01*
X125996773Y-115857218D01*
X126156548Y-115889000D01*
X126319452Y-115889000D01*
X126447223Y-115863584D01*
X132801000Y-115863584D01*
X132801000Y-116292416D01*
X132884660Y-116713008D01*
X133048767Y-117109196D01*
X133287013Y-117465757D01*
X133590243Y-117768987D01*
X133946804Y-118007233D01*
X134342992Y-118171340D01*
X134763584Y-118255000D01*
X135192416Y-118255000D01*
X135613008Y-118171340D01*
X136009196Y-118007233D01*
X136365757Y-117768987D01*
X136668987Y-117465757D01*
X136907233Y-117109196D01*
X137071340Y-116713008D01*
X137155000Y-116292416D01*
X137155000Y-115863584D01*
X137071340Y-115442992D01*
X136907233Y-115046804D01*
X136668987Y-114690243D01*
X136365757Y-114387013D01*
X136009196Y-114148767D01*
X135613008Y-113984660D01*
X135192416Y-113901000D01*
X134763584Y-113901000D01*
X134342992Y-113984660D01*
X133946804Y-114148767D01*
X133590243Y-114387013D01*
X133287013Y-114690243D01*
X133048767Y-115046804D01*
X132884660Y-115442992D01*
X132801000Y-115863584D01*
X126447223Y-115863584D01*
X126479227Y-115857218D01*
X126629731Y-115794877D01*
X126765181Y-115704372D01*
X126880372Y-115589181D01*
X126970877Y-115453731D01*
X127033218Y-115303227D01*
X127065000Y-115143452D01*
X127065000Y-114980548D01*
X127033218Y-114820773D01*
X126970877Y-114670269D01*
X126880372Y-114534819D01*
X126765181Y-114419628D01*
X126629731Y-114329123D01*
X126479227Y-114266782D01*
X126319452Y-114235000D01*
X126156548Y-114235000D01*
X125996773Y-114266782D01*
X125846269Y-114329123D01*
X125710819Y-114419628D01*
X125595628Y-114534819D01*
X125505123Y-114670269D01*
X125442782Y-114820773D01*
X125411000Y-114980548D01*
X123255000Y-114980548D01*
X123223218Y-114820773D01*
X123160877Y-114670269D01*
X123070372Y-114534819D01*
X122955181Y-114419628D01*
X122819731Y-114329123D01*
X122669227Y-114266782D01*
X122509452Y-114235000D01*
X122346548Y-114235000D01*
X122186773Y-114266782D01*
X122036269Y-114329123D01*
X121952000Y-114385430D01*
X121952000Y-112948548D01*
X123379000Y-112948548D01*
X123379000Y-113111452D01*
X123410782Y-113271227D01*
X123473123Y-113421731D01*
X123563628Y-113557181D01*
X123678819Y-113672372D01*
X123814269Y-113762877D01*
X123964773Y-113825218D01*
X124124548Y-113857000D01*
X124287452Y-113857000D01*
X124447227Y-113825218D01*
X124597731Y-113762877D01*
X124733181Y-113672372D01*
X124848372Y-113557181D01*
X124938877Y-113421731D01*
X125001218Y-113271227D01*
X125033000Y-113111452D01*
X125033000Y-112948548D01*
X125001218Y-112788773D01*
X124938877Y-112638269D01*
X124848372Y-112502819D01*
X124733181Y-112387628D01*
X124597731Y-112297123D01*
X124447227Y-112234782D01*
X124287452Y-112203000D01*
X124124548Y-112203000D01*
X123964773Y-112234782D01*
X123814269Y-112297123D01*
X123678819Y-112387628D01*
X123563628Y-112502819D01*
X123473123Y-112638269D01*
X123410782Y-112788773D01*
X123379000Y-112948548D01*
X121952000Y-112948548D01*
X121952000Y-107540679D01*
X124181000Y-107540679D01*
X124181000Y-107851321D01*
X124241604Y-108155994D01*
X124360481Y-108442989D01*
X124533064Y-108701279D01*
X124752721Y-108920936D01*
X125011011Y-109093519D01*
X125298006Y-109212396D01*
X125602679Y-109273000D01*
X125913321Y-109273000D01*
X126217994Y-109212396D01*
X126504989Y-109093519D01*
X126763279Y-108920936D01*
X126982936Y-108701279D01*
X127155519Y-108442989D01*
X127274396Y-108155994D01*
X127335000Y-107851321D01*
X127335000Y-107540679D01*
X128381000Y-107540679D01*
X128381000Y-107851321D01*
X128441604Y-108155994D01*
X128560481Y-108442989D01*
X128733064Y-108701279D01*
X128952721Y-108920936D01*
X129211011Y-109093519D01*
X129498006Y-109212396D01*
X129802679Y-109273000D01*
X130113321Y-109273000D01*
X130417994Y-109212396D01*
X130704989Y-109093519D01*
X130963279Y-108920936D01*
X131182936Y-108701279D01*
X131355519Y-108442989D01*
X131474396Y-108155994D01*
X131535000Y-107851321D01*
X131535000Y-107540679D01*
X132581000Y-107540679D01*
X132581000Y-107851321D01*
X132641604Y-108155994D01*
X132760481Y-108442989D01*
X132933064Y-108701279D01*
X133152721Y-108920936D01*
X133411011Y-109093519D01*
X133698006Y-109212396D01*
X134002679Y-109273000D01*
X134313321Y-109273000D01*
X134617994Y-109212396D01*
X134904989Y-109093519D01*
X135163279Y-108920936D01*
X135382936Y-108701279D01*
X135555519Y-108442989D01*
X135674396Y-108155994D01*
X135735000Y-107851321D01*
X135735000Y-107540679D01*
X136781000Y-107540679D01*
X136781000Y-107851321D01*
X136841604Y-108155994D01*
X136960481Y-108442989D01*
X137133064Y-108701279D01*
X137352721Y-108920936D01*
X137611011Y-109093519D01*
X137898006Y-109212396D01*
X138202679Y-109273000D01*
X138513321Y-109273000D01*
X138817994Y-109212396D01*
X139104989Y-109093519D01*
X139363279Y-108920936D01*
X139398001Y-108886214D01*
X139398001Y-112488311D01*
X139392910Y-112540000D01*
X139413222Y-112746227D01*
X139473376Y-112944530D01*
X139473377Y-112944531D01*
X139571063Y-113127288D01*
X139702525Y-113287476D01*
X139742675Y-113320426D01*
X145747574Y-119325326D01*
X145780524Y-119365476D01*
X145940712Y-119496938D01*
X146123469Y-119594624D01*
X146321772Y-119654778D01*
X146527999Y-119675090D01*
X146579678Y-119670000D01*
X150697848Y-119670000D01*
X150820383Y-119770562D01*
X151060034Y-119898658D01*
X151320071Y-119977539D01*
X151522738Y-119997500D01*
X151753262Y-119997500D01*
X151955929Y-119977539D01*
X152215966Y-119898658D01*
X152455617Y-119770562D01*
X152665673Y-119598173D01*
X152838062Y-119388117D01*
X152966158Y-119148466D01*
X153045039Y-118888429D01*
X153071674Y-118618000D01*
X153045039Y-118347571D01*
X153025315Y-118282548D01*
X172185000Y-118282548D01*
X172185000Y-118445452D01*
X172216782Y-118605227D01*
X172279123Y-118755731D01*
X172356812Y-118872000D01*
X172279123Y-118988269D01*
X172216782Y-119138773D01*
X172185000Y-119298548D01*
X172185000Y-119461452D01*
X172216782Y-119621227D01*
X172279123Y-119771731D01*
X172369628Y-119907181D01*
X172484819Y-120022372D01*
X172620269Y-120112877D01*
X172770773Y-120175218D01*
X172930548Y-120207000D01*
X173093452Y-120207000D01*
X173253227Y-120175218D01*
X173403731Y-120112877D01*
X173539181Y-120022372D01*
X173654372Y-119907181D01*
X173744877Y-119771731D01*
X173807218Y-119621227D01*
X173839000Y-119461452D01*
X173839000Y-119298548D01*
X173807218Y-119138773D01*
X173744877Y-118988269D01*
X173667188Y-118872000D01*
X173744877Y-118755731D01*
X173807218Y-118605227D01*
X173839000Y-118445452D01*
X173839000Y-118282548D01*
X173807218Y-118122773D01*
X173744877Y-117972269D01*
X173654372Y-117836819D01*
X173539181Y-117721628D01*
X173403731Y-117631123D01*
X173253227Y-117568782D01*
X173093452Y-117537000D01*
X172930548Y-117537000D01*
X172770773Y-117568782D01*
X172620269Y-117631123D01*
X172484819Y-117721628D01*
X172369628Y-117836819D01*
X172279123Y-117972269D01*
X172216782Y-118122773D01*
X172185000Y-118282548D01*
X153025315Y-118282548D01*
X152966158Y-118087534D01*
X152838062Y-117847883D01*
X152665673Y-117637827D01*
X152455617Y-117465438D01*
X152235906Y-117348000D01*
X152455617Y-117230562D01*
X152578152Y-117130000D01*
X155370321Y-117130000D01*
X155422000Y-117135090D01*
X155473679Y-117130000D01*
X155628228Y-117114778D01*
X155826531Y-117054624D01*
X156009288Y-116956938D01*
X156169476Y-116825476D01*
X156202431Y-116785320D01*
X162137326Y-110850426D01*
X162177476Y-110817476D01*
X162308938Y-110657288D01*
X162406624Y-110474531D01*
X162466778Y-110276228D01*
X162482000Y-110121679D01*
X162482000Y-110121678D01*
X162487090Y-110070001D01*
X162482000Y-110018322D01*
X162482000Y-108850215D01*
X162552721Y-108920936D01*
X162811011Y-109093519D01*
X163098006Y-109212396D01*
X163402679Y-109273000D01*
X163713321Y-109273000D01*
X164017994Y-109212396D01*
X164304989Y-109093519D01*
X164563279Y-108920936D01*
X164782936Y-108701279D01*
X164955519Y-108442989D01*
X165074396Y-108155994D01*
X165135000Y-107851321D01*
X165135000Y-107540679D01*
X165074396Y-107236006D01*
X164955519Y-106949011D01*
X164782936Y-106690721D01*
X164563279Y-106471064D01*
X164304989Y-106298481D01*
X164017994Y-106179604D01*
X163713321Y-106119000D01*
X163402679Y-106119000D01*
X163098006Y-106179604D01*
X162811011Y-106298481D01*
X162552721Y-106471064D01*
X162482000Y-106541785D01*
X162482000Y-106505752D01*
X162935752Y-106052000D01*
X166448321Y-106052000D01*
X166500000Y-106057090D01*
X166551679Y-106052000D01*
X166706228Y-106036778D01*
X166904531Y-105976624D01*
X167087288Y-105878938D01*
X167247476Y-105747476D01*
X167280430Y-105707321D01*
X168465331Y-104522422D01*
X168505476Y-104489476D01*
X168636938Y-104329288D01*
X168734624Y-104146531D01*
X168794778Y-103948228D01*
X168810000Y-103793679D01*
X168810000Y-103793678D01*
X168815090Y-103742000D01*
X168810000Y-103690321D01*
X168810000Y-103374215D01*
X168982936Y-103201279D01*
X169155519Y-102942989D01*
X169274396Y-102655994D01*
X169335000Y-102351321D01*
X169335000Y-102040679D01*
X169274396Y-101736006D01*
X169155519Y-101449011D01*
X168982936Y-101190721D01*
X168763279Y-100971064D01*
X168504989Y-100798481D01*
X168217994Y-100679604D01*
X167913321Y-100619000D01*
X167668753Y-100619000D01*
X160842431Y-93792680D01*
X160809476Y-93752524D01*
X160649288Y-93621062D01*
X160466531Y-93523376D01*
X160268228Y-93463222D01*
X160113679Y-93448000D01*
X160062000Y-93442910D01*
X160010321Y-93448000D01*
X154935753Y-93448000D01*
X154052000Y-92564249D01*
X154052000Y-88662470D01*
X157573000Y-88662470D01*
X157573000Y-89337530D01*
X157704697Y-89999619D01*
X157963032Y-90623293D01*
X158338075Y-91184585D01*
X158815415Y-91661925D01*
X159376707Y-92036968D01*
X160000381Y-92295303D01*
X160662470Y-92427000D01*
X161337530Y-92427000D01*
X161999619Y-92295303D01*
X162195913Y-92213995D01*
X170531001Y-100549083D01*
X170531000Y-101520184D01*
X170441604Y-101736006D01*
X170381000Y-102040679D01*
X170381000Y-102351321D01*
X170441604Y-102655994D01*
X170531001Y-102871818D01*
X170531000Y-106220943D01*
X170504605Y-106242605D01*
X170482943Y-106269000D01*
X168433815Y-106269000D01*
X168217994Y-106179604D01*
X167913321Y-106119000D01*
X167602679Y-106119000D01*
X167298006Y-106179604D01*
X167011011Y-106298481D01*
X166752721Y-106471064D01*
X166533064Y-106690721D01*
X166360481Y-106949011D01*
X166241604Y-107236006D01*
X166181000Y-107540679D01*
X166181000Y-107851321D01*
X166241604Y-108155994D01*
X166360481Y-108442989D01*
X166533064Y-108701279D01*
X166752721Y-108920936D01*
X167011011Y-109093519D01*
X167298006Y-109212396D01*
X167602679Y-109273000D01*
X167913321Y-109273000D01*
X168217994Y-109212396D01*
X168433815Y-109123000D01*
X170482943Y-109123000D01*
X170504605Y-109149395D01*
X170569624Y-109202755D01*
X170643804Y-109242405D01*
X170724293Y-109266822D01*
X170808000Y-109275066D01*
X173108000Y-109275066D01*
X173191707Y-109266822D01*
X173272196Y-109242405D01*
X173346376Y-109202755D01*
X173411395Y-109149395D01*
X173464755Y-109084376D01*
X173504405Y-109010196D01*
X173528822Y-108929707D01*
X173537066Y-108846000D01*
X173537066Y-106546000D01*
X173528822Y-106462293D01*
X173504405Y-106381804D01*
X173464755Y-106307624D01*
X173411395Y-106242605D01*
X173385000Y-106220943D01*
X173385000Y-102871815D01*
X173474396Y-102655994D01*
X173535000Y-102351321D01*
X173535000Y-102040679D01*
X173474396Y-101736006D01*
X173385000Y-101520185D01*
X173385000Y-100028087D01*
X173391903Y-99957999D01*
X173385000Y-99887911D01*
X173385000Y-99887902D01*
X173364352Y-99678259D01*
X173282755Y-99409269D01*
X173150248Y-99161366D01*
X172971923Y-98944077D01*
X172917472Y-98899390D01*
X164213995Y-90195913D01*
X164295303Y-89999619D01*
X164427000Y-89337530D01*
X164427000Y-88662470D01*
X167073000Y-88662470D01*
X167073000Y-89337530D01*
X167204697Y-89999619D01*
X167463032Y-90623293D01*
X167838075Y-91184585D01*
X168315415Y-91661925D01*
X168876707Y-92036968D01*
X169500381Y-92295303D01*
X170162470Y-92427000D01*
X170837530Y-92427000D01*
X171499619Y-92295303D01*
X172123293Y-92036968D01*
X172684585Y-91661925D01*
X173161925Y-91184585D01*
X173536968Y-90623293D01*
X173795303Y-89999619D01*
X173927000Y-89337530D01*
X173927000Y-88662470D01*
X173795303Y-88000381D01*
X173536968Y-87376707D01*
X173161925Y-86815415D01*
X172684585Y-86338075D01*
X172123293Y-85963032D01*
X171499619Y-85704697D01*
X170837530Y-85573000D01*
X170162470Y-85573000D01*
X169500381Y-85704697D01*
X168876707Y-85963032D01*
X168315415Y-86338075D01*
X167838075Y-86815415D01*
X167463032Y-87376707D01*
X167204697Y-88000381D01*
X167073000Y-88662470D01*
X164427000Y-88662470D01*
X164295303Y-88000381D01*
X164036968Y-87376707D01*
X163661925Y-86815415D01*
X163184585Y-86338075D01*
X162623293Y-85963032D01*
X161999619Y-85704697D01*
X161337530Y-85573000D01*
X160662470Y-85573000D01*
X160000381Y-85704697D01*
X159376707Y-85963032D01*
X158815415Y-86338075D01*
X158338075Y-86815415D01*
X157963032Y-87376707D01*
X157704697Y-88000381D01*
X157573000Y-88662470D01*
X154052000Y-88662470D01*
X154052000Y-82868000D01*
X161789813Y-82868000D01*
X161798540Y-82956607D01*
X161824386Y-83041810D01*
X161866357Y-83120333D01*
X161922841Y-83189159D01*
X161991667Y-83245643D01*
X162070190Y-83287614D01*
X162155393Y-83313460D01*
X162221795Y-83320000D01*
X162266205Y-83320000D01*
X162332607Y-83313460D01*
X162417810Y-83287614D01*
X162496333Y-83245643D01*
X162565159Y-83189159D01*
X162621643Y-83120333D01*
X162663614Y-83041810D01*
X162689460Y-82956607D01*
X162698187Y-82868000D01*
X162689460Y-82779393D01*
X162663614Y-82694190D01*
X162621643Y-82615667D01*
X162565159Y-82546841D01*
X162496333Y-82490357D01*
X162417810Y-82448386D01*
X162332607Y-82422540D01*
X162266205Y-82416000D01*
X162221795Y-82416000D01*
X162155393Y-82422540D01*
X162070190Y-82448386D01*
X161991667Y-82490357D01*
X161922841Y-82546841D01*
X161866357Y-82615667D01*
X161824386Y-82694190D01*
X161798540Y-82779393D01*
X161789813Y-82868000D01*
X154052000Y-82868000D01*
X154052000Y-81191213D01*
X154149615Y-81150779D01*
X154547122Y-80885174D01*
X154885174Y-80547122D01*
X155150779Y-80149615D01*
X155333732Y-79707930D01*
X155427000Y-79239039D01*
X155427000Y-78760961D01*
X155387518Y-78562470D01*
X157573000Y-78562470D01*
X157573000Y-79237530D01*
X157704697Y-79899619D01*
X157963032Y-80523293D01*
X158338075Y-81084585D01*
X158815415Y-81561925D01*
X159376707Y-81936968D01*
X160000381Y-82195303D01*
X160662470Y-82327000D01*
X161337530Y-82327000D01*
X161999619Y-82195303D01*
X162623293Y-81936968D01*
X163184585Y-81561925D01*
X163661925Y-81084585D01*
X164036968Y-80523293D01*
X164295303Y-79899619D01*
X164427000Y-79237530D01*
X164427000Y-78562470D01*
X164407109Y-78462470D01*
X166873000Y-78462470D01*
X166873000Y-79137530D01*
X167004697Y-79799619D01*
X167263032Y-80423293D01*
X167638075Y-80984585D01*
X168115415Y-81461925D01*
X168676707Y-81836968D01*
X169300381Y-82095303D01*
X169962470Y-82227000D01*
X170637530Y-82227000D01*
X171299619Y-82095303D01*
X171923293Y-81836968D01*
X172484585Y-81461925D01*
X172961925Y-80984585D01*
X173336968Y-80423293D01*
X173595303Y-79799619D01*
X173727000Y-79137530D01*
X173727000Y-78462470D01*
X173595303Y-77800381D01*
X173336968Y-77176707D01*
X172961925Y-76615415D01*
X172484585Y-76138075D01*
X171923293Y-75763032D01*
X171299619Y-75504697D01*
X170637530Y-75373000D01*
X169962470Y-75373000D01*
X169300381Y-75504697D01*
X168676707Y-75763032D01*
X168115415Y-76138075D01*
X167638075Y-76615415D01*
X167263032Y-77176707D01*
X167004697Y-77800381D01*
X166873000Y-78462470D01*
X164407109Y-78462470D01*
X164295303Y-77900381D01*
X164036968Y-77276707D01*
X163661925Y-76715415D01*
X163184585Y-76238075D01*
X162623293Y-75863032D01*
X161999619Y-75604697D01*
X161337530Y-75473000D01*
X160662470Y-75473000D01*
X160000381Y-75604697D01*
X159376707Y-75863032D01*
X158815415Y-76238075D01*
X158338075Y-76715415D01*
X157963032Y-77276707D01*
X157704697Y-77900381D01*
X157573000Y-78562470D01*
X155387518Y-78562470D01*
X155333732Y-78292070D01*
X155150779Y-77850385D01*
X154885174Y-77452878D01*
X154547122Y-77114826D01*
X154149615Y-76849221D01*
X153707930Y-76666268D01*
X153239039Y-76573000D01*
X152760961Y-76573000D01*
X152292070Y-76666268D01*
X151850385Y-76849221D01*
X151452878Y-77114826D01*
X151114826Y-77452878D01*
X150849221Y-77850385D01*
X150666268Y-78292070D01*
X150573000Y-78760961D01*
X150573000Y-79239039D01*
X150666268Y-79707930D01*
X150849221Y-80149615D01*
X151114826Y-80547122D01*
X151452878Y-80885174D01*
X151850385Y-81150779D01*
X151948000Y-81191213D01*
X151948001Y-92948311D01*
X151942910Y-93000000D01*
X151963222Y-93206227D01*
X152023376Y-93404530D01*
X152023377Y-93404531D01*
X152121063Y-93587288D01*
X152252525Y-93747476D01*
X152292675Y-93780426D01*
X153719578Y-95207331D01*
X153752524Y-95247476D01*
X153912712Y-95378938D01*
X154095469Y-95476624D01*
X154293772Y-95536778D01*
X154499999Y-95557090D01*
X154551678Y-95552000D01*
X159626249Y-95552000D01*
X166181000Y-102106753D01*
X166181000Y-102351321D01*
X166241604Y-102655994D01*
X166360481Y-102942989D01*
X166533064Y-103201279D01*
X166672016Y-103340231D01*
X166064248Y-103948000D01*
X162551686Y-103948000D01*
X162500000Y-103942909D01*
X162293772Y-103963222D01*
X162095469Y-104023376D01*
X161912712Y-104121062D01*
X161752524Y-104252524D01*
X161719580Y-104292667D01*
X160722674Y-105289574D01*
X160682525Y-105322524D01*
X160551063Y-105482712D01*
X160498848Y-105580399D01*
X160453376Y-105665470D01*
X160393222Y-105863773D01*
X160372910Y-106070000D01*
X160378001Y-106121688D01*
X160378000Y-109634248D01*
X154986249Y-115026000D01*
X152578152Y-115026000D01*
X152455617Y-114925438D01*
X152444631Y-114919566D01*
X152638000Y-114919566D01*
X152721707Y-114911322D01*
X152802196Y-114886905D01*
X152876376Y-114847255D01*
X152941395Y-114793895D01*
X152994755Y-114728876D01*
X153034405Y-114654696D01*
X153058822Y-114574207D01*
X153067066Y-114490500D01*
X153067066Y-112585500D01*
X153058822Y-112501793D01*
X153034405Y-112421304D01*
X152994755Y-112347124D01*
X152941395Y-112282105D01*
X152876376Y-112228745D01*
X152802196Y-112189095D01*
X152721707Y-112164678D01*
X152638000Y-112156434D01*
X150638000Y-112156434D01*
X150554293Y-112164678D01*
X150473804Y-112189095D01*
X150399624Y-112228745D01*
X150334605Y-112282105D01*
X150281245Y-112347124D01*
X150241595Y-112421304D01*
X150217178Y-112501793D01*
X150208934Y-112585500D01*
X150208934Y-114490500D01*
X150217178Y-114574207D01*
X150241595Y-114654696D01*
X150281245Y-114728876D01*
X150334605Y-114793895D01*
X150399624Y-114847255D01*
X150473804Y-114886905D01*
X150554293Y-114911322D01*
X150638000Y-114919566D01*
X150831369Y-114919566D01*
X150820383Y-114925438D01*
X150610327Y-115097827D01*
X150437938Y-115307883D01*
X150309842Y-115547534D01*
X150230961Y-115807571D01*
X150204326Y-116078000D01*
X150230961Y-116348429D01*
X150309842Y-116608466D01*
X150437938Y-116848117D01*
X150610327Y-117058173D01*
X150820383Y-117230562D01*
X151040094Y-117348000D01*
X150820383Y-117465438D01*
X150697848Y-117566000D01*
X146963752Y-117566000D01*
X141502000Y-112104249D01*
X141502000Y-108870215D01*
X141552721Y-108920936D01*
X141811011Y-109093519D01*
X142098006Y-109212396D01*
X142402679Y-109273000D01*
X142713321Y-109273000D01*
X143017994Y-109212396D01*
X143304989Y-109093519D01*
X143563279Y-108920936D01*
X143782936Y-108701279D01*
X143955519Y-108442989D01*
X144074396Y-108155994D01*
X144135000Y-107851321D01*
X144135000Y-107606751D01*
X144201072Y-107540679D01*
X145181000Y-107540679D01*
X145181000Y-107851321D01*
X145241604Y-108155994D01*
X145360481Y-108442989D01*
X145533064Y-108701279D01*
X145752721Y-108920936D01*
X146011011Y-109093519D01*
X146298006Y-109212396D01*
X146602679Y-109273000D01*
X146913321Y-109273000D01*
X147217994Y-109212396D01*
X147504989Y-109093519D01*
X147763279Y-108920936D01*
X147982936Y-108701279D01*
X148155519Y-108442989D01*
X148274396Y-108155994D01*
X148335000Y-107851321D01*
X148335000Y-107540679D01*
X153581000Y-107540679D01*
X153581000Y-107851321D01*
X153641604Y-108155994D01*
X153760481Y-108442989D01*
X153933064Y-108701279D01*
X154152721Y-108920936D01*
X154411011Y-109093519D01*
X154698006Y-109212396D01*
X155002679Y-109273000D01*
X155313321Y-109273000D01*
X155617994Y-109212396D01*
X155904989Y-109093519D01*
X156163279Y-108920936D01*
X156382936Y-108701279D01*
X156555519Y-108442989D01*
X156674396Y-108155994D01*
X156735000Y-107851321D01*
X156735000Y-107540679D01*
X156674396Y-107236006D01*
X156555519Y-106949011D01*
X156382936Y-106690721D01*
X156163279Y-106471064D01*
X155904989Y-106298481D01*
X155617994Y-106179604D01*
X155313321Y-106119000D01*
X155002679Y-106119000D01*
X154698006Y-106179604D01*
X154411011Y-106298481D01*
X154152721Y-106471064D01*
X153933064Y-106690721D01*
X153760481Y-106949011D01*
X153641604Y-107236006D01*
X153581000Y-107540679D01*
X148335000Y-107540679D01*
X148274396Y-107236006D01*
X148155519Y-106949011D01*
X147982936Y-106690721D01*
X147763279Y-106471064D01*
X147504989Y-106298481D01*
X147217994Y-106179604D01*
X146913321Y-106119000D01*
X146602679Y-106119000D01*
X146298006Y-106179604D01*
X146011011Y-106298481D01*
X145752721Y-106471064D01*
X145533064Y-106690721D01*
X145360481Y-106949011D01*
X145241604Y-107236006D01*
X145181000Y-107540679D01*
X144201072Y-107540679D01*
X145377326Y-106364426D01*
X145417476Y-106331476D01*
X145548938Y-106171288D01*
X145646624Y-105988531D01*
X145706778Y-105790228D01*
X145710989Y-105747475D01*
X145727090Y-105584001D01*
X145722000Y-105532322D01*
X145722000Y-103390215D01*
X145752721Y-103420936D01*
X146011011Y-103593519D01*
X146298006Y-103712396D01*
X146602679Y-103773000D01*
X146913321Y-103773000D01*
X147217994Y-103712396D01*
X147504989Y-103593519D01*
X147763279Y-103420936D01*
X147982936Y-103201279D01*
X148155519Y-102942989D01*
X148274396Y-102655994D01*
X148335000Y-102351321D01*
X148335000Y-102040679D01*
X149381000Y-102040679D01*
X149381000Y-102351321D01*
X149441604Y-102655994D01*
X149560481Y-102942989D01*
X149733064Y-103201279D01*
X149952721Y-103420936D01*
X150211011Y-103593519D01*
X150498006Y-103712396D01*
X150802679Y-103773000D01*
X151113321Y-103773000D01*
X151417994Y-103712396D01*
X151704989Y-103593519D01*
X151963279Y-103420936D01*
X152182936Y-103201279D01*
X152355519Y-102942989D01*
X152474396Y-102655994D01*
X152535000Y-102351321D01*
X152535000Y-102040679D01*
X153581000Y-102040679D01*
X153581000Y-102351321D01*
X153641604Y-102655994D01*
X153760481Y-102942989D01*
X153933064Y-103201279D01*
X154152721Y-103420936D01*
X154411011Y-103593519D01*
X154698006Y-103712396D01*
X155002679Y-103773000D01*
X155313321Y-103773000D01*
X155617994Y-103712396D01*
X155904989Y-103593519D01*
X156163279Y-103420936D01*
X156382936Y-103201279D01*
X156555519Y-102942989D01*
X156674396Y-102655994D01*
X156735000Y-102351321D01*
X156735000Y-102040679D01*
X157781000Y-102040679D01*
X157781000Y-102351321D01*
X157841604Y-102655994D01*
X157960481Y-102942989D01*
X158133064Y-103201279D01*
X158352721Y-103420936D01*
X158611011Y-103593519D01*
X158898006Y-103712396D01*
X159202679Y-103773000D01*
X159513321Y-103773000D01*
X159817994Y-103712396D01*
X160104989Y-103593519D01*
X160363279Y-103420936D01*
X160582936Y-103201279D01*
X160755519Y-102942989D01*
X160874396Y-102655994D01*
X160935000Y-102351321D01*
X160935000Y-102040679D01*
X161981000Y-102040679D01*
X161981000Y-102351321D01*
X162041604Y-102655994D01*
X162160481Y-102942989D01*
X162333064Y-103201279D01*
X162552721Y-103420936D01*
X162811011Y-103593519D01*
X163098006Y-103712396D01*
X163402679Y-103773000D01*
X163713321Y-103773000D01*
X164017994Y-103712396D01*
X164304989Y-103593519D01*
X164563279Y-103420936D01*
X164782936Y-103201279D01*
X164955519Y-102942989D01*
X165074396Y-102655994D01*
X165135000Y-102351321D01*
X165135000Y-102040679D01*
X165074396Y-101736006D01*
X164955519Y-101449011D01*
X164782936Y-101190721D01*
X164563279Y-100971064D01*
X164304989Y-100798481D01*
X164017994Y-100679604D01*
X163713321Y-100619000D01*
X163402679Y-100619000D01*
X163098006Y-100679604D01*
X162811011Y-100798481D01*
X162552721Y-100971064D01*
X162333064Y-101190721D01*
X162160481Y-101449011D01*
X162041604Y-101736006D01*
X161981000Y-102040679D01*
X160935000Y-102040679D01*
X160874396Y-101736006D01*
X160755519Y-101449011D01*
X160582936Y-101190721D01*
X160363279Y-100971064D01*
X160104989Y-100798481D01*
X159817994Y-100679604D01*
X159513321Y-100619000D01*
X159202679Y-100619000D01*
X158898006Y-100679604D01*
X158611011Y-100798481D01*
X158352721Y-100971064D01*
X158133064Y-101190721D01*
X157960481Y-101449011D01*
X157841604Y-101736006D01*
X157781000Y-102040679D01*
X156735000Y-102040679D01*
X156674396Y-101736006D01*
X156555519Y-101449011D01*
X156382936Y-101190721D01*
X156163279Y-100971064D01*
X155904989Y-100798481D01*
X155617994Y-100679604D01*
X155313321Y-100619000D01*
X155002679Y-100619000D01*
X154698006Y-100679604D01*
X154411011Y-100798481D01*
X154152721Y-100971064D01*
X153933064Y-101190721D01*
X153760481Y-101449011D01*
X153641604Y-101736006D01*
X153581000Y-102040679D01*
X152535000Y-102040679D01*
X152474396Y-101736006D01*
X152355519Y-101449011D01*
X152182936Y-101190721D01*
X151963279Y-100971064D01*
X151704989Y-100798481D01*
X151417994Y-100679604D01*
X151113321Y-100619000D01*
X150802679Y-100619000D01*
X150498006Y-100679604D01*
X150211011Y-100798481D01*
X149952721Y-100971064D01*
X149733064Y-101190721D01*
X149560481Y-101449011D01*
X149441604Y-101736006D01*
X149381000Y-102040679D01*
X148335000Y-102040679D01*
X148274396Y-101736006D01*
X148155519Y-101449011D01*
X147982936Y-101190721D01*
X147763279Y-100971064D01*
X147504989Y-100798481D01*
X147217994Y-100679604D01*
X146913321Y-100619000D01*
X146602679Y-100619000D01*
X146298006Y-100679604D01*
X146011011Y-100798481D01*
X145752721Y-100971064D01*
X145722000Y-101001785D01*
X145722000Y-100265751D01*
X150207331Y-95780422D01*
X150247476Y-95747476D01*
X150378938Y-95587288D01*
X150476624Y-95404531D01*
X150536778Y-95206228D01*
X150537930Y-95194531D01*
X150557091Y-95000000D01*
X150552000Y-94948314D01*
X150552000Y-88191213D01*
X150649615Y-88150779D01*
X151047122Y-87885174D01*
X151385174Y-87547122D01*
X151650779Y-87149615D01*
X151833732Y-86707930D01*
X151927000Y-86239039D01*
X151927000Y-85760961D01*
X151833732Y-85292070D01*
X151650779Y-84850385D01*
X151385174Y-84452878D01*
X151047122Y-84114826D01*
X150649615Y-83849221D01*
X150207930Y-83666268D01*
X149739039Y-83573000D01*
X149260961Y-83573000D01*
X148792070Y-83666268D01*
X148350385Y-83849221D01*
X147952878Y-84114826D01*
X147614826Y-84452878D01*
X147349221Y-84850385D01*
X147166268Y-85292070D01*
X147073000Y-85760961D01*
X147073000Y-86239039D01*
X147166268Y-86707930D01*
X147349221Y-87149615D01*
X147614826Y-87547122D01*
X147952878Y-87885174D01*
X148350385Y-88150779D01*
X148448001Y-88191213D01*
X148448000Y-94564247D01*
X143962675Y-99049574D01*
X143922525Y-99082524D01*
X143791063Y-99242712D01*
X143738848Y-99340399D01*
X143693376Y-99425470D01*
X143633222Y-99623773D01*
X143612910Y-99830000D01*
X143618001Y-99881689D01*
X143618001Y-101025786D01*
X143563279Y-100971064D01*
X143304989Y-100798481D01*
X143017994Y-100679604D01*
X142713321Y-100619000D01*
X142402679Y-100619000D01*
X142098006Y-100679604D01*
X141811011Y-100798481D01*
X141552721Y-100971064D01*
X141502000Y-101021785D01*
X141502000Y-100275751D01*
X146207331Y-95570422D01*
X146247476Y-95537476D01*
X146378938Y-95377288D01*
X146476624Y-95194531D01*
X146536778Y-94996228D01*
X146552000Y-94841679D01*
X146557090Y-94790001D01*
X146552000Y-94738322D01*
X146552000Y-81191213D01*
X146649615Y-81150779D01*
X147047122Y-80885174D01*
X147385174Y-80547122D01*
X147650779Y-80149615D01*
X147833732Y-79707930D01*
X147927000Y-79239039D01*
X147927000Y-78760961D01*
X147833732Y-78292070D01*
X147650779Y-77850385D01*
X147385174Y-77452878D01*
X147047122Y-77114826D01*
X146649615Y-76849221D01*
X146207930Y-76666268D01*
X145739039Y-76573000D01*
X145260961Y-76573000D01*
X144792070Y-76666268D01*
X144350385Y-76849221D01*
X143952878Y-77114826D01*
X143614826Y-77452878D01*
X143349221Y-77850385D01*
X143166268Y-78292070D01*
X143073000Y-78760961D01*
X143073000Y-79239039D01*
X143166268Y-79707930D01*
X143349221Y-80149615D01*
X143614826Y-80547122D01*
X143952878Y-80885174D01*
X144350385Y-81150779D01*
X144448000Y-81191213D01*
X144448001Y-94354246D01*
X139742680Y-99059569D01*
X139702524Y-99092524D01*
X139571062Y-99252712D01*
X139487381Y-99409268D01*
X139473376Y-99435470D01*
X139413222Y-99633773D01*
X139392910Y-99840000D01*
X139398000Y-99891679D01*
X139398001Y-106505786D01*
X139363279Y-106471064D01*
X139104989Y-106298481D01*
X138817994Y-106179604D01*
X138513321Y-106119000D01*
X138202679Y-106119000D01*
X137898006Y-106179604D01*
X137611011Y-106298481D01*
X137352721Y-106471064D01*
X137133064Y-106690721D01*
X136960481Y-106949011D01*
X136841604Y-107236006D01*
X136781000Y-107540679D01*
X135735000Y-107540679D01*
X135674396Y-107236006D01*
X135555519Y-106949011D01*
X135382936Y-106690721D01*
X135163279Y-106471064D01*
X134904989Y-106298481D01*
X134617994Y-106179604D01*
X134313321Y-106119000D01*
X134002679Y-106119000D01*
X133698006Y-106179604D01*
X133411011Y-106298481D01*
X133152721Y-106471064D01*
X132933064Y-106690721D01*
X132760481Y-106949011D01*
X132641604Y-107236006D01*
X132581000Y-107540679D01*
X131535000Y-107540679D01*
X131474396Y-107236006D01*
X131355519Y-106949011D01*
X131182936Y-106690721D01*
X130963279Y-106471064D01*
X130704989Y-106298481D01*
X130417994Y-106179604D01*
X130113321Y-106119000D01*
X129802679Y-106119000D01*
X129498006Y-106179604D01*
X129211011Y-106298481D01*
X128952721Y-106471064D01*
X128733064Y-106690721D01*
X128560481Y-106949011D01*
X128441604Y-107236006D01*
X128381000Y-107540679D01*
X127335000Y-107540679D01*
X127274396Y-107236006D01*
X127155519Y-106949011D01*
X126982936Y-106690721D01*
X126763279Y-106471064D01*
X126504989Y-106298481D01*
X126217994Y-106179604D01*
X125913321Y-106119000D01*
X125602679Y-106119000D01*
X125298006Y-106179604D01*
X125011011Y-106298481D01*
X124752721Y-106471064D01*
X124533064Y-106690721D01*
X124360481Y-106949011D01*
X124241604Y-107236006D01*
X124181000Y-107540679D01*
X121952000Y-107540679D01*
X121952000Y-102040679D01*
X124181000Y-102040679D01*
X124181000Y-102351321D01*
X124241604Y-102655994D01*
X124360481Y-102942989D01*
X124533064Y-103201279D01*
X124752721Y-103420936D01*
X125011011Y-103593519D01*
X125298006Y-103712396D01*
X125602679Y-103773000D01*
X125913321Y-103773000D01*
X126217994Y-103712396D01*
X126504989Y-103593519D01*
X126763279Y-103420936D01*
X126982936Y-103201279D01*
X127155519Y-102942989D01*
X127274396Y-102655994D01*
X127335000Y-102351321D01*
X127335000Y-102040679D01*
X127274396Y-101736006D01*
X127155519Y-101449011D01*
X126982936Y-101190721D01*
X126763279Y-100971064D01*
X126504989Y-100798481D01*
X126217994Y-100679604D01*
X125913321Y-100619000D01*
X125602679Y-100619000D01*
X125298006Y-100679604D01*
X125011011Y-100798481D01*
X124752721Y-100971064D01*
X124533064Y-101190721D01*
X124360481Y-101449011D01*
X124241604Y-101736006D01*
X124181000Y-102040679D01*
X121952000Y-102040679D01*
X121952000Y-92760961D01*
X125573000Y-92760961D01*
X125573000Y-93239039D01*
X125666268Y-93707930D01*
X125849221Y-94149615D01*
X126114826Y-94547122D01*
X126452878Y-94885174D01*
X126850385Y-95150779D01*
X127292070Y-95333732D01*
X127760961Y-95427000D01*
X128239039Y-95427000D01*
X128707930Y-95333732D01*
X129149615Y-95150779D01*
X129547122Y-94885174D01*
X129885174Y-94547122D01*
X130150779Y-94149615D01*
X130333732Y-93707930D01*
X130427000Y-93239039D01*
X130427000Y-92760961D01*
X130333732Y-92292070D01*
X130150779Y-91850385D01*
X129885174Y-91452878D01*
X129547122Y-91114826D01*
X129149615Y-90849221D01*
X128707930Y-90666268D01*
X128239039Y-90573000D01*
X127760961Y-90573000D01*
X127292070Y-90666268D01*
X126850385Y-90849221D01*
X126452878Y-91114826D01*
X126114826Y-91452878D01*
X125849221Y-91850385D01*
X125666268Y-92292070D01*
X125573000Y-92760961D01*
X121952000Y-92760961D01*
X121952000Y-86760961D01*
X125573000Y-86760961D01*
X125573000Y-87239039D01*
X125666268Y-87707930D01*
X125849221Y-88149615D01*
X126114826Y-88547122D01*
X126452878Y-88885174D01*
X126850385Y-89150779D01*
X127292070Y-89333732D01*
X127760961Y-89427000D01*
X128239039Y-89427000D01*
X128707930Y-89333732D01*
X129149615Y-89150779D01*
X129547122Y-88885174D01*
X129885174Y-88547122D01*
X130150521Y-88150000D01*
X135720934Y-88150000D01*
X135720934Y-89850000D01*
X135729178Y-89933707D01*
X135753595Y-90014196D01*
X135793245Y-90088376D01*
X135846605Y-90153395D01*
X135911624Y-90206755D01*
X135985804Y-90246405D01*
X136066293Y-90270822D01*
X136150000Y-90279066D01*
X136793456Y-90279066D01*
X136627513Y-90312074D01*
X136395114Y-90408337D01*
X136185960Y-90548089D01*
X136008089Y-90725960D01*
X135868337Y-90935114D01*
X135772074Y-91167513D01*
X135723000Y-91414226D01*
X135723000Y-91665774D01*
X135772074Y-91912487D01*
X135868337Y-92144886D01*
X136008089Y-92354040D01*
X136185960Y-92531911D01*
X136395114Y-92671663D01*
X136627513Y-92767926D01*
X136874226Y-92817000D01*
X137125774Y-92817000D01*
X137372487Y-92767926D01*
X137604886Y-92671663D01*
X137814040Y-92531911D01*
X137991911Y-92354040D01*
X138131663Y-92144886D01*
X138227926Y-91912487D01*
X138277000Y-91665774D01*
X138277000Y-91414226D01*
X138227926Y-91167513D01*
X138131663Y-90935114D01*
X137991911Y-90725960D01*
X137814040Y-90548089D01*
X137604886Y-90408337D01*
X137372487Y-90312074D01*
X137206544Y-90279066D01*
X137850000Y-90279066D01*
X137933707Y-90270822D01*
X138014196Y-90246405D01*
X138088376Y-90206755D01*
X138153395Y-90153395D01*
X138206755Y-90088376D01*
X138246405Y-90014196D01*
X138270822Y-89933707D01*
X138279066Y-89850000D01*
X138279066Y-88150000D01*
X138270822Y-88066293D01*
X138246405Y-87985804D01*
X138206755Y-87911624D01*
X138153395Y-87846605D01*
X138088376Y-87793245D01*
X138014196Y-87753595D01*
X137933707Y-87729178D01*
X137850000Y-87720934D01*
X136150000Y-87720934D01*
X136066293Y-87729178D01*
X135985804Y-87753595D01*
X135911624Y-87793245D01*
X135846605Y-87846605D01*
X135793245Y-87911624D01*
X135753595Y-87985804D01*
X135729178Y-88066293D01*
X135720934Y-88150000D01*
X130150521Y-88150000D01*
X130150779Y-88149615D01*
X130333732Y-87707930D01*
X130427000Y-87239039D01*
X130427000Y-86760961D01*
X130333732Y-86292070D01*
X130150779Y-85850385D01*
X129885174Y-85452878D01*
X129547122Y-85114826D01*
X129149615Y-84849221D01*
X128707930Y-84666268D01*
X128239039Y-84573000D01*
X127760961Y-84573000D01*
X127292070Y-84666268D01*
X126850385Y-84849221D01*
X126452878Y-85114826D01*
X126114826Y-85452878D01*
X125849221Y-85850385D01*
X125666268Y-86292070D01*
X125573000Y-86760961D01*
X121952000Y-86760961D01*
X121952000Y-78662470D01*
X124573000Y-78662470D01*
X124573000Y-79337530D01*
X124704697Y-79999619D01*
X124963032Y-80623293D01*
X125338075Y-81184585D01*
X125815415Y-81661925D01*
X126376707Y-82036968D01*
X127000381Y-82295303D01*
X127662470Y-82427000D01*
X128337530Y-82427000D01*
X128999619Y-82295303D01*
X129623293Y-82036968D01*
X130184585Y-81661925D01*
X130661925Y-81184585D01*
X131036968Y-80623293D01*
X131295303Y-79999619D01*
X131427000Y-79337530D01*
X131427000Y-78662470D01*
X131295303Y-78000381D01*
X131036968Y-77376707D01*
X130661925Y-76815415D01*
X130184585Y-76338075D01*
X129623293Y-75963032D01*
X128999619Y-75704697D01*
X128337530Y-75573000D01*
X127662470Y-75573000D01*
X127000381Y-75704697D01*
X126376707Y-75963032D01*
X125815415Y-76338075D01*
X125338075Y-76815415D01*
X124963032Y-77376707D01*
X124704697Y-78000381D01*
X124573000Y-78662470D01*
X121952000Y-78662470D01*
X121952000Y-73952000D01*
X175548205Y-73952000D01*
X175569796Y-121548000D01*
G37*
%TD.AperFunction*%
%TD*%
M02*
