%TF.GenerationSoftware,KiCad,Pcbnew,(5.1.12)-1*%
%TF.CreationDate,2023-10-03T16:06:22+02:00*%
%TF.ProjectId,PICO-AT,5049434f-2d41-4542-9e6b-696361645f70,rev?*%
%TF.SameCoordinates,Original*%
%TF.FileFunction,Copper,L4,Bot*%
%TF.FilePolarity,Positive*%
%FSLAX46Y46*%
G04 Gerber Fmt 4.6, Leading zero omitted, Abs format (unit mm)*
G04 Created by KiCad (PCBNEW (5.1.12)-1) date 2023-10-03 16:06:22*
%MOMM*%
%LPD*%
G01*
G04 APERTURE LIST*
%TA.AperFunction,ComponentPad*%
%ADD10R,2.000000X1.905000*%
%TD*%
%TA.AperFunction,ComponentPad*%
%ADD11O,2.000000X1.905000*%
%TD*%
%TA.AperFunction,ComponentPad*%
%ADD12R,2.300000X2.300000*%
%TD*%
%TA.AperFunction,ComponentPad*%
%ADD13C,2.300000*%
%TD*%
%TA.AperFunction,ComponentPad*%
%ADD14O,1.700000X1.700000*%
%TD*%
%TA.AperFunction,ComponentPad*%
%ADD15R,1.700000X1.700000*%
%TD*%
%TA.AperFunction,ComponentPad*%
%ADD16C,4.000000*%
%TD*%
%TA.AperFunction,ComponentPad*%
%ADD17C,6.000000*%
%TD*%
%TA.AperFunction,ViaPad*%
%ADD18C,0.800000*%
%TD*%
%TA.AperFunction,Conductor*%
%ADD19C,1.250000*%
%TD*%
%TA.AperFunction,Conductor*%
%ADD20C,0.250000*%
%TD*%
%TA.AperFunction,Conductor*%
%ADD21C,0.500000*%
%TD*%
%TA.AperFunction,Conductor*%
%ADD22C,0.254000*%
%TD*%
%TA.AperFunction,Conductor*%
%ADD23C,0.100000*%
%TD*%
G04 APERTURE END LIST*
D10*
%TO.P,U1,1*%
%TO.N,/GND*%
X151638000Y-113538000D03*
D11*
%TO.P,U1,2*%
%TO.N,/-12V*%
X151638000Y-116078000D03*
%TO.P,U1,3*%
%TO.N,/-5V*%
X151638000Y-118618000D03*
%TD*%
D12*
%TO.P,J1,1*%
%TO.N,/3.3V*%
X171958000Y-107696000D03*
D13*
%TO.P,J1,2*%
X167758000Y-107696000D03*
%TO.P,J1,3*%
%TO.N,/GND*%
X163558000Y-107696000D03*
%TO.P,J1,4*%
%TO.N,/5V*%
X159358000Y-107696000D03*
%TO.P,J1,5*%
%TO.N,/GND*%
X155158000Y-107696000D03*
%TO.P,J1,6*%
%TO.N,/5V*%
X150958000Y-107696000D03*
%TO.P,J1,7*%
%TO.N,/GND*%
X146758000Y-107696000D03*
%TO.P,J1,8*%
%TO.N,/PG*%
X142558000Y-107696000D03*
%TO.P,J1,9*%
%TO.N,Net-(J1-Pad9)*%
X138358000Y-107696000D03*
%TO.P,J1,10*%
%TO.N,/12V*%
X134158000Y-107696000D03*
%TO.P,J1,11*%
X129958000Y-107696000D03*
%TO.P,J1,12*%
%TO.N,Net-(J1-Pad12)*%
X125758000Y-107696000D03*
%TO.P,J1,13*%
%TO.N,/3.3V*%
X171958000Y-102196000D03*
%TO.P,J1,14*%
%TO.N,/-12V*%
X167758000Y-102196000D03*
%TO.P,J1,15*%
%TO.N,/GND*%
X163558000Y-102196000D03*
%TO.P,J1,16*%
%TO.N,/PS-ON*%
X159358000Y-102196000D03*
%TO.P,J1,17*%
%TO.N,/GND*%
X155158000Y-102196000D03*
%TO.P,J1,18*%
X150958000Y-102196000D03*
%TO.P,J1,19*%
X146758000Y-102196000D03*
%TO.P,J1,20*%
%TO.N,Net-(J1-Pad20)*%
X142558000Y-102196000D03*
%TO.P,J1,21*%
%TO.N,/5V*%
X138358000Y-102196000D03*
%TO.P,J1,22*%
X134158000Y-102196000D03*
%TO.P,J1,23*%
X129958000Y-102196000D03*
%TO.P,J1,24*%
%TO.N,/GND*%
X125758000Y-102196000D03*
%TD*%
D14*
%TO.P,+12V,2*%
%TO.N,/GND*%
X137000000Y-91540000D03*
D15*
%TO.P,+12V,1*%
%TO.N,/12V*%
X137000000Y-89000000D03*
%TD*%
D16*
%TO.P,GND,2*%
%TO.N,/GND*%
X128000000Y-93000000D03*
%TO.P,GND,1*%
%TO.N,/PS-ON*%
X128000000Y-87000000D03*
%TD*%
%TO.P,C1,2*%
%TO.N,/-12V*%
%TA.AperFunction,SMDPad,CuDef*%
G36*
G01*
X128161000Y-115987001D02*
X128161000Y-114136999D01*
G75*
G02*
X128410999Y-113887000I249999J0D01*
G01*
X130161001Y-113887000D01*
G75*
G02*
X130411000Y-114136999I0J-249999D01*
G01*
X130411000Y-115987001D01*
G75*
G02*
X130161001Y-116237000I-249999J0D01*
G01*
X128410999Y-116237000D01*
G75*
G02*
X128161000Y-115987001I0J249999D01*
G01*
G37*
%TD.AperFunction*%
%TO.P,C1,1*%
%TO.N,/GND*%
%TA.AperFunction,SMDPad,CuDef*%
G36*
G01*
X123061000Y-115987001D02*
X123061000Y-114136999D01*
G75*
G02*
X123310999Y-113887000I249999J0D01*
G01*
X125061001Y-113887000D01*
G75*
G02*
X125311000Y-114136999I0J-249999D01*
G01*
X125311000Y-115987001D01*
G75*
G02*
X125061001Y-116237000I-249999J0D01*
G01*
X123310999Y-116237000D01*
G75*
G02*
X123061000Y-115987001I0J249999D01*
G01*
G37*
%TD.AperFunction*%
%TD*%
%TO.P,C2,1*%
%TO.N,/GND*%
%TA.AperFunction,SMDPad,CuDef*%
G36*
G01*
X123061000Y-120305001D02*
X123061000Y-118454999D01*
G75*
G02*
X123310999Y-118205000I249999J0D01*
G01*
X125061001Y-118205000D01*
G75*
G02*
X125311000Y-118454999I0J-249999D01*
G01*
X125311000Y-120305001D01*
G75*
G02*
X125061001Y-120555000I-249999J0D01*
G01*
X123310999Y-120555000D01*
G75*
G02*
X123061000Y-120305001I0J249999D01*
G01*
G37*
%TD.AperFunction*%
%TO.P,C2,2*%
%TO.N,/-5V*%
%TA.AperFunction,SMDPad,CuDef*%
G36*
G01*
X128161000Y-120305001D02*
X128161000Y-118454999D01*
G75*
G02*
X128410999Y-118205000I249999J0D01*
G01*
X130161001Y-118205000D01*
G75*
G02*
X130411000Y-118454999I0J-249999D01*
G01*
X130411000Y-120305001D01*
G75*
G02*
X130161001Y-120555000I-249999J0D01*
G01*
X128410999Y-120555000D01*
G75*
G02*
X128161000Y-120305001I0J249999D01*
G01*
G37*
%TD.AperFunction*%
%TD*%
%TO.P,D4,2*%
%TO.N,Net-(D4-Pad2)*%
%TA.AperFunction,SMDPad,CuDef*%
G36*
G01*
X169768000Y-118421999D02*
X169768000Y-119322001D01*
G75*
G02*
X169518001Y-119572000I-249999J0D01*
G01*
X168867999Y-119572000D01*
G75*
G02*
X168618000Y-119322001I0J249999D01*
G01*
X168618000Y-118421999D01*
G75*
G02*
X168867999Y-118172000I249999J0D01*
G01*
X169518001Y-118172000D01*
G75*
G02*
X169768000Y-118421999I0J-249999D01*
G01*
G37*
%TD.AperFunction*%
%TO.P,D4,1*%
%TO.N,/GND*%
%TA.AperFunction,SMDPad,CuDef*%
G36*
G01*
X171818000Y-118421999D02*
X171818000Y-119322001D01*
G75*
G02*
X171568001Y-119572000I-249999J0D01*
G01*
X170917999Y-119572000D01*
G75*
G02*
X170668000Y-119322001I0J249999D01*
G01*
X170668000Y-118421999D01*
G75*
G02*
X170917999Y-118172000I249999J0D01*
G01*
X171568001Y-118172000D01*
G75*
G02*
X171818000Y-118421999I0J-249999D01*
G01*
G37*
%TD.AperFunction*%
%TD*%
%TO.P,R4,2*%
%TO.N,Net-(D4-Pad2)*%
%TA.AperFunction,SMDPad,CuDef*%
G36*
G01*
X169759000Y-115119999D02*
X169759000Y-116020001D01*
G75*
G02*
X169509001Y-116270000I-249999J0D01*
G01*
X168858999Y-116270000D01*
G75*
G02*
X168609000Y-116020001I0J249999D01*
G01*
X168609000Y-115119999D01*
G75*
G02*
X168858999Y-114870000I249999J0D01*
G01*
X169509001Y-114870000D01*
G75*
G02*
X169759000Y-115119999I0J-249999D01*
G01*
G37*
%TD.AperFunction*%
%TO.P,R4,1*%
%TO.N,/PG*%
%TA.AperFunction,SMDPad,CuDef*%
G36*
G01*
X171809000Y-115119999D02*
X171809000Y-116020001D01*
G75*
G02*
X171559001Y-116270000I-249999J0D01*
G01*
X170908999Y-116270000D01*
G75*
G02*
X170659000Y-116020001I0J249999D01*
G01*
X170659000Y-115119999D01*
G75*
G02*
X170908999Y-114870000I249999J0D01*
G01*
X171559001Y-114870000D01*
G75*
G02*
X171809000Y-115119999I0J-249999D01*
G01*
G37*
%TD.AperFunction*%
%TD*%
D17*
%TO.P,+3.3V,1*%
%TO.N,/3.3V*%
X161000000Y-89000000D03*
%TD*%
%TO.P,+5V Red,1*%
%TO.N,/5V*%
X137000000Y-79000000D03*
%TD*%
%TO.P,+12V Blue,1*%
%TO.N,/12V*%
X128000000Y-79000000D03*
%TD*%
%TO.P,GND,1*%
%TO.N,/GND*%
X170300000Y-78800000D03*
%TD*%
%TO.P,GND,1*%
%TO.N,/GND*%
X161000000Y-78900000D03*
%TD*%
%TO.P,GND,1*%
%TO.N,/GND*%
X170500000Y-89000000D03*
%TD*%
D16*
%TO.P,-12V,1*%
%TO.N,/-12V*%
X153000000Y-79000000D03*
%TD*%
%TO.P,-5V,1*%
%TO.N,/-5V*%
X145500000Y-79000000D03*
%TD*%
%TO.P,PG,1*%
%TO.N,/PG*%
X149500000Y-86000000D03*
%TD*%
D18*
%TO.N,/GND*%
X173012000Y-118364000D03*
X173012000Y-119380000D03*
X124206000Y-113030000D03*
X126238000Y-115062000D03*
X124206000Y-117348000D03*
X126238000Y-119380000D03*
X122428000Y-115062000D03*
X122428000Y-119380000D03*
X124206000Y-121158000D03*
%TD*%
D19*
%TO.N,/-12V*%
X129286000Y-115062000D02*
X131318000Y-113030000D01*
X131318000Y-113030000D02*
X144780000Y-113030000D01*
X147828000Y-116078000D02*
X151638000Y-116078000D01*
X144780000Y-113030000D02*
X147828000Y-116078000D01*
D20*
%TO.N,/GND*%
X172504000Y-118872000D02*
X173012000Y-118364000D01*
X172504000Y-118872000D02*
X173012000Y-119380000D01*
X171243000Y-118872000D02*
X172504000Y-118872000D01*
X124186000Y-115062000D02*
X126238000Y-115062000D01*
X124186000Y-113050000D02*
X124206000Y-113030000D01*
X124186000Y-115062000D02*
X124186000Y-113050000D01*
X124186000Y-115062000D02*
X122428000Y-115062000D01*
X124186000Y-117328000D02*
X124206000Y-117348000D01*
X124186000Y-115062000D02*
X124186000Y-117328000D01*
X124206000Y-119360000D02*
X124186000Y-119380000D01*
X124206000Y-117348000D02*
X124206000Y-119360000D01*
X124186000Y-119380000D02*
X126238000Y-119380000D01*
X124186000Y-121138000D02*
X124206000Y-121158000D01*
X124186000Y-119380000D02*
X124186000Y-121138000D01*
X124186000Y-119380000D02*
X122428000Y-119380000D01*
D19*
%TO.N,/-5V*%
X129286000Y-119380000D02*
X147066000Y-119380000D01*
X147828000Y-118618000D02*
X151638000Y-118618000D01*
X147066000Y-119380000D02*
X147828000Y-118618000D01*
D21*
%TO.N,Net-(D4-Pad2)*%
X169184000Y-118863000D02*
X169193000Y-118872000D01*
X169184000Y-115570000D02*
X169184000Y-118863000D01*
%TO.N,/PG*%
X142558000Y-107696000D02*
X145862000Y-111000000D01*
X145862000Y-111000000D02*
X170000000Y-111000000D01*
X171234000Y-112234000D02*
X171234000Y-115570000D01*
X170000000Y-111000000D02*
X171234000Y-112234000D01*
D19*
%TO.N,/PS-ON*%
X132500000Y-88000000D02*
X131500000Y-87000000D01*
X131500000Y-87000000D02*
X128000000Y-87000000D01*
X132500000Y-95500000D02*
X132500000Y-88000000D01*
X134500000Y-97500000D02*
X132500000Y-95500000D01*
X154662000Y-97500000D02*
X134500000Y-97500000D01*
X159358000Y-102196000D02*
X154662000Y-97500000D01*
%TD*%
D22*
%TO.N,/12V*%
X175569796Y-121548000D02*
X124939594Y-121548000D01*
X125001218Y-121399227D01*
X125033000Y-121239452D01*
X125033000Y-121076548D01*
X125014604Y-120984066D01*
X125061001Y-120984066D01*
X125193480Y-120971018D01*
X125320868Y-120932375D01*
X125438269Y-120869623D01*
X125541172Y-120785172D01*
X125625623Y-120682269D01*
X125688375Y-120564868D01*
X125727018Y-120437480D01*
X125740066Y-120305001D01*
X125740066Y-120041914D01*
X125846269Y-120112877D01*
X125996773Y-120175218D01*
X126156548Y-120207000D01*
X126319452Y-120207000D01*
X126479227Y-120175218D01*
X126629731Y-120112877D01*
X126765181Y-120022372D01*
X126880372Y-119907181D01*
X126970877Y-119771731D01*
X127033218Y-119621227D01*
X127065000Y-119461452D01*
X127065000Y-119298548D01*
X127033218Y-119138773D01*
X126970877Y-118988269D01*
X126880372Y-118852819D01*
X126765181Y-118737628D01*
X126629731Y-118647123D01*
X126479227Y-118584782D01*
X126319452Y-118553000D01*
X126156548Y-118553000D01*
X125996773Y-118584782D01*
X125846269Y-118647123D01*
X125740066Y-118718086D01*
X125740066Y-118454999D01*
X125727018Y-118322520D01*
X125688375Y-118195132D01*
X125625623Y-118077731D01*
X125541172Y-117974828D01*
X125438269Y-117890377D01*
X125320868Y-117827625D01*
X125193480Y-117788982D01*
X125061001Y-117775934D01*
X124914687Y-117775934D01*
X124938877Y-117739731D01*
X125001218Y-117589227D01*
X125033000Y-117429452D01*
X125033000Y-117266548D01*
X125001218Y-117106773D01*
X124938877Y-116956269D01*
X124848372Y-116820819D01*
X124738000Y-116710447D01*
X124738000Y-116666066D01*
X125061001Y-116666066D01*
X125193480Y-116653018D01*
X125320868Y-116614375D01*
X125438269Y-116551623D01*
X125541172Y-116467172D01*
X125625623Y-116364269D01*
X125688375Y-116246868D01*
X125727018Y-116119480D01*
X125740066Y-115987001D01*
X125740066Y-115723914D01*
X125846269Y-115794877D01*
X125996773Y-115857218D01*
X126156548Y-115889000D01*
X126319452Y-115889000D01*
X126479227Y-115857218D01*
X126629731Y-115794877D01*
X126765181Y-115704372D01*
X126880372Y-115589181D01*
X126970877Y-115453731D01*
X127033218Y-115303227D01*
X127065000Y-115143452D01*
X127065000Y-114980548D01*
X127033218Y-114820773D01*
X126970877Y-114670269D01*
X126880372Y-114534819D01*
X126765181Y-114419628D01*
X126629731Y-114329123D01*
X126479227Y-114266782D01*
X126319452Y-114235000D01*
X126156548Y-114235000D01*
X125996773Y-114266782D01*
X125846269Y-114329123D01*
X125740066Y-114400086D01*
X125740066Y-114136999D01*
X127731934Y-114136999D01*
X127731934Y-115987001D01*
X127744982Y-116119480D01*
X127783625Y-116246868D01*
X127846377Y-116364269D01*
X127930828Y-116467172D01*
X128033731Y-116551623D01*
X128151132Y-116614375D01*
X128278520Y-116653018D01*
X128410999Y-116666066D01*
X130161001Y-116666066D01*
X130293480Y-116653018D01*
X130420868Y-116614375D01*
X130538269Y-116551623D01*
X130641172Y-116467172D01*
X130725623Y-116364269D01*
X130788375Y-116246868D01*
X130827018Y-116119480D01*
X130840066Y-115987001D01*
X130840066Y-114995685D01*
X131753752Y-114082000D01*
X134107993Y-114082000D01*
X133946804Y-114148767D01*
X133590243Y-114387013D01*
X133287013Y-114690243D01*
X133048767Y-115046804D01*
X132884660Y-115442992D01*
X132801000Y-115863584D01*
X132801000Y-116292416D01*
X132884660Y-116713008D01*
X133048767Y-117109196D01*
X133287013Y-117465757D01*
X133590243Y-117768987D01*
X133946804Y-118007233D01*
X134342992Y-118171340D01*
X134763584Y-118255000D01*
X135192416Y-118255000D01*
X135613008Y-118171340D01*
X136009196Y-118007233D01*
X136365757Y-117768987D01*
X136668987Y-117465757D01*
X136907233Y-117109196D01*
X137071340Y-116713008D01*
X137155000Y-116292416D01*
X137155000Y-115863584D01*
X137071340Y-115442992D01*
X136907233Y-115046804D01*
X136668987Y-114690243D01*
X136365757Y-114387013D01*
X136009196Y-114148767D01*
X135848007Y-114082000D01*
X144344249Y-114082000D01*
X147047574Y-116785326D01*
X147080524Y-116825476D01*
X147214943Y-116935790D01*
X147240712Y-116956938D01*
X147423469Y-117054624D01*
X147621772Y-117114778D01*
X147828000Y-117135090D01*
X147879679Y-117130000D01*
X150697848Y-117130000D01*
X150820383Y-117230562D01*
X151040094Y-117348000D01*
X150820383Y-117465438D01*
X150697848Y-117566000D01*
X147879679Y-117566000D01*
X147828000Y-117560910D01*
X147776321Y-117566000D01*
X147621772Y-117581222D01*
X147423469Y-117641376D01*
X147240712Y-117739062D01*
X147080524Y-117870524D01*
X147047578Y-117910670D01*
X146630248Y-118328000D01*
X130827558Y-118328000D01*
X130827018Y-118322520D01*
X130788375Y-118195132D01*
X130725623Y-118077731D01*
X130641172Y-117974828D01*
X130538269Y-117890377D01*
X130420868Y-117827625D01*
X130293480Y-117788982D01*
X130161001Y-117775934D01*
X128410999Y-117775934D01*
X128278520Y-117788982D01*
X128151132Y-117827625D01*
X128033731Y-117890377D01*
X127930828Y-117974828D01*
X127846377Y-118077731D01*
X127783625Y-118195132D01*
X127744982Y-118322520D01*
X127731934Y-118454999D01*
X127731934Y-120305001D01*
X127744982Y-120437480D01*
X127783625Y-120564868D01*
X127846377Y-120682269D01*
X127930828Y-120785172D01*
X128033731Y-120869623D01*
X128151132Y-120932375D01*
X128278520Y-120971018D01*
X128410999Y-120984066D01*
X130161001Y-120984066D01*
X130293480Y-120971018D01*
X130420868Y-120932375D01*
X130538269Y-120869623D01*
X130641172Y-120785172D01*
X130725623Y-120682269D01*
X130788375Y-120564868D01*
X130827018Y-120437480D01*
X130827558Y-120432000D01*
X147014321Y-120432000D01*
X147066000Y-120437090D01*
X147117679Y-120432000D01*
X147272228Y-120416778D01*
X147470531Y-120356624D01*
X147653288Y-120258938D01*
X147813476Y-120127476D01*
X147846430Y-120087321D01*
X148263752Y-119670000D01*
X150697848Y-119670000D01*
X150820383Y-119770562D01*
X151060034Y-119898658D01*
X151320071Y-119977539D01*
X151522738Y-119997500D01*
X151753262Y-119997500D01*
X151955929Y-119977539D01*
X152215966Y-119898658D01*
X152455617Y-119770562D01*
X152665673Y-119598173D01*
X152838062Y-119388117D01*
X152966158Y-119148466D01*
X153045039Y-118888429D01*
X153071674Y-118618000D01*
X153045039Y-118347571D01*
X152966158Y-118087534D01*
X152838062Y-117847883D01*
X152665673Y-117637827D01*
X152455617Y-117465438D01*
X152235906Y-117348000D01*
X152455617Y-117230562D01*
X152665673Y-117058173D01*
X152838062Y-116848117D01*
X152966158Y-116608466D01*
X153045039Y-116348429D01*
X153071674Y-116078000D01*
X153045039Y-115807571D01*
X152966158Y-115547534D01*
X152838062Y-115307883D01*
X152683870Y-115119999D01*
X168179934Y-115119999D01*
X168179934Y-116020001D01*
X168192982Y-116152480D01*
X168231625Y-116279868D01*
X168294377Y-116397269D01*
X168378828Y-116500172D01*
X168481731Y-116584623D01*
X168507000Y-116598130D01*
X168507001Y-117848681D01*
X168490731Y-117857377D01*
X168387828Y-117941828D01*
X168303377Y-118044731D01*
X168240625Y-118162132D01*
X168201982Y-118289520D01*
X168188934Y-118421999D01*
X168188934Y-119322001D01*
X168201982Y-119454480D01*
X168240625Y-119581868D01*
X168303377Y-119699269D01*
X168387828Y-119802172D01*
X168490731Y-119886623D01*
X168608132Y-119949375D01*
X168735520Y-119988018D01*
X168867999Y-120001066D01*
X169518001Y-120001066D01*
X169650480Y-119988018D01*
X169777868Y-119949375D01*
X169895269Y-119886623D01*
X169998172Y-119802172D01*
X170082623Y-119699269D01*
X170145375Y-119581868D01*
X170184018Y-119454480D01*
X170197066Y-119322001D01*
X170197066Y-118421999D01*
X170238934Y-118421999D01*
X170238934Y-119322001D01*
X170251982Y-119454480D01*
X170290625Y-119581868D01*
X170353377Y-119699269D01*
X170437828Y-119802172D01*
X170540731Y-119886623D01*
X170658132Y-119949375D01*
X170785520Y-119988018D01*
X170917999Y-120001066D01*
X171568001Y-120001066D01*
X171700480Y-119988018D01*
X171827868Y-119949375D01*
X171945269Y-119886623D01*
X172048172Y-119802172D01*
X172132623Y-119699269D01*
X172195375Y-119581868D01*
X172203575Y-119554835D01*
X172216782Y-119621227D01*
X172279123Y-119771731D01*
X172369628Y-119907181D01*
X172484819Y-120022372D01*
X172620269Y-120112877D01*
X172770773Y-120175218D01*
X172930548Y-120207000D01*
X173093452Y-120207000D01*
X173253227Y-120175218D01*
X173403731Y-120112877D01*
X173539181Y-120022372D01*
X173654372Y-119907181D01*
X173744877Y-119771731D01*
X173807218Y-119621227D01*
X173839000Y-119461452D01*
X173839000Y-119298548D01*
X173807218Y-119138773D01*
X173744877Y-118988269D01*
X173667188Y-118872000D01*
X173744877Y-118755731D01*
X173807218Y-118605227D01*
X173839000Y-118445452D01*
X173839000Y-118282548D01*
X173807218Y-118122773D01*
X173744877Y-117972269D01*
X173654372Y-117836819D01*
X173539181Y-117721628D01*
X173403731Y-117631123D01*
X173253227Y-117568782D01*
X173093452Y-117537000D01*
X172930548Y-117537000D01*
X172770773Y-117568782D01*
X172620269Y-117631123D01*
X172484819Y-117721628D01*
X172369628Y-117836819D01*
X172279123Y-117972269D01*
X172216782Y-118122773D01*
X172203575Y-118189165D01*
X172195375Y-118162132D01*
X172132623Y-118044731D01*
X172048172Y-117941828D01*
X171945269Y-117857377D01*
X171827868Y-117794625D01*
X171700480Y-117755982D01*
X171568001Y-117742934D01*
X170917999Y-117742934D01*
X170785520Y-117755982D01*
X170658132Y-117794625D01*
X170540731Y-117857377D01*
X170437828Y-117941828D01*
X170353377Y-118044731D01*
X170290625Y-118162132D01*
X170251982Y-118289520D01*
X170238934Y-118421999D01*
X170197066Y-118421999D01*
X170184018Y-118289520D01*
X170145375Y-118162132D01*
X170082623Y-118044731D01*
X169998172Y-117941828D01*
X169895269Y-117857377D01*
X169861000Y-117839060D01*
X169861000Y-116598130D01*
X169886269Y-116584623D01*
X169989172Y-116500172D01*
X170073623Y-116397269D01*
X170136375Y-116279868D01*
X170175018Y-116152480D01*
X170188066Y-116020001D01*
X170188066Y-115119999D01*
X170175018Y-114987520D01*
X170136375Y-114860132D01*
X170073623Y-114742731D01*
X169989172Y-114639828D01*
X169886269Y-114555377D01*
X169768868Y-114492625D01*
X169641480Y-114453982D01*
X169509001Y-114440934D01*
X168858999Y-114440934D01*
X168726520Y-114453982D01*
X168599132Y-114492625D01*
X168481731Y-114555377D01*
X168378828Y-114639828D01*
X168294377Y-114742731D01*
X168231625Y-114860132D01*
X168192982Y-114987520D01*
X168179934Y-115119999D01*
X152683870Y-115119999D01*
X152665673Y-115097827D01*
X152455617Y-114925438D01*
X152444631Y-114919566D01*
X152638000Y-114919566D01*
X152721707Y-114911322D01*
X152802196Y-114886905D01*
X152876376Y-114847255D01*
X152941395Y-114793895D01*
X152994755Y-114728876D01*
X153034405Y-114654696D01*
X153058822Y-114574207D01*
X153067066Y-114490500D01*
X153067066Y-112585500D01*
X153058822Y-112501793D01*
X153034405Y-112421304D01*
X152994755Y-112347124D01*
X152941395Y-112282105D01*
X152876376Y-112228745D01*
X152802196Y-112189095D01*
X152721707Y-112164678D01*
X152638000Y-112156434D01*
X150638000Y-112156434D01*
X150554293Y-112164678D01*
X150473804Y-112189095D01*
X150399624Y-112228745D01*
X150334605Y-112282105D01*
X150281245Y-112347124D01*
X150241595Y-112421304D01*
X150217178Y-112501793D01*
X150208934Y-112585500D01*
X150208934Y-114490500D01*
X150217178Y-114574207D01*
X150241595Y-114654696D01*
X150281245Y-114728876D01*
X150334605Y-114793895D01*
X150399624Y-114847255D01*
X150473804Y-114886905D01*
X150554293Y-114911322D01*
X150638000Y-114919566D01*
X150831369Y-114919566D01*
X150820383Y-114925438D01*
X150697848Y-115026000D01*
X148263752Y-115026000D01*
X145560431Y-112322680D01*
X145527476Y-112282524D01*
X145367288Y-112151062D01*
X145184531Y-112053376D01*
X144986228Y-111993222D01*
X144831679Y-111978000D01*
X144780000Y-111972910D01*
X144728321Y-111978000D01*
X131369679Y-111978000D01*
X131318000Y-111972910D01*
X131266321Y-111978000D01*
X131111772Y-111993222D01*
X130913469Y-112053376D01*
X130730712Y-112151062D01*
X130570524Y-112282524D01*
X130537574Y-112322674D01*
X129402315Y-113457934D01*
X128410999Y-113457934D01*
X128278520Y-113470982D01*
X128151132Y-113509625D01*
X128033731Y-113572377D01*
X127930828Y-113656828D01*
X127846377Y-113759731D01*
X127783625Y-113877132D01*
X127744982Y-114004520D01*
X127731934Y-114136999D01*
X125740066Y-114136999D01*
X125727018Y-114004520D01*
X125688375Y-113877132D01*
X125625623Y-113759731D01*
X125541172Y-113656828D01*
X125438269Y-113572377D01*
X125320868Y-113509625D01*
X125193480Y-113470982D01*
X125061001Y-113457934D01*
X124914687Y-113457934D01*
X124938877Y-113421731D01*
X125001218Y-113271227D01*
X125033000Y-113111452D01*
X125033000Y-112948548D01*
X125001218Y-112788773D01*
X124938877Y-112638269D01*
X124848372Y-112502819D01*
X124733181Y-112387628D01*
X124597731Y-112297123D01*
X124447227Y-112234782D01*
X124287452Y-112203000D01*
X124124548Y-112203000D01*
X123964773Y-112234782D01*
X123814269Y-112297123D01*
X123678819Y-112387628D01*
X123563628Y-112502819D01*
X123473123Y-112638269D01*
X123410782Y-112788773D01*
X123379000Y-112948548D01*
X123379000Y-113111452D01*
X123410782Y-113271227D01*
X123473123Y-113421731D01*
X123497313Y-113457934D01*
X123310999Y-113457934D01*
X123178520Y-113470982D01*
X123051132Y-113509625D01*
X122933731Y-113572377D01*
X122830828Y-113656828D01*
X122746377Y-113759731D01*
X122683625Y-113877132D01*
X122644982Y-114004520D01*
X122631934Y-114136999D01*
X122631934Y-114259364D01*
X122509452Y-114235000D01*
X122346548Y-114235000D01*
X122186773Y-114266782D01*
X122036269Y-114329123D01*
X121952000Y-114385430D01*
X121952000Y-107540679D01*
X124181000Y-107540679D01*
X124181000Y-107851321D01*
X124241604Y-108155994D01*
X124360481Y-108442989D01*
X124533064Y-108701279D01*
X124752721Y-108920936D01*
X125011011Y-109093519D01*
X125298006Y-109212396D01*
X125602679Y-109273000D01*
X125913321Y-109273000D01*
X126217994Y-109212396D01*
X126504989Y-109093519D01*
X126763279Y-108920936D01*
X126982936Y-108701279D01*
X127155519Y-108442989D01*
X127274396Y-108155994D01*
X127335000Y-107851321D01*
X127335000Y-107540679D01*
X136781000Y-107540679D01*
X136781000Y-107851321D01*
X136841604Y-108155994D01*
X136960481Y-108442989D01*
X137133064Y-108701279D01*
X137352721Y-108920936D01*
X137611011Y-109093519D01*
X137898006Y-109212396D01*
X138202679Y-109273000D01*
X138513321Y-109273000D01*
X138817994Y-109212396D01*
X139104989Y-109093519D01*
X139363279Y-108920936D01*
X139582936Y-108701279D01*
X139755519Y-108442989D01*
X139874396Y-108155994D01*
X139935000Y-107851321D01*
X139935000Y-107540679D01*
X140981000Y-107540679D01*
X140981000Y-107851321D01*
X141041604Y-108155994D01*
X141160481Y-108442989D01*
X141333064Y-108701279D01*
X141552721Y-108920936D01*
X141811011Y-109093519D01*
X142098006Y-109212396D01*
X142402679Y-109273000D01*
X142713321Y-109273000D01*
X143017994Y-109212396D01*
X143087983Y-109183406D01*
X145359778Y-111455201D01*
X145380973Y-111481027D01*
X145406799Y-111502222D01*
X145406801Y-111502224D01*
X145484059Y-111565628D01*
X145601670Y-111628492D01*
X145729285Y-111667204D01*
X145862000Y-111680275D01*
X145895252Y-111677000D01*
X169719578Y-111677000D01*
X170557000Y-112514423D01*
X170557001Y-114541870D01*
X170531731Y-114555377D01*
X170428828Y-114639828D01*
X170344377Y-114742731D01*
X170281625Y-114860132D01*
X170242982Y-114987520D01*
X170229934Y-115119999D01*
X170229934Y-116020001D01*
X170242982Y-116152480D01*
X170281625Y-116279868D01*
X170344377Y-116397269D01*
X170428828Y-116500172D01*
X170531731Y-116584623D01*
X170649132Y-116647375D01*
X170776520Y-116686018D01*
X170908999Y-116699066D01*
X171559001Y-116699066D01*
X171691480Y-116686018D01*
X171818868Y-116647375D01*
X171936269Y-116584623D01*
X172039172Y-116500172D01*
X172123623Y-116397269D01*
X172186375Y-116279868D01*
X172225018Y-116152480D01*
X172238066Y-116020001D01*
X172238066Y-115119999D01*
X172225018Y-114987520D01*
X172186375Y-114860132D01*
X172123623Y-114742731D01*
X172039172Y-114639828D01*
X171936269Y-114555377D01*
X171911000Y-114541870D01*
X171911000Y-112267252D01*
X171914275Y-112234000D01*
X171901204Y-112101285D01*
X171862492Y-111973670D01*
X171799628Y-111856059D01*
X171736224Y-111778801D01*
X171736218Y-111778795D01*
X171715026Y-111752973D01*
X171689205Y-111731783D01*
X170502226Y-110544804D01*
X170481027Y-110518973D01*
X170377941Y-110434372D01*
X170260330Y-110371508D01*
X170132715Y-110332796D01*
X170033252Y-110323000D01*
X170033245Y-110323000D01*
X170000000Y-110319726D01*
X169966755Y-110323000D01*
X146142423Y-110323000D01*
X144045406Y-108225983D01*
X144074396Y-108155994D01*
X144135000Y-107851321D01*
X144135000Y-107540679D01*
X145181000Y-107540679D01*
X145181000Y-107851321D01*
X145241604Y-108155994D01*
X145360481Y-108442989D01*
X145533064Y-108701279D01*
X145752721Y-108920936D01*
X146011011Y-109093519D01*
X146298006Y-109212396D01*
X146602679Y-109273000D01*
X146913321Y-109273000D01*
X147217994Y-109212396D01*
X147504989Y-109093519D01*
X147763279Y-108920936D01*
X147982936Y-108701279D01*
X148155519Y-108442989D01*
X148274396Y-108155994D01*
X148335000Y-107851321D01*
X148335000Y-107540679D01*
X149381000Y-107540679D01*
X149381000Y-107851321D01*
X149441604Y-108155994D01*
X149560481Y-108442989D01*
X149733064Y-108701279D01*
X149952721Y-108920936D01*
X150211011Y-109093519D01*
X150498006Y-109212396D01*
X150802679Y-109273000D01*
X151113321Y-109273000D01*
X151417994Y-109212396D01*
X151704989Y-109093519D01*
X151963279Y-108920936D01*
X152182936Y-108701279D01*
X152355519Y-108442989D01*
X152474396Y-108155994D01*
X152535000Y-107851321D01*
X152535000Y-107540679D01*
X153581000Y-107540679D01*
X153581000Y-107851321D01*
X153641604Y-108155994D01*
X153760481Y-108442989D01*
X153933064Y-108701279D01*
X154152721Y-108920936D01*
X154411011Y-109093519D01*
X154698006Y-109212396D01*
X155002679Y-109273000D01*
X155313321Y-109273000D01*
X155617994Y-109212396D01*
X155904989Y-109093519D01*
X156163279Y-108920936D01*
X156382936Y-108701279D01*
X156555519Y-108442989D01*
X156674396Y-108155994D01*
X156735000Y-107851321D01*
X156735000Y-107540679D01*
X157781000Y-107540679D01*
X157781000Y-107851321D01*
X157841604Y-108155994D01*
X157960481Y-108442989D01*
X158133064Y-108701279D01*
X158352721Y-108920936D01*
X158611011Y-109093519D01*
X158898006Y-109212396D01*
X159202679Y-109273000D01*
X159513321Y-109273000D01*
X159817994Y-109212396D01*
X160104989Y-109093519D01*
X160363279Y-108920936D01*
X160582936Y-108701279D01*
X160755519Y-108442989D01*
X160874396Y-108155994D01*
X160935000Y-107851321D01*
X160935000Y-107540679D01*
X161981000Y-107540679D01*
X161981000Y-107851321D01*
X162041604Y-108155994D01*
X162160481Y-108442989D01*
X162333064Y-108701279D01*
X162552721Y-108920936D01*
X162811011Y-109093519D01*
X163098006Y-109212396D01*
X163402679Y-109273000D01*
X163713321Y-109273000D01*
X164017994Y-109212396D01*
X164304989Y-109093519D01*
X164563279Y-108920936D01*
X164782936Y-108701279D01*
X164955519Y-108442989D01*
X165074396Y-108155994D01*
X165135000Y-107851321D01*
X165135000Y-107540679D01*
X166181000Y-107540679D01*
X166181000Y-107851321D01*
X166241604Y-108155994D01*
X166360481Y-108442989D01*
X166533064Y-108701279D01*
X166752721Y-108920936D01*
X167011011Y-109093519D01*
X167298006Y-109212396D01*
X167602679Y-109273000D01*
X167913321Y-109273000D01*
X168217994Y-109212396D01*
X168504989Y-109093519D01*
X168763279Y-108920936D01*
X168982936Y-108701279D01*
X169155519Y-108442989D01*
X169274396Y-108155994D01*
X169335000Y-107851321D01*
X169335000Y-107540679D01*
X169274396Y-107236006D01*
X169155519Y-106949011D01*
X168982936Y-106690721D01*
X168838215Y-106546000D01*
X170378934Y-106546000D01*
X170378934Y-108846000D01*
X170387178Y-108929707D01*
X170411595Y-109010196D01*
X170451245Y-109084376D01*
X170504605Y-109149395D01*
X170569624Y-109202755D01*
X170643804Y-109242405D01*
X170724293Y-109266822D01*
X170808000Y-109275066D01*
X173108000Y-109275066D01*
X173191707Y-109266822D01*
X173272196Y-109242405D01*
X173346376Y-109202755D01*
X173411395Y-109149395D01*
X173464755Y-109084376D01*
X173504405Y-109010196D01*
X173528822Y-108929707D01*
X173537066Y-108846000D01*
X173537066Y-106546000D01*
X173528822Y-106462293D01*
X173504405Y-106381804D01*
X173464755Y-106307624D01*
X173411395Y-106242605D01*
X173346376Y-106189245D01*
X173272196Y-106149595D01*
X173191707Y-106125178D01*
X173108000Y-106116934D01*
X170808000Y-106116934D01*
X170724293Y-106125178D01*
X170643804Y-106149595D01*
X170569624Y-106189245D01*
X170504605Y-106242605D01*
X170451245Y-106307624D01*
X170411595Y-106381804D01*
X170387178Y-106462293D01*
X170378934Y-106546000D01*
X168838215Y-106546000D01*
X168763279Y-106471064D01*
X168504989Y-106298481D01*
X168217994Y-106179604D01*
X167913321Y-106119000D01*
X167602679Y-106119000D01*
X167298006Y-106179604D01*
X167011011Y-106298481D01*
X166752721Y-106471064D01*
X166533064Y-106690721D01*
X166360481Y-106949011D01*
X166241604Y-107236006D01*
X166181000Y-107540679D01*
X165135000Y-107540679D01*
X165074396Y-107236006D01*
X164955519Y-106949011D01*
X164782936Y-106690721D01*
X164563279Y-106471064D01*
X164304989Y-106298481D01*
X164017994Y-106179604D01*
X163713321Y-106119000D01*
X163402679Y-106119000D01*
X163098006Y-106179604D01*
X162811011Y-106298481D01*
X162552721Y-106471064D01*
X162333064Y-106690721D01*
X162160481Y-106949011D01*
X162041604Y-107236006D01*
X161981000Y-107540679D01*
X160935000Y-107540679D01*
X160874396Y-107236006D01*
X160755519Y-106949011D01*
X160582936Y-106690721D01*
X160363279Y-106471064D01*
X160104989Y-106298481D01*
X159817994Y-106179604D01*
X159513321Y-106119000D01*
X159202679Y-106119000D01*
X158898006Y-106179604D01*
X158611011Y-106298481D01*
X158352721Y-106471064D01*
X158133064Y-106690721D01*
X157960481Y-106949011D01*
X157841604Y-107236006D01*
X157781000Y-107540679D01*
X156735000Y-107540679D01*
X156674396Y-107236006D01*
X156555519Y-106949011D01*
X156382936Y-106690721D01*
X156163279Y-106471064D01*
X155904989Y-106298481D01*
X155617994Y-106179604D01*
X155313321Y-106119000D01*
X155002679Y-106119000D01*
X154698006Y-106179604D01*
X154411011Y-106298481D01*
X154152721Y-106471064D01*
X153933064Y-106690721D01*
X153760481Y-106949011D01*
X153641604Y-107236006D01*
X153581000Y-107540679D01*
X152535000Y-107540679D01*
X152474396Y-107236006D01*
X152355519Y-106949011D01*
X152182936Y-106690721D01*
X151963279Y-106471064D01*
X151704989Y-106298481D01*
X151417994Y-106179604D01*
X151113321Y-106119000D01*
X150802679Y-106119000D01*
X150498006Y-106179604D01*
X150211011Y-106298481D01*
X149952721Y-106471064D01*
X149733064Y-106690721D01*
X149560481Y-106949011D01*
X149441604Y-107236006D01*
X149381000Y-107540679D01*
X148335000Y-107540679D01*
X148274396Y-107236006D01*
X148155519Y-106949011D01*
X147982936Y-106690721D01*
X147763279Y-106471064D01*
X147504989Y-106298481D01*
X147217994Y-106179604D01*
X146913321Y-106119000D01*
X146602679Y-106119000D01*
X146298006Y-106179604D01*
X146011011Y-106298481D01*
X145752721Y-106471064D01*
X145533064Y-106690721D01*
X145360481Y-106949011D01*
X145241604Y-107236006D01*
X145181000Y-107540679D01*
X144135000Y-107540679D01*
X144074396Y-107236006D01*
X143955519Y-106949011D01*
X143782936Y-106690721D01*
X143563279Y-106471064D01*
X143304989Y-106298481D01*
X143017994Y-106179604D01*
X142713321Y-106119000D01*
X142402679Y-106119000D01*
X142098006Y-106179604D01*
X141811011Y-106298481D01*
X141552721Y-106471064D01*
X141333064Y-106690721D01*
X141160481Y-106949011D01*
X141041604Y-107236006D01*
X140981000Y-107540679D01*
X139935000Y-107540679D01*
X139874396Y-107236006D01*
X139755519Y-106949011D01*
X139582936Y-106690721D01*
X139363279Y-106471064D01*
X139104989Y-106298481D01*
X138817994Y-106179604D01*
X138513321Y-106119000D01*
X138202679Y-106119000D01*
X137898006Y-106179604D01*
X137611011Y-106298481D01*
X137352721Y-106471064D01*
X137133064Y-106690721D01*
X136960481Y-106949011D01*
X136841604Y-107236006D01*
X136781000Y-107540679D01*
X127335000Y-107540679D01*
X127274396Y-107236006D01*
X127155519Y-106949011D01*
X126982936Y-106690721D01*
X126763279Y-106471064D01*
X126504989Y-106298481D01*
X126217994Y-106179604D01*
X125913321Y-106119000D01*
X125602679Y-106119000D01*
X125298006Y-106179604D01*
X125011011Y-106298481D01*
X124752721Y-106471064D01*
X124533064Y-106690721D01*
X124360481Y-106949011D01*
X124241604Y-107236006D01*
X124181000Y-107540679D01*
X121952000Y-107540679D01*
X121952000Y-102040679D01*
X124181000Y-102040679D01*
X124181000Y-102351321D01*
X124241604Y-102655994D01*
X124360481Y-102942989D01*
X124533064Y-103201279D01*
X124752721Y-103420936D01*
X125011011Y-103593519D01*
X125298006Y-103712396D01*
X125602679Y-103773000D01*
X125913321Y-103773000D01*
X126217994Y-103712396D01*
X126504989Y-103593519D01*
X126763279Y-103420936D01*
X126982936Y-103201279D01*
X127155519Y-102942989D01*
X127274396Y-102655994D01*
X127335000Y-102351321D01*
X127335000Y-102040679D01*
X128381000Y-102040679D01*
X128381000Y-102351321D01*
X128441604Y-102655994D01*
X128560481Y-102942989D01*
X128733064Y-103201279D01*
X128952721Y-103420936D01*
X129211011Y-103593519D01*
X129498006Y-103712396D01*
X129802679Y-103773000D01*
X130113321Y-103773000D01*
X130417994Y-103712396D01*
X130704989Y-103593519D01*
X130963279Y-103420936D01*
X131182936Y-103201279D01*
X131355519Y-102942989D01*
X131474396Y-102655994D01*
X131535000Y-102351321D01*
X131535000Y-102040679D01*
X132581000Y-102040679D01*
X132581000Y-102351321D01*
X132641604Y-102655994D01*
X132760481Y-102942989D01*
X132933064Y-103201279D01*
X133152721Y-103420936D01*
X133411011Y-103593519D01*
X133698006Y-103712396D01*
X134002679Y-103773000D01*
X134313321Y-103773000D01*
X134617994Y-103712396D01*
X134904989Y-103593519D01*
X135163279Y-103420936D01*
X135382936Y-103201279D01*
X135555519Y-102942989D01*
X135674396Y-102655994D01*
X135735000Y-102351321D01*
X135735000Y-102040679D01*
X136781000Y-102040679D01*
X136781000Y-102351321D01*
X136841604Y-102655994D01*
X136960481Y-102942989D01*
X137133064Y-103201279D01*
X137352721Y-103420936D01*
X137611011Y-103593519D01*
X137898006Y-103712396D01*
X138202679Y-103773000D01*
X138513321Y-103773000D01*
X138817994Y-103712396D01*
X139104989Y-103593519D01*
X139363279Y-103420936D01*
X139582936Y-103201279D01*
X139755519Y-102942989D01*
X139874396Y-102655994D01*
X139935000Y-102351321D01*
X139935000Y-102040679D01*
X140981000Y-102040679D01*
X140981000Y-102351321D01*
X141041604Y-102655994D01*
X141160481Y-102942989D01*
X141333064Y-103201279D01*
X141552721Y-103420936D01*
X141811011Y-103593519D01*
X142098006Y-103712396D01*
X142402679Y-103773000D01*
X142713321Y-103773000D01*
X143017994Y-103712396D01*
X143304989Y-103593519D01*
X143563279Y-103420936D01*
X143782936Y-103201279D01*
X143955519Y-102942989D01*
X144074396Y-102655994D01*
X144135000Y-102351321D01*
X144135000Y-102040679D01*
X145181000Y-102040679D01*
X145181000Y-102351321D01*
X145241604Y-102655994D01*
X145360481Y-102942989D01*
X145533064Y-103201279D01*
X145752721Y-103420936D01*
X146011011Y-103593519D01*
X146298006Y-103712396D01*
X146602679Y-103773000D01*
X146913321Y-103773000D01*
X147217994Y-103712396D01*
X147504989Y-103593519D01*
X147763279Y-103420936D01*
X147982936Y-103201279D01*
X148155519Y-102942989D01*
X148274396Y-102655994D01*
X148335000Y-102351321D01*
X148335000Y-102040679D01*
X149381000Y-102040679D01*
X149381000Y-102351321D01*
X149441604Y-102655994D01*
X149560481Y-102942989D01*
X149733064Y-103201279D01*
X149952721Y-103420936D01*
X150211011Y-103593519D01*
X150498006Y-103712396D01*
X150802679Y-103773000D01*
X151113321Y-103773000D01*
X151417994Y-103712396D01*
X151704989Y-103593519D01*
X151963279Y-103420936D01*
X152182936Y-103201279D01*
X152355519Y-102942989D01*
X152474396Y-102655994D01*
X152535000Y-102351321D01*
X152535000Y-102040679D01*
X153581000Y-102040679D01*
X153581000Y-102351321D01*
X153641604Y-102655994D01*
X153760481Y-102942989D01*
X153933064Y-103201279D01*
X154152721Y-103420936D01*
X154411011Y-103593519D01*
X154698006Y-103712396D01*
X155002679Y-103773000D01*
X155313321Y-103773000D01*
X155617994Y-103712396D01*
X155904989Y-103593519D01*
X156163279Y-103420936D01*
X156382936Y-103201279D01*
X156555519Y-102942989D01*
X156674396Y-102655994D01*
X156735000Y-102351321D01*
X156735000Y-102040679D01*
X156674396Y-101736006D01*
X156555519Y-101449011D01*
X156382936Y-101190721D01*
X156163279Y-100971064D01*
X155904989Y-100798481D01*
X155617994Y-100679604D01*
X155313321Y-100619000D01*
X155002679Y-100619000D01*
X154698006Y-100679604D01*
X154411011Y-100798481D01*
X154152721Y-100971064D01*
X153933064Y-101190721D01*
X153760481Y-101449011D01*
X153641604Y-101736006D01*
X153581000Y-102040679D01*
X152535000Y-102040679D01*
X152474396Y-101736006D01*
X152355519Y-101449011D01*
X152182936Y-101190721D01*
X151963279Y-100971064D01*
X151704989Y-100798481D01*
X151417994Y-100679604D01*
X151113321Y-100619000D01*
X150802679Y-100619000D01*
X150498006Y-100679604D01*
X150211011Y-100798481D01*
X149952721Y-100971064D01*
X149733064Y-101190721D01*
X149560481Y-101449011D01*
X149441604Y-101736006D01*
X149381000Y-102040679D01*
X148335000Y-102040679D01*
X148274396Y-101736006D01*
X148155519Y-101449011D01*
X147982936Y-101190721D01*
X147763279Y-100971064D01*
X147504989Y-100798481D01*
X147217994Y-100679604D01*
X146913321Y-100619000D01*
X146602679Y-100619000D01*
X146298006Y-100679604D01*
X146011011Y-100798481D01*
X145752721Y-100971064D01*
X145533064Y-101190721D01*
X145360481Y-101449011D01*
X145241604Y-101736006D01*
X145181000Y-102040679D01*
X144135000Y-102040679D01*
X144074396Y-101736006D01*
X143955519Y-101449011D01*
X143782936Y-101190721D01*
X143563279Y-100971064D01*
X143304989Y-100798481D01*
X143017994Y-100679604D01*
X142713321Y-100619000D01*
X142402679Y-100619000D01*
X142098006Y-100679604D01*
X141811011Y-100798481D01*
X141552721Y-100971064D01*
X141333064Y-101190721D01*
X141160481Y-101449011D01*
X141041604Y-101736006D01*
X140981000Y-102040679D01*
X139935000Y-102040679D01*
X139874396Y-101736006D01*
X139755519Y-101449011D01*
X139582936Y-101190721D01*
X139363279Y-100971064D01*
X139104989Y-100798481D01*
X138817994Y-100679604D01*
X138513321Y-100619000D01*
X138202679Y-100619000D01*
X137898006Y-100679604D01*
X137611011Y-100798481D01*
X137352721Y-100971064D01*
X137133064Y-101190721D01*
X136960481Y-101449011D01*
X136841604Y-101736006D01*
X136781000Y-102040679D01*
X135735000Y-102040679D01*
X135674396Y-101736006D01*
X135555519Y-101449011D01*
X135382936Y-101190721D01*
X135163279Y-100971064D01*
X134904989Y-100798481D01*
X134617994Y-100679604D01*
X134313321Y-100619000D01*
X134002679Y-100619000D01*
X133698006Y-100679604D01*
X133411011Y-100798481D01*
X133152721Y-100971064D01*
X132933064Y-101190721D01*
X132760481Y-101449011D01*
X132641604Y-101736006D01*
X132581000Y-102040679D01*
X131535000Y-102040679D01*
X131474396Y-101736006D01*
X131355519Y-101449011D01*
X131182936Y-101190721D01*
X130963279Y-100971064D01*
X130704989Y-100798481D01*
X130417994Y-100679604D01*
X130113321Y-100619000D01*
X129802679Y-100619000D01*
X129498006Y-100679604D01*
X129211011Y-100798481D01*
X128952721Y-100971064D01*
X128733064Y-101190721D01*
X128560481Y-101449011D01*
X128441604Y-101736006D01*
X128381000Y-102040679D01*
X127335000Y-102040679D01*
X127274396Y-101736006D01*
X127155519Y-101449011D01*
X126982936Y-101190721D01*
X126763279Y-100971064D01*
X126504989Y-100798481D01*
X126217994Y-100679604D01*
X125913321Y-100619000D01*
X125602679Y-100619000D01*
X125298006Y-100679604D01*
X125011011Y-100798481D01*
X124752721Y-100971064D01*
X124533064Y-101190721D01*
X124360481Y-101449011D01*
X124241604Y-101736006D01*
X124181000Y-102040679D01*
X121952000Y-102040679D01*
X121952000Y-92760961D01*
X125573000Y-92760961D01*
X125573000Y-93239039D01*
X125666268Y-93707930D01*
X125849221Y-94149615D01*
X126114826Y-94547122D01*
X126452878Y-94885174D01*
X126850385Y-95150779D01*
X127292070Y-95333732D01*
X127760961Y-95427000D01*
X128239039Y-95427000D01*
X128707930Y-95333732D01*
X129149615Y-95150779D01*
X129547122Y-94885174D01*
X129885174Y-94547122D01*
X130150779Y-94149615D01*
X130333732Y-93707930D01*
X130427000Y-93239039D01*
X130427000Y-92760961D01*
X130333732Y-92292070D01*
X130150779Y-91850385D01*
X129885174Y-91452878D01*
X129547122Y-91114826D01*
X129149615Y-90849221D01*
X128707930Y-90666268D01*
X128239039Y-90573000D01*
X127760961Y-90573000D01*
X127292070Y-90666268D01*
X126850385Y-90849221D01*
X126452878Y-91114826D01*
X126114826Y-91452878D01*
X125849221Y-91850385D01*
X125666268Y-92292070D01*
X125573000Y-92760961D01*
X121952000Y-92760961D01*
X121952000Y-86760961D01*
X125573000Y-86760961D01*
X125573000Y-87239039D01*
X125666268Y-87707930D01*
X125849221Y-88149615D01*
X126114826Y-88547122D01*
X126452878Y-88885174D01*
X126850385Y-89150779D01*
X127292070Y-89333732D01*
X127760961Y-89427000D01*
X128239039Y-89427000D01*
X128707930Y-89333732D01*
X129149615Y-89150779D01*
X129547122Y-88885174D01*
X129885174Y-88547122D01*
X130150779Y-88149615D01*
X130191213Y-88052000D01*
X131064248Y-88052000D01*
X131448001Y-88435753D01*
X131448000Y-95448321D01*
X131442910Y-95500000D01*
X131448000Y-95551678D01*
X131463222Y-95706227D01*
X131523376Y-95904530D01*
X131621062Y-96087288D01*
X131752524Y-96247476D01*
X131792680Y-96280431D01*
X133719574Y-98207326D01*
X133752524Y-98247476D01*
X133912712Y-98378938D01*
X134095469Y-98476624D01*
X134293772Y-98536778D01*
X134499999Y-98557090D01*
X134551678Y-98552000D01*
X154226249Y-98552000D01*
X157781000Y-102106752D01*
X157781000Y-102351321D01*
X157841604Y-102655994D01*
X157960481Y-102942989D01*
X158133064Y-103201279D01*
X158352721Y-103420936D01*
X158611011Y-103593519D01*
X158898006Y-103712396D01*
X159202679Y-103773000D01*
X159513321Y-103773000D01*
X159817994Y-103712396D01*
X160104989Y-103593519D01*
X160363279Y-103420936D01*
X160582936Y-103201279D01*
X160755519Y-102942989D01*
X160874396Y-102655994D01*
X160935000Y-102351321D01*
X160935000Y-102040679D01*
X161981000Y-102040679D01*
X161981000Y-102351321D01*
X162041604Y-102655994D01*
X162160481Y-102942989D01*
X162333064Y-103201279D01*
X162552721Y-103420936D01*
X162811011Y-103593519D01*
X163098006Y-103712396D01*
X163402679Y-103773000D01*
X163713321Y-103773000D01*
X164017994Y-103712396D01*
X164304989Y-103593519D01*
X164563279Y-103420936D01*
X164782936Y-103201279D01*
X164955519Y-102942989D01*
X165074396Y-102655994D01*
X165135000Y-102351321D01*
X165135000Y-102040679D01*
X166181000Y-102040679D01*
X166181000Y-102351321D01*
X166241604Y-102655994D01*
X166360481Y-102942989D01*
X166533064Y-103201279D01*
X166752721Y-103420936D01*
X167011011Y-103593519D01*
X167298006Y-103712396D01*
X167602679Y-103773000D01*
X167913321Y-103773000D01*
X168217994Y-103712396D01*
X168504989Y-103593519D01*
X168763279Y-103420936D01*
X168982936Y-103201279D01*
X169155519Y-102942989D01*
X169274396Y-102655994D01*
X169335000Y-102351321D01*
X169335000Y-102040679D01*
X170381000Y-102040679D01*
X170381000Y-102351321D01*
X170441604Y-102655994D01*
X170560481Y-102942989D01*
X170733064Y-103201279D01*
X170952721Y-103420936D01*
X171211011Y-103593519D01*
X171498006Y-103712396D01*
X171802679Y-103773000D01*
X172113321Y-103773000D01*
X172417994Y-103712396D01*
X172704989Y-103593519D01*
X172963279Y-103420936D01*
X173182936Y-103201279D01*
X173355519Y-102942989D01*
X173474396Y-102655994D01*
X173535000Y-102351321D01*
X173535000Y-102040679D01*
X173474396Y-101736006D01*
X173355519Y-101449011D01*
X173182936Y-101190721D01*
X172963279Y-100971064D01*
X172704989Y-100798481D01*
X172417994Y-100679604D01*
X172113321Y-100619000D01*
X171802679Y-100619000D01*
X171498006Y-100679604D01*
X171211011Y-100798481D01*
X170952721Y-100971064D01*
X170733064Y-101190721D01*
X170560481Y-101449011D01*
X170441604Y-101736006D01*
X170381000Y-102040679D01*
X169335000Y-102040679D01*
X169274396Y-101736006D01*
X169155519Y-101449011D01*
X168982936Y-101190721D01*
X168763279Y-100971064D01*
X168504989Y-100798481D01*
X168217994Y-100679604D01*
X167913321Y-100619000D01*
X167602679Y-100619000D01*
X167298006Y-100679604D01*
X167011011Y-100798481D01*
X166752721Y-100971064D01*
X166533064Y-101190721D01*
X166360481Y-101449011D01*
X166241604Y-101736006D01*
X166181000Y-102040679D01*
X165135000Y-102040679D01*
X165074396Y-101736006D01*
X164955519Y-101449011D01*
X164782936Y-101190721D01*
X164563279Y-100971064D01*
X164304989Y-100798481D01*
X164017994Y-100679604D01*
X163713321Y-100619000D01*
X163402679Y-100619000D01*
X163098006Y-100679604D01*
X162811011Y-100798481D01*
X162552721Y-100971064D01*
X162333064Y-101190721D01*
X162160481Y-101449011D01*
X162041604Y-101736006D01*
X161981000Y-102040679D01*
X160935000Y-102040679D01*
X160874396Y-101736006D01*
X160755519Y-101449011D01*
X160582936Y-101190721D01*
X160363279Y-100971064D01*
X160104989Y-100798481D01*
X159817994Y-100679604D01*
X159513321Y-100619000D01*
X159268752Y-100619000D01*
X155442431Y-96792680D01*
X155409476Y-96752524D01*
X155249288Y-96621062D01*
X155066531Y-96523376D01*
X154868228Y-96463222D01*
X154713679Y-96448000D01*
X154662000Y-96442910D01*
X154610321Y-96448000D01*
X134935752Y-96448000D01*
X133552000Y-95064249D01*
X133552000Y-91414226D01*
X135723000Y-91414226D01*
X135723000Y-91665774D01*
X135772074Y-91912487D01*
X135868337Y-92144886D01*
X136008089Y-92354040D01*
X136185960Y-92531911D01*
X136395114Y-92671663D01*
X136627513Y-92767926D01*
X136874226Y-92817000D01*
X137125774Y-92817000D01*
X137372487Y-92767926D01*
X137604886Y-92671663D01*
X137814040Y-92531911D01*
X137991911Y-92354040D01*
X138131663Y-92144886D01*
X138227926Y-91912487D01*
X138277000Y-91665774D01*
X138277000Y-91414226D01*
X138227926Y-91167513D01*
X138131663Y-90935114D01*
X137991911Y-90725960D01*
X137814040Y-90548089D01*
X137604886Y-90408337D01*
X137372487Y-90312074D01*
X137125774Y-90263000D01*
X136874226Y-90263000D01*
X136627513Y-90312074D01*
X136395114Y-90408337D01*
X136185960Y-90548089D01*
X136008089Y-90725960D01*
X135868337Y-90935114D01*
X135772074Y-91167513D01*
X135723000Y-91414226D01*
X133552000Y-91414226D01*
X133552000Y-88662470D01*
X157573000Y-88662470D01*
X157573000Y-89337530D01*
X157704697Y-89999619D01*
X157963032Y-90623293D01*
X158338075Y-91184585D01*
X158815415Y-91661925D01*
X159376707Y-92036968D01*
X160000381Y-92295303D01*
X160662470Y-92427000D01*
X161337530Y-92427000D01*
X161999619Y-92295303D01*
X162623293Y-92036968D01*
X163184585Y-91661925D01*
X163661925Y-91184585D01*
X164036968Y-90623293D01*
X164295303Y-89999619D01*
X164427000Y-89337530D01*
X164427000Y-88662470D01*
X167073000Y-88662470D01*
X167073000Y-89337530D01*
X167204697Y-89999619D01*
X167463032Y-90623293D01*
X167838075Y-91184585D01*
X168315415Y-91661925D01*
X168876707Y-92036968D01*
X169500381Y-92295303D01*
X170162470Y-92427000D01*
X170837530Y-92427000D01*
X171499619Y-92295303D01*
X172123293Y-92036968D01*
X172684585Y-91661925D01*
X173161925Y-91184585D01*
X173536968Y-90623293D01*
X173795303Y-89999619D01*
X173927000Y-89337530D01*
X173927000Y-88662470D01*
X173795303Y-88000381D01*
X173536968Y-87376707D01*
X173161925Y-86815415D01*
X172684585Y-86338075D01*
X172123293Y-85963032D01*
X171499619Y-85704697D01*
X170837530Y-85573000D01*
X170162470Y-85573000D01*
X169500381Y-85704697D01*
X168876707Y-85963032D01*
X168315415Y-86338075D01*
X167838075Y-86815415D01*
X167463032Y-87376707D01*
X167204697Y-88000381D01*
X167073000Y-88662470D01*
X164427000Y-88662470D01*
X164295303Y-88000381D01*
X164036968Y-87376707D01*
X163661925Y-86815415D01*
X163184585Y-86338075D01*
X162623293Y-85963032D01*
X161999619Y-85704697D01*
X161337530Y-85573000D01*
X160662470Y-85573000D01*
X160000381Y-85704697D01*
X159376707Y-85963032D01*
X158815415Y-86338075D01*
X158338075Y-86815415D01*
X157963032Y-87376707D01*
X157704697Y-88000381D01*
X157573000Y-88662470D01*
X133552000Y-88662470D01*
X133552000Y-88051686D01*
X133557091Y-88000000D01*
X133536778Y-87793772D01*
X133476624Y-87595469D01*
X133378938Y-87412712D01*
X133280419Y-87292666D01*
X133247476Y-87252524D01*
X133207331Y-87219578D01*
X132280430Y-86292679D01*
X132247476Y-86252524D01*
X132087288Y-86121062D01*
X131904531Y-86023376D01*
X131706228Y-85963222D01*
X131551679Y-85948000D01*
X131500000Y-85942910D01*
X131448321Y-85948000D01*
X130191213Y-85948000D01*
X130150779Y-85850385D01*
X130091028Y-85760961D01*
X147073000Y-85760961D01*
X147073000Y-86239039D01*
X147166268Y-86707930D01*
X147349221Y-87149615D01*
X147614826Y-87547122D01*
X147952878Y-87885174D01*
X148350385Y-88150779D01*
X148792070Y-88333732D01*
X149260961Y-88427000D01*
X149739039Y-88427000D01*
X150207930Y-88333732D01*
X150649615Y-88150779D01*
X151047122Y-87885174D01*
X151385174Y-87547122D01*
X151650779Y-87149615D01*
X151833732Y-86707930D01*
X151927000Y-86239039D01*
X151927000Y-85760961D01*
X151833732Y-85292070D01*
X151650779Y-84850385D01*
X151385174Y-84452878D01*
X151047122Y-84114826D01*
X150649615Y-83849221D01*
X150207930Y-83666268D01*
X149739039Y-83573000D01*
X149260961Y-83573000D01*
X148792070Y-83666268D01*
X148350385Y-83849221D01*
X147952878Y-84114826D01*
X147614826Y-84452878D01*
X147349221Y-84850385D01*
X147166268Y-85292070D01*
X147073000Y-85760961D01*
X130091028Y-85760961D01*
X129885174Y-85452878D01*
X129547122Y-85114826D01*
X129149615Y-84849221D01*
X128707930Y-84666268D01*
X128239039Y-84573000D01*
X127760961Y-84573000D01*
X127292070Y-84666268D01*
X126850385Y-84849221D01*
X126452878Y-85114826D01*
X126114826Y-85452878D01*
X125849221Y-85850385D01*
X125666268Y-86292070D01*
X125573000Y-86760961D01*
X121952000Y-86760961D01*
X121952000Y-82868000D01*
X161789813Y-82868000D01*
X161798540Y-82956607D01*
X161824386Y-83041810D01*
X161866357Y-83120333D01*
X161922841Y-83189159D01*
X161991667Y-83245643D01*
X162070190Y-83287614D01*
X162155393Y-83313460D01*
X162221795Y-83320000D01*
X162266205Y-83320000D01*
X162332607Y-83313460D01*
X162417810Y-83287614D01*
X162496333Y-83245643D01*
X162565159Y-83189159D01*
X162621643Y-83120333D01*
X162663614Y-83041810D01*
X162689460Y-82956607D01*
X162698187Y-82868000D01*
X162689460Y-82779393D01*
X162663614Y-82694190D01*
X162621643Y-82615667D01*
X162565159Y-82546841D01*
X162496333Y-82490357D01*
X162417810Y-82448386D01*
X162332607Y-82422540D01*
X162266205Y-82416000D01*
X162221795Y-82416000D01*
X162155393Y-82422540D01*
X162070190Y-82448386D01*
X161991667Y-82490357D01*
X161922841Y-82546841D01*
X161866357Y-82615667D01*
X161824386Y-82694190D01*
X161798540Y-82779393D01*
X161789813Y-82868000D01*
X121952000Y-82868000D01*
X121952000Y-78662470D01*
X133573000Y-78662470D01*
X133573000Y-79337530D01*
X133704697Y-79999619D01*
X133963032Y-80623293D01*
X134338075Y-81184585D01*
X134815415Y-81661925D01*
X135376707Y-82036968D01*
X136000381Y-82295303D01*
X136662470Y-82427000D01*
X137337530Y-82427000D01*
X137999619Y-82295303D01*
X138623293Y-82036968D01*
X139184585Y-81661925D01*
X139661925Y-81184585D01*
X140036968Y-80623293D01*
X140295303Y-79999619D01*
X140427000Y-79337530D01*
X140427000Y-78760961D01*
X143073000Y-78760961D01*
X143073000Y-79239039D01*
X143166268Y-79707930D01*
X143349221Y-80149615D01*
X143614826Y-80547122D01*
X143952878Y-80885174D01*
X144350385Y-81150779D01*
X144792070Y-81333732D01*
X145260961Y-81427000D01*
X145739039Y-81427000D01*
X146207930Y-81333732D01*
X146649615Y-81150779D01*
X147047122Y-80885174D01*
X147385174Y-80547122D01*
X147650779Y-80149615D01*
X147833732Y-79707930D01*
X147927000Y-79239039D01*
X147927000Y-78760961D01*
X150573000Y-78760961D01*
X150573000Y-79239039D01*
X150666268Y-79707930D01*
X150849221Y-80149615D01*
X151114826Y-80547122D01*
X151452878Y-80885174D01*
X151850385Y-81150779D01*
X152292070Y-81333732D01*
X152760961Y-81427000D01*
X153239039Y-81427000D01*
X153707930Y-81333732D01*
X154149615Y-81150779D01*
X154547122Y-80885174D01*
X154885174Y-80547122D01*
X155150779Y-80149615D01*
X155333732Y-79707930D01*
X155427000Y-79239039D01*
X155427000Y-78760961D01*
X155387518Y-78562470D01*
X157573000Y-78562470D01*
X157573000Y-79237530D01*
X157704697Y-79899619D01*
X157963032Y-80523293D01*
X158338075Y-81084585D01*
X158815415Y-81561925D01*
X159376707Y-81936968D01*
X160000381Y-82195303D01*
X160662470Y-82327000D01*
X161337530Y-82327000D01*
X161999619Y-82195303D01*
X162623293Y-81936968D01*
X163184585Y-81561925D01*
X163661925Y-81084585D01*
X164036968Y-80523293D01*
X164295303Y-79899619D01*
X164427000Y-79237530D01*
X164427000Y-78562470D01*
X164407109Y-78462470D01*
X166873000Y-78462470D01*
X166873000Y-79137530D01*
X167004697Y-79799619D01*
X167263032Y-80423293D01*
X167638075Y-80984585D01*
X168115415Y-81461925D01*
X168676707Y-81836968D01*
X169300381Y-82095303D01*
X169962470Y-82227000D01*
X170637530Y-82227000D01*
X171299619Y-82095303D01*
X171923293Y-81836968D01*
X172484585Y-81461925D01*
X172961925Y-80984585D01*
X173336968Y-80423293D01*
X173595303Y-79799619D01*
X173727000Y-79137530D01*
X173727000Y-78462470D01*
X173595303Y-77800381D01*
X173336968Y-77176707D01*
X172961925Y-76615415D01*
X172484585Y-76138075D01*
X171923293Y-75763032D01*
X171299619Y-75504697D01*
X170637530Y-75373000D01*
X169962470Y-75373000D01*
X169300381Y-75504697D01*
X168676707Y-75763032D01*
X168115415Y-76138075D01*
X167638075Y-76615415D01*
X167263032Y-77176707D01*
X167004697Y-77800381D01*
X166873000Y-78462470D01*
X164407109Y-78462470D01*
X164295303Y-77900381D01*
X164036968Y-77276707D01*
X163661925Y-76715415D01*
X163184585Y-76238075D01*
X162623293Y-75863032D01*
X161999619Y-75604697D01*
X161337530Y-75473000D01*
X160662470Y-75473000D01*
X160000381Y-75604697D01*
X159376707Y-75863032D01*
X158815415Y-76238075D01*
X158338075Y-76715415D01*
X157963032Y-77276707D01*
X157704697Y-77900381D01*
X157573000Y-78562470D01*
X155387518Y-78562470D01*
X155333732Y-78292070D01*
X155150779Y-77850385D01*
X154885174Y-77452878D01*
X154547122Y-77114826D01*
X154149615Y-76849221D01*
X153707930Y-76666268D01*
X153239039Y-76573000D01*
X152760961Y-76573000D01*
X152292070Y-76666268D01*
X151850385Y-76849221D01*
X151452878Y-77114826D01*
X151114826Y-77452878D01*
X150849221Y-77850385D01*
X150666268Y-78292070D01*
X150573000Y-78760961D01*
X147927000Y-78760961D01*
X147833732Y-78292070D01*
X147650779Y-77850385D01*
X147385174Y-77452878D01*
X147047122Y-77114826D01*
X146649615Y-76849221D01*
X146207930Y-76666268D01*
X145739039Y-76573000D01*
X145260961Y-76573000D01*
X144792070Y-76666268D01*
X144350385Y-76849221D01*
X143952878Y-77114826D01*
X143614826Y-77452878D01*
X143349221Y-77850385D01*
X143166268Y-78292070D01*
X143073000Y-78760961D01*
X140427000Y-78760961D01*
X140427000Y-78662470D01*
X140295303Y-78000381D01*
X140036968Y-77376707D01*
X139661925Y-76815415D01*
X139184585Y-76338075D01*
X138623293Y-75963032D01*
X137999619Y-75704697D01*
X137337530Y-75573000D01*
X136662470Y-75573000D01*
X136000381Y-75704697D01*
X135376707Y-75963032D01*
X134815415Y-76338075D01*
X134338075Y-76815415D01*
X133963032Y-77376707D01*
X133704697Y-78000381D01*
X133573000Y-78662470D01*
X121952000Y-78662470D01*
X121952000Y-73952000D01*
X175548205Y-73952000D01*
X175569796Y-121548000D01*
%TA.AperFunction,Conductor*%
D23*
G36*
X175569796Y-121548000D02*
G01*
X124939594Y-121548000D01*
X125001218Y-121399227D01*
X125033000Y-121239452D01*
X125033000Y-121076548D01*
X125014604Y-120984066D01*
X125061001Y-120984066D01*
X125193480Y-120971018D01*
X125320868Y-120932375D01*
X125438269Y-120869623D01*
X125541172Y-120785172D01*
X125625623Y-120682269D01*
X125688375Y-120564868D01*
X125727018Y-120437480D01*
X125740066Y-120305001D01*
X125740066Y-120041914D01*
X125846269Y-120112877D01*
X125996773Y-120175218D01*
X126156548Y-120207000D01*
X126319452Y-120207000D01*
X126479227Y-120175218D01*
X126629731Y-120112877D01*
X126765181Y-120022372D01*
X126880372Y-119907181D01*
X126970877Y-119771731D01*
X127033218Y-119621227D01*
X127065000Y-119461452D01*
X127065000Y-119298548D01*
X127033218Y-119138773D01*
X126970877Y-118988269D01*
X126880372Y-118852819D01*
X126765181Y-118737628D01*
X126629731Y-118647123D01*
X126479227Y-118584782D01*
X126319452Y-118553000D01*
X126156548Y-118553000D01*
X125996773Y-118584782D01*
X125846269Y-118647123D01*
X125740066Y-118718086D01*
X125740066Y-118454999D01*
X125727018Y-118322520D01*
X125688375Y-118195132D01*
X125625623Y-118077731D01*
X125541172Y-117974828D01*
X125438269Y-117890377D01*
X125320868Y-117827625D01*
X125193480Y-117788982D01*
X125061001Y-117775934D01*
X124914687Y-117775934D01*
X124938877Y-117739731D01*
X125001218Y-117589227D01*
X125033000Y-117429452D01*
X125033000Y-117266548D01*
X125001218Y-117106773D01*
X124938877Y-116956269D01*
X124848372Y-116820819D01*
X124738000Y-116710447D01*
X124738000Y-116666066D01*
X125061001Y-116666066D01*
X125193480Y-116653018D01*
X125320868Y-116614375D01*
X125438269Y-116551623D01*
X125541172Y-116467172D01*
X125625623Y-116364269D01*
X125688375Y-116246868D01*
X125727018Y-116119480D01*
X125740066Y-115987001D01*
X125740066Y-115723914D01*
X125846269Y-115794877D01*
X125996773Y-115857218D01*
X126156548Y-115889000D01*
X126319452Y-115889000D01*
X126479227Y-115857218D01*
X126629731Y-115794877D01*
X126765181Y-115704372D01*
X126880372Y-115589181D01*
X126970877Y-115453731D01*
X127033218Y-115303227D01*
X127065000Y-115143452D01*
X127065000Y-114980548D01*
X127033218Y-114820773D01*
X126970877Y-114670269D01*
X126880372Y-114534819D01*
X126765181Y-114419628D01*
X126629731Y-114329123D01*
X126479227Y-114266782D01*
X126319452Y-114235000D01*
X126156548Y-114235000D01*
X125996773Y-114266782D01*
X125846269Y-114329123D01*
X125740066Y-114400086D01*
X125740066Y-114136999D01*
X127731934Y-114136999D01*
X127731934Y-115987001D01*
X127744982Y-116119480D01*
X127783625Y-116246868D01*
X127846377Y-116364269D01*
X127930828Y-116467172D01*
X128033731Y-116551623D01*
X128151132Y-116614375D01*
X128278520Y-116653018D01*
X128410999Y-116666066D01*
X130161001Y-116666066D01*
X130293480Y-116653018D01*
X130420868Y-116614375D01*
X130538269Y-116551623D01*
X130641172Y-116467172D01*
X130725623Y-116364269D01*
X130788375Y-116246868D01*
X130827018Y-116119480D01*
X130840066Y-115987001D01*
X130840066Y-114995685D01*
X131753752Y-114082000D01*
X134107993Y-114082000D01*
X133946804Y-114148767D01*
X133590243Y-114387013D01*
X133287013Y-114690243D01*
X133048767Y-115046804D01*
X132884660Y-115442992D01*
X132801000Y-115863584D01*
X132801000Y-116292416D01*
X132884660Y-116713008D01*
X133048767Y-117109196D01*
X133287013Y-117465757D01*
X133590243Y-117768987D01*
X133946804Y-118007233D01*
X134342992Y-118171340D01*
X134763584Y-118255000D01*
X135192416Y-118255000D01*
X135613008Y-118171340D01*
X136009196Y-118007233D01*
X136365757Y-117768987D01*
X136668987Y-117465757D01*
X136907233Y-117109196D01*
X137071340Y-116713008D01*
X137155000Y-116292416D01*
X137155000Y-115863584D01*
X137071340Y-115442992D01*
X136907233Y-115046804D01*
X136668987Y-114690243D01*
X136365757Y-114387013D01*
X136009196Y-114148767D01*
X135848007Y-114082000D01*
X144344249Y-114082000D01*
X147047574Y-116785326D01*
X147080524Y-116825476D01*
X147214943Y-116935790D01*
X147240712Y-116956938D01*
X147423469Y-117054624D01*
X147621772Y-117114778D01*
X147828000Y-117135090D01*
X147879679Y-117130000D01*
X150697848Y-117130000D01*
X150820383Y-117230562D01*
X151040094Y-117348000D01*
X150820383Y-117465438D01*
X150697848Y-117566000D01*
X147879679Y-117566000D01*
X147828000Y-117560910D01*
X147776321Y-117566000D01*
X147621772Y-117581222D01*
X147423469Y-117641376D01*
X147240712Y-117739062D01*
X147080524Y-117870524D01*
X147047578Y-117910670D01*
X146630248Y-118328000D01*
X130827558Y-118328000D01*
X130827018Y-118322520D01*
X130788375Y-118195132D01*
X130725623Y-118077731D01*
X130641172Y-117974828D01*
X130538269Y-117890377D01*
X130420868Y-117827625D01*
X130293480Y-117788982D01*
X130161001Y-117775934D01*
X128410999Y-117775934D01*
X128278520Y-117788982D01*
X128151132Y-117827625D01*
X128033731Y-117890377D01*
X127930828Y-117974828D01*
X127846377Y-118077731D01*
X127783625Y-118195132D01*
X127744982Y-118322520D01*
X127731934Y-118454999D01*
X127731934Y-120305001D01*
X127744982Y-120437480D01*
X127783625Y-120564868D01*
X127846377Y-120682269D01*
X127930828Y-120785172D01*
X128033731Y-120869623D01*
X128151132Y-120932375D01*
X128278520Y-120971018D01*
X128410999Y-120984066D01*
X130161001Y-120984066D01*
X130293480Y-120971018D01*
X130420868Y-120932375D01*
X130538269Y-120869623D01*
X130641172Y-120785172D01*
X130725623Y-120682269D01*
X130788375Y-120564868D01*
X130827018Y-120437480D01*
X130827558Y-120432000D01*
X147014321Y-120432000D01*
X147066000Y-120437090D01*
X147117679Y-120432000D01*
X147272228Y-120416778D01*
X147470531Y-120356624D01*
X147653288Y-120258938D01*
X147813476Y-120127476D01*
X147846430Y-120087321D01*
X148263752Y-119670000D01*
X150697848Y-119670000D01*
X150820383Y-119770562D01*
X151060034Y-119898658D01*
X151320071Y-119977539D01*
X151522738Y-119997500D01*
X151753262Y-119997500D01*
X151955929Y-119977539D01*
X152215966Y-119898658D01*
X152455617Y-119770562D01*
X152665673Y-119598173D01*
X152838062Y-119388117D01*
X152966158Y-119148466D01*
X153045039Y-118888429D01*
X153071674Y-118618000D01*
X153045039Y-118347571D01*
X152966158Y-118087534D01*
X152838062Y-117847883D01*
X152665673Y-117637827D01*
X152455617Y-117465438D01*
X152235906Y-117348000D01*
X152455617Y-117230562D01*
X152665673Y-117058173D01*
X152838062Y-116848117D01*
X152966158Y-116608466D01*
X153045039Y-116348429D01*
X153071674Y-116078000D01*
X153045039Y-115807571D01*
X152966158Y-115547534D01*
X152838062Y-115307883D01*
X152683870Y-115119999D01*
X168179934Y-115119999D01*
X168179934Y-116020001D01*
X168192982Y-116152480D01*
X168231625Y-116279868D01*
X168294377Y-116397269D01*
X168378828Y-116500172D01*
X168481731Y-116584623D01*
X168507000Y-116598130D01*
X168507001Y-117848681D01*
X168490731Y-117857377D01*
X168387828Y-117941828D01*
X168303377Y-118044731D01*
X168240625Y-118162132D01*
X168201982Y-118289520D01*
X168188934Y-118421999D01*
X168188934Y-119322001D01*
X168201982Y-119454480D01*
X168240625Y-119581868D01*
X168303377Y-119699269D01*
X168387828Y-119802172D01*
X168490731Y-119886623D01*
X168608132Y-119949375D01*
X168735520Y-119988018D01*
X168867999Y-120001066D01*
X169518001Y-120001066D01*
X169650480Y-119988018D01*
X169777868Y-119949375D01*
X169895269Y-119886623D01*
X169998172Y-119802172D01*
X170082623Y-119699269D01*
X170145375Y-119581868D01*
X170184018Y-119454480D01*
X170197066Y-119322001D01*
X170197066Y-118421999D01*
X170238934Y-118421999D01*
X170238934Y-119322001D01*
X170251982Y-119454480D01*
X170290625Y-119581868D01*
X170353377Y-119699269D01*
X170437828Y-119802172D01*
X170540731Y-119886623D01*
X170658132Y-119949375D01*
X170785520Y-119988018D01*
X170917999Y-120001066D01*
X171568001Y-120001066D01*
X171700480Y-119988018D01*
X171827868Y-119949375D01*
X171945269Y-119886623D01*
X172048172Y-119802172D01*
X172132623Y-119699269D01*
X172195375Y-119581868D01*
X172203575Y-119554835D01*
X172216782Y-119621227D01*
X172279123Y-119771731D01*
X172369628Y-119907181D01*
X172484819Y-120022372D01*
X172620269Y-120112877D01*
X172770773Y-120175218D01*
X172930548Y-120207000D01*
X173093452Y-120207000D01*
X173253227Y-120175218D01*
X173403731Y-120112877D01*
X173539181Y-120022372D01*
X173654372Y-119907181D01*
X173744877Y-119771731D01*
X173807218Y-119621227D01*
X173839000Y-119461452D01*
X173839000Y-119298548D01*
X173807218Y-119138773D01*
X173744877Y-118988269D01*
X173667188Y-118872000D01*
X173744877Y-118755731D01*
X173807218Y-118605227D01*
X173839000Y-118445452D01*
X173839000Y-118282548D01*
X173807218Y-118122773D01*
X173744877Y-117972269D01*
X173654372Y-117836819D01*
X173539181Y-117721628D01*
X173403731Y-117631123D01*
X173253227Y-117568782D01*
X173093452Y-117537000D01*
X172930548Y-117537000D01*
X172770773Y-117568782D01*
X172620269Y-117631123D01*
X172484819Y-117721628D01*
X172369628Y-117836819D01*
X172279123Y-117972269D01*
X172216782Y-118122773D01*
X172203575Y-118189165D01*
X172195375Y-118162132D01*
X172132623Y-118044731D01*
X172048172Y-117941828D01*
X171945269Y-117857377D01*
X171827868Y-117794625D01*
X171700480Y-117755982D01*
X171568001Y-117742934D01*
X170917999Y-117742934D01*
X170785520Y-117755982D01*
X170658132Y-117794625D01*
X170540731Y-117857377D01*
X170437828Y-117941828D01*
X170353377Y-118044731D01*
X170290625Y-118162132D01*
X170251982Y-118289520D01*
X170238934Y-118421999D01*
X170197066Y-118421999D01*
X170184018Y-118289520D01*
X170145375Y-118162132D01*
X170082623Y-118044731D01*
X169998172Y-117941828D01*
X169895269Y-117857377D01*
X169861000Y-117839060D01*
X169861000Y-116598130D01*
X169886269Y-116584623D01*
X169989172Y-116500172D01*
X170073623Y-116397269D01*
X170136375Y-116279868D01*
X170175018Y-116152480D01*
X170188066Y-116020001D01*
X170188066Y-115119999D01*
X170175018Y-114987520D01*
X170136375Y-114860132D01*
X170073623Y-114742731D01*
X169989172Y-114639828D01*
X169886269Y-114555377D01*
X169768868Y-114492625D01*
X169641480Y-114453982D01*
X169509001Y-114440934D01*
X168858999Y-114440934D01*
X168726520Y-114453982D01*
X168599132Y-114492625D01*
X168481731Y-114555377D01*
X168378828Y-114639828D01*
X168294377Y-114742731D01*
X168231625Y-114860132D01*
X168192982Y-114987520D01*
X168179934Y-115119999D01*
X152683870Y-115119999D01*
X152665673Y-115097827D01*
X152455617Y-114925438D01*
X152444631Y-114919566D01*
X152638000Y-114919566D01*
X152721707Y-114911322D01*
X152802196Y-114886905D01*
X152876376Y-114847255D01*
X152941395Y-114793895D01*
X152994755Y-114728876D01*
X153034405Y-114654696D01*
X153058822Y-114574207D01*
X153067066Y-114490500D01*
X153067066Y-112585500D01*
X153058822Y-112501793D01*
X153034405Y-112421304D01*
X152994755Y-112347124D01*
X152941395Y-112282105D01*
X152876376Y-112228745D01*
X152802196Y-112189095D01*
X152721707Y-112164678D01*
X152638000Y-112156434D01*
X150638000Y-112156434D01*
X150554293Y-112164678D01*
X150473804Y-112189095D01*
X150399624Y-112228745D01*
X150334605Y-112282105D01*
X150281245Y-112347124D01*
X150241595Y-112421304D01*
X150217178Y-112501793D01*
X150208934Y-112585500D01*
X150208934Y-114490500D01*
X150217178Y-114574207D01*
X150241595Y-114654696D01*
X150281245Y-114728876D01*
X150334605Y-114793895D01*
X150399624Y-114847255D01*
X150473804Y-114886905D01*
X150554293Y-114911322D01*
X150638000Y-114919566D01*
X150831369Y-114919566D01*
X150820383Y-114925438D01*
X150697848Y-115026000D01*
X148263752Y-115026000D01*
X145560431Y-112322680D01*
X145527476Y-112282524D01*
X145367288Y-112151062D01*
X145184531Y-112053376D01*
X144986228Y-111993222D01*
X144831679Y-111978000D01*
X144780000Y-111972910D01*
X144728321Y-111978000D01*
X131369679Y-111978000D01*
X131318000Y-111972910D01*
X131266321Y-111978000D01*
X131111772Y-111993222D01*
X130913469Y-112053376D01*
X130730712Y-112151062D01*
X130570524Y-112282524D01*
X130537574Y-112322674D01*
X129402315Y-113457934D01*
X128410999Y-113457934D01*
X128278520Y-113470982D01*
X128151132Y-113509625D01*
X128033731Y-113572377D01*
X127930828Y-113656828D01*
X127846377Y-113759731D01*
X127783625Y-113877132D01*
X127744982Y-114004520D01*
X127731934Y-114136999D01*
X125740066Y-114136999D01*
X125727018Y-114004520D01*
X125688375Y-113877132D01*
X125625623Y-113759731D01*
X125541172Y-113656828D01*
X125438269Y-113572377D01*
X125320868Y-113509625D01*
X125193480Y-113470982D01*
X125061001Y-113457934D01*
X124914687Y-113457934D01*
X124938877Y-113421731D01*
X125001218Y-113271227D01*
X125033000Y-113111452D01*
X125033000Y-112948548D01*
X125001218Y-112788773D01*
X124938877Y-112638269D01*
X124848372Y-112502819D01*
X124733181Y-112387628D01*
X124597731Y-112297123D01*
X124447227Y-112234782D01*
X124287452Y-112203000D01*
X124124548Y-112203000D01*
X123964773Y-112234782D01*
X123814269Y-112297123D01*
X123678819Y-112387628D01*
X123563628Y-112502819D01*
X123473123Y-112638269D01*
X123410782Y-112788773D01*
X123379000Y-112948548D01*
X123379000Y-113111452D01*
X123410782Y-113271227D01*
X123473123Y-113421731D01*
X123497313Y-113457934D01*
X123310999Y-113457934D01*
X123178520Y-113470982D01*
X123051132Y-113509625D01*
X122933731Y-113572377D01*
X122830828Y-113656828D01*
X122746377Y-113759731D01*
X122683625Y-113877132D01*
X122644982Y-114004520D01*
X122631934Y-114136999D01*
X122631934Y-114259364D01*
X122509452Y-114235000D01*
X122346548Y-114235000D01*
X122186773Y-114266782D01*
X122036269Y-114329123D01*
X121952000Y-114385430D01*
X121952000Y-107540679D01*
X124181000Y-107540679D01*
X124181000Y-107851321D01*
X124241604Y-108155994D01*
X124360481Y-108442989D01*
X124533064Y-108701279D01*
X124752721Y-108920936D01*
X125011011Y-109093519D01*
X125298006Y-109212396D01*
X125602679Y-109273000D01*
X125913321Y-109273000D01*
X126217994Y-109212396D01*
X126504989Y-109093519D01*
X126763279Y-108920936D01*
X126982936Y-108701279D01*
X127155519Y-108442989D01*
X127274396Y-108155994D01*
X127335000Y-107851321D01*
X127335000Y-107540679D01*
X136781000Y-107540679D01*
X136781000Y-107851321D01*
X136841604Y-108155994D01*
X136960481Y-108442989D01*
X137133064Y-108701279D01*
X137352721Y-108920936D01*
X137611011Y-109093519D01*
X137898006Y-109212396D01*
X138202679Y-109273000D01*
X138513321Y-109273000D01*
X138817994Y-109212396D01*
X139104989Y-109093519D01*
X139363279Y-108920936D01*
X139582936Y-108701279D01*
X139755519Y-108442989D01*
X139874396Y-108155994D01*
X139935000Y-107851321D01*
X139935000Y-107540679D01*
X140981000Y-107540679D01*
X140981000Y-107851321D01*
X141041604Y-108155994D01*
X141160481Y-108442989D01*
X141333064Y-108701279D01*
X141552721Y-108920936D01*
X141811011Y-109093519D01*
X142098006Y-109212396D01*
X142402679Y-109273000D01*
X142713321Y-109273000D01*
X143017994Y-109212396D01*
X143087983Y-109183406D01*
X145359778Y-111455201D01*
X145380973Y-111481027D01*
X145406799Y-111502222D01*
X145406801Y-111502224D01*
X145484059Y-111565628D01*
X145601670Y-111628492D01*
X145729285Y-111667204D01*
X145862000Y-111680275D01*
X145895252Y-111677000D01*
X169719578Y-111677000D01*
X170557000Y-112514423D01*
X170557001Y-114541870D01*
X170531731Y-114555377D01*
X170428828Y-114639828D01*
X170344377Y-114742731D01*
X170281625Y-114860132D01*
X170242982Y-114987520D01*
X170229934Y-115119999D01*
X170229934Y-116020001D01*
X170242982Y-116152480D01*
X170281625Y-116279868D01*
X170344377Y-116397269D01*
X170428828Y-116500172D01*
X170531731Y-116584623D01*
X170649132Y-116647375D01*
X170776520Y-116686018D01*
X170908999Y-116699066D01*
X171559001Y-116699066D01*
X171691480Y-116686018D01*
X171818868Y-116647375D01*
X171936269Y-116584623D01*
X172039172Y-116500172D01*
X172123623Y-116397269D01*
X172186375Y-116279868D01*
X172225018Y-116152480D01*
X172238066Y-116020001D01*
X172238066Y-115119999D01*
X172225018Y-114987520D01*
X172186375Y-114860132D01*
X172123623Y-114742731D01*
X172039172Y-114639828D01*
X171936269Y-114555377D01*
X171911000Y-114541870D01*
X171911000Y-112267252D01*
X171914275Y-112234000D01*
X171901204Y-112101285D01*
X171862492Y-111973670D01*
X171799628Y-111856059D01*
X171736224Y-111778801D01*
X171736218Y-111778795D01*
X171715026Y-111752973D01*
X171689205Y-111731783D01*
X170502226Y-110544804D01*
X170481027Y-110518973D01*
X170377941Y-110434372D01*
X170260330Y-110371508D01*
X170132715Y-110332796D01*
X170033252Y-110323000D01*
X170033245Y-110323000D01*
X170000000Y-110319726D01*
X169966755Y-110323000D01*
X146142423Y-110323000D01*
X144045406Y-108225983D01*
X144074396Y-108155994D01*
X144135000Y-107851321D01*
X144135000Y-107540679D01*
X145181000Y-107540679D01*
X145181000Y-107851321D01*
X145241604Y-108155994D01*
X145360481Y-108442989D01*
X145533064Y-108701279D01*
X145752721Y-108920936D01*
X146011011Y-109093519D01*
X146298006Y-109212396D01*
X146602679Y-109273000D01*
X146913321Y-109273000D01*
X147217994Y-109212396D01*
X147504989Y-109093519D01*
X147763279Y-108920936D01*
X147982936Y-108701279D01*
X148155519Y-108442989D01*
X148274396Y-108155994D01*
X148335000Y-107851321D01*
X148335000Y-107540679D01*
X149381000Y-107540679D01*
X149381000Y-107851321D01*
X149441604Y-108155994D01*
X149560481Y-108442989D01*
X149733064Y-108701279D01*
X149952721Y-108920936D01*
X150211011Y-109093519D01*
X150498006Y-109212396D01*
X150802679Y-109273000D01*
X151113321Y-109273000D01*
X151417994Y-109212396D01*
X151704989Y-109093519D01*
X151963279Y-108920936D01*
X152182936Y-108701279D01*
X152355519Y-108442989D01*
X152474396Y-108155994D01*
X152535000Y-107851321D01*
X152535000Y-107540679D01*
X153581000Y-107540679D01*
X153581000Y-107851321D01*
X153641604Y-108155994D01*
X153760481Y-108442989D01*
X153933064Y-108701279D01*
X154152721Y-108920936D01*
X154411011Y-109093519D01*
X154698006Y-109212396D01*
X155002679Y-109273000D01*
X155313321Y-109273000D01*
X155617994Y-109212396D01*
X155904989Y-109093519D01*
X156163279Y-108920936D01*
X156382936Y-108701279D01*
X156555519Y-108442989D01*
X156674396Y-108155994D01*
X156735000Y-107851321D01*
X156735000Y-107540679D01*
X157781000Y-107540679D01*
X157781000Y-107851321D01*
X157841604Y-108155994D01*
X157960481Y-108442989D01*
X158133064Y-108701279D01*
X158352721Y-108920936D01*
X158611011Y-109093519D01*
X158898006Y-109212396D01*
X159202679Y-109273000D01*
X159513321Y-109273000D01*
X159817994Y-109212396D01*
X160104989Y-109093519D01*
X160363279Y-108920936D01*
X160582936Y-108701279D01*
X160755519Y-108442989D01*
X160874396Y-108155994D01*
X160935000Y-107851321D01*
X160935000Y-107540679D01*
X161981000Y-107540679D01*
X161981000Y-107851321D01*
X162041604Y-108155994D01*
X162160481Y-108442989D01*
X162333064Y-108701279D01*
X162552721Y-108920936D01*
X162811011Y-109093519D01*
X163098006Y-109212396D01*
X163402679Y-109273000D01*
X163713321Y-109273000D01*
X164017994Y-109212396D01*
X164304989Y-109093519D01*
X164563279Y-108920936D01*
X164782936Y-108701279D01*
X164955519Y-108442989D01*
X165074396Y-108155994D01*
X165135000Y-107851321D01*
X165135000Y-107540679D01*
X166181000Y-107540679D01*
X166181000Y-107851321D01*
X166241604Y-108155994D01*
X166360481Y-108442989D01*
X166533064Y-108701279D01*
X166752721Y-108920936D01*
X167011011Y-109093519D01*
X167298006Y-109212396D01*
X167602679Y-109273000D01*
X167913321Y-109273000D01*
X168217994Y-109212396D01*
X168504989Y-109093519D01*
X168763279Y-108920936D01*
X168982936Y-108701279D01*
X169155519Y-108442989D01*
X169274396Y-108155994D01*
X169335000Y-107851321D01*
X169335000Y-107540679D01*
X169274396Y-107236006D01*
X169155519Y-106949011D01*
X168982936Y-106690721D01*
X168838215Y-106546000D01*
X170378934Y-106546000D01*
X170378934Y-108846000D01*
X170387178Y-108929707D01*
X170411595Y-109010196D01*
X170451245Y-109084376D01*
X170504605Y-109149395D01*
X170569624Y-109202755D01*
X170643804Y-109242405D01*
X170724293Y-109266822D01*
X170808000Y-109275066D01*
X173108000Y-109275066D01*
X173191707Y-109266822D01*
X173272196Y-109242405D01*
X173346376Y-109202755D01*
X173411395Y-109149395D01*
X173464755Y-109084376D01*
X173504405Y-109010196D01*
X173528822Y-108929707D01*
X173537066Y-108846000D01*
X173537066Y-106546000D01*
X173528822Y-106462293D01*
X173504405Y-106381804D01*
X173464755Y-106307624D01*
X173411395Y-106242605D01*
X173346376Y-106189245D01*
X173272196Y-106149595D01*
X173191707Y-106125178D01*
X173108000Y-106116934D01*
X170808000Y-106116934D01*
X170724293Y-106125178D01*
X170643804Y-106149595D01*
X170569624Y-106189245D01*
X170504605Y-106242605D01*
X170451245Y-106307624D01*
X170411595Y-106381804D01*
X170387178Y-106462293D01*
X170378934Y-106546000D01*
X168838215Y-106546000D01*
X168763279Y-106471064D01*
X168504989Y-106298481D01*
X168217994Y-106179604D01*
X167913321Y-106119000D01*
X167602679Y-106119000D01*
X167298006Y-106179604D01*
X167011011Y-106298481D01*
X166752721Y-106471064D01*
X166533064Y-106690721D01*
X166360481Y-106949011D01*
X166241604Y-107236006D01*
X166181000Y-107540679D01*
X165135000Y-107540679D01*
X165074396Y-107236006D01*
X164955519Y-106949011D01*
X164782936Y-106690721D01*
X164563279Y-106471064D01*
X164304989Y-106298481D01*
X164017994Y-106179604D01*
X163713321Y-106119000D01*
X163402679Y-106119000D01*
X163098006Y-106179604D01*
X162811011Y-106298481D01*
X162552721Y-106471064D01*
X162333064Y-106690721D01*
X162160481Y-106949011D01*
X162041604Y-107236006D01*
X161981000Y-107540679D01*
X160935000Y-107540679D01*
X160874396Y-107236006D01*
X160755519Y-106949011D01*
X160582936Y-106690721D01*
X160363279Y-106471064D01*
X160104989Y-106298481D01*
X159817994Y-106179604D01*
X159513321Y-106119000D01*
X159202679Y-106119000D01*
X158898006Y-106179604D01*
X158611011Y-106298481D01*
X158352721Y-106471064D01*
X158133064Y-106690721D01*
X157960481Y-106949011D01*
X157841604Y-107236006D01*
X157781000Y-107540679D01*
X156735000Y-107540679D01*
X156674396Y-107236006D01*
X156555519Y-106949011D01*
X156382936Y-106690721D01*
X156163279Y-106471064D01*
X155904989Y-106298481D01*
X155617994Y-106179604D01*
X155313321Y-106119000D01*
X155002679Y-106119000D01*
X154698006Y-106179604D01*
X154411011Y-106298481D01*
X154152721Y-106471064D01*
X153933064Y-106690721D01*
X153760481Y-106949011D01*
X153641604Y-107236006D01*
X153581000Y-107540679D01*
X152535000Y-107540679D01*
X152474396Y-107236006D01*
X152355519Y-106949011D01*
X152182936Y-106690721D01*
X151963279Y-106471064D01*
X151704989Y-106298481D01*
X151417994Y-106179604D01*
X151113321Y-106119000D01*
X150802679Y-106119000D01*
X150498006Y-106179604D01*
X150211011Y-106298481D01*
X149952721Y-106471064D01*
X149733064Y-106690721D01*
X149560481Y-106949011D01*
X149441604Y-107236006D01*
X149381000Y-107540679D01*
X148335000Y-107540679D01*
X148274396Y-107236006D01*
X148155519Y-106949011D01*
X147982936Y-106690721D01*
X147763279Y-106471064D01*
X147504989Y-106298481D01*
X147217994Y-106179604D01*
X146913321Y-106119000D01*
X146602679Y-106119000D01*
X146298006Y-106179604D01*
X146011011Y-106298481D01*
X145752721Y-106471064D01*
X145533064Y-106690721D01*
X145360481Y-106949011D01*
X145241604Y-107236006D01*
X145181000Y-107540679D01*
X144135000Y-107540679D01*
X144074396Y-107236006D01*
X143955519Y-106949011D01*
X143782936Y-106690721D01*
X143563279Y-106471064D01*
X143304989Y-106298481D01*
X143017994Y-106179604D01*
X142713321Y-106119000D01*
X142402679Y-106119000D01*
X142098006Y-106179604D01*
X141811011Y-106298481D01*
X141552721Y-106471064D01*
X141333064Y-106690721D01*
X141160481Y-106949011D01*
X141041604Y-107236006D01*
X140981000Y-107540679D01*
X139935000Y-107540679D01*
X139874396Y-107236006D01*
X139755519Y-106949011D01*
X139582936Y-106690721D01*
X139363279Y-106471064D01*
X139104989Y-106298481D01*
X138817994Y-106179604D01*
X138513321Y-106119000D01*
X138202679Y-106119000D01*
X137898006Y-106179604D01*
X137611011Y-106298481D01*
X137352721Y-106471064D01*
X137133064Y-106690721D01*
X136960481Y-106949011D01*
X136841604Y-107236006D01*
X136781000Y-107540679D01*
X127335000Y-107540679D01*
X127274396Y-107236006D01*
X127155519Y-106949011D01*
X126982936Y-106690721D01*
X126763279Y-106471064D01*
X126504989Y-106298481D01*
X126217994Y-106179604D01*
X125913321Y-106119000D01*
X125602679Y-106119000D01*
X125298006Y-106179604D01*
X125011011Y-106298481D01*
X124752721Y-106471064D01*
X124533064Y-106690721D01*
X124360481Y-106949011D01*
X124241604Y-107236006D01*
X124181000Y-107540679D01*
X121952000Y-107540679D01*
X121952000Y-102040679D01*
X124181000Y-102040679D01*
X124181000Y-102351321D01*
X124241604Y-102655994D01*
X124360481Y-102942989D01*
X124533064Y-103201279D01*
X124752721Y-103420936D01*
X125011011Y-103593519D01*
X125298006Y-103712396D01*
X125602679Y-103773000D01*
X125913321Y-103773000D01*
X126217994Y-103712396D01*
X126504989Y-103593519D01*
X126763279Y-103420936D01*
X126982936Y-103201279D01*
X127155519Y-102942989D01*
X127274396Y-102655994D01*
X127335000Y-102351321D01*
X127335000Y-102040679D01*
X128381000Y-102040679D01*
X128381000Y-102351321D01*
X128441604Y-102655994D01*
X128560481Y-102942989D01*
X128733064Y-103201279D01*
X128952721Y-103420936D01*
X129211011Y-103593519D01*
X129498006Y-103712396D01*
X129802679Y-103773000D01*
X130113321Y-103773000D01*
X130417994Y-103712396D01*
X130704989Y-103593519D01*
X130963279Y-103420936D01*
X131182936Y-103201279D01*
X131355519Y-102942989D01*
X131474396Y-102655994D01*
X131535000Y-102351321D01*
X131535000Y-102040679D01*
X132581000Y-102040679D01*
X132581000Y-102351321D01*
X132641604Y-102655994D01*
X132760481Y-102942989D01*
X132933064Y-103201279D01*
X133152721Y-103420936D01*
X133411011Y-103593519D01*
X133698006Y-103712396D01*
X134002679Y-103773000D01*
X134313321Y-103773000D01*
X134617994Y-103712396D01*
X134904989Y-103593519D01*
X135163279Y-103420936D01*
X135382936Y-103201279D01*
X135555519Y-102942989D01*
X135674396Y-102655994D01*
X135735000Y-102351321D01*
X135735000Y-102040679D01*
X136781000Y-102040679D01*
X136781000Y-102351321D01*
X136841604Y-102655994D01*
X136960481Y-102942989D01*
X137133064Y-103201279D01*
X137352721Y-103420936D01*
X137611011Y-103593519D01*
X137898006Y-103712396D01*
X138202679Y-103773000D01*
X138513321Y-103773000D01*
X138817994Y-103712396D01*
X139104989Y-103593519D01*
X139363279Y-103420936D01*
X139582936Y-103201279D01*
X139755519Y-102942989D01*
X139874396Y-102655994D01*
X139935000Y-102351321D01*
X139935000Y-102040679D01*
X140981000Y-102040679D01*
X140981000Y-102351321D01*
X141041604Y-102655994D01*
X141160481Y-102942989D01*
X141333064Y-103201279D01*
X141552721Y-103420936D01*
X141811011Y-103593519D01*
X142098006Y-103712396D01*
X142402679Y-103773000D01*
X142713321Y-103773000D01*
X143017994Y-103712396D01*
X143304989Y-103593519D01*
X143563279Y-103420936D01*
X143782936Y-103201279D01*
X143955519Y-102942989D01*
X144074396Y-102655994D01*
X144135000Y-102351321D01*
X144135000Y-102040679D01*
X145181000Y-102040679D01*
X145181000Y-102351321D01*
X145241604Y-102655994D01*
X145360481Y-102942989D01*
X145533064Y-103201279D01*
X145752721Y-103420936D01*
X146011011Y-103593519D01*
X146298006Y-103712396D01*
X146602679Y-103773000D01*
X146913321Y-103773000D01*
X147217994Y-103712396D01*
X147504989Y-103593519D01*
X147763279Y-103420936D01*
X147982936Y-103201279D01*
X148155519Y-102942989D01*
X148274396Y-102655994D01*
X148335000Y-102351321D01*
X148335000Y-102040679D01*
X149381000Y-102040679D01*
X149381000Y-102351321D01*
X149441604Y-102655994D01*
X149560481Y-102942989D01*
X149733064Y-103201279D01*
X149952721Y-103420936D01*
X150211011Y-103593519D01*
X150498006Y-103712396D01*
X150802679Y-103773000D01*
X151113321Y-103773000D01*
X151417994Y-103712396D01*
X151704989Y-103593519D01*
X151963279Y-103420936D01*
X152182936Y-103201279D01*
X152355519Y-102942989D01*
X152474396Y-102655994D01*
X152535000Y-102351321D01*
X152535000Y-102040679D01*
X153581000Y-102040679D01*
X153581000Y-102351321D01*
X153641604Y-102655994D01*
X153760481Y-102942989D01*
X153933064Y-103201279D01*
X154152721Y-103420936D01*
X154411011Y-103593519D01*
X154698006Y-103712396D01*
X155002679Y-103773000D01*
X155313321Y-103773000D01*
X155617994Y-103712396D01*
X155904989Y-103593519D01*
X156163279Y-103420936D01*
X156382936Y-103201279D01*
X156555519Y-102942989D01*
X156674396Y-102655994D01*
X156735000Y-102351321D01*
X156735000Y-102040679D01*
X156674396Y-101736006D01*
X156555519Y-101449011D01*
X156382936Y-101190721D01*
X156163279Y-100971064D01*
X155904989Y-100798481D01*
X155617994Y-100679604D01*
X155313321Y-100619000D01*
X155002679Y-100619000D01*
X154698006Y-100679604D01*
X154411011Y-100798481D01*
X154152721Y-100971064D01*
X153933064Y-101190721D01*
X153760481Y-101449011D01*
X153641604Y-101736006D01*
X153581000Y-102040679D01*
X152535000Y-102040679D01*
X152474396Y-101736006D01*
X152355519Y-101449011D01*
X152182936Y-101190721D01*
X151963279Y-100971064D01*
X151704989Y-100798481D01*
X151417994Y-100679604D01*
X151113321Y-100619000D01*
X150802679Y-100619000D01*
X150498006Y-100679604D01*
X150211011Y-100798481D01*
X149952721Y-100971064D01*
X149733064Y-101190721D01*
X149560481Y-101449011D01*
X149441604Y-101736006D01*
X149381000Y-102040679D01*
X148335000Y-102040679D01*
X148274396Y-101736006D01*
X148155519Y-101449011D01*
X147982936Y-101190721D01*
X147763279Y-100971064D01*
X147504989Y-100798481D01*
X147217994Y-100679604D01*
X146913321Y-100619000D01*
X146602679Y-100619000D01*
X146298006Y-100679604D01*
X146011011Y-100798481D01*
X145752721Y-100971064D01*
X145533064Y-101190721D01*
X145360481Y-101449011D01*
X145241604Y-101736006D01*
X145181000Y-102040679D01*
X144135000Y-102040679D01*
X144074396Y-101736006D01*
X143955519Y-101449011D01*
X143782936Y-101190721D01*
X143563279Y-100971064D01*
X143304989Y-100798481D01*
X143017994Y-100679604D01*
X142713321Y-100619000D01*
X142402679Y-100619000D01*
X142098006Y-100679604D01*
X141811011Y-100798481D01*
X141552721Y-100971064D01*
X141333064Y-101190721D01*
X141160481Y-101449011D01*
X141041604Y-101736006D01*
X140981000Y-102040679D01*
X139935000Y-102040679D01*
X139874396Y-101736006D01*
X139755519Y-101449011D01*
X139582936Y-101190721D01*
X139363279Y-100971064D01*
X139104989Y-100798481D01*
X138817994Y-100679604D01*
X138513321Y-100619000D01*
X138202679Y-100619000D01*
X137898006Y-100679604D01*
X137611011Y-100798481D01*
X137352721Y-100971064D01*
X137133064Y-101190721D01*
X136960481Y-101449011D01*
X136841604Y-101736006D01*
X136781000Y-102040679D01*
X135735000Y-102040679D01*
X135674396Y-101736006D01*
X135555519Y-101449011D01*
X135382936Y-101190721D01*
X135163279Y-100971064D01*
X134904989Y-100798481D01*
X134617994Y-100679604D01*
X134313321Y-100619000D01*
X134002679Y-100619000D01*
X133698006Y-100679604D01*
X133411011Y-100798481D01*
X133152721Y-100971064D01*
X132933064Y-101190721D01*
X132760481Y-101449011D01*
X132641604Y-101736006D01*
X132581000Y-102040679D01*
X131535000Y-102040679D01*
X131474396Y-101736006D01*
X131355519Y-101449011D01*
X131182936Y-101190721D01*
X130963279Y-100971064D01*
X130704989Y-100798481D01*
X130417994Y-100679604D01*
X130113321Y-100619000D01*
X129802679Y-100619000D01*
X129498006Y-100679604D01*
X129211011Y-100798481D01*
X128952721Y-100971064D01*
X128733064Y-101190721D01*
X128560481Y-101449011D01*
X128441604Y-101736006D01*
X128381000Y-102040679D01*
X127335000Y-102040679D01*
X127274396Y-101736006D01*
X127155519Y-101449011D01*
X126982936Y-101190721D01*
X126763279Y-100971064D01*
X126504989Y-100798481D01*
X126217994Y-100679604D01*
X125913321Y-100619000D01*
X125602679Y-100619000D01*
X125298006Y-100679604D01*
X125011011Y-100798481D01*
X124752721Y-100971064D01*
X124533064Y-101190721D01*
X124360481Y-101449011D01*
X124241604Y-101736006D01*
X124181000Y-102040679D01*
X121952000Y-102040679D01*
X121952000Y-92760961D01*
X125573000Y-92760961D01*
X125573000Y-93239039D01*
X125666268Y-93707930D01*
X125849221Y-94149615D01*
X126114826Y-94547122D01*
X126452878Y-94885174D01*
X126850385Y-95150779D01*
X127292070Y-95333732D01*
X127760961Y-95427000D01*
X128239039Y-95427000D01*
X128707930Y-95333732D01*
X129149615Y-95150779D01*
X129547122Y-94885174D01*
X129885174Y-94547122D01*
X130150779Y-94149615D01*
X130333732Y-93707930D01*
X130427000Y-93239039D01*
X130427000Y-92760961D01*
X130333732Y-92292070D01*
X130150779Y-91850385D01*
X129885174Y-91452878D01*
X129547122Y-91114826D01*
X129149615Y-90849221D01*
X128707930Y-90666268D01*
X128239039Y-90573000D01*
X127760961Y-90573000D01*
X127292070Y-90666268D01*
X126850385Y-90849221D01*
X126452878Y-91114826D01*
X126114826Y-91452878D01*
X125849221Y-91850385D01*
X125666268Y-92292070D01*
X125573000Y-92760961D01*
X121952000Y-92760961D01*
X121952000Y-86760961D01*
X125573000Y-86760961D01*
X125573000Y-87239039D01*
X125666268Y-87707930D01*
X125849221Y-88149615D01*
X126114826Y-88547122D01*
X126452878Y-88885174D01*
X126850385Y-89150779D01*
X127292070Y-89333732D01*
X127760961Y-89427000D01*
X128239039Y-89427000D01*
X128707930Y-89333732D01*
X129149615Y-89150779D01*
X129547122Y-88885174D01*
X129885174Y-88547122D01*
X130150779Y-88149615D01*
X130191213Y-88052000D01*
X131064248Y-88052000D01*
X131448001Y-88435753D01*
X131448000Y-95448321D01*
X131442910Y-95500000D01*
X131448000Y-95551678D01*
X131463222Y-95706227D01*
X131523376Y-95904530D01*
X131621062Y-96087288D01*
X131752524Y-96247476D01*
X131792680Y-96280431D01*
X133719574Y-98207326D01*
X133752524Y-98247476D01*
X133912712Y-98378938D01*
X134095469Y-98476624D01*
X134293772Y-98536778D01*
X134499999Y-98557090D01*
X134551678Y-98552000D01*
X154226249Y-98552000D01*
X157781000Y-102106752D01*
X157781000Y-102351321D01*
X157841604Y-102655994D01*
X157960481Y-102942989D01*
X158133064Y-103201279D01*
X158352721Y-103420936D01*
X158611011Y-103593519D01*
X158898006Y-103712396D01*
X159202679Y-103773000D01*
X159513321Y-103773000D01*
X159817994Y-103712396D01*
X160104989Y-103593519D01*
X160363279Y-103420936D01*
X160582936Y-103201279D01*
X160755519Y-102942989D01*
X160874396Y-102655994D01*
X160935000Y-102351321D01*
X160935000Y-102040679D01*
X161981000Y-102040679D01*
X161981000Y-102351321D01*
X162041604Y-102655994D01*
X162160481Y-102942989D01*
X162333064Y-103201279D01*
X162552721Y-103420936D01*
X162811011Y-103593519D01*
X163098006Y-103712396D01*
X163402679Y-103773000D01*
X163713321Y-103773000D01*
X164017994Y-103712396D01*
X164304989Y-103593519D01*
X164563279Y-103420936D01*
X164782936Y-103201279D01*
X164955519Y-102942989D01*
X165074396Y-102655994D01*
X165135000Y-102351321D01*
X165135000Y-102040679D01*
X166181000Y-102040679D01*
X166181000Y-102351321D01*
X166241604Y-102655994D01*
X166360481Y-102942989D01*
X166533064Y-103201279D01*
X166752721Y-103420936D01*
X167011011Y-103593519D01*
X167298006Y-103712396D01*
X167602679Y-103773000D01*
X167913321Y-103773000D01*
X168217994Y-103712396D01*
X168504989Y-103593519D01*
X168763279Y-103420936D01*
X168982936Y-103201279D01*
X169155519Y-102942989D01*
X169274396Y-102655994D01*
X169335000Y-102351321D01*
X169335000Y-102040679D01*
X170381000Y-102040679D01*
X170381000Y-102351321D01*
X170441604Y-102655994D01*
X170560481Y-102942989D01*
X170733064Y-103201279D01*
X170952721Y-103420936D01*
X171211011Y-103593519D01*
X171498006Y-103712396D01*
X171802679Y-103773000D01*
X172113321Y-103773000D01*
X172417994Y-103712396D01*
X172704989Y-103593519D01*
X172963279Y-103420936D01*
X173182936Y-103201279D01*
X173355519Y-102942989D01*
X173474396Y-102655994D01*
X173535000Y-102351321D01*
X173535000Y-102040679D01*
X173474396Y-101736006D01*
X173355519Y-101449011D01*
X173182936Y-101190721D01*
X172963279Y-100971064D01*
X172704989Y-100798481D01*
X172417994Y-100679604D01*
X172113321Y-100619000D01*
X171802679Y-100619000D01*
X171498006Y-100679604D01*
X171211011Y-100798481D01*
X170952721Y-100971064D01*
X170733064Y-101190721D01*
X170560481Y-101449011D01*
X170441604Y-101736006D01*
X170381000Y-102040679D01*
X169335000Y-102040679D01*
X169274396Y-101736006D01*
X169155519Y-101449011D01*
X168982936Y-101190721D01*
X168763279Y-100971064D01*
X168504989Y-100798481D01*
X168217994Y-100679604D01*
X167913321Y-100619000D01*
X167602679Y-100619000D01*
X167298006Y-100679604D01*
X167011011Y-100798481D01*
X166752721Y-100971064D01*
X166533064Y-101190721D01*
X166360481Y-101449011D01*
X166241604Y-101736006D01*
X166181000Y-102040679D01*
X165135000Y-102040679D01*
X165074396Y-101736006D01*
X164955519Y-101449011D01*
X164782936Y-101190721D01*
X164563279Y-100971064D01*
X164304989Y-100798481D01*
X164017994Y-100679604D01*
X163713321Y-100619000D01*
X163402679Y-100619000D01*
X163098006Y-100679604D01*
X162811011Y-100798481D01*
X162552721Y-100971064D01*
X162333064Y-101190721D01*
X162160481Y-101449011D01*
X162041604Y-101736006D01*
X161981000Y-102040679D01*
X160935000Y-102040679D01*
X160874396Y-101736006D01*
X160755519Y-101449011D01*
X160582936Y-101190721D01*
X160363279Y-100971064D01*
X160104989Y-100798481D01*
X159817994Y-100679604D01*
X159513321Y-100619000D01*
X159268752Y-100619000D01*
X155442431Y-96792680D01*
X155409476Y-96752524D01*
X155249288Y-96621062D01*
X155066531Y-96523376D01*
X154868228Y-96463222D01*
X154713679Y-96448000D01*
X154662000Y-96442910D01*
X154610321Y-96448000D01*
X134935752Y-96448000D01*
X133552000Y-95064249D01*
X133552000Y-91414226D01*
X135723000Y-91414226D01*
X135723000Y-91665774D01*
X135772074Y-91912487D01*
X135868337Y-92144886D01*
X136008089Y-92354040D01*
X136185960Y-92531911D01*
X136395114Y-92671663D01*
X136627513Y-92767926D01*
X136874226Y-92817000D01*
X137125774Y-92817000D01*
X137372487Y-92767926D01*
X137604886Y-92671663D01*
X137814040Y-92531911D01*
X137991911Y-92354040D01*
X138131663Y-92144886D01*
X138227926Y-91912487D01*
X138277000Y-91665774D01*
X138277000Y-91414226D01*
X138227926Y-91167513D01*
X138131663Y-90935114D01*
X137991911Y-90725960D01*
X137814040Y-90548089D01*
X137604886Y-90408337D01*
X137372487Y-90312074D01*
X137125774Y-90263000D01*
X136874226Y-90263000D01*
X136627513Y-90312074D01*
X136395114Y-90408337D01*
X136185960Y-90548089D01*
X136008089Y-90725960D01*
X135868337Y-90935114D01*
X135772074Y-91167513D01*
X135723000Y-91414226D01*
X133552000Y-91414226D01*
X133552000Y-88662470D01*
X157573000Y-88662470D01*
X157573000Y-89337530D01*
X157704697Y-89999619D01*
X157963032Y-90623293D01*
X158338075Y-91184585D01*
X158815415Y-91661925D01*
X159376707Y-92036968D01*
X160000381Y-92295303D01*
X160662470Y-92427000D01*
X161337530Y-92427000D01*
X161999619Y-92295303D01*
X162623293Y-92036968D01*
X163184585Y-91661925D01*
X163661925Y-91184585D01*
X164036968Y-90623293D01*
X164295303Y-89999619D01*
X164427000Y-89337530D01*
X164427000Y-88662470D01*
X167073000Y-88662470D01*
X167073000Y-89337530D01*
X167204697Y-89999619D01*
X167463032Y-90623293D01*
X167838075Y-91184585D01*
X168315415Y-91661925D01*
X168876707Y-92036968D01*
X169500381Y-92295303D01*
X170162470Y-92427000D01*
X170837530Y-92427000D01*
X171499619Y-92295303D01*
X172123293Y-92036968D01*
X172684585Y-91661925D01*
X173161925Y-91184585D01*
X173536968Y-90623293D01*
X173795303Y-89999619D01*
X173927000Y-89337530D01*
X173927000Y-88662470D01*
X173795303Y-88000381D01*
X173536968Y-87376707D01*
X173161925Y-86815415D01*
X172684585Y-86338075D01*
X172123293Y-85963032D01*
X171499619Y-85704697D01*
X170837530Y-85573000D01*
X170162470Y-85573000D01*
X169500381Y-85704697D01*
X168876707Y-85963032D01*
X168315415Y-86338075D01*
X167838075Y-86815415D01*
X167463032Y-87376707D01*
X167204697Y-88000381D01*
X167073000Y-88662470D01*
X164427000Y-88662470D01*
X164295303Y-88000381D01*
X164036968Y-87376707D01*
X163661925Y-86815415D01*
X163184585Y-86338075D01*
X162623293Y-85963032D01*
X161999619Y-85704697D01*
X161337530Y-85573000D01*
X160662470Y-85573000D01*
X160000381Y-85704697D01*
X159376707Y-85963032D01*
X158815415Y-86338075D01*
X158338075Y-86815415D01*
X157963032Y-87376707D01*
X157704697Y-88000381D01*
X157573000Y-88662470D01*
X133552000Y-88662470D01*
X133552000Y-88051686D01*
X133557091Y-88000000D01*
X133536778Y-87793772D01*
X133476624Y-87595469D01*
X133378938Y-87412712D01*
X133280419Y-87292666D01*
X133247476Y-87252524D01*
X133207331Y-87219578D01*
X132280430Y-86292679D01*
X132247476Y-86252524D01*
X132087288Y-86121062D01*
X131904531Y-86023376D01*
X131706228Y-85963222D01*
X131551679Y-85948000D01*
X131500000Y-85942910D01*
X131448321Y-85948000D01*
X130191213Y-85948000D01*
X130150779Y-85850385D01*
X130091028Y-85760961D01*
X147073000Y-85760961D01*
X147073000Y-86239039D01*
X147166268Y-86707930D01*
X147349221Y-87149615D01*
X147614826Y-87547122D01*
X147952878Y-87885174D01*
X148350385Y-88150779D01*
X148792070Y-88333732D01*
X149260961Y-88427000D01*
X149739039Y-88427000D01*
X150207930Y-88333732D01*
X150649615Y-88150779D01*
X151047122Y-87885174D01*
X151385174Y-87547122D01*
X151650779Y-87149615D01*
X151833732Y-86707930D01*
X151927000Y-86239039D01*
X151927000Y-85760961D01*
X151833732Y-85292070D01*
X151650779Y-84850385D01*
X151385174Y-84452878D01*
X151047122Y-84114826D01*
X150649615Y-83849221D01*
X150207930Y-83666268D01*
X149739039Y-83573000D01*
X149260961Y-83573000D01*
X148792070Y-83666268D01*
X148350385Y-83849221D01*
X147952878Y-84114826D01*
X147614826Y-84452878D01*
X147349221Y-84850385D01*
X147166268Y-85292070D01*
X147073000Y-85760961D01*
X130091028Y-85760961D01*
X129885174Y-85452878D01*
X129547122Y-85114826D01*
X129149615Y-84849221D01*
X128707930Y-84666268D01*
X128239039Y-84573000D01*
X127760961Y-84573000D01*
X127292070Y-84666268D01*
X126850385Y-84849221D01*
X126452878Y-85114826D01*
X126114826Y-85452878D01*
X125849221Y-85850385D01*
X125666268Y-86292070D01*
X125573000Y-86760961D01*
X121952000Y-86760961D01*
X121952000Y-82868000D01*
X161789813Y-82868000D01*
X161798540Y-82956607D01*
X161824386Y-83041810D01*
X161866357Y-83120333D01*
X161922841Y-83189159D01*
X161991667Y-83245643D01*
X162070190Y-83287614D01*
X162155393Y-83313460D01*
X162221795Y-83320000D01*
X162266205Y-83320000D01*
X162332607Y-83313460D01*
X162417810Y-83287614D01*
X162496333Y-83245643D01*
X162565159Y-83189159D01*
X162621643Y-83120333D01*
X162663614Y-83041810D01*
X162689460Y-82956607D01*
X162698187Y-82868000D01*
X162689460Y-82779393D01*
X162663614Y-82694190D01*
X162621643Y-82615667D01*
X162565159Y-82546841D01*
X162496333Y-82490357D01*
X162417810Y-82448386D01*
X162332607Y-82422540D01*
X162266205Y-82416000D01*
X162221795Y-82416000D01*
X162155393Y-82422540D01*
X162070190Y-82448386D01*
X161991667Y-82490357D01*
X161922841Y-82546841D01*
X161866357Y-82615667D01*
X161824386Y-82694190D01*
X161798540Y-82779393D01*
X161789813Y-82868000D01*
X121952000Y-82868000D01*
X121952000Y-78662470D01*
X133573000Y-78662470D01*
X133573000Y-79337530D01*
X133704697Y-79999619D01*
X133963032Y-80623293D01*
X134338075Y-81184585D01*
X134815415Y-81661925D01*
X135376707Y-82036968D01*
X136000381Y-82295303D01*
X136662470Y-82427000D01*
X137337530Y-82427000D01*
X137999619Y-82295303D01*
X138623293Y-82036968D01*
X139184585Y-81661925D01*
X139661925Y-81184585D01*
X140036968Y-80623293D01*
X140295303Y-79999619D01*
X140427000Y-79337530D01*
X140427000Y-78760961D01*
X143073000Y-78760961D01*
X143073000Y-79239039D01*
X143166268Y-79707930D01*
X143349221Y-80149615D01*
X143614826Y-80547122D01*
X143952878Y-80885174D01*
X144350385Y-81150779D01*
X144792070Y-81333732D01*
X145260961Y-81427000D01*
X145739039Y-81427000D01*
X146207930Y-81333732D01*
X146649615Y-81150779D01*
X147047122Y-80885174D01*
X147385174Y-80547122D01*
X147650779Y-80149615D01*
X147833732Y-79707930D01*
X147927000Y-79239039D01*
X147927000Y-78760961D01*
X150573000Y-78760961D01*
X150573000Y-79239039D01*
X150666268Y-79707930D01*
X150849221Y-80149615D01*
X151114826Y-80547122D01*
X151452878Y-80885174D01*
X151850385Y-81150779D01*
X152292070Y-81333732D01*
X152760961Y-81427000D01*
X153239039Y-81427000D01*
X153707930Y-81333732D01*
X154149615Y-81150779D01*
X154547122Y-80885174D01*
X154885174Y-80547122D01*
X155150779Y-80149615D01*
X155333732Y-79707930D01*
X155427000Y-79239039D01*
X155427000Y-78760961D01*
X155387518Y-78562470D01*
X157573000Y-78562470D01*
X157573000Y-79237530D01*
X157704697Y-79899619D01*
X157963032Y-80523293D01*
X158338075Y-81084585D01*
X158815415Y-81561925D01*
X159376707Y-81936968D01*
X160000381Y-82195303D01*
X160662470Y-82327000D01*
X161337530Y-82327000D01*
X161999619Y-82195303D01*
X162623293Y-81936968D01*
X163184585Y-81561925D01*
X163661925Y-81084585D01*
X164036968Y-80523293D01*
X164295303Y-79899619D01*
X164427000Y-79237530D01*
X164427000Y-78562470D01*
X164407109Y-78462470D01*
X166873000Y-78462470D01*
X166873000Y-79137530D01*
X167004697Y-79799619D01*
X167263032Y-80423293D01*
X167638075Y-80984585D01*
X168115415Y-81461925D01*
X168676707Y-81836968D01*
X169300381Y-82095303D01*
X169962470Y-82227000D01*
X170637530Y-82227000D01*
X171299619Y-82095303D01*
X171923293Y-81836968D01*
X172484585Y-81461925D01*
X172961925Y-80984585D01*
X173336968Y-80423293D01*
X173595303Y-79799619D01*
X173727000Y-79137530D01*
X173727000Y-78462470D01*
X173595303Y-77800381D01*
X173336968Y-77176707D01*
X172961925Y-76615415D01*
X172484585Y-76138075D01*
X171923293Y-75763032D01*
X171299619Y-75504697D01*
X170637530Y-75373000D01*
X169962470Y-75373000D01*
X169300381Y-75504697D01*
X168676707Y-75763032D01*
X168115415Y-76138075D01*
X167638075Y-76615415D01*
X167263032Y-77176707D01*
X167004697Y-77800381D01*
X166873000Y-78462470D01*
X164407109Y-78462470D01*
X164295303Y-77900381D01*
X164036968Y-77276707D01*
X163661925Y-76715415D01*
X163184585Y-76238075D01*
X162623293Y-75863032D01*
X161999619Y-75604697D01*
X161337530Y-75473000D01*
X160662470Y-75473000D01*
X160000381Y-75604697D01*
X159376707Y-75863032D01*
X158815415Y-76238075D01*
X158338075Y-76715415D01*
X157963032Y-77276707D01*
X157704697Y-77900381D01*
X157573000Y-78562470D01*
X155387518Y-78562470D01*
X155333732Y-78292070D01*
X155150779Y-77850385D01*
X154885174Y-77452878D01*
X154547122Y-77114826D01*
X154149615Y-76849221D01*
X153707930Y-76666268D01*
X153239039Y-76573000D01*
X152760961Y-76573000D01*
X152292070Y-76666268D01*
X151850385Y-76849221D01*
X151452878Y-77114826D01*
X151114826Y-77452878D01*
X150849221Y-77850385D01*
X150666268Y-78292070D01*
X150573000Y-78760961D01*
X147927000Y-78760961D01*
X147833732Y-78292070D01*
X147650779Y-77850385D01*
X147385174Y-77452878D01*
X147047122Y-77114826D01*
X146649615Y-76849221D01*
X146207930Y-76666268D01*
X145739039Y-76573000D01*
X145260961Y-76573000D01*
X144792070Y-76666268D01*
X144350385Y-76849221D01*
X143952878Y-77114826D01*
X143614826Y-77452878D01*
X143349221Y-77850385D01*
X143166268Y-78292070D01*
X143073000Y-78760961D01*
X140427000Y-78760961D01*
X140427000Y-78662470D01*
X140295303Y-78000381D01*
X140036968Y-77376707D01*
X139661925Y-76815415D01*
X139184585Y-76338075D01*
X138623293Y-75963032D01*
X137999619Y-75704697D01*
X137337530Y-75573000D01*
X136662470Y-75573000D01*
X136000381Y-75704697D01*
X135376707Y-75963032D01*
X134815415Y-76338075D01*
X134338075Y-76815415D01*
X133963032Y-77376707D01*
X133704697Y-78000381D01*
X133573000Y-78662470D01*
X121952000Y-78662470D01*
X121952000Y-73952000D01*
X175548205Y-73952000D01*
X175569796Y-121548000D01*
G37*
%TD.AperFunction*%
%TD*%
M02*
