%TF.GenerationSoftware,KiCad,Pcbnew,(5.1.12)-1*%
%TF.CreationDate,2023-10-03T16:06:22+02:00*%
%TF.ProjectId,PICO-AT,5049434f-2d41-4542-9e6b-696361645f70,rev?*%
%TF.SameCoordinates,Original*%
%TF.FileFunction,Soldermask,Bot*%
%TF.FilePolarity,Negative*%
%FSLAX46Y46*%
G04 Gerber Fmt 4.6, Leading zero omitted, Abs format (unit mm)*
G04 Created by KiCad (PCBNEW (5.1.12)-1) date 2023-10-03 16:06:22*
%MOMM*%
%LPD*%
G01*
G04 APERTURE LIST*
%ADD10O,3.600000X3.600000*%
%ADD11O,2.100000X2.005000*%
%ADD12C,2.400000*%
%ADD13O,1.800000X1.800000*%
%ADD14C,4.100000*%
%ADD15C,6.100000*%
G04 APERTURE END LIST*
D10*
%TO.C,U1*%
X134978000Y-116078000D03*
G36*
G01*
X150638000Y-112535500D02*
X152638000Y-112535500D01*
G75*
G02*
X152688000Y-112585500I0J-50000D01*
G01*
X152688000Y-114490500D01*
G75*
G02*
X152638000Y-114540500I-50000J0D01*
G01*
X150638000Y-114540500D01*
G75*
G02*
X150588000Y-114490500I0J50000D01*
G01*
X150588000Y-112585500D01*
G75*
G02*
X150638000Y-112535500I50000J0D01*
G01*
G37*
D11*
X151638000Y-116078000D03*
X151638000Y-118618000D03*
%TD*%
%TO.C,J1*%
G36*
G01*
X173108000Y-108896000D02*
X170808000Y-108896000D01*
G75*
G02*
X170758000Y-108846000I0J50000D01*
G01*
X170758000Y-106546000D01*
G75*
G02*
X170808000Y-106496000I50000J0D01*
G01*
X173108000Y-106496000D01*
G75*
G02*
X173158000Y-106546000I0J-50000D01*
G01*
X173158000Y-108846000D01*
G75*
G02*
X173108000Y-108896000I-50000J0D01*
G01*
G37*
D12*
X167758000Y-107696000D03*
X163558000Y-107696000D03*
X159358000Y-107696000D03*
X155158000Y-107696000D03*
X150958000Y-107696000D03*
X146758000Y-107696000D03*
X142558000Y-107696000D03*
X138358000Y-107696000D03*
X134158000Y-107696000D03*
X129958000Y-107696000D03*
X125758000Y-107696000D03*
X171958000Y-102196000D03*
X167758000Y-102196000D03*
X163558000Y-102196000D03*
X159358000Y-102196000D03*
X155158000Y-102196000D03*
X150958000Y-102196000D03*
X146758000Y-102196000D03*
X142558000Y-102196000D03*
X138358000Y-102196000D03*
X134158000Y-102196000D03*
X129958000Y-102196000D03*
X125758000Y-102196000D03*
%TD*%
D13*
%TO.C,+12V*%
X137000000Y-91540000D03*
G36*
G01*
X137900000Y-88150000D02*
X137900000Y-89850000D01*
G75*
G02*
X137850000Y-89900000I-50000J0D01*
G01*
X136150000Y-89900000D01*
G75*
G02*
X136100000Y-89850000I0J50000D01*
G01*
X136100000Y-88150000D01*
G75*
G02*
X136150000Y-88100000I50000J0D01*
G01*
X137850000Y-88100000D01*
G75*
G02*
X137900000Y-88150000I0J-50000D01*
G01*
G37*
%TD*%
D14*
%TO.C,GND*%
X128000000Y-93000000D03*
X128000000Y-87000000D03*
%TD*%
%TO.C,C1*%
G36*
G01*
X128111000Y-116025890D02*
X128111000Y-114098110D01*
G75*
G02*
X128372110Y-113837000I261110J0D01*
G01*
X130199890Y-113837000D01*
G75*
G02*
X130461000Y-114098110I0J-261110D01*
G01*
X130461000Y-116025890D01*
G75*
G02*
X130199890Y-116287000I-261110J0D01*
G01*
X128372110Y-116287000D01*
G75*
G02*
X128111000Y-116025890I0J261110D01*
G01*
G37*
G36*
G01*
X123011000Y-116025890D02*
X123011000Y-114098110D01*
G75*
G02*
X123272110Y-113837000I261110J0D01*
G01*
X125099890Y-113837000D01*
G75*
G02*
X125361000Y-114098110I0J-261110D01*
G01*
X125361000Y-116025890D01*
G75*
G02*
X125099890Y-116287000I-261110J0D01*
G01*
X123272110Y-116287000D01*
G75*
G02*
X123011000Y-116025890I0J261110D01*
G01*
G37*
%TD*%
%TO.C,C2*%
G36*
G01*
X123011000Y-120343890D02*
X123011000Y-118416110D01*
G75*
G02*
X123272110Y-118155000I261110J0D01*
G01*
X125099890Y-118155000D01*
G75*
G02*
X125361000Y-118416110I0J-261110D01*
G01*
X125361000Y-120343890D01*
G75*
G02*
X125099890Y-120605000I-261110J0D01*
G01*
X123272110Y-120605000D01*
G75*
G02*
X123011000Y-120343890I0J261110D01*
G01*
G37*
G36*
G01*
X128111000Y-120343890D02*
X128111000Y-118416110D01*
G75*
G02*
X128372110Y-118155000I261110J0D01*
G01*
X130199890Y-118155000D01*
G75*
G02*
X130461000Y-118416110I0J-261110D01*
G01*
X130461000Y-120343890D01*
G75*
G02*
X130199890Y-120605000I-261110J0D01*
G01*
X128372110Y-120605000D01*
G75*
G02*
X128111000Y-120343890I0J261110D01*
G01*
G37*
%TD*%
%TO.C,D4*%
G36*
G01*
X169818000Y-118393738D02*
X169818000Y-119350262D01*
G75*
G02*
X169546262Y-119622000I-271738J0D01*
G01*
X168839738Y-119622000D01*
G75*
G02*
X168568000Y-119350262I0J271738D01*
G01*
X168568000Y-118393738D01*
G75*
G02*
X168839738Y-118122000I271738J0D01*
G01*
X169546262Y-118122000D01*
G75*
G02*
X169818000Y-118393738I0J-271738D01*
G01*
G37*
G36*
G01*
X171868000Y-118393738D02*
X171868000Y-119350262D01*
G75*
G02*
X171596262Y-119622000I-271738J0D01*
G01*
X170889738Y-119622000D01*
G75*
G02*
X170618000Y-119350262I0J271738D01*
G01*
X170618000Y-118393738D01*
G75*
G02*
X170889738Y-118122000I271738J0D01*
G01*
X171596262Y-118122000D01*
G75*
G02*
X171868000Y-118393738I0J-271738D01*
G01*
G37*
%TD*%
%TO.C,R4*%
G36*
G01*
X169809000Y-115091738D02*
X169809000Y-116048262D01*
G75*
G02*
X169537262Y-116320000I-271738J0D01*
G01*
X168830738Y-116320000D01*
G75*
G02*
X168559000Y-116048262I0J271738D01*
G01*
X168559000Y-115091738D01*
G75*
G02*
X168830738Y-114820000I271738J0D01*
G01*
X169537262Y-114820000D01*
G75*
G02*
X169809000Y-115091738I0J-271738D01*
G01*
G37*
G36*
G01*
X171859000Y-115091738D02*
X171859000Y-116048262D01*
G75*
G02*
X171587262Y-116320000I-271738J0D01*
G01*
X170880738Y-116320000D01*
G75*
G02*
X170609000Y-116048262I0J271738D01*
G01*
X170609000Y-115091738D01*
G75*
G02*
X170880738Y-114820000I271738J0D01*
G01*
X171587262Y-114820000D01*
G75*
G02*
X171859000Y-115091738I0J-271738D01*
G01*
G37*
%TD*%
D15*
%TO.C,+3.3V*%
X161000000Y-89000000D03*
%TD*%
%TO.C,+5V Red*%
X137000000Y-79000000D03*
%TD*%
%TO.C,+12V Blue*%
X128000000Y-79000000D03*
%TD*%
%TO.C,GND*%
X170300000Y-78800000D03*
%TD*%
%TO.C,GND*%
X161000000Y-78900000D03*
%TD*%
%TO.C,GND*%
X170500000Y-89000000D03*
%TD*%
D14*
%TO.C,-12V*%
X153000000Y-79000000D03*
%TD*%
%TO.C,-5V*%
X145500000Y-79000000D03*
%TD*%
%TO.C,PG*%
X149500000Y-86000000D03*
%TD*%
M02*
