%TF.GenerationSoftware,KiCad,Pcbnew,(5.1.12)-1*%
%TF.CreationDate,2023-10-03T16:06:22+02:00*%
%TF.ProjectId,PICO-AT,5049434f-2d41-4542-9e6b-696361645f70,rev?*%
%TF.SameCoordinates,Original*%
%TF.FileFunction,Copper,L3,Inr*%
%TF.FilePolarity,Positive*%
%FSLAX46Y46*%
G04 Gerber Fmt 4.6, Leading zero omitted, Abs format (unit mm)*
G04 Created by KiCad (PCBNEW (5.1.12)-1) date 2023-10-03 16:06:22*
%MOMM*%
%LPD*%
G01*
G04 APERTURE LIST*
%TA.AperFunction,ComponentPad*%
%ADD10R,2.000000X1.905000*%
%TD*%
%TA.AperFunction,ComponentPad*%
%ADD11O,2.000000X1.905000*%
%TD*%
%TA.AperFunction,ComponentPad*%
%ADD12R,2.300000X2.300000*%
%TD*%
%TA.AperFunction,ComponentPad*%
%ADD13C,2.300000*%
%TD*%
%TA.AperFunction,ComponentPad*%
%ADD14O,1.700000X1.700000*%
%TD*%
%TA.AperFunction,ComponentPad*%
%ADD15R,1.700000X1.700000*%
%TD*%
%TA.AperFunction,ComponentPad*%
%ADD16C,4.000000*%
%TD*%
%TA.AperFunction,ComponentPad*%
%ADD17C,6.000000*%
%TD*%
%TA.AperFunction,ViaPad*%
%ADD18C,0.800000*%
%TD*%
%TA.AperFunction,Conductor*%
%ADD19C,0.254000*%
%TD*%
%TA.AperFunction,Conductor*%
%ADD20C,0.100000*%
%TD*%
G04 APERTURE END LIST*
D10*
%TO.N,/GND*%
%TO.C,U1*%
X151638000Y-113538000D03*
D11*
%TO.N,/-12V*%
X151638000Y-116078000D03*
%TO.N,/-5V*%
X151638000Y-118618000D03*
%TD*%
D12*
%TO.N,/3.3V*%
%TO.C,J1*%
X171958000Y-107696000D03*
D13*
X167758000Y-107696000D03*
%TO.N,/GND*%
X163558000Y-107696000D03*
%TO.N,/5V*%
X159358000Y-107696000D03*
%TO.N,/GND*%
X155158000Y-107696000D03*
%TO.N,/5V*%
X150958000Y-107696000D03*
%TO.N,/GND*%
X146758000Y-107696000D03*
%TO.N,/PG*%
X142558000Y-107696000D03*
%TO.N,Net-(J1-Pad9)*%
X138358000Y-107696000D03*
%TO.N,/12V*%
X134158000Y-107696000D03*
X129958000Y-107696000D03*
%TO.N,Net-(J1-Pad12)*%
X125758000Y-107696000D03*
%TO.N,/3.3V*%
X171958000Y-102196000D03*
%TO.N,/-12V*%
X167758000Y-102196000D03*
%TO.N,/GND*%
X163558000Y-102196000D03*
%TO.N,/PS-ON*%
X159358000Y-102196000D03*
%TO.N,/GND*%
X155158000Y-102196000D03*
X150958000Y-102196000D03*
X146758000Y-102196000D03*
%TO.N,Net-(J1-Pad20)*%
X142558000Y-102196000D03*
%TO.N,/5V*%
X138358000Y-102196000D03*
X134158000Y-102196000D03*
X129958000Y-102196000D03*
%TO.N,/GND*%
X125758000Y-102196000D03*
%TD*%
D14*
%TO.N,/GND*%
%TO.C,+12V*%
X137000000Y-91540000D03*
D15*
%TO.N,/12V*%
X137000000Y-89000000D03*
%TD*%
D16*
%TO.N,/GND*%
%TO.C,GND*%
X128000000Y-93000000D03*
%TO.N,/PS-ON*%
X128000000Y-87000000D03*
%TD*%
D17*
%TO.N,/3.3V*%
%TO.C,+3.3V*%
X161000000Y-89000000D03*
%TD*%
%TO.N,/5V*%
%TO.C,+5V Red*%
X137000000Y-79000000D03*
%TD*%
%TO.N,/12V*%
%TO.C,+12V Blue*%
X128000000Y-79000000D03*
%TD*%
%TO.N,/GND*%
%TO.C,GND*%
X170300000Y-78800000D03*
%TD*%
%TO.N,/GND*%
%TO.C,GND*%
X161000000Y-78900000D03*
%TD*%
%TO.N,/GND*%
%TO.C,GND*%
X170500000Y-89000000D03*
%TD*%
D16*
%TO.N,/-12V*%
%TO.C,-12V*%
X153000000Y-79000000D03*
%TD*%
%TO.N,/-5V*%
%TO.C,-5V*%
X145500000Y-79000000D03*
%TD*%
%TO.N,/PG*%
%TO.C,PG*%
X149500000Y-86000000D03*
%TD*%
D18*
%TO.N,/GND*%
X173012000Y-118364000D03*
X173012000Y-119380000D03*
X124206000Y-113030000D03*
X126238000Y-115062000D03*
X124206000Y-117348000D03*
X126238000Y-119380000D03*
X122428000Y-115062000D03*
X122428000Y-119380000D03*
X124206000Y-121158000D03*
%TD*%
D19*
%TO.N,/GND*%
X175569796Y-121548000D02*
X121952000Y-121548000D01*
X121952000Y-115863584D01*
X132801000Y-115863584D01*
X132801000Y-116292416D01*
X132884660Y-116713008D01*
X133048767Y-117109196D01*
X133287013Y-117465757D01*
X133590243Y-117768987D01*
X133946804Y-118007233D01*
X134342992Y-118171340D01*
X134763584Y-118255000D01*
X135192416Y-118255000D01*
X135613008Y-118171340D01*
X136009196Y-118007233D01*
X136365757Y-117768987D01*
X136668987Y-117465757D01*
X136907233Y-117109196D01*
X137071340Y-116713008D01*
X137155000Y-116292416D01*
X137155000Y-115863584D01*
X137071340Y-115442992D01*
X136907233Y-115046804D01*
X136668987Y-114690243D01*
X136469244Y-114490500D01*
X149999928Y-114490500D01*
X150012188Y-114614982D01*
X150048498Y-114734680D01*
X150107463Y-114844994D01*
X150186815Y-114941685D01*
X150283506Y-115021037D01*
X150393820Y-115080002D01*
X150513518Y-115116312D01*
X150589052Y-115123751D01*
X150437938Y-115307883D01*
X150309842Y-115547534D01*
X150230961Y-115807571D01*
X150204326Y-116078000D01*
X150230961Y-116348429D01*
X150309842Y-116608466D01*
X150437938Y-116848117D01*
X150610327Y-117058173D01*
X150820383Y-117230562D01*
X151040094Y-117348000D01*
X150820383Y-117465438D01*
X150610327Y-117637827D01*
X150437938Y-117847883D01*
X150309842Y-118087534D01*
X150230961Y-118347571D01*
X150204326Y-118618000D01*
X150230961Y-118888429D01*
X150309842Y-119148466D01*
X150437938Y-119388117D01*
X150610327Y-119598173D01*
X150820383Y-119770562D01*
X151060034Y-119898658D01*
X151320071Y-119977539D01*
X151522738Y-119997500D01*
X151753262Y-119997500D01*
X151955929Y-119977539D01*
X152215966Y-119898658D01*
X152455617Y-119770562D01*
X152665673Y-119598173D01*
X152838062Y-119388117D01*
X152966158Y-119148466D01*
X153045039Y-118888429D01*
X153071674Y-118618000D01*
X153045039Y-118347571D01*
X152966158Y-118087534D01*
X152838062Y-117847883D01*
X152665673Y-117637827D01*
X152455617Y-117465438D01*
X152235906Y-117348000D01*
X152455617Y-117230562D01*
X152665673Y-117058173D01*
X152838062Y-116848117D01*
X152966158Y-116608466D01*
X153045039Y-116348429D01*
X153071674Y-116078000D01*
X153045039Y-115807571D01*
X152966158Y-115547534D01*
X152838062Y-115307883D01*
X152686948Y-115123751D01*
X152762482Y-115116312D01*
X152882180Y-115080002D01*
X152992494Y-115021037D01*
X153089185Y-114941685D01*
X153168537Y-114844994D01*
X153227502Y-114734680D01*
X153263812Y-114614982D01*
X153276072Y-114490500D01*
X153273000Y-113823750D01*
X153114250Y-113665000D01*
X151765000Y-113665000D01*
X151765000Y-113685000D01*
X151511000Y-113685000D01*
X151511000Y-113665000D01*
X150161750Y-113665000D01*
X150003000Y-113823750D01*
X149999928Y-114490500D01*
X136469244Y-114490500D01*
X136365757Y-114387013D01*
X136009196Y-114148767D01*
X135613008Y-113984660D01*
X135192416Y-113901000D01*
X134763584Y-113901000D01*
X134342992Y-113984660D01*
X133946804Y-114148767D01*
X133590243Y-114387013D01*
X133287013Y-114690243D01*
X133048767Y-115046804D01*
X132884660Y-115442992D01*
X132801000Y-115863584D01*
X121952000Y-115863584D01*
X121952000Y-112585500D01*
X149999928Y-112585500D01*
X150003000Y-113252250D01*
X150161750Y-113411000D01*
X151511000Y-113411000D01*
X151511000Y-112109250D01*
X151765000Y-112109250D01*
X151765000Y-113411000D01*
X153114250Y-113411000D01*
X153273000Y-113252250D01*
X153276072Y-112585500D01*
X153263812Y-112461018D01*
X153227502Y-112341320D01*
X153168537Y-112231006D01*
X153089185Y-112134315D01*
X152992494Y-112054963D01*
X152882180Y-111995998D01*
X152762482Y-111959688D01*
X152638000Y-111947428D01*
X151923750Y-111950500D01*
X151765000Y-112109250D01*
X151511000Y-112109250D01*
X151352250Y-111950500D01*
X150638000Y-111947428D01*
X150513518Y-111959688D01*
X150393820Y-111995998D01*
X150283506Y-112054963D01*
X150186815Y-112134315D01*
X150107463Y-112231006D01*
X150048498Y-112341320D01*
X150012188Y-112461018D01*
X149999928Y-112585500D01*
X121952000Y-112585500D01*
X121952000Y-107540679D01*
X124181000Y-107540679D01*
X124181000Y-107851321D01*
X124241604Y-108155994D01*
X124360481Y-108442989D01*
X124533064Y-108701279D01*
X124752721Y-108920936D01*
X125011011Y-109093519D01*
X125298006Y-109212396D01*
X125602679Y-109273000D01*
X125913321Y-109273000D01*
X126217994Y-109212396D01*
X126504989Y-109093519D01*
X126763279Y-108920936D01*
X126982936Y-108701279D01*
X127155519Y-108442989D01*
X127274396Y-108155994D01*
X127335000Y-107851321D01*
X127335000Y-107540679D01*
X128381000Y-107540679D01*
X128381000Y-107851321D01*
X128441604Y-108155994D01*
X128560481Y-108442989D01*
X128733064Y-108701279D01*
X128952721Y-108920936D01*
X129211011Y-109093519D01*
X129498006Y-109212396D01*
X129802679Y-109273000D01*
X130113321Y-109273000D01*
X130417994Y-109212396D01*
X130704989Y-109093519D01*
X130963279Y-108920936D01*
X131182936Y-108701279D01*
X131355519Y-108442989D01*
X131474396Y-108155994D01*
X131535000Y-107851321D01*
X131535000Y-107540679D01*
X132581000Y-107540679D01*
X132581000Y-107851321D01*
X132641604Y-108155994D01*
X132760481Y-108442989D01*
X132933064Y-108701279D01*
X133152721Y-108920936D01*
X133411011Y-109093519D01*
X133698006Y-109212396D01*
X134002679Y-109273000D01*
X134313321Y-109273000D01*
X134617994Y-109212396D01*
X134904989Y-109093519D01*
X135163279Y-108920936D01*
X135382936Y-108701279D01*
X135555519Y-108442989D01*
X135674396Y-108155994D01*
X135735000Y-107851321D01*
X135735000Y-107540679D01*
X136781000Y-107540679D01*
X136781000Y-107851321D01*
X136841604Y-108155994D01*
X136960481Y-108442989D01*
X137133064Y-108701279D01*
X137352721Y-108920936D01*
X137611011Y-109093519D01*
X137898006Y-109212396D01*
X138202679Y-109273000D01*
X138513321Y-109273000D01*
X138817994Y-109212396D01*
X139104989Y-109093519D01*
X139363279Y-108920936D01*
X139582936Y-108701279D01*
X139755519Y-108442989D01*
X139874396Y-108155994D01*
X139935000Y-107851321D01*
X139935000Y-107540679D01*
X140981000Y-107540679D01*
X140981000Y-107851321D01*
X141041604Y-108155994D01*
X141160481Y-108442989D01*
X141333064Y-108701279D01*
X141552721Y-108920936D01*
X141811011Y-109093519D01*
X142098006Y-109212396D01*
X142402679Y-109273000D01*
X142713321Y-109273000D01*
X143017994Y-109212396D01*
X143304989Y-109093519D01*
X143537218Y-108938349D01*
X145695256Y-108938349D01*
X145809118Y-109218090D01*
X146124296Y-109373961D01*
X146463826Y-109465349D01*
X146814661Y-109488741D01*
X147163319Y-109443240D01*
X147496400Y-109330594D01*
X147706882Y-109218090D01*
X147820744Y-108938349D01*
X146758000Y-107875605D01*
X145695256Y-108938349D01*
X143537218Y-108938349D01*
X143563279Y-108920936D01*
X143782936Y-108701279D01*
X143955519Y-108442989D01*
X144074396Y-108155994D01*
X144135000Y-107851321D01*
X144135000Y-107752661D01*
X144965259Y-107752661D01*
X145010760Y-108101319D01*
X145123406Y-108434400D01*
X145235910Y-108644882D01*
X145515651Y-108758744D01*
X146578395Y-107696000D01*
X146937605Y-107696000D01*
X148000349Y-108758744D01*
X148280090Y-108644882D01*
X148435961Y-108329704D01*
X148527349Y-107990174D01*
X148550741Y-107639339D01*
X148537866Y-107540679D01*
X149381000Y-107540679D01*
X149381000Y-107851321D01*
X149441604Y-108155994D01*
X149560481Y-108442989D01*
X149733064Y-108701279D01*
X149952721Y-108920936D01*
X150211011Y-109093519D01*
X150498006Y-109212396D01*
X150802679Y-109273000D01*
X151113321Y-109273000D01*
X151417994Y-109212396D01*
X151704989Y-109093519D01*
X151937218Y-108938349D01*
X154095256Y-108938349D01*
X154209118Y-109218090D01*
X154524296Y-109373961D01*
X154863826Y-109465349D01*
X155214661Y-109488741D01*
X155563319Y-109443240D01*
X155896400Y-109330594D01*
X156106882Y-109218090D01*
X156220744Y-108938349D01*
X155158000Y-107875605D01*
X154095256Y-108938349D01*
X151937218Y-108938349D01*
X151963279Y-108920936D01*
X152182936Y-108701279D01*
X152355519Y-108442989D01*
X152474396Y-108155994D01*
X152535000Y-107851321D01*
X152535000Y-107752661D01*
X153365259Y-107752661D01*
X153410760Y-108101319D01*
X153523406Y-108434400D01*
X153635910Y-108644882D01*
X153915651Y-108758744D01*
X154978395Y-107696000D01*
X155337605Y-107696000D01*
X156400349Y-108758744D01*
X156680090Y-108644882D01*
X156835961Y-108329704D01*
X156927349Y-107990174D01*
X156950741Y-107639339D01*
X156937866Y-107540679D01*
X157781000Y-107540679D01*
X157781000Y-107851321D01*
X157841604Y-108155994D01*
X157960481Y-108442989D01*
X158133064Y-108701279D01*
X158352721Y-108920936D01*
X158611011Y-109093519D01*
X158898006Y-109212396D01*
X159202679Y-109273000D01*
X159513321Y-109273000D01*
X159817994Y-109212396D01*
X160104989Y-109093519D01*
X160337218Y-108938349D01*
X162495256Y-108938349D01*
X162609118Y-109218090D01*
X162924296Y-109373961D01*
X163263826Y-109465349D01*
X163614661Y-109488741D01*
X163963319Y-109443240D01*
X164296400Y-109330594D01*
X164506882Y-109218090D01*
X164620744Y-108938349D01*
X163558000Y-107875605D01*
X162495256Y-108938349D01*
X160337218Y-108938349D01*
X160363279Y-108920936D01*
X160582936Y-108701279D01*
X160755519Y-108442989D01*
X160874396Y-108155994D01*
X160935000Y-107851321D01*
X160935000Y-107752661D01*
X161765259Y-107752661D01*
X161810760Y-108101319D01*
X161923406Y-108434400D01*
X162035910Y-108644882D01*
X162315651Y-108758744D01*
X163378395Y-107696000D01*
X163737605Y-107696000D01*
X164800349Y-108758744D01*
X165080090Y-108644882D01*
X165235961Y-108329704D01*
X165327349Y-107990174D01*
X165350741Y-107639339D01*
X165337866Y-107540679D01*
X166181000Y-107540679D01*
X166181000Y-107851321D01*
X166241604Y-108155994D01*
X166360481Y-108442989D01*
X166533064Y-108701279D01*
X166752721Y-108920936D01*
X167011011Y-109093519D01*
X167298006Y-109212396D01*
X167602679Y-109273000D01*
X167913321Y-109273000D01*
X168217994Y-109212396D01*
X168504989Y-109093519D01*
X168763279Y-108920936D01*
X168982936Y-108701279D01*
X169155519Y-108442989D01*
X169274396Y-108155994D01*
X169335000Y-107851321D01*
X169335000Y-107540679D01*
X169274396Y-107236006D01*
X169155519Y-106949011D01*
X168982936Y-106690721D01*
X168838215Y-106546000D01*
X170378934Y-106546000D01*
X170378934Y-108846000D01*
X170387178Y-108929707D01*
X170411595Y-109010196D01*
X170451245Y-109084376D01*
X170504605Y-109149395D01*
X170569624Y-109202755D01*
X170643804Y-109242405D01*
X170724293Y-109266822D01*
X170808000Y-109275066D01*
X173108000Y-109275066D01*
X173191707Y-109266822D01*
X173272196Y-109242405D01*
X173346376Y-109202755D01*
X173411395Y-109149395D01*
X173464755Y-109084376D01*
X173504405Y-109010196D01*
X173528822Y-108929707D01*
X173537066Y-108846000D01*
X173537066Y-106546000D01*
X173528822Y-106462293D01*
X173504405Y-106381804D01*
X173464755Y-106307624D01*
X173411395Y-106242605D01*
X173346376Y-106189245D01*
X173272196Y-106149595D01*
X173191707Y-106125178D01*
X173108000Y-106116934D01*
X170808000Y-106116934D01*
X170724293Y-106125178D01*
X170643804Y-106149595D01*
X170569624Y-106189245D01*
X170504605Y-106242605D01*
X170451245Y-106307624D01*
X170411595Y-106381804D01*
X170387178Y-106462293D01*
X170378934Y-106546000D01*
X168838215Y-106546000D01*
X168763279Y-106471064D01*
X168504989Y-106298481D01*
X168217994Y-106179604D01*
X167913321Y-106119000D01*
X167602679Y-106119000D01*
X167298006Y-106179604D01*
X167011011Y-106298481D01*
X166752721Y-106471064D01*
X166533064Y-106690721D01*
X166360481Y-106949011D01*
X166241604Y-107236006D01*
X166181000Y-107540679D01*
X165337866Y-107540679D01*
X165305240Y-107290681D01*
X165192594Y-106957600D01*
X165080090Y-106747118D01*
X164800349Y-106633256D01*
X163737605Y-107696000D01*
X163378395Y-107696000D01*
X162315651Y-106633256D01*
X162035910Y-106747118D01*
X161880039Y-107062296D01*
X161788651Y-107401826D01*
X161765259Y-107752661D01*
X160935000Y-107752661D01*
X160935000Y-107540679D01*
X160874396Y-107236006D01*
X160755519Y-106949011D01*
X160582936Y-106690721D01*
X160363279Y-106471064D01*
X160337219Y-106453651D01*
X162495256Y-106453651D01*
X163558000Y-107516395D01*
X164620744Y-106453651D01*
X164506882Y-106173910D01*
X164191704Y-106018039D01*
X163852174Y-105926651D01*
X163501339Y-105903259D01*
X163152681Y-105948760D01*
X162819600Y-106061406D01*
X162609118Y-106173910D01*
X162495256Y-106453651D01*
X160337219Y-106453651D01*
X160104989Y-106298481D01*
X159817994Y-106179604D01*
X159513321Y-106119000D01*
X159202679Y-106119000D01*
X158898006Y-106179604D01*
X158611011Y-106298481D01*
X158352721Y-106471064D01*
X158133064Y-106690721D01*
X157960481Y-106949011D01*
X157841604Y-107236006D01*
X157781000Y-107540679D01*
X156937866Y-107540679D01*
X156905240Y-107290681D01*
X156792594Y-106957600D01*
X156680090Y-106747118D01*
X156400349Y-106633256D01*
X155337605Y-107696000D01*
X154978395Y-107696000D01*
X153915651Y-106633256D01*
X153635910Y-106747118D01*
X153480039Y-107062296D01*
X153388651Y-107401826D01*
X153365259Y-107752661D01*
X152535000Y-107752661D01*
X152535000Y-107540679D01*
X152474396Y-107236006D01*
X152355519Y-106949011D01*
X152182936Y-106690721D01*
X151963279Y-106471064D01*
X151937219Y-106453651D01*
X154095256Y-106453651D01*
X155158000Y-107516395D01*
X156220744Y-106453651D01*
X156106882Y-106173910D01*
X155791704Y-106018039D01*
X155452174Y-105926651D01*
X155101339Y-105903259D01*
X154752681Y-105948760D01*
X154419600Y-106061406D01*
X154209118Y-106173910D01*
X154095256Y-106453651D01*
X151937219Y-106453651D01*
X151704989Y-106298481D01*
X151417994Y-106179604D01*
X151113321Y-106119000D01*
X150802679Y-106119000D01*
X150498006Y-106179604D01*
X150211011Y-106298481D01*
X149952721Y-106471064D01*
X149733064Y-106690721D01*
X149560481Y-106949011D01*
X149441604Y-107236006D01*
X149381000Y-107540679D01*
X148537866Y-107540679D01*
X148505240Y-107290681D01*
X148392594Y-106957600D01*
X148280090Y-106747118D01*
X148000349Y-106633256D01*
X146937605Y-107696000D01*
X146578395Y-107696000D01*
X145515651Y-106633256D01*
X145235910Y-106747118D01*
X145080039Y-107062296D01*
X144988651Y-107401826D01*
X144965259Y-107752661D01*
X144135000Y-107752661D01*
X144135000Y-107540679D01*
X144074396Y-107236006D01*
X143955519Y-106949011D01*
X143782936Y-106690721D01*
X143563279Y-106471064D01*
X143537219Y-106453651D01*
X145695256Y-106453651D01*
X146758000Y-107516395D01*
X147820744Y-106453651D01*
X147706882Y-106173910D01*
X147391704Y-106018039D01*
X147052174Y-105926651D01*
X146701339Y-105903259D01*
X146352681Y-105948760D01*
X146019600Y-106061406D01*
X145809118Y-106173910D01*
X145695256Y-106453651D01*
X143537219Y-106453651D01*
X143304989Y-106298481D01*
X143017994Y-106179604D01*
X142713321Y-106119000D01*
X142402679Y-106119000D01*
X142098006Y-106179604D01*
X141811011Y-106298481D01*
X141552721Y-106471064D01*
X141333064Y-106690721D01*
X141160481Y-106949011D01*
X141041604Y-107236006D01*
X140981000Y-107540679D01*
X139935000Y-107540679D01*
X139874396Y-107236006D01*
X139755519Y-106949011D01*
X139582936Y-106690721D01*
X139363279Y-106471064D01*
X139104989Y-106298481D01*
X138817994Y-106179604D01*
X138513321Y-106119000D01*
X138202679Y-106119000D01*
X137898006Y-106179604D01*
X137611011Y-106298481D01*
X137352721Y-106471064D01*
X137133064Y-106690721D01*
X136960481Y-106949011D01*
X136841604Y-107236006D01*
X136781000Y-107540679D01*
X135735000Y-107540679D01*
X135674396Y-107236006D01*
X135555519Y-106949011D01*
X135382936Y-106690721D01*
X135163279Y-106471064D01*
X134904989Y-106298481D01*
X134617994Y-106179604D01*
X134313321Y-106119000D01*
X134002679Y-106119000D01*
X133698006Y-106179604D01*
X133411011Y-106298481D01*
X133152721Y-106471064D01*
X132933064Y-106690721D01*
X132760481Y-106949011D01*
X132641604Y-107236006D01*
X132581000Y-107540679D01*
X131535000Y-107540679D01*
X131474396Y-107236006D01*
X131355519Y-106949011D01*
X131182936Y-106690721D01*
X130963279Y-106471064D01*
X130704989Y-106298481D01*
X130417994Y-106179604D01*
X130113321Y-106119000D01*
X129802679Y-106119000D01*
X129498006Y-106179604D01*
X129211011Y-106298481D01*
X128952721Y-106471064D01*
X128733064Y-106690721D01*
X128560481Y-106949011D01*
X128441604Y-107236006D01*
X128381000Y-107540679D01*
X127335000Y-107540679D01*
X127274396Y-107236006D01*
X127155519Y-106949011D01*
X126982936Y-106690721D01*
X126763279Y-106471064D01*
X126504989Y-106298481D01*
X126217994Y-106179604D01*
X125913321Y-106119000D01*
X125602679Y-106119000D01*
X125298006Y-106179604D01*
X125011011Y-106298481D01*
X124752721Y-106471064D01*
X124533064Y-106690721D01*
X124360481Y-106949011D01*
X124241604Y-107236006D01*
X124181000Y-107540679D01*
X121952000Y-107540679D01*
X121952000Y-103438349D01*
X124695256Y-103438349D01*
X124809118Y-103718090D01*
X125124296Y-103873961D01*
X125463826Y-103965349D01*
X125814661Y-103988741D01*
X126163319Y-103943240D01*
X126496400Y-103830594D01*
X126706882Y-103718090D01*
X126820744Y-103438349D01*
X125758000Y-102375605D01*
X124695256Y-103438349D01*
X121952000Y-103438349D01*
X121952000Y-102252661D01*
X123965259Y-102252661D01*
X124010760Y-102601319D01*
X124123406Y-102934400D01*
X124235910Y-103144882D01*
X124515651Y-103258744D01*
X125578395Y-102196000D01*
X125937605Y-102196000D01*
X127000349Y-103258744D01*
X127280090Y-103144882D01*
X127435961Y-102829704D01*
X127527349Y-102490174D01*
X127550741Y-102139339D01*
X127537866Y-102040679D01*
X128381000Y-102040679D01*
X128381000Y-102351321D01*
X128441604Y-102655994D01*
X128560481Y-102942989D01*
X128733064Y-103201279D01*
X128952721Y-103420936D01*
X129211011Y-103593519D01*
X129498006Y-103712396D01*
X129802679Y-103773000D01*
X130113321Y-103773000D01*
X130417994Y-103712396D01*
X130704989Y-103593519D01*
X130963279Y-103420936D01*
X131182936Y-103201279D01*
X131355519Y-102942989D01*
X131474396Y-102655994D01*
X131535000Y-102351321D01*
X131535000Y-102040679D01*
X132581000Y-102040679D01*
X132581000Y-102351321D01*
X132641604Y-102655994D01*
X132760481Y-102942989D01*
X132933064Y-103201279D01*
X133152721Y-103420936D01*
X133411011Y-103593519D01*
X133698006Y-103712396D01*
X134002679Y-103773000D01*
X134313321Y-103773000D01*
X134617994Y-103712396D01*
X134904989Y-103593519D01*
X135163279Y-103420936D01*
X135382936Y-103201279D01*
X135555519Y-102942989D01*
X135674396Y-102655994D01*
X135735000Y-102351321D01*
X135735000Y-102040679D01*
X136781000Y-102040679D01*
X136781000Y-102351321D01*
X136841604Y-102655994D01*
X136960481Y-102942989D01*
X137133064Y-103201279D01*
X137352721Y-103420936D01*
X137611011Y-103593519D01*
X137898006Y-103712396D01*
X138202679Y-103773000D01*
X138513321Y-103773000D01*
X138817994Y-103712396D01*
X139104989Y-103593519D01*
X139363279Y-103420936D01*
X139582936Y-103201279D01*
X139755519Y-102942989D01*
X139874396Y-102655994D01*
X139935000Y-102351321D01*
X139935000Y-102040679D01*
X140981000Y-102040679D01*
X140981000Y-102351321D01*
X141041604Y-102655994D01*
X141160481Y-102942989D01*
X141333064Y-103201279D01*
X141552721Y-103420936D01*
X141811011Y-103593519D01*
X142098006Y-103712396D01*
X142402679Y-103773000D01*
X142713321Y-103773000D01*
X143017994Y-103712396D01*
X143304989Y-103593519D01*
X143537218Y-103438349D01*
X145695256Y-103438349D01*
X145809118Y-103718090D01*
X146124296Y-103873961D01*
X146463826Y-103965349D01*
X146814661Y-103988741D01*
X147163319Y-103943240D01*
X147496400Y-103830594D01*
X147706882Y-103718090D01*
X147820744Y-103438349D01*
X149895256Y-103438349D01*
X150009118Y-103718090D01*
X150324296Y-103873961D01*
X150663826Y-103965349D01*
X151014661Y-103988741D01*
X151363319Y-103943240D01*
X151696400Y-103830594D01*
X151906882Y-103718090D01*
X152020744Y-103438349D01*
X154095256Y-103438349D01*
X154209118Y-103718090D01*
X154524296Y-103873961D01*
X154863826Y-103965349D01*
X155214661Y-103988741D01*
X155563319Y-103943240D01*
X155896400Y-103830594D01*
X156106882Y-103718090D01*
X156220744Y-103438349D01*
X155158000Y-102375605D01*
X154095256Y-103438349D01*
X152020744Y-103438349D01*
X150958000Y-102375605D01*
X149895256Y-103438349D01*
X147820744Y-103438349D01*
X146758000Y-102375605D01*
X145695256Y-103438349D01*
X143537218Y-103438349D01*
X143563279Y-103420936D01*
X143782936Y-103201279D01*
X143955519Y-102942989D01*
X144074396Y-102655994D01*
X144135000Y-102351321D01*
X144135000Y-102252661D01*
X144965259Y-102252661D01*
X145010760Y-102601319D01*
X145123406Y-102934400D01*
X145235910Y-103144882D01*
X145515651Y-103258744D01*
X146578395Y-102196000D01*
X146937605Y-102196000D01*
X148000349Y-103258744D01*
X148280090Y-103144882D01*
X148435961Y-102829704D01*
X148527349Y-102490174D01*
X148543185Y-102252661D01*
X149165259Y-102252661D01*
X149210760Y-102601319D01*
X149323406Y-102934400D01*
X149435910Y-103144882D01*
X149715651Y-103258744D01*
X150778395Y-102196000D01*
X151137605Y-102196000D01*
X152200349Y-103258744D01*
X152480090Y-103144882D01*
X152635961Y-102829704D01*
X152727349Y-102490174D01*
X152743185Y-102252661D01*
X153365259Y-102252661D01*
X153410760Y-102601319D01*
X153523406Y-102934400D01*
X153635910Y-103144882D01*
X153915651Y-103258744D01*
X154978395Y-102196000D01*
X155337605Y-102196000D01*
X156400349Y-103258744D01*
X156680090Y-103144882D01*
X156835961Y-102829704D01*
X156927349Y-102490174D01*
X156950741Y-102139339D01*
X156937866Y-102040679D01*
X157781000Y-102040679D01*
X157781000Y-102351321D01*
X157841604Y-102655994D01*
X157960481Y-102942989D01*
X158133064Y-103201279D01*
X158352721Y-103420936D01*
X158611011Y-103593519D01*
X158898006Y-103712396D01*
X159202679Y-103773000D01*
X159513321Y-103773000D01*
X159817994Y-103712396D01*
X160104989Y-103593519D01*
X160337218Y-103438349D01*
X162495256Y-103438349D01*
X162609118Y-103718090D01*
X162924296Y-103873961D01*
X163263826Y-103965349D01*
X163614661Y-103988741D01*
X163963319Y-103943240D01*
X164296400Y-103830594D01*
X164506882Y-103718090D01*
X164620744Y-103438349D01*
X163558000Y-102375605D01*
X162495256Y-103438349D01*
X160337218Y-103438349D01*
X160363279Y-103420936D01*
X160582936Y-103201279D01*
X160755519Y-102942989D01*
X160874396Y-102655994D01*
X160935000Y-102351321D01*
X160935000Y-102252661D01*
X161765259Y-102252661D01*
X161810760Y-102601319D01*
X161923406Y-102934400D01*
X162035910Y-103144882D01*
X162315651Y-103258744D01*
X163378395Y-102196000D01*
X163737605Y-102196000D01*
X164800349Y-103258744D01*
X165080090Y-103144882D01*
X165235961Y-102829704D01*
X165327349Y-102490174D01*
X165350741Y-102139339D01*
X165337866Y-102040679D01*
X166181000Y-102040679D01*
X166181000Y-102351321D01*
X166241604Y-102655994D01*
X166360481Y-102942989D01*
X166533064Y-103201279D01*
X166752721Y-103420936D01*
X167011011Y-103593519D01*
X167298006Y-103712396D01*
X167602679Y-103773000D01*
X167913321Y-103773000D01*
X168217994Y-103712396D01*
X168504989Y-103593519D01*
X168763279Y-103420936D01*
X168982936Y-103201279D01*
X169155519Y-102942989D01*
X169274396Y-102655994D01*
X169335000Y-102351321D01*
X169335000Y-102040679D01*
X170381000Y-102040679D01*
X170381000Y-102351321D01*
X170441604Y-102655994D01*
X170560481Y-102942989D01*
X170733064Y-103201279D01*
X170952721Y-103420936D01*
X171211011Y-103593519D01*
X171498006Y-103712396D01*
X171802679Y-103773000D01*
X172113321Y-103773000D01*
X172417994Y-103712396D01*
X172704989Y-103593519D01*
X172963279Y-103420936D01*
X173182936Y-103201279D01*
X173355519Y-102942989D01*
X173474396Y-102655994D01*
X173535000Y-102351321D01*
X173535000Y-102040679D01*
X173474396Y-101736006D01*
X173355519Y-101449011D01*
X173182936Y-101190721D01*
X172963279Y-100971064D01*
X172704989Y-100798481D01*
X172417994Y-100679604D01*
X172113321Y-100619000D01*
X171802679Y-100619000D01*
X171498006Y-100679604D01*
X171211011Y-100798481D01*
X170952721Y-100971064D01*
X170733064Y-101190721D01*
X170560481Y-101449011D01*
X170441604Y-101736006D01*
X170381000Y-102040679D01*
X169335000Y-102040679D01*
X169274396Y-101736006D01*
X169155519Y-101449011D01*
X168982936Y-101190721D01*
X168763279Y-100971064D01*
X168504989Y-100798481D01*
X168217994Y-100679604D01*
X167913321Y-100619000D01*
X167602679Y-100619000D01*
X167298006Y-100679604D01*
X167011011Y-100798481D01*
X166752721Y-100971064D01*
X166533064Y-101190721D01*
X166360481Y-101449011D01*
X166241604Y-101736006D01*
X166181000Y-102040679D01*
X165337866Y-102040679D01*
X165305240Y-101790681D01*
X165192594Y-101457600D01*
X165080090Y-101247118D01*
X164800349Y-101133256D01*
X163737605Y-102196000D01*
X163378395Y-102196000D01*
X162315651Y-101133256D01*
X162035910Y-101247118D01*
X161880039Y-101562296D01*
X161788651Y-101901826D01*
X161765259Y-102252661D01*
X160935000Y-102252661D01*
X160935000Y-102040679D01*
X160874396Y-101736006D01*
X160755519Y-101449011D01*
X160582936Y-101190721D01*
X160363279Y-100971064D01*
X160337219Y-100953651D01*
X162495256Y-100953651D01*
X163558000Y-102016395D01*
X164620744Y-100953651D01*
X164506882Y-100673910D01*
X164191704Y-100518039D01*
X163852174Y-100426651D01*
X163501339Y-100403259D01*
X163152681Y-100448760D01*
X162819600Y-100561406D01*
X162609118Y-100673910D01*
X162495256Y-100953651D01*
X160337219Y-100953651D01*
X160104989Y-100798481D01*
X159817994Y-100679604D01*
X159513321Y-100619000D01*
X159202679Y-100619000D01*
X158898006Y-100679604D01*
X158611011Y-100798481D01*
X158352721Y-100971064D01*
X158133064Y-101190721D01*
X157960481Y-101449011D01*
X157841604Y-101736006D01*
X157781000Y-102040679D01*
X156937866Y-102040679D01*
X156905240Y-101790681D01*
X156792594Y-101457600D01*
X156680090Y-101247118D01*
X156400349Y-101133256D01*
X155337605Y-102196000D01*
X154978395Y-102196000D01*
X153915651Y-101133256D01*
X153635910Y-101247118D01*
X153480039Y-101562296D01*
X153388651Y-101901826D01*
X153365259Y-102252661D01*
X152743185Y-102252661D01*
X152750741Y-102139339D01*
X152705240Y-101790681D01*
X152592594Y-101457600D01*
X152480090Y-101247118D01*
X152200349Y-101133256D01*
X151137605Y-102196000D01*
X150778395Y-102196000D01*
X149715651Y-101133256D01*
X149435910Y-101247118D01*
X149280039Y-101562296D01*
X149188651Y-101901826D01*
X149165259Y-102252661D01*
X148543185Y-102252661D01*
X148550741Y-102139339D01*
X148505240Y-101790681D01*
X148392594Y-101457600D01*
X148280090Y-101247118D01*
X148000349Y-101133256D01*
X146937605Y-102196000D01*
X146578395Y-102196000D01*
X145515651Y-101133256D01*
X145235910Y-101247118D01*
X145080039Y-101562296D01*
X144988651Y-101901826D01*
X144965259Y-102252661D01*
X144135000Y-102252661D01*
X144135000Y-102040679D01*
X144074396Y-101736006D01*
X143955519Y-101449011D01*
X143782936Y-101190721D01*
X143563279Y-100971064D01*
X143537219Y-100953651D01*
X145695256Y-100953651D01*
X146758000Y-102016395D01*
X147820744Y-100953651D01*
X149895256Y-100953651D01*
X150958000Y-102016395D01*
X152020744Y-100953651D01*
X154095256Y-100953651D01*
X155158000Y-102016395D01*
X156220744Y-100953651D01*
X156106882Y-100673910D01*
X155791704Y-100518039D01*
X155452174Y-100426651D01*
X155101339Y-100403259D01*
X154752681Y-100448760D01*
X154419600Y-100561406D01*
X154209118Y-100673910D01*
X154095256Y-100953651D01*
X152020744Y-100953651D01*
X151906882Y-100673910D01*
X151591704Y-100518039D01*
X151252174Y-100426651D01*
X150901339Y-100403259D01*
X150552681Y-100448760D01*
X150219600Y-100561406D01*
X150009118Y-100673910D01*
X149895256Y-100953651D01*
X147820744Y-100953651D01*
X147706882Y-100673910D01*
X147391704Y-100518039D01*
X147052174Y-100426651D01*
X146701339Y-100403259D01*
X146352681Y-100448760D01*
X146019600Y-100561406D01*
X145809118Y-100673910D01*
X145695256Y-100953651D01*
X143537219Y-100953651D01*
X143304989Y-100798481D01*
X143017994Y-100679604D01*
X142713321Y-100619000D01*
X142402679Y-100619000D01*
X142098006Y-100679604D01*
X141811011Y-100798481D01*
X141552721Y-100971064D01*
X141333064Y-101190721D01*
X141160481Y-101449011D01*
X141041604Y-101736006D01*
X140981000Y-102040679D01*
X139935000Y-102040679D01*
X139874396Y-101736006D01*
X139755519Y-101449011D01*
X139582936Y-101190721D01*
X139363279Y-100971064D01*
X139104989Y-100798481D01*
X138817994Y-100679604D01*
X138513321Y-100619000D01*
X138202679Y-100619000D01*
X137898006Y-100679604D01*
X137611011Y-100798481D01*
X137352721Y-100971064D01*
X137133064Y-101190721D01*
X136960481Y-101449011D01*
X136841604Y-101736006D01*
X136781000Y-102040679D01*
X135735000Y-102040679D01*
X135674396Y-101736006D01*
X135555519Y-101449011D01*
X135382936Y-101190721D01*
X135163279Y-100971064D01*
X134904989Y-100798481D01*
X134617994Y-100679604D01*
X134313321Y-100619000D01*
X134002679Y-100619000D01*
X133698006Y-100679604D01*
X133411011Y-100798481D01*
X133152721Y-100971064D01*
X132933064Y-101190721D01*
X132760481Y-101449011D01*
X132641604Y-101736006D01*
X132581000Y-102040679D01*
X131535000Y-102040679D01*
X131474396Y-101736006D01*
X131355519Y-101449011D01*
X131182936Y-101190721D01*
X130963279Y-100971064D01*
X130704989Y-100798481D01*
X130417994Y-100679604D01*
X130113321Y-100619000D01*
X129802679Y-100619000D01*
X129498006Y-100679604D01*
X129211011Y-100798481D01*
X128952721Y-100971064D01*
X128733064Y-101190721D01*
X128560481Y-101449011D01*
X128441604Y-101736006D01*
X128381000Y-102040679D01*
X127537866Y-102040679D01*
X127505240Y-101790681D01*
X127392594Y-101457600D01*
X127280090Y-101247118D01*
X127000349Y-101133256D01*
X125937605Y-102196000D01*
X125578395Y-102196000D01*
X124515651Y-101133256D01*
X124235910Y-101247118D01*
X124080039Y-101562296D01*
X123988651Y-101901826D01*
X123965259Y-102252661D01*
X121952000Y-102252661D01*
X121952000Y-100953651D01*
X124695256Y-100953651D01*
X125758000Y-102016395D01*
X126820744Y-100953651D01*
X126706882Y-100673910D01*
X126391704Y-100518039D01*
X126052174Y-100426651D01*
X125701339Y-100403259D01*
X125352681Y-100448760D01*
X125019600Y-100561406D01*
X124809118Y-100673910D01*
X124695256Y-100953651D01*
X121952000Y-100953651D01*
X121952000Y-94847499D01*
X126332106Y-94847499D01*
X126548228Y-95214258D01*
X127008105Y-95454938D01*
X127506098Y-95601275D01*
X128023071Y-95647648D01*
X128539159Y-95592273D01*
X129034526Y-95437279D01*
X129451772Y-95214258D01*
X129667894Y-94847499D01*
X128000000Y-93179605D01*
X126332106Y-94847499D01*
X121952000Y-94847499D01*
X121952000Y-93023071D01*
X125352352Y-93023071D01*
X125407727Y-93539159D01*
X125562721Y-94034526D01*
X125785742Y-94451772D01*
X126152501Y-94667894D01*
X127820395Y-93000000D01*
X128179605Y-93000000D01*
X129847499Y-94667894D01*
X130214258Y-94451772D01*
X130454938Y-93991895D01*
X130601275Y-93493902D01*
X130647648Y-92976929D01*
X130592273Y-92460841D01*
X130437279Y-91965474D01*
X130400621Y-91896890D01*
X135558524Y-91896890D01*
X135603175Y-92044099D01*
X135728359Y-92306920D01*
X135902412Y-92540269D01*
X136118645Y-92735178D01*
X136368748Y-92884157D01*
X136643109Y-92981481D01*
X136873000Y-92860814D01*
X136873000Y-91667000D01*
X137127000Y-91667000D01*
X137127000Y-92860814D01*
X137356891Y-92981481D01*
X137631252Y-92884157D01*
X137881355Y-92735178D01*
X138097588Y-92540269D01*
X138271641Y-92306920D01*
X138396825Y-92044099D01*
X138441476Y-91896890D01*
X138320155Y-91667000D01*
X137127000Y-91667000D01*
X136873000Y-91667000D01*
X135679845Y-91667000D01*
X135558524Y-91896890D01*
X130400621Y-91896890D01*
X130214258Y-91548228D01*
X129847499Y-91332106D01*
X128179605Y-93000000D01*
X127820395Y-93000000D01*
X126152501Y-91332106D01*
X125785742Y-91548228D01*
X125545062Y-92008105D01*
X125398725Y-92506098D01*
X125352352Y-93023071D01*
X121952000Y-93023071D01*
X121952000Y-91152501D01*
X126332106Y-91152501D01*
X128000000Y-92820395D01*
X129637285Y-91183110D01*
X135558524Y-91183110D01*
X135679845Y-91413000D01*
X136873000Y-91413000D01*
X136873000Y-91393000D01*
X137127000Y-91393000D01*
X137127000Y-91413000D01*
X138320155Y-91413000D01*
X138441476Y-91183110D01*
X138396825Y-91035901D01*
X138271641Y-90773080D01*
X138097588Y-90539731D01*
X137881355Y-90344822D01*
X137770965Y-90279066D01*
X137850000Y-90279066D01*
X137933707Y-90270822D01*
X138014196Y-90246405D01*
X138088376Y-90206755D01*
X138153395Y-90153395D01*
X138206755Y-90088376D01*
X138246405Y-90014196D01*
X138270822Y-89933707D01*
X138279066Y-89850000D01*
X138279066Y-88662470D01*
X157573000Y-88662470D01*
X157573000Y-89337530D01*
X157704697Y-89999619D01*
X157963032Y-90623293D01*
X158338075Y-91184585D01*
X158815415Y-91661925D01*
X159376707Y-92036968D01*
X160000381Y-92295303D01*
X160662470Y-92427000D01*
X161337530Y-92427000D01*
X161999619Y-92295303D01*
X162623293Y-92036968D01*
X163184585Y-91661925D01*
X163287824Y-91558686D01*
X168120919Y-91558686D01*
X168457106Y-92027868D01*
X169087068Y-92368237D01*
X169771327Y-92579166D01*
X170483589Y-92652550D01*
X171196482Y-92585569D01*
X171882609Y-92380796D01*
X172515603Y-92046102D01*
X172542894Y-92027868D01*
X172879081Y-91558686D01*
X170500000Y-89179605D01*
X168120919Y-91558686D01*
X163287824Y-91558686D01*
X163661925Y-91184585D01*
X164036968Y-90623293D01*
X164295303Y-89999619D01*
X164427000Y-89337530D01*
X164427000Y-88983589D01*
X166847450Y-88983589D01*
X166914431Y-89696482D01*
X167119204Y-90382609D01*
X167453898Y-91015603D01*
X167472132Y-91042894D01*
X167941314Y-91379081D01*
X170320395Y-89000000D01*
X170679605Y-89000000D01*
X173058686Y-91379081D01*
X173527868Y-91042894D01*
X173868237Y-90412932D01*
X174079166Y-89728673D01*
X174152550Y-89016411D01*
X174085569Y-88303518D01*
X173880796Y-87617391D01*
X173546102Y-86984397D01*
X173527868Y-86957106D01*
X173058686Y-86620919D01*
X170679605Y-89000000D01*
X170320395Y-89000000D01*
X167941314Y-86620919D01*
X167472132Y-86957106D01*
X167131763Y-87587068D01*
X166920834Y-88271327D01*
X166847450Y-88983589D01*
X164427000Y-88983589D01*
X164427000Y-88662470D01*
X164295303Y-88000381D01*
X164036968Y-87376707D01*
X163661925Y-86815415D01*
X163287824Y-86441314D01*
X168120919Y-86441314D01*
X170500000Y-88820395D01*
X172879081Y-86441314D01*
X172542894Y-85972132D01*
X171912932Y-85631763D01*
X171228673Y-85420834D01*
X170516411Y-85347450D01*
X169803518Y-85414431D01*
X169117391Y-85619204D01*
X168484397Y-85953898D01*
X168457106Y-85972132D01*
X168120919Y-86441314D01*
X163287824Y-86441314D01*
X163184585Y-86338075D01*
X162623293Y-85963032D01*
X161999619Y-85704697D01*
X161337530Y-85573000D01*
X160662470Y-85573000D01*
X160000381Y-85704697D01*
X159376707Y-85963032D01*
X158815415Y-86338075D01*
X158338075Y-86815415D01*
X157963032Y-87376707D01*
X157704697Y-88000381D01*
X157573000Y-88662470D01*
X138279066Y-88662470D01*
X138279066Y-88150000D01*
X138270822Y-88066293D01*
X138246405Y-87985804D01*
X138206755Y-87911624D01*
X138153395Y-87846605D01*
X138088376Y-87793245D01*
X138014196Y-87753595D01*
X137933707Y-87729178D01*
X137850000Y-87720934D01*
X136150000Y-87720934D01*
X136066293Y-87729178D01*
X135985804Y-87753595D01*
X135911624Y-87793245D01*
X135846605Y-87846605D01*
X135793245Y-87911624D01*
X135753595Y-87985804D01*
X135729178Y-88066293D01*
X135720934Y-88150000D01*
X135720934Y-89850000D01*
X135729178Y-89933707D01*
X135753595Y-90014196D01*
X135793245Y-90088376D01*
X135846605Y-90153395D01*
X135911624Y-90206755D01*
X135985804Y-90246405D01*
X136066293Y-90270822D01*
X136150000Y-90279066D01*
X136229035Y-90279066D01*
X136118645Y-90344822D01*
X135902412Y-90539731D01*
X135728359Y-90773080D01*
X135603175Y-91035901D01*
X135558524Y-91183110D01*
X129637285Y-91183110D01*
X129667894Y-91152501D01*
X129451772Y-90785742D01*
X128991895Y-90545062D01*
X128493902Y-90398725D01*
X127976929Y-90352352D01*
X127460841Y-90407727D01*
X126965474Y-90562721D01*
X126548228Y-90785742D01*
X126332106Y-91152501D01*
X121952000Y-91152501D01*
X121952000Y-86760961D01*
X125573000Y-86760961D01*
X125573000Y-87239039D01*
X125666268Y-87707930D01*
X125849221Y-88149615D01*
X126114826Y-88547122D01*
X126452878Y-88885174D01*
X126850385Y-89150779D01*
X127292070Y-89333732D01*
X127760961Y-89427000D01*
X128239039Y-89427000D01*
X128707930Y-89333732D01*
X129149615Y-89150779D01*
X129547122Y-88885174D01*
X129885174Y-88547122D01*
X130150779Y-88149615D01*
X130333732Y-87707930D01*
X130427000Y-87239039D01*
X130427000Y-86760961D01*
X130333732Y-86292070D01*
X130150779Y-85850385D01*
X130091028Y-85760961D01*
X147073000Y-85760961D01*
X147073000Y-86239039D01*
X147166268Y-86707930D01*
X147349221Y-87149615D01*
X147614826Y-87547122D01*
X147952878Y-87885174D01*
X148350385Y-88150779D01*
X148792070Y-88333732D01*
X149260961Y-88427000D01*
X149739039Y-88427000D01*
X150207930Y-88333732D01*
X150649615Y-88150779D01*
X151047122Y-87885174D01*
X151385174Y-87547122D01*
X151650779Y-87149615D01*
X151833732Y-86707930D01*
X151927000Y-86239039D01*
X151927000Y-85760961D01*
X151833732Y-85292070D01*
X151650779Y-84850385D01*
X151385174Y-84452878D01*
X151047122Y-84114826D01*
X150649615Y-83849221D01*
X150207930Y-83666268D01*
X149739039Y-83573000D01*
X149260961Y-83573000D01*
X148792070Y-83666268D01*
X148350385Y-83849221D01*
X147952878Y-84114826D01*
X147614826Y-84452878D01*
X147349221Y-84850385D01*
X147166268Y-85292070D01*
X147073000Y-85760961D01*
X130091028Y-85760961D01*
X129885174Y-85452878D01*
X129547122Y-85114826D01*
X129149615Y-84849221D01*
X128707930Y-84666268D01*
X128239039Y-84573000D01*
X127760961Y-84573000D01*
X127292070Y-84666268D01*
X126850385Y-84849221D01*
X126452878Y-85114826D01*
X126114826Y-85452878D01*
X125849221Y-85850385D01*
X125666268Y-86292070D01*
X125573000Y-86760961D01*
X121952000Y-86760961D01*
X121952000Y-82868000D01*
X161789813Y-82868000D01*
X161798540Y-82956607D01*
X161824386Y-83041810D01*
X161866357Y-83120333D01*
X161922841Y-83189159D01*
X161991667Y-83245643D01*
X162070190Y-83287614D01*
X162155393Y-83313460D01*
X162221795Y-83320000D01*
X162266205Y-83320000D01*
X162332607Y-83313460D01*
X162417810Y-83287614D01*
X162496333Y-83245643D01*
X162565159Y-83189159D01*
X162621643Y-83120333D01*
X162663614Y-83041810D01*
X162689460Y-82956607D01*
X162698187Y-82868000D01*
X162689460Y-82779393D01*
X162663614Y-82694190D01*
X162621643Y-82615667D01*
X162565159Y-82546841D01*
X162496333Y-82490357D01*
X162417810Y-82448386D01*
X162332607Y-82422540D01*
X162266205Y-82416000D01*
X162221795Y-82416000D01*
X162155393Y-82422540D01*
X162070190Y-82448386D01*
X161991667Y-82490357D01*
X161922841Y-82546841D01*
X161866357Y-82615667D01*
X161824386Y-82694190D01*
X161798540Y-82779393D01*
X161789813Y-82868000D01*
X121952000Y-82868000D01*
X121952000Y-78662470D01*
X124573000Y-78662470D01*
X124573000Y-79337530D01*
X124704697Y-79999619D01*
X124963032Y-80623293D01*
X125338075Y-81184585D01*
X125815415Y-81661925D01*
X126376707Y-82036968D01*
X127000381Y-82295303D01*
X127662470Y-82427000D01*
X128337530Y-82427000D01*
X128999619Y-82295303D01*
X129623293Y-82036968D01*
X130184585Y-81661925D01*
X130661925Y-81184585D01*
X131036968Y-80623293D01*
X131295303Y-79999619D01*
X131427000Y-79337530D01*
X131427000Y-78662470D01*
X133573000Y-78662470D01*
X133573000Y-79337530D01*
X133704697Y-79999619D01*
X133963032Y-80623293D01*
X134338075Y-81184585D01*
X134815415Y-81661925D01*
X135376707Y-82036968D01*
X136000381Y-82295303D01*
X136662470Y-82427000D01*
X137337530Y-82427000D01*
X137999619Y-82295303D01*
X138623293Y-82036968D01*
X139184585Y-81661925D01*
X139387824Y-81458686D01*
X158620919Y-81458686D01*
X158957106Y-81927868D01*
X159587068Y-82268237D01*
X160271327Y-82479166D01*
X160983589Y-82552550D01*
X161696482Y-82485569D01*
X162382609Y-82280796D01*
X163015603Y-81946102D01*
X163042894Y-81927868D01*
X163379081Y-81458686D01*
X163279081Y-81358686D01*
X167920919Y-81358686D01*
X168257106Y-81827868D01*
X168887068Y-82168237D01*
X169571327Y-82379166D01*
X170283589Y-82452550D01*
X170996482Y-82385569D01*
X171682609Y-82180796D01*
X172315603Y-81846102D01*
X172342894Y-81827868D01*
X172679081Y-81358686D01*
X170300000Y-78979605D01*
X167920919Y-81358686D01*
X163279081Y-81358686D01*
X161000000Y-79079605D01*
X158620919Y-81458686D01*
X139387824Y-81458686D01*
X139661925Y-81184585D01*
X140036968Y-80623293D01*
X140295303Y-79999619D01*
X140427000Y-79337530D01*
X140427000Y-78760961D01*
X143073000Y-78760961D01*
X143073000Y-79239039D01*
X143166268Y-79707930D01*
X143349221Y-80149615D01*
X143614826Y-80547122D01*
X143952878Y-80885174D01*
X144350385Y-81150779D01*
X144792070Y-81333732D01*
X145260961Y-81427000D01*
X145739039Y-81427000D01*
X146207930Y-81333732D01*
X146649615Y-81150779D01*
X147047122Y-80885174D01*
X147385174Y-80547122D01*
X147650779Y-80149615D01*
X147833732Y-79707930D01*
X147927000Y-79239039D01*
X147927000Y-78760961D01*
X150573000Y-78760961D01*
X150573000Y-79239039D01*
X150666268Y-79707930D01*
X150849221Y-80149615D01*
X151114826Y-80547122D01*
X151452878Y-80885174D01*
X151850385Y-81150779D01*
X152292070Y-81333732D01*
X152760961Y-81427000D01*
X153239039Y-81427000D01*
X153707930Y-81333732D01*
X154149615Y-81150779D01*
X154547122Y-80885174D01*
X154885174Y-80547122D01*
X155150779Y-80149615D01*
X155333732Y-79707930D01*
X155427000Y-79239039D01*
X155427000Y-78883589D01*
X157347450Y-78883589D01*
X157414431Y-79596482D01*
X157619204Y-80282609D01*
X157953898Y-80915603D01*
X157972132Y-80942894D01*
X158441314Y-81279081D01*
X160820395Y-78900000D01*
X161179605Y-78900000D01*
X163558686Y-81279081D01*
X164027868Y-80942894D01*
X164368237Y-80312932D01*
X164579166Y-79628673D01*
X164652550Y-78916411D01*
X164640071Y-78783589D01*
X166647450Y-78783589D01*
X166714431Y-79496482D01*
X166919204Y-80182609D01*
X167253898Y-80815603D01*
X167272132Y-80842894D01*
X167741314Y-81179081D01*
X170120395Y-78800000D01*
X170479605Y-78800000D01*
X172858686Y-81179081D01*
X173327868Y-80842894D01*
X173668237Y-80212932D01*
X173879166Y-79528673D01*
X173952550Y-78816411D01*
X173885569Y-78103518D01*
X173680796Y-77417391D01*
X173346102Y-76784397D01*
X173327868Y-76757106D01*
X172858686Y-76420919D01*
X170479605Y-78800000D01*
X170120395Y-78800000D01*
X167741314Y-76420919D01*
X167272132Y-76757106D01*
X166931763Y-77387068D01*
X166720834Y-78071327D01*
X166647450Y-78783589D01*
X164640071Y-78783589D01*
X164585569Y-78203518D01*
X164380796Y-77517391D01*
X164046102Y-76884397D01*
X164027868Y-76857106D01*
X163558686Y-76520919D01*
X161179605Y-78900000D01*
X160820395Y-78900000D01*
X158441314Y-76520919D01*
X157972132Y-76857106D01*
X157631763Y-77487068D01*
X157420834Y-78171327D01*
X157347450Y-78883589D01*
X155427000Y-78883589D01*
X155427000Y-78760961D01*
X155333732Y-78292070D01*
X155150779Y-77850385D01*
X154885174Y-77452878D01*
X154547122Y-77114826D01*
X154149615Y-76849221D01*
X153707930Y-76666268D01*
X153239039Y-76573000D01*
X152760961Y-76573000D01*
X152292070Y-76666268D01*
X151850385Y-76849221D01*
X151452878Y-77114826D01*
X151114826Y-77452878D01*
X150849221Y-77850385D01*
X150666268Y-78292070D01*
X150573000Y-78760961D01*
X147927000Y-78760961D01*
X147833732Y-78292070D01*
X147650779Y-77850385D01*
X147385174Y-77452878D01*
X147047122Y-77114826D01*
X146649615Y-76849221D01*
X146207930Y-76666268D01*
X145739039Y-76573000D01*
X145260961Y-76573000D01*
X144792070Y-76666268D01*
X144350385Y-76849221D01*
X143952878Y-77114826D01*
X143614826Y-77452878D01*
X143349221Y-77850385D01*
X143166268Y-78292070D01*
X143073000Y-78760961D01*
X140427000Y-78760961D01*
X140427000Y-78662470D01*
X140295303Y-78000381D01*
X140036968Y-77376707D01*
X139661925Y-76815415D01*
X139187824Y-76341314D01*
X158620919Y-76341314D01*
X161000000Y-78720395D01*
X163379081Y-76341314D01*
X163307428Y-76241314D01*
X167920919Y-76241314D01*
X170300000Y-78620395D01*
X172679081Y-76241314D01*
X172342894Y-75772132D01*
X171712932Y-75431763D01*
X171028673Y-75220834D01*
X170316411Y-75147450D01*
X169603518Y-75214431D01*
X168917391Y-75419204D01*
X168284397Y-75753898D01*
X168257106Y-75772132D01*
X167920919Y-76241314D01*
X163307428Y-76241314D01*
X163042894Y-75872132D01*
X162412932Y-75531763D01*
X161728673Y-75320834D01*
X161016411Y-75247450D01*
X160303518Y-75314431D01*
X159617391Y-75519204D01*
X158984397Y-75853898D01*
X158957106Y-75872132D01*
X158620919Y-76341314D01*
X139187824Y-76341314D01*
X139184585Y-76338075D01*
X138623293Y-75963032D01*
X137999619Y-75704697D01*
X137337530Y-75573000D01*
X136662470Y-75573000D01*
X136000381Y-75704697D01*
X135376707Y-75963032D01*
X134815415Y-76338075D01*
X134338075Y-76815415D01*
X133963032Y-77376707D01*
X133704697Y-78000381D01*
X133573000Y-78662470D01*
X131427000Y-78662470D01*
X131295303Y-78000381D01*
X131036968Y-77376707D01*
X130661925Y-76815415D01*
X130184585Y-76338075D01*
X129623293Y-75963032D01*
X128999619Y-75704697D01*
X128337530Y-75573000D01*
X127662470Y-75573000D01*
X127000381Y-75704697D01*
X126376707Y-75963032D01*
X125815415Y-76338075D01*
X125338075Y-76815415D01*
X124963032Y-77376707D01*
X124704697Y-78000381D01*
X124573000Y-78662470D01*
X121952000Y-78662470D01*
X121952000Y-73952000D01*
X175548205Y-73952000D01*
X175569796Y-121548000D01*
%TA.AperFunction,Conductor*%
D20*
G36*
X175569796Y-121548000D02*
G01*
X121952000Y-121548000D01*
X121952000Y-115863584D01*
X132801000Y-115863584D01*
X132801000Y-116292416D01*
X132884660Y-116713008D01*
X133048767Y-117109196D01*
X133287013Y-117465757D01*
X133590243Y-117768987D01*
X133946804Y-118007233D01*
X134342992Y-118171340D01*
X134763584Y-118255000D01*
X135192416Y-118255000D01*
X135613008Y-118171340D01*
X136009196Y-118007233D01*
X136365757Y-117768987D01*
X136668987Y-117465757D01*
X136907233Y-117109196D01*
X137071340Y-116713008D01*
X137155000Y-116292416D01*
X137155000Y-115863584D01*
X137071340Y-115442992D01*
X136907233Y-115046804D01*
X136668987Y-114690243D01*
X136469244Y-114490500D01*
X149999928Y-114490500D01*
X150012188Y-114614982D01*
X150048498Y-114734680D01*
X150107463Y-114844994D01*
X150186815Y-114941685D01*
X150283506Y-115021037D01*
X150393820Y-115080002D01*
X150513518Y-115116312D01*
X150589052Y-115123751D01*
X150437938Y-115307883D01*
X150309842Y-115547534D01*
X150230961Y-115807571D01*
X150204326Y-116078000D01*
X150230961Y-116348429D01*
X150309842Y-116608466D01*
X150437938Y-116848117D01*
X150610327Y-117058173D01*
X150820383Y-117230562D01*
X151040094Y-117348000D01*
X150820383Y-117465438D01*
X150610327Y-117637827D01*
X150437938Y-117847883D01*
X150309842Y-118087534D01*
X150230961Y-118347571D01*
X150204326Y-118618000D01*
X150230961Y-118888429D01*
X150309842Y-119148466D01*
X150437938Y-119388117D01*
X150610327Y-119598173D01*
X150820383Y-119770562D01*
X151060034Y-119898658D01*
X151320071Y-119977539D01*
X151522738Y-119997500D01*
X151753262Y-119997500D01*
X151955929Y-119977539D01*
X152215966Y-119898658D01*
X152455617Y-119770562D01*
X152665673Y-119598173D01*
X152838062Y-119388117D01*
X152966158Y-119148466D01*
X153045039Y-118888429D01*
X153071674Y-118618000D01*
X153045039Y-118347571D01*
X152966158Y-118087534D01*
X152838062Y-117847883D01*
X152665673Y-117637827D01*
X152455617Y-117465438D01*
X152235906Y-117348000D01*
X152455617Y-117230562D01*
X152665673Y-117058173D01*
X152838062Y-116848117D01*
X152966158Y-116608466D01*
X153045039Y-116348429D01*
X153071674Y-116078000D01*
X153045039Y-115807571D01*
X152966158Y-115547534D01*
X152838062Y-115307883D01*
X152686948Y-115123751D01*
X152762482Y-115116312D01*
X152882180Y-115080002D01*
X152992494Y-115021037D01*
X153089185Y-114941685D01*
X153168537Y-114844994D01*
X153227502Y-114734680D01*
X153263812Y-114614982D01*
X153276072Y-114490500D01*
X153273000Y-113823750D01*
X153114250Y-113665000D01*
X151765000Y-113665000D01*
X151765000Y-113685000D01*
X151511000Y-113685000D01*
X151511000Y-113665000D01*
X150161750Y-113665000D01*
X150003000Y-113823750D01*
X149999928Y-114490500D01*
X136469244Y-114490500D01*
X136365757Y-114387013D01*
X136009196Y-114148767D01*
X135613008Y-113984660D01*
X135192416Y-113901000D01*
X134763584Y-113901000D01*
X134342992Y-113984660D01*
X133946804Y-114148767D01*
X133590243Y-114387013D01*
X133287013Y-114690243D01*
X133048767Y-115046804D01*
X132884660Y-115442992D01*
X132801000Y-115863584D01*
X121952000Y-115863584D01*
X121952000Y-112585500D01*
X149999928Y-112585500D01*
X150003000Y-113252250D01*
X150161750Y-113411000D01*
X151511000Y-113411000D01*
X151511000Y-112109250D01*
X151765000Y-112109250D01*
X151765000Y-113411000D01*
X153114250Y-113411000D01*
X153273000Y-113252250D01*
X153276072Y-112585500D01*
X153263812Y-112461018D01*
X153227502Y-112341320D01*
X153168537Y-112231006D01*
X153089185Y-112134315D01*
X152992494Y-112054963D01*
X152882180Y-111995998D01*
X152762482Y-111959688D01*
X152638000Y-111947428D01*
X151923750Y-111950500D01*
X151765000Y-112109250D01*
X151511000Y-112109250D01*
X151352250Y-111950500D01*
X150638000Y-111947428D01*
X150513518Y-111959688D01*
X150393820Y-111995998D01*
X150283506Y-112054963D01*
X150186815Y-112134315D01*
X150107463Y-112231006D01*
X150048498Y-112341320D01*
X150012188Y-112461018D01*
X149999928Y-112585500D01*
X121952000Y-112585500D01*
X121952000Y-107540679D01*
X124181000Y-107540679D01*
X124181000Y-107851321D01*
X124241604Y-108155994D01*
X124360481Y-108442989D01*
X124533064Y-108701279D01*
X124752721Y-108920936D01*
X125011011Y-109093519D01*
X125298006Y-109212396D01*
X125602679Y-109273000D01*
X125913321Y-109273000D01*
X126217994Y-109212396D01*
X126504989Y-109093519D01*
X126763279Y-108920936D01*
X126982936Y-108701279D01*
X127155519Y-108442989D01*
X127274396Y-108155994D01*
X127335000Y-107851321D01*
X127335000Y-107540679D01*
X128381000Y-107540679D01*
X128381000Y-107851321D01*
X128441604Y-108155994D01*
X128560481Y-108442989D01*
X128733064Y-108701279D01*
X128952721Y-108920936D01*
X129211011Y-109093519D01*
X129498006Y-109212396D01*
X129802679Y-109273000D01*
X130113321Y-109273000D01*
X130417994Y-109212396D01*
X130704989Y-109093519D01*
X130963279Y-108920936D01*
X131182936Y-108701279D01*
X131355519Y-108442989D01*
X131474396Y-108155994D01*
X131535000Y-107851321D01*
X131535000Y-107540679D01*
X132581000Y-107540679D01*
X132581000Y-107851321D01*
X132641604Y-108155994D01*
X132760481Y-108442989D01*
X132933064Y-108701279D01*
X133152721Y-108920936D01*
X133411011Y-109093519D01*
X133698006Y-109212396D01*
X134002679Y-109273000D01*
X134313321Y-109273000D01*
X134617994Y-109212396D01*
X134904989Y-109093519D01*
X135163279Y-108920936D01*
X135382936Y-108701279D01*
X135555519Y-108442989D01*
X135674396Y-108155994D01*
X135735000Y-107851321D01*
X135735000Y-107540679D01*
X136781000Y-107540679D01*
X136781000Y-107851321D01*
X136841604Y-108155994D01*
X136960481Y-108442989D01*
X137133064Y-108701279D01*
X137352721Y-108920936D01*
X137611011Y-109093519D01*
X137898006Y-109212396D01*
X138202679Y-109273000D01*
X138513321Y-109273000D01*
X138817994Y-109212396D01*
X139104989Y-109093519D01*
X139363279Y-108920936D01*
X139582936Y-108701279D01*
X139755519Y-108442989D01*
X139874396Y-108155994D01*
X139935000Y-107851321D01*
X139935000Y-107540679D01*
X140981000Y-107540679D01*
X140981000Y-107851321D01*
X141041604Y-108155994D01*
X141160481Y-108442989D01*
X141333064Y-108701279D01*
X141552721Y-108920936D01*
X141811011Y-109093519D01*
X142098006Y-109212396D01*
X142402679Y-109273000D01*
X142713321Y-109273000D01*
X143017994Y-109212396D01*
X143304989Y-109093519D01*
X143537218Y-108938349D01*
X145695256Y-108938349D01*
X145809118Y-109218090D01*
X146124296Y-109373961D01*
X146463826Y-109465349D01*
X146814661Y-109488741D01*
X147163319Y-109443240D01*
X147496400Y-109330594D01*
X147706882Y-109218090D01*
X147820744Y-108938349D01*
X146758000Y-107875605D01*
X145695256Y-108938349D01*
X143537218Y-108938349D01*
X143563279Y-108920936D01*
X143782936Y-108701279D01*
X143955519Y-108442989D01*
X144074396Y-108155994D01*
X144135000Y-107851321D01*
X144135000Y-107752661D01*
X144965259Y-107752661D01*
X145010760Y-108101319D01*
X145123406Y-108434400D01*
X145235910Y-108644882D01*
X145515651Y-108758744D01*
X146578395Y-107696000D01*
X146937605Y-107696000D01*
X148000349Y-108758744D01*
X148280090Y-108644882D01*
X148435961Y-108329704D01*
X148527349Y-107990174D01*
X148550741Y-107639339D01*
X148537866Y-107540679D01*
X149381000Y-107540679D01*
X149381000Y-107851321D01*
X149441604Y-108155994D01*
X149560481Y-108442989D01*
X149733064Y-108701279D01*
X149952721Y-108920936D01*
X150211011Y-109093519D01*
X150498006Y-109212396D01*
X150802679Y-109273000D01*
X151113321Y-109273000D01*
X151417994Y-109212396D01*
X151704989Y-109093519D01*
X151937218Y-108938349D01*
X154095256Y-108938349D01*
X154209118Y-109218090D01*
X154524296Y-109373961D01*
X154863826Y-109465349D01*
X155214661Y-109488741D01*
X155563319Y-109443240D01*
X155896400Y-109330594D01*
X156106882Y-109218090D01*
X156220744Y-108938349D01*
X155158000Y-107875605D01*
X154095256Y-108938349D01*
X151937218Y-108938349D01*
X151963279Y-108920936D01*
X152182936Y-108701279D01*
X152355519Y-108442989D01*
X152474396Y-108155994D01*
X152535000Y-107851321D01*
X152535000Y-107752661D01*
X153365259Y-107752661D01*
X153410760Y-108101319D01*
X153523406Y-108434400D01*
X153635910Y-108644882D01*
X153915651Y-108758744D01*
X154978395Y-107696000D01*
X155337605Y-107696000D01*
X156400349Y-108758744D01*
X156680090Y-108644882D01*
X156835961Y-108329704D01*
X156927349Y-107990174D01*
X156950741Y-107639339D01*
X156937866Y-107540679D01*
X157781000Y-107540679D01*
X157781000Y-107851321D01*
X157841604Y-108155994D01*
X157960481Y-108442989D01*
X158133064Y-108701279D01*
X158352721Y-108920936D01*
X158611011Y-109093519D01*
X158898006Y-109212396D01*
X159202679Y-109273000D01*
X159513321Y-109273000D01*
X159817994Y-109212396D01*
X160104989Y-109093519D01*
X160337218Y-108938349D01*
X162495256Y-108938349D01*
X162609118Y-109218090D01*
X162924296Y-109373961D01*
X163263826Y-109465349D01*
X163614661Y-109488741D01*
X163963319Y-109443240D01*
X164296400Y-109330594D01*
X164506882Y-109218090D01*
X164620744Y-108938349D01*
X163558000Y-107875605D01*
X162495256Y-108938349D01*
X160337218Y-108938349D01*
X160363279Y-108920936D01*
X160582936Y-108701279D01*
X160755519Y-108442989D01*
X160874396Y-108155994D01*
X160935000Y-107851321D01*
X160935000Y-107752661D01*
X161765259Y-107752661D01*
X161810760Y-108101319D01*
X161923406Y-108434400D01*
X162035910Y-108644882D01*
X162315651Y-108758744D01*
X163378395Y-107696000D01*
X163737605Y-107696000D01*
X164800349Y-108758744D01*
X165080090Y-108644882D01*
X165235961Y-108329704D01*
X165327349Y-107990174D01*
X165350741Y-107639339D01*
X165337866Y-107540679D01*
X166181000Y-107540679D01*
X166181000Y-107851321D01*
X166241604Y-108155994D01*
X166360481Y-108442989D01*
X166533064Y-108701279D01*
X166752721Y-108920936D01*
X167011011Y-109093519D01*
X167298006Y-109212396D01*
X167602679Y-109273000D01*
X167913321Y-109273000D01*
X168217994Y-109212396D01*
X168504989Y-109093519D01*
X168763279Y-108920936D01*
X168982936Y-108701279D01*
X169155519Y-108442989D01*
X169274396Y-108155994D01*
X169335000Y-107851321D01*
X169335000Y-107540679D01*
X169274396Y-107236006D01*
X169155519Y-106949011D01*
X168982936Y-106690721D01*
X168838215Y-106546000D01*
X170378934Y-106546000D01*
X170378934Y-108846000D01*
X170387178Y-108929707D01*
X170411595Y-109010196D01*
X170451245Y-109084376D01*
X170504605Y-109149395D01*
X170569624Y-109202755D01*
X170643804Y-109242405D01*
X170724293Y-109266822D01*
X170808000Y-109275066D01*
X173108000Y-109275066D01*
X173191707Y-109266822D01*
X173272196Y-109242405D01*
X173346376Y-109202755D01*
X173411395Y-109149395D01*
X173464755Y-109084376D01*
X173504405Y-109010196D01*
X173528822Y-108929707D01*
X173537066Y-108846000D01*
X173537066Y-106546000D01*
X173528822Y-106462293D01*
X173504405Y-106381804D01*
X173464755Y-106307624D01*
X173411395Y-106242605D01*
X173346376Y-106189245D01*
X173272196Y-106149595D01*
X173191707Y-106125178D01*
X173108000Y-106116934D01*
X170808000Y-106116934D01*
X170724293Y-106125178D01*
X170643804Y-106149595D01*
X170569624Y-106189245D01*
X170504605Y-106242605D01*
X170451245Y-106307624D01*
X170411595Y-106381804D01*
X170387178Y-106462293D01*
X170378934Y-106546000D01*
X168838215Y-106546000D01*
X168763279Y-106471064D01*
X168504989Y-106298481D01*
X168217994Y-106179604D01*
X167913321Y-106119000D01*
X167602679Y-106119000D01*
X167298006Y-106179604D01*
X167011011Y-106298481D01*
X166752721Y-106471064D01*
X166533064Y-106690721D01*
X166360481Y-106949011D01*
X166241604Y-107236006D01*
X166181000Y-107540679D01*
X165337866Y-107540679D01*
X165305240Y-107290681D01*
X165192594Y-106957600D01*
X165080090Y-106747118D01*
X164800349Y-106633256D01*
X163737605Y-107696000D01*
X163378395Y-107696000D01*
X162315651Y-106633256D01*
X162035910Y-106747118D01*
X161880039Y-107062296D01*
X161788651Y-107401826D01*
X161765259Y-107752661D01*
X160935000Y-107752661D01*
X160935000Y-107540679D01*
X160874396Y-107236006D01*
X160755519Y-106949011D01*
X160582936Y-106690721D01*
X160363279Y-106471064D01*
X160337219Y-106453651D01*
X162495256Y-106453651D01*
X163558000Y-107516395D01*
X164620744Y-106453651D01*
X164506882Y-106173910D01*
X164191704Y-106018039D01*
X163852174Y-105926651D01*
X163501339Y-105903259D01*
X163152681Y-105948760D01*
X162819600Y-106061406D01*
X162609118Y-106173910D01*
X162495256Y-106453651D01*
X160337219Y-106453651D01*
X160104989Y-106298481D01*
X159817994Y-106179604D01*
X159513321Y-106119000D01*
X159202679Y-106119000D01*
X158898006Y-106179604D01*
X158611011Y-106298481D01*
X158352721Y-106471064D01*
X158133064Y-106690721D01*
X157960481Y-106949011D01*
X157841604Y-107236006D01*
X157781000Y-107540679D01*
X156937866Y-107540679D01*
X156905240Y-107290681D01*
X156792594Y-106957600D01*
X156680090Y-106747118D01*
X156400349Y-106633256D01*
X155337605Y-107696000D01*
X154978395Y-107696000D01*
X153915651Y-106633256D01*
X153635910Y-106747118D01*
X153480039Y-107062296D01*
X153388651Y-107401826D01*
X153365259Y-107752661D01*
X152535000Y-107752661D01*
X152535000Y-107540679D01*
X152474396Y-107236006D01*
X152355519Y-106949011D01*
X152182936Y-106690721D01*
X151963279Y-106471064D01*
X151937219Y-106453651D01*
X154095256Y-106453651D01*
X155158000Y-107516395D01*
X156220744Y-106453651D01*
X156106882Y-106173910D01*
X155791704Y-106018039D01*
X155452174Y-105926651D01*
X155101339Y-105903259D01*
X154752681Y-105948760D01*
X154419600Y-106061406D01*
X154209118Y-106173910D01*
X154095256Y-106453651D01*
X151937219Y-106453651D01*
X151704989Y-106298481D01*
X151417994Y-106179604D01*
X151113321Y-106119000D01*
X150802679Y-106119000D01*
X150498006Y-106179604D01*
X150211011Y-106298481D01*
X149952721Y-106471064D01*
X149733064Y-106690721D01*
X149560481Y-106949011D01*
X149441604Y-107236006D01*
X149381000Y-107540679D01*
X148537866Y-107540679D01*
X148505240Y-107290681D01*
X148392594Y-106957600D01*
X148280090Y-106747118D01*
X148000349Y-106633256D01*
X146937605Y-107696000D01*
X146578395Y-107696000D01*
X145515651Y-106633256D01*
X145235910Y-106747118D01*
X145080039Y-107062296D01*
X144988651Y-107401826D01*
X144965259Y-107752661D01*
X144135000Y-107752661D01*
X144135000Y-107540679D01*
X144074396Y-107236006D01*
X143955519Y-106949011D01*
X143782936Y-106690721D01*
X143563279Y-106471064D01*
X143537219Y-106453651D01*
X145695256Y-106453651D01*
X146758000Y-107516395D01*
X147820744Y-106453651D01*
X147706882Y-106173910D01*
X147391704Y-106018039D01*
X147052174Y-105926651D01*
X146701339Y-105903259D01*
X146352681Y-105948760D01*
X146019600Y-106061406D01*
X145809118Y-106173910D01*
X145695256Y-106453651D01*
X143537219Y-106453651D01*
X143304989Y-106298481D01*
X143017994Y-106179604D01*
X142713321Y-106119000D01*
X142402679Y-106119000D01*
X142098006Y-106179604D01*
X141811011Y-106298481D01*
X141552721Y-106471064D01*
X141333064Y-106690721D01*
X141160481Y-106949011D01*
X141041604Y-107236006D01*
X140981000Y-107540679D01*
X139935000Y-107540679D01*
X139874396Y-107236006D01*
X139755519Y-106949011D01*
X139582936Y-106690721D01*
X139363279Y-106471064D01*
X139104989Y-106298481D01*
X138817994Y-106179604D01*
X138513321Y-106119000D01*
X138202679Y-106119000D01*
X137898006Y-106179604D01*
X137611011Y-106298481D01*
X137352721Y-106471064D01*
X137133064Y-106690721D01*
X136960481Y-106949011D01*
X136841604Y-107236006D01*
X136781000Y-107540679D01*
X135735000Y-107540679D01*
X135674396Y-107236006D01*
X135555519Y-106949011D01*
X135382936Y-106690721D01*
X135163279Y-106471064D01*
X134904989Y-106298481D01*
X134617994Y-106179604D01*
X134313321Y-106119000D01*
X134002679Y-106119000D01*
X133698006Y-106179604D01*
X133411011Y-106298481D01*
X133152721Y-106471064D01*
X132933064Y-106690721D01*
X132760481Y-106949011D01*
X132641604Y-107236006D01*
X132581000Y-107540679D01*
X131535000Y-107540679D01*
X131474396Y-107236006D01*
X131355519Y-106949011D01*
X131182936Y-106690721D01*
X130963279Y-106471064D01*
X130704989Y-106298481D01*
X130417994Y-106179604D01*
X130113321Y-106119000D01*
X129802679Y-106119000D01*
X129498006Y-106179604D01*
X129211011Y-106298481D01*
X128952721Y-106471064D01*
X128733064Y-106690721D01*
X128560481Y-106949011D01*
X128441604Y-107236006D01*
X128381000Y-107540679D01*
X127335000Y-107540679D01*
X127274396Y-107236006D01*
X127155519Y-106949011D01*
X126982936Y-106690721D01*
X126763279Y-106471064D01*
X126504989Y-106298481D01*
X126217994Y-106179604D01*
X125913321Y-106119000D01*
X125602679Y-106119000D01*
X125298006Y-106179604D01*
X125011011Y-106298481D01*
X124752721Y-106471064D01*
X124533064Y-106690721D01*
X124360481Y-106949011D01*
X124241604Y-107236006D01*
X124181000Y-107540679D01*
X121952000Y-107540679D01*
X121952000Y-103438349D01*
X124695256Y-103438349D01*
X124809118Y-103718090D01*
X125124296Y-103873961D01*
X125463826Y-103965349D01*
X125814661Y-103988741D01*
X126163319Y-103943240D01*
X126496400Y-103830594D01*
X126706882Y-103718090D01*
X126820744Y-103438349D01*
X125758000Y-102375605D01*
X124695256Y-103438349D01*
X121952000Y-103438349D01*
X121952000Y-102252661D01*
X123965259Y-102252661D01*
X124010760Y-102601319D01*
X124123406Y-102934400D01*
X124235910Y-103144882D01*
X124515651Y-103258744D01*
X125578395Y-102196000D01*
X125937605Y-102196000D01*
X127000349Y-103258744D01*
X127280090Y-103144882D01*
X127435961Y-102829704D01*
X127527349Y-102490174D01*
X127550741Y-102139339D01*
X127537866Y-102040679D01*
X128381000Y-102040679D01*
X128381000Y-102351321D01*
X128441604Y-102655994D01*
X128560481Y-102942989D01*
X128733064Y-103201279D01*
X128952721Y-103420936D01*
X129211011Y-103593519D01*
X129498006Y-103712396D01*
X129802679Y-103773000D01*
X130113321Y-103773000D01*
X130417994Y-103712396D01*
X130704989Y-103593519D01*
X130963279Y-103420936D01*
X131182936Y-103201279D01*
X131355519Y-102942989D01*
X131474396Y-102655994D01*
X131535000Y-102351321D01*
X131535000Y-102040679D01*
X132581000Y-102040679D01*
X132581000Y-102351321D01*
X132641604Y-102655994D01*
X132760481Y-102942989D01*
X132933064Y-103201279D01*
X133152721Y-103420936D01*
X133411011Y-103593519D01*
X133698006Y-103712396D01*
X134002679Y-103773000D01*
X134313321Y-103773000D01*
X134617994Y-103712396D01*
X134904989Y-103593519D01*
X135163279Y-103420936D01*
X135382936Y-103201279D01*
X135555519Y-102942989D01*
X135674396Y-102655994D01*
X135735000Y-102351321D01*
X135735000Y-102040679D01*
X136781000Y-102040679D01*
X136781000Y-102351321D01*
X136841604Y-102655994D01*
X136960481Y-102942989D01*
X137133064Y-103201279D01*
X137352721Y-103420936D01*
X137611011Y-103593519D01*
X137898006Y-103712396D01*
X138202679Y-103773000D01*
X138513321Y-103773000D01*
X138817994Y-103712396D01*
X139104989Y-103593519D01*
X139363279Y-103420936D01*
X139582936Y-103201279D01*
X139755519Y-102942989D01*
X139874396Y-102655994D01*
X139935000Y-102351321D01*
X139935000Y-102040679D01*
X140981000Y-102040679D01*
X140981000Y-102351321D01*
X141041604Y-102655994D01*
X141160481Y-102942989D01*
X141333064Y-103201279D01*
X141552721Y-103420936D01*
X141811011Y-103593519D01*
X142098006Y-103712396D01*
X142402679Y-103773000D01*
X142713321Y-103773000D01*
X143017994Y-103712396D01*
X143304989Y-103593519D01*
X143537218Y-103438349D01*
X145695256Y-103438349D01*
X145809118Y-103718090D01*
X146124296Y-103873961D01*
X146463826Y-103965349D01*
X146814661Y-103988741D01*
X147163319Y-103943240D01*
X147496400Y-103830594D01*
X147706882Y-103718090D01*
X147820744Y-103438349D01*
X149895256Y-103438349D01*
X150009118Y-103718090D01*
X150324296Y-103873961D01*
X150663826Y-103965349D01*
X151014661Y-103988741D01*
X151363319Y-103943240D01*
X151696400Y-103830594D01*
X151906882Y-103718090D01*
X152020744Y-103438349D01*
X154095256Y-103438349D01*
X154209118Y-103718090D01*
X154524296Y-103873961D01*
X154863826Y-103965349D01*
X155214661Y-103988741D01*
X155563319Y-103943240D01*
X155896400Y-103830594D01*
X156106882Y-103718090D01*
X156220744Y-103438349D01*
X155158000Y-102375605D01*
X154095256Y-103438349D01*
X152020744Y-103438349D01*
X150958000Y-102375605D01*
X149895256Y-103438349D01*
X147820744Y-103438349D01*
X146758000Y-102375605D01*
X145695256Y-103438349D01*
X143537218Y-103438349D01*
X143563279Y-103420936D01*
X143782936Y-103201279D01*
X143955519Y-102942989D01*
X144074396Y-102655994D01*
X144135000Y-102351321D01*
X144135000Y-102252661D01*
X144965259Y-102252661D01*
X145010760Y-102601319D01*
X145123406Y-102934400D01*
X145235910Y-103144882D01*
X145515651Y-103258744D01*
X146578395Y-102196000D01*
X146937605Y-102196000D01*
X148000349Y-103258744D01*
X148280090Y-103144882D01*
X148435961Y-102829704D01*
X148527349Y-102490174D01*
X148543185Y-102252661D01*
X149165259Y-102252661D01*
X149210760Y-102601319D01*
X149323406Y-102934400D01*
X149435910Y-103144882D01*
X149715651Y-103258744D01*
X150778395Y-102196000D01*
X151137605Y-102196000D01*
X152200349Y-103258744D01*
X152480090Y-103144882D01*
X152635961Y-102829704D01*
X152727349Y-102490174D01*
X152743185Y-102252661D01*
X153365259Y-102252661D01*
X153410760Y-102601319D01*
X153523406Y-102934400D01*
X153635910Y-103144882D01*
X153915651Y-103258744D01*
X154978395Y-102196000D01*
X155337605Y-102196000D01*
X156400349Y-103258744D01*
X156680090Y-103144882D01*
X156835961Y-102829704D01*
X156927349Y-102490174D01*
X156950741Y-102139339D01*
X156937866Y-102040679D01*
X157781000Y-102040679D01*
X157781000Y-102351321D01*
X157841604Y-102655994D01*
X157960481Y-102942989D01*
X158133064Y-103201279D01*
X158352721Y-103420936D01*
X158611011Y-103593519D01*
X158898006Y-103712396D01*
X159202679Y-103773000D01*
X159513321Y-103773000D01*
X159817994Y-103712396D01*
X160104989Y-103593519D01*
X160337218Y-103438349D01*
X162495256Y-103438349D01*
X162609118Y-103718090D01*
X162924296Y-103873961D01*
X163263826Y-103965349D01*
X163614661Y-103988741D01*
X163963319Y-103943240D01*
X164296400Y-103830594D01*
X164506882Y-103718090D01*
X164620744Y-103438349D01*
X163558000Y-102375605D01*
X162495256Y-103438349D01*
X160337218Y-103438349D01*
X160363279Y-103420936D01*
X160582936Y-103201279D01*
X160755519Y-102942989D01*
X160874396Y-102655994D01*
X160935000Y-102351321D01*
X160935000Y-102252661D01*
X161765259Y-102252661D01*
X161810760Y-102601319D01*
X161923406Y-102934400D01*
X162035910Y-103144882D01*
X162315651Y-103258744D01*
X163378395Y-102196000D01*
X163737605Y-102196000D01*
X164800349Y-103258744D01*
X165080090Y-103144882D01*
X165235961Y-102829704D01*
X165327349Y-102490174D01*
X165350741Y-102139339D01*
X165337866Y-102040679D01*
X166181000Y-102040679D01*
X166181000Y-102351321D01*
X166241604Y-102655994D01*
X166360481Y-102942989D01*
X166533064Y-103201279D01*
X166752721Y-103420936D01*
X167011011Y-103593519D01*
X167298006Y-103712396D01*
X167602679Y-103773000D01*
X167913321Y-103773000D01*
X168217994Y-103712396D01*
X168504989Y-103593519D01*
X168763279Y-103420936D01*
X168982936Y-103201279D01*
X169155519Y-102942989D01*
X169274396Y-102655994D01*
X169335000Y-102351321D01*
X169335000Y-102040679D01*
X170381000Y-102040679D01*
X170381000Y-102351321D01*
X170441604Y-102655994D01*
X170560481Y-102942989D01*
X170733064Y-103201279D01*
X170952721Y-103420936D01*
X171211011Y-103593519D01*
X171498006Y-103712396D01*
X171802679Y-103773000D01*
X172113321Y-103773000D01*
X172417994Y-103712396D01*
X172704989Y-103593519D01*
X172963279Y-103420936D01*
X173182936Y-103201279D01*
X173355519Y-102942989D01*
X173474396Y-102655994D01*
X173535000Y-102351321D01*
X173535000Y-102040679D01*
X173474396Y-101736006D01*
X173355519Y-101449011D01*
X173182936Y-101190721D01*
X172963279Y-100971064D01*
X172704989Y-100798481D01*
X172417994Y-100679604D01*
X172113321Y-100619000D01*
X171802679Y-100619000D01*
X171498006Y-100679604D01*
X171211011Y-100798481D01*
X170952721Y-100971064D01*
X170733064Y-101190721D01*
X170560481Y-101449011D01*
X170441604Y-101736006D01*
X170381000Y-102040679D01*
X169335000Y-102040679D01*
X169274396Y-101736006D01*
X169155519Y-101449011D01*
X168982936Y-101190721D01*
X168763279Y-100971064D01*
X168504989Y-100798481D01*
X168217994Y-100679604D01*
X167913321Y-100619000D01*
X167602679Y-100619000D01*
X167298006Y-100679604D01*
X167011011Y-100798481D01*
X166752721Y-100971064D01*
X166533064Y-101190721D01*
X166360481Y-101449011D01*
X166241604Y-101736006D01*
X166181000Y-102040679D01*
X165337866Y-102040679D01*
X165305240Y-101790681D01*
X165192594Y-101457600D01*
X165080090Y-101247118D01*
X164800349Y-101133256D01*
X163737605Y-102196000D01*
X163378395Y-102196000D01*
X162315651Y-101133256D01*
X162035910Y-101247118D01*
X161880039Y-101562296D01*
X161788651Y-101901826D01*
X161765259Y-102252661D01*
X160935000Y-102252661D01*
X160935000Y-102040679D01*
X160874396Y-101736006D01*
X160755519Y-101449011D01*
X160582936Y-101190721D01*
X160363279Y-100971064D01*
X160337219Y-100953651D01*
X162495256Y-100953651D01*
X163558000Y-102016395D01*
X164620744Y-100953651D01*
X164506882Y-100673910D01*
X164191704Y-100518039D01*
X163852174Y-100426651D01*
X163501339Y-100403259D01*
X163152681Y-100448760D01*
X162819600Y-100561406D01*
X162609118Y-100673910D01*
X162495256Y-100953651D01*
X160337219Y-100953651D01*
X160104989Y-100798481D01*
X159817994Y-100679604D01*
X159513321Y-100619000D01*
X159202679Y-100619000D01*
X158898006Y-100679604D01*
X158611011Y-100798481D01*
X158352721Y-100971064D01*
X158133064Y-101190721D01*
X157960481Y-101449011D01*
X157841604Y-101736006D01*
X157781000Y-102040679D01*
X156937866Y-102040679D01*
X156905240Y-101790681D01*
X156792594Y-101457600D01*
X156680090Y-101247118D01*
X156400349Y-101133256D01*
X155337605Y-102196000D01*
X154978395Y-102196000D01*
X153915651Y-101133256D01*
X153635910Y-101247118D01*
X153480039Y-101562296D01*
X153388651Y-101901826D01*
X153365259Y-102252661D01*
X152743185Y-102252661D01*
X152750741Y-102139339D01*
X152705240Y-101790681D01*
X152592594Y-101457600D01*
X152480090Y-101247118D01*
X152200349Y-101133256D01*
X151137605Y-102196000D01*
X150778395Y-102196000D01*
X149715651Y-101133256D01*
X149435910Y-101247118D01*
X149280039Y-101562296D01*
X149188651Y-101901826D01*
X149165259Y-102252661D01*
X148543185Y-102252661D01*
X148550741Y-102139339D01*
X148505240Y-101790681D01*
X148392594Y-101457600D01*
X148280090Y-101247118D01*
X148000349Y-101133256D01*
X146937605Y-102196000D01*
X146578395Y-102196000D01*
X145515651Y-101133256D01*
X145235910Y-101247118D01*
X145080039Y-101562296D01*
X144988651Y-101901826D01*
X144965259Y-102252661D01*
X144135000Y-102252661D01*
X144135000Y-102040679D01*
X144074396Y-101736006D01*
X143955519Y-101449011D01*
X143782936Y-101190721D01*
X143563279Y-100971064D01*
X143537219Y-100953651D01*
X145695256Y-100953651D01*
X146758000Y-102016395D01*
X147820744Y-100953651D01*
X149895256Y-100953651D01*
X150958000Y-102016395D01*
X152020744Y-100953651D01*
X154095256Y-100953651D01*
X155158000Y-102016395D01*
X156220744Y-100953651D01*
X156106882Y-100673910D01*
X155791704Y-100518039D01*
X155452174Y-100426651D01*
X155101339Y-100403259D01*
X154752681Y-100448760D01*
X154419600Y-100561406D01*
X154209118Y-100673910D01*
X154095256Y-100953651D01*
X152020744Y-100953651D01*
X151906882Y-100673910D01*
X151591704Y-100518039D01*
X151252174Y-100426651D01*
X150901339Y-100403259D01*
X150552681Y-100448760D01*
X150219600Y-100561406D01*
X150009118Y-100673910D01*
X149895256Y-100953651D01*
X147820744Y-100953651D01*
X147706882Y-100673910D01*
X147391704Y-100518039D01*
X147052174Y-100426651D01*
X146701339Y-100403259D01*
X146352681Y-100448760D01*
X146019600Y-100561406D01*
X145809118Y-100673910D01*
X145695256Y-100953651D01*
X143537219Y-100953651D01*
X143304989Y-100798481D01*
X143017994Y-100679604D01*
X142713321Y-100619000D01*
X142402679Y-100619000D01*
X142098006Y-100679604D01*
X141811011Y-100798481D01*
X141552721Y-100971064D01*
X141333064Y-101190721D01*
X141160481Y-101449011D01*
X141041604Y-101736006D01*
X140981000Y-102040679D01*
X139935000Y-102040679D01*
X139874396Y-101736006D01*
X139755519Y-101449011D01*
X139582936Y-101190721D01*
X139363279Y-100971064D01*
X139104989Y-100798481D01*
X138817994Y-100679604D01*
X138513321Y-100619000D01*
X138202679Y-100619000D01*
X137898006Y-100679604D01*
X137611011Y-100798481D01*
X137352721Y-100971064D01*
X137133064Y-101190721D01*
X136960481Y-101449011D01*
X136841604Y-101736006D01*
X136781000Y-102040679D01*
X135735000Y-102040679D01*
X135674396Y-101736006D01*
X135555519Y-101449011D01*
X135382936Y-101190721D01*
X135163279Y-100971064D01*
X134904989Y-100798481D01*
X134617994Y-100679604D01*
X134313321Y-100619000D01*
X134002679Y-100619000D01*
X133698006Y-100679604D01*
X133411011Y-100798481D01*
X133152721Y-100971064D01*
X132933064Y-101190721D01*
X132760481Y-101449011D01*
X132641604Y-101736006D01*
X132581000Y-102040679D01*
X131535000Y-102040679D01*
X131474396Y-101736006D01*
X131355519Y-101449011D01*
X131182936Y-101190721D01*
X130963279Y-100971064D01*
X130704989Y-100798481D01*
X130417994Y-100679604D01*
X130113321Y-100619000D01*
X129802679Y-100619000D01*
X129498006Y-100679604D01*
X129211011Y-100798481D01*
X128952721Y-100971064D01*
X128733064Y-101190721D01*
X128560481Y-101449011D01*
X128441604Y-101736006D01*
X128381000Y-102040679D01*
X127537866Y-102040679D01*
X127505240Y-101790681D01*
X127392594Y-101457600D01*
X127280090Y-101247118D01*
X127000349Y-101133256D01*
X125937605Y-102196000D01*
X125578395Y-102196000D01*
X124515651Y-101133256D01*
X124235910Y-101247118D01*
X124080039Y-101562296D01*
X123988651Y-101901826D01*
X123965259Y-102252661D01*
X121952000Y-102252661D01*
X121952000Y-100953651D01*
X124695256Y-100953651D01*
X125758000Y-102016395D01*
X126820744Y-100953651D01*
X126706882Y-100673910D01*
X126391704Y-100518039D01*
X126052174Y-100426651D01*
X125701339Y-100403259D01*
X125352681Y-100448760D01*
X125019600Y-100561406D01*
X124809118Y-100673910D01*
X124695256Y-100953651D01*
X121952000Y-100953651D01*
X121952000Y-94847499D01*
X126332106Y-94847499D01*
X126548228Y-95214258D01*
X127008105Y-95454938D01*
X127506098Y-95601275D01*
X128023071Y-95647648D01*
X128539159Y-95592273D01*
X129034526Y-95437279D01*
X129451772Y-95214258D01*
X129667894Y-94847499D01*
X128000000Y-93179605D01*
X126332106Y-94847499D01*
X121952000Y-94847499D01*
X121952000Y-93023071D01*
X125352352Y-93023071D01*
X125407727Y-93539159D01*
X125562721Y-94034526D01*
X125785742Y-94451772D01*
X126152501Y-94667894D01*
X127820395Y-93000000D01*
X128179605Y-93000000D01*
X129847499Y-94667894D01*
X130214258Y-94451772D01*
X130454938Y-93991895D01*
X130601275Y-93493902D01*
X130647648Y-92976929D01*
X130592273Y-92460841D01*
X130437279Y-91965474D01*
X130400621Y-91896890D01*
X135558524Y-91896890D01*
X135603175Y-92044099D01*
X135728359Y-92306920D01*
X135902412Y-92540269D01*
X136118645Y-92735178D01*
X136368748Y-92884157D01*
X136643109Y-92981481D01*
X136873000Y-92860814D01*
X136873000Y-91667000D01*
X137127000Y-91667000D01*
X137127000Y-92860814D01*
X137356891Y-92981481D01*
X137631252Y-92884157D01*
X137881355Y-92735178D01*
X138097588Y-92540269D01*
X138271641Y-92306920D01*
X138396825Y-92044099D01*
X138441476Y-91896890D01*
X138320155Y-91667000D01*
X137127000Y-91667000D01*
X136873000Y-91667000D01*
X135679845Y-91667000D01*
X135558524Y-91896890D01*
X130400621Y-91896890D01*
X130214258Y-91548228D01*
X129847499Y-91332106D01*
X128179605Y-93000000D01*
X127820395Y-93000000D01*
X126152501Y-91332106D01*
X125785742Y-91548228D01*
X125545062Y-92008105D01*
X125398725Y-92506098D01*
X125352352Y-93023071D01*
X121952000Y-93023071D01*
X121952000Y-91152501D01*
X126332106Y-91152501D01*
X128000000Y-92820395D01*
X129637285Y-91183110D01*
X135558524Y-91183110D01*
X135679845Y-91413000D01*
X136873000Y-91413000D01*
X136873000Y-91393000D01*
X137127000Y-91393000D01*
X137127000Y-91413000D01*
X138320155Y-91413000D01*
X138441476Y-91183110D01*
X138396825Y-91035901D01*
X138271641Y-90773080D01*
X138097588Y-90539731D01*
X137881355Y-90344822D01*
X137770965Y-90279066D01*
X137850000Y-90279066D01*
X137933707Y-90270822D01*
X138014196Y-90246405D01*
X138088376Y-90206755D01*
X138153395Y-90153395D01*
X138206755Y-90088376D01*
X138246405Y-90014196D01*
X138270822Y-89933707D01*
X138279066Y-89850000D01*
X138279066Y-88662470D01*
X157573000Y-88662470D01*
X157573000Y-89337530D01*
X157704697Y-89999619D01*
X157963032Y-90623293D01*
X158338075Y-91184585D01*
X158815415Y-91661925D01*
X159376707Y-92036968D01*
X160000381Y-92295303D01*
X160662470Y-92427000D01*
X161337530Y-92427000D01*
X161999619Y-92295303D01*
X162623293Y-92036968D01*
X163184585Y-91661925D01*
X163287824Y-91558686D01*
X168120919Y-91558686D01*
X168457106Y-92027868D01*
X169087068Y-92368237D01*
X169771327Y-92579166D01*
X170483589Y-92652550D01*
X171196482Y-92585569D01*
X171882609Y-92380796D01*
X172515603Y-92046102D01*
X172542894Y-92027868D01*
X172879081Y-91558686D01*
X170500000Y-89179605D01*
X168120919Y-91558686D01*
X163287824Y-91558686D01*
X163661925Y-91184585D01*
X164036968Y-90623293D01*
X164295303Y-89999619D01*
X164427000Y-89337530D01*
X164427000Y-88983589D01*
X166847450Y-88983589D01*
X166914431Y-89696482D01*
X167119204Y-90382609D01*
X167453898Y-91015603D01*
X167472132Y-91042894D01*
X167941314Y-91379081D01*
X170320395Y-89000000D01*
X170679605Y-89000000D01*
X173058686Y-91379081D01*
X173527868Y-91042894D01*
X173868237Y-90412932D01*
X174079166Y-89728673D01*
X174152550Y-89016411D01*
X174085569Y-88303518D01*
X173880796Y-87617391D01*
X173546102Y-86984397D01*
X173527868Y-86957106D01*
X173058686Y-86620919D01*
X170679605Y-89000000D01*
X170320395Y-89000000D01*
X167941314Y-86620919D01*
X167472132Y-86957106D01*
X167131763Y-87587068D01*
X166920834Y-88271327D01*
X166847450Y-88983589D01*
X164427000Y-88983589D01*
X164427000Y-88662470D01*
X164295303Y-88000381D01*
X164036968Y-87376707D01*
X163661925Y-86815415D01*
X163287824Y-86441314D01*
X168120919Y-86441314D01*
X170500000Y-88820395D01*
X172879081Y-86441314D01*
X172542894Y-85972132D01*
X171912932Y-85631763D01*
X171228673Y-85420834D01*
X170516411Y-85347450D01*
X169803518Y-85414431D01*
X169117391Y-85619204D01*
X168484397Y-85953898D01*
X168457106Y-85972132D01*
X168120919Y-86441314D01*
X163287824Y-86441314D01*
X163184585Y-86338075D01*
X162623293Y-85963032D01*
X161999619Y-85704697D01*
X161337530Y-85573000D01*
X160662470Y-85573000D01*
X160000381Y-85704697D01*
X159376707Y-85963032D01*
X158815415Y-86338075D01*
X158338075Y-86815415D01*
X157963032Y-87376707D01*
X157704697Y-88000381D01*
X157573000Y-88662470D01*
X138279066Y-88662470D01*
X138279066Y-88150000D01*
X138270822Y-88066293D01*
X138246405Y-87985804D01*
X138206755Y-87911624D01*
X138153395Y-87846605D01*
X138088376Y-87793245D01*
X138014196Y-87753595D01*
X137933707Y-87729178D01*
X137850000Y-87720934D01*
X136150000Y-87720934D01*
X136066293Y-87729178D01*
X135985804Y-87753595D01*
X135911624Y-87793245D01*
X135846605Y-87846605D01*
X135793245Y-87911624D01*
X135753595Y-87985804D01*
X135729178Y-88066293D01*
X135720934Y-88150000D01*
X135720934Y-89850000D01*
X135729178Y-89933707D01*
X135753595Y-90014196D01*
X135793245Y-90088376D01*
X135846605Y-90153395D01*
X135911624Y-90206755D01*
X135985804Y-90246405D01*
X136066293Y-90270822D01*
X136150000Y-90279066D01*
X136229035Y-90279066D01*
X136118645Y-90344822D01*
X135902412Y-90539731D01*
X135728359Y-90773080D01*
X135603175Y-91035901D01*
X135558524Y-91183110D01*
X129637285Y-91183110D01*
X129667894Y-91152501D01*
X129451772Y-90785742D01*
X128991895Y-90545062D01*
X128493902Y-90398725D01*
X127976929Y-90352352D01*
X127460841Y-90407727D01*
X126965474Y-90562721D01*
X126548228Y-90785742D01*
X126332106Y-91152501D01*
X121952000Y-91152501D01*
X121952000Y-86760961D01*
X125573000Y-86760961D01*
X125573000Y-87239039D01*
X125666268Y-87707930D01*
X125849221Y-88149615D01*
X126114826Y-88547122D01*
X126452878Y-88885174D01*
X126850385Y-89150779D01*
X127292070Y-89333732D01*
X127760961Y-89427000D01*
X128239039Y-89427000D01*
X128707930Y-89333732D01*
X129149615Y-89150779D01*
X129547122Y-88885174D01*
X129885174Y-88547122D01*
X130150779Y-88149615D01*
X130333732Y-87707930D01*
X130427000Y-87239039D01*
X130427000Y-86760961D01*
X130333732Y-86292070D01*
X130150779Y-85850385D01*
X130091028Y-85760961D01*
X147073000Y-85760961D01*
X147073000Y-86239039D01*
X147166268Y-86707930D01*
X147349221Y-87149615D01*
X147614826Y-87547122D01*
X147952878Y-87885174D01*
X148350385Y-88150779D01*
X148792070Y-88333732D01*
X149260961Y-88427000D01*
X149739039Y-88427000D01*
X150207930Y-88333732D01*
X150649615Y-88150779D01*
X151047122Y-87885174D01*
X151385174Y-87547122D01*
X151650779Y-87149615D01*
X151833732Y-86707930D01*
X151927000Y-86239039D01*
X151927000Y-85760961D01*
X151833732Y-85292070D01*
X151650779Y-84850385D01*
X151385174Y-84452878D01*
X151047122Y-84114826D01*
X150649615Y-83849221D01*
X150207930Y-83666268D01*
X149739039Y-83573000D01*
X149260961Y-83573000D01*
X148792070Y-83666268D01*
X148350385Y-83849221D01*
X147952878Y-84114826D01*
X147614826Y-84452878D01*
X147349221Y-84850385D01*
X147166268Y-85292070D01*
X147073000Y-85760961D01*
X130091028Y-85760961D01*
X129885174Y-85452878D01*
X129547122Y-85114826D01*
X129149615Y-84849221D01*
X128707930Y-84666268D01*
X128239039Y-84573000D01*
X127760961Y-84573000D01*
X127292070Y-84666268D01*
X126850385Y-84849221D01*
X126452878Y-85114826D01*
X126114826Y-85452878D01*
X125849221Y-85850385D01*
X125666268Y-86292070D01*
X125573000Y-86760961D01*
X121952000Y-86760961D01*
X121952000Y-82868000D01*
X161789813Y-82868000D01*
X161798540Y-82956607D01*
X161824386Y-83041810D01*
X161866357Y-83120333D01*
X161922841Y-83189159D01*
X161991667Y-83245643D01*
X162070190Y-83287614D01*
X162155393Y-83313460D01*
X162221795Y-83320000D01*
X162266205Y-83320000D01*
X162332607Y-83313460D01*
X162417810Y-83287614D01*
X162496333Y-83245643D01*
X162565159Y-83189159D01*
X162621643Y-83120333D01*
X162663614Y-83041810D01*
X162689460Y-82956607D01*
X162698187Y-82868000D01*
X162689460Y-82779393D01*
X162663614Y-82694190D01*
X162621643Y-82615667D01*
X162565159Y-82546841D01*
X162496333Y-82490357D01*
X162417810Y-82448386D01*
X162332607Y-82422540D01*
X162266205Y-82416000D01*
X162221795Y-82416000D01*
X162155393Y-82422540D01*
X162070190Y-82448386D01*
X161991667Y-82490357D01*
X161922841Y-82546841D01*
X161866357Y-82615667D01*
X161824386Y-82694190D01*
X161798540Y-82779393D01*
X161789813Y-82868000D01*
X121952000Y-82868000D01*
X121952000Y-78662470D01*
X124573000Y-78662470D01*
X124573000Y-79337530D01*
X124704697Y-79999619D01*
X124963032Y-80623293D01*
X125338075Y-81184585D01*
X125815415Y-81661925D01*
X126376707Y-82036968D01*
X127000381Y-82295303D01*
X127662470Y-82427000D01*
X128337530Y-82427000D01*
X128999619Y-82295303D01*
X129623293Y-82036968D01*
X130184585Y-81661925D01*
X130661925Y-81184585D01*
X131036968Y-80623293D01*
X131295303Y-79999619D01*
X131427000Y-79337530D01*
X131427000Y-78662470D01*
X133573000Y-78662470D01*
X133573000Y-79337530D01*
X133704697Y-79999619D01*
X133963032Y-80623293D01*
X134338075Y-81184585D01*
X134815415Y-81661925D01*
X135376707Y-82036968D01*
X136000381Y-82295303D01*
X136662470Y-82427000D01*
X137337530Y-82427000D01*
X137999619Y-82295303D01*
X138623293Y-82036968D01*
X139184585Y-81661925D01*
X139387824Y-81458686D01*
X158620919Y-81458686D01*
X158957106Y-81927868D01*
X159587068Y-82268237D01*
X160271327Y-82479166D01*
X160983589Y-82552550D01*
X161696482Y-82485569D01*
X162382609Y-82280796D01*
X163015603Y-81946102D01*
X163042894Y-81927868D01*
X163379081Y-81458686D01*
X163279081Y-81358686D01*
X167920919Y-81358686D01*
X168257106Y-81827868D01*
X168887068Y-82168237D01*
X169571327Y-82379166D01*
X170283589Y-82452550D01*
X170996482Y-82385569D01*
X171682609Y-82180796D01*
X172315603Y-81846102D01*
X172342894Y-81827868D01*
X172679081Y-81358686D01*
X170300000Y-78979605D01*
X167920919Y-81358686D01*
X163279081Y-81358686D01*
X161000000Y-79079605D01*
X158620919Y-81458686D01*
X139387824Y-81458686D01*
X139661925Y-81184585D01*
X140036968Y-80623293D01*
X140295303Y-79999619D01*
X140427000Y-79337530D01*
X140427000Y-78760961D01*
X143073000Y-78760961D01*
X143073000Y-79239039D01*
X143166268Y-79707930D01*
X143349221Y-80149615D01*
X143614826Y-80547122D01*
X143952878Y-80885174D01*
X144350385Y-81150779D01*
X144792070Y-81333732D01*
X145260961Y-81427000D01*
X145739039Y-81427000D01*
X146207930Y-81333732D01*
X146649615Y-81150779D01*
X147047122Y-80885174D01*
X147385174Y-80547122D01*
X147650779Y-80149615D01*
X147833732Y-79707930D01*
X147927000Y-79239039D01*
X147927000Y-78760961D01*
X150573000Y-78760961D01*
X150573000Y-79239039D01*
X150666268Y-79707930D01*
X150849221Y-80149615D01*
X151114826Y-80547122D01*
X151452878Y-80885174D01*
X151850385Y-81150779D01*
X152292070Y-81333732D01*
X152760961Y-81427000D01*
X153239039Y-81427000D01*
X153707930Y-81333732D01*
X154149615Y-81150779D01*
X154547122Y-80885174D01*
X154885174Y-80547122D01*
X155150779Y-80149615D01*
X155333732Y-79707930D01*
X155427000Y-79239039D01*
X155427000Y-78883589D01*
X157347450Y-78883589D01*
X157414431Y-79596482D01*
X157619204Y-80282609D01*
X157953898Y-80915603D01*
X157972132Y-80942894D01*
X158441314Y-81279081D01*
X160820395Y-78900000D01*
X161179605Y-78900000D01*
X163558686Y-81279081D01*
X164027868Y-80942894D01*
X164368237Y-80312932D01*
X164579166Y-79628673D01*
X164652550Y-78916411D01*
X164640071Y-78783589D01*
X166647450Y-78783589D01*
X166714431Y-79496482D01*
X166919204Y-80182609D01*
X167253898Y-80815603D01*
X167272132Y-80842894D01*
X167741314Y-81179081D01*
X170120395Y-78800000D01*
X170479605Y-78800000D01*
X172858686Y-81179081D01*
X173327868Y-80842894D01*
X173668237Y-80212932D01*
X173879166Y-79528673D01*
X173952550Y-78816411D01*
X173885569Y-78103518D01*
X173680796Y-77417391D01*
X173346102Y-76784397D01*
X173327868Y-76757106D01*
X172858686Y-76420919D01*
X170479605Y-78800000D01*
X170120395Y-78800000D01*
X167741314Y-76420919D01*
X167272132Y-76757106D01*
X166931763Y-77387068D01*
X166720834Y-78071327D01*
X166647450Y-78783589D01*
X164640071Y-78783589D01*
X164585569Y-78203518D01*
X164380796Y-77517391D01*
X164046102Y-76884397D01*
X164027868Y-76857106D01*
X163558686Y-76520919D01*
X161179605Y-78900000D01*
X160820395Y-78900000D01*
X158441314Y-76520919D01*
X157972132Y-76857106D01*
X157631763Y-77487068D01*
X157420834Y-78171327D01*
X157347450Y-78883589D01*
X155427000Y-78883589D01*
X155427000Y-78760961D01*
X155333732Y-78292070D01*
X155150779Y-77850385D01*
X154885174Y-77452878D01*
X154547122Y-77114826D01*
X154149615Y-76849221D01*
X153707930Y-76666268D01*
X153239039Y-76573000D01*
X152760961Y-76573000D01*
X152292070Y-76666268D01*
X151850385Y-76849221D01*
X151452878Y-77114826D01*
X151114826Y-77452878D01*
X150849221Y-77850385D01*
X150666268Y-78292070D01*
X150573000Y-78760961D01*
X147927000Y-78760961D01*
X147833732Y-78292070D01*
X147650779Y-77850385D01*
X147385174Y-77452878D01*
X147047122Y-77114826D01*
X146649615Y-76849221D01*
X146207930Y-76666268D01*
X145739039Y-76573000D01*
X145260961Y-76573000D01*
X144792070Y-76666268D01*
X144350385Y-76849221D01*
X143952878Y-77114826D01*
X143614826Y-77452878D01*
X143349221Y-77850385D01*
X143166268Y-78292070D01*
X143073000Y-78760961D01*
X140427000Y-78760961D01*
X140427000Y-78662470D01*
X140295303Y-78000381D01*
X140036968Y-77376707D01*
X139661925Y-76815415D01*
X139187824Y-76341314D01*
X158620919Y-76341314D01*
X161000000Y-78720395D01*
X163379081Y-76341314D01*
X163307428Y-76241314D01*
X167920919Y-76241314D01*
X170300000Y-78620395D01*
X172679081Y-76241314D01*
X172342894Y-75772132D01*
X171712932Y-75431763D01*
X171028673Y-75220834D01*
X170316411Y-75147450D01*
X169603518Y-75214431D01*
X168917391Y-75419204D01*
X168284397Y-75753898D01*
X168257106Y-75772132D01*
X167920919Y-76241314D01*
X163307428Y-76241314D01*
X163042894Y-75872132D01*
X162412932Y-75531763D01*
X161728673Y-75320834D01*
X161016411Y-75247450D01*
X160303518Y-75314431D01*
X159617391Y-75519204D01*
X158984397Y-75853898D01*
X158957106Y-75872132D01*
X158620919Y-76341314D01*
X139187824Y-76341314D01*
X139184585Y-76338075D01*
X138623293Y-75963032D01*
X137999619Y-75704697D01*
X137337530Y-75573000D01*
X136662470Y-75573000D01*
X136000381Y-75704697D01*
X135376707Y-75963032D01*
X134815415Y-76338075D01*
X134338075Y-76815415D01*
X133963032Y-77376707D01*
X133704697Y-78000381D01*
X133573000Y-78662470D01*
X131427000Y-78662470D01*
X131295303Y-78000381D01*
X131036968Y-77376707D01*
X130661925Y-76815415D01*
X130184585Y-76338075D01*
X129623293Y-75963032D01*
X128999619Y-75704697D01*
X128337530Y-75573000D01*
X127662470Y-75573000D01*
X127000381Y-75704697D01*
X126376707Y-75963032D01*
X125815415Y-76338075D01*
X125338075Y-76815415D01*
X124963032Y-77376707D01*
X124704697Y-78000381D01*
X124573000Y-78662470D01*
X121952000Y-78662470D01*
X121952000Y-73952000D01*
X175548205Y-73952000D01*
X175569796Y-121548000D01*
G37*
%TD.AperFunction*%
%TD*%
M02*
