%TF.GenerationSoftware,KiCad,Pcbnew,(5.1.12)-1*%
%TF.CreationDate,2023-10-03T16:06:22+02:00*%
%TF.ProjectId,PICO-AT,5049434f-2d41-4542-9e6b-696361645f70,rev?*%
%TF.SameCoordinates,Original*%
%TF.FileFunction,Paste,Bot*%
%TF.FilePolarity,Positive*%
%FSLAX46Y46*%
G04 Gerber Fmt 4.6, Leading zero omitted, Abs format (unit mm)*
G04 Created by KiCad (PCBNEW (5.1.12)-1) date 2023-10-03 16:06:22*
%MOMM*%
%LPD*%
G01*
G04 APERTURE LIST*
G04 APERTURE END LIST*
%TO.C,C1*%
G36*
G01*
X128161000Y-115987001D02*
X128161000Y-114136999D01*
G75*
G02*
X128410999Y-113887000I249999J0D01*
G01*
X130161001Y-113887000D01*
G75*
G02*
X130411000Y-114136999I0J-249999D01*
G01*
X130411000Y-115987001D01*
G75*
G02*
X130161001Y-116237000I-249999J0D01*
G01*
X128410999Y-116237000D01*
G75*
G02*
X128161000Y-115987001I0J249999D01*
G01*
G37*
G36*
G01*
X123061000Y-115987001D02*
X123061000Y-114136999D01*
G75*
G02*
X123310999Y-113887000I249999J0D01*
G01*
X125061001Y-113887000D01*
G75*
G02*
X125311000Y-114136999I0J-249999D01*
G01*
X125311000Y-115987001D01*
G75*
G02*
X125061001Y-116237000I-249999J0D01*
G01*
X123310999Y-116237000D01*
G75*
G02*
X123061000Y-115987001I0J249999D01*
G01*
G37*
%TD*%
%TO.C,C2*%
G36*
G01*
X123061000Y-120305001D02*
X123061000Y-118454999D01*
G75*
G02*
X123310999Y-118205000I249999J0D01*
G01*
X125061001Y-118205000D01*
G75*
G02*
X125311000Y-118454999I0J-249999D01*
G01*
X125311000Y-120305001D01*
G75*
G02*
X125061001Y-120555000I-249999J0D01*
G01*
X123310999Y-120555000D01*
G75*
G02*
X123061000Y-120305001I0J249999D01*
G01*
G37*
G36*
G01*
X128161000Y-120305001D02*
X128161000Y-118454999D01*
G75*
G02*
X128410999Y-118205000I249999J0D01*
G01*
X130161001Y-118205000D01*
G75*
G02*
X130411000Y-118454999I0J-249999D01*
G01*
X130411000Y-120305001D01*
G75*
G02*
X130161001Y-120555000I-249999J0D01*
G01*
X128410999Y-120555000D01*
G75*
G02*
X128161000Y-120305001I0J249999D01*
G01*
G37*
%TD*%
%TO.C,D4*%
G36*
G01*
X169768000Y-118421999D02*
X169768000Y-119322001D01*
G75*
G02*
X169518001Y-119572000I-249999J0D01*
G01*
X168867999Y-119572000D01*
G75*
G02*
X168618000Y-119322001I0J249999D01*
G01*
X168618000Y-118421999D01*
G75*
G02*
X168867999Y-118172000I249999J0D01*
G01*
X169518001Y-118172000D01*
G75*
G02*
X169768000Y-118421999I0J-249999D01*
G01*
G37*
G36*
G01*
X171818000Y-118421999D02*
X171818000Y-119322001D01*
G75*
G02*
X171568001Y-119572000I-249999J0D01*
G01*
X170917999Y-119572000D01*
G75*
G02*
X170668000Y-119322001I0J249999D01*
G01*
X170668000Y-118421999D01*
G75*
G02*
X170917999Y-118172000I249999J0D01*
G01*
X171568001Y-118172000D01*
G75*
G02*
X171818000Y-118421999I0J-249999D01*
G01*
G37*
%TD*%
%TO.C,R4*%
G36*
G01*
X169759000Y-115119999D02*
X169759000Y-116020001D01*
G75*
G02*
X169509001Y-116270000I-249999J0D01*
G01*
X168858999Y-116270000D01*
G75*
G02*
X168609000Y-116020001I0J249999D01*
G01*
X168609000Y-115119999D01*
G75*
G02*
X168858999Y-114870000I249999J0D01*
G01*
X169509001Y-114870000D01*
G75*
G02*
X169759000Y-115119999I0J-249999D01*
G01*
G37*
G36*
G01*
X171809000Y-115119999D02*
X171809000Y-116020001D01*
G75*
G02*
X171559001Y-116270000I-249999J0D01*
G01*
X170908999Y-116270000D01*
G75*
G02*
X170659000Y-116020001I0J249999D01*
G01*
X170659000Y-115119999D01*
G75*
G02*
X170908999Y-114870000I249999J0D01*
G01*
X171559001Y-114870000D01*
G75*
G02*
X171809000Y-115119999I0J-249999D01*
G01*
G37*
%TD*%
M02*
