M48
; DRILL file {KiCad (5.1.12)-1} date 10/03/23 16:06:20
; FORMAT={-:-/ absolute / metric / decimal}
; #@! TF.CreationDate,2023-10-03T16:06:20+02:00
; #@! TF.GenerationSoftware,Kicad,Pcbnew,(5.1.12)-1
; #@! TF.FileFunction,Plated,1,4,PTH
FMAT,2
METRIC
T1C0.400
T2C1.000
T3C1.100
T4C1.800
T5C2.500
T6C4.000
%
G90
G05
T1
X122.428Y-115.062
X122.428Y-119.38
X124.206Y-113.03
X124.206Y-117.348
X124.206Y-121.158
X126.238Y-115.062
X126.238Y-119.38
X173.012Y-118.364
X173.012Y-119.38
T2
X137.0Y-89.0
X137.0Y-91.54
T3
X151.638Y-113.538
X151.638Y-116.078
X151.638Y-118.618
T4
X125.758Y-102.196
X125.758Y-107.696
X129.958Y-102.196
X129.958Y-107.696
X134.158Y-102.196
X134.158Y-107.696
X138.358Y-102.196
X138.358Y-107.696
X142.558Y-102.196
X142.558Y-107.696
X146.758Y-102.196
X146.758Y-107.696
X150.958Y-102.196
X150.958Y-107.696
X155.158Y-102.196
X155.158Y-107.696
X159.358Y-102.196
X159.358Y-107.696
X163.558Y-102.196
X163.558Y-107.696
X167.758Y-102.196
X167.758Y-107.696
X171.958Y-102.196
X171.958Y-107.696
T5
X128.0Y-87.0
X128.0Y-93.0
X145.5Y-79.0
X149.5Y-86.0
X153.0Y-79.0
T6
X128.0Y-79.0
X137.0Y-79.0
X161.0Y-78.9
X161.0Y-89.0
X170.3Y-78.8
X170.5Y-89.0
T0
M30
