%TF.GenerationSoftware,KiCad,Pcbnew,(5.1.12)-1*%
%TF.CreationDate,2023-10-03T16:06:22+02:00*%
%TF.ProjectId,PICO-AT,5049434f-2d41-4542-9e6b-696361645f70,rev?*%
%TF.SameCoordinates,Original*%
%TF.FileFunction,Legend,Top*%
%TF.FilePolarity,Positive*%
%FSLAX46Y46*%
G04 Gerber Fmt 4.6, Leading zero omitted, Abs format (unit mm)*
G04 Created by KiCad (PCBNEW (5.1.12)-1) date 2023-10-03 16:06:22*
%MOMM*%
%LPD*%
G01*
G04 APERTURE LIST*
%ADD10C,0.500000*%
%ADD11C,0.150000*%
%ADD12C,0.254000*%
G04 APERTURE END LIST*
D10*
X174690476Y-97345238D02*
X174690476Y-99345238D01*
X173928571Y-99345238D01*
X173738095Y-99250000D01*
X173642857Y-99154761D01*
X173547619Y-98964285D01*
X173547619Y-98678571D01*
X173642857Y-98488095D01*
X173738095Y-98392857D01*
X173928571Y-98297619D01*
X174690476Y-98297619D01*
X172690476Y-97345238D02*
X172690476Y-99345238D01*
X170595238Y-97535714D02*
X170690476Y-97440476D01*
X170976190Y-97345238D01*
X171166666Y-97345238D01*
X171452380Y-97440476D01*
X171642857Y-97630952D01*
X171738095Y-97821428D01*
X171833333Y-98202380D01*
X171833333Y-98488095D01*
X171738095Y-98869047D01*
X171642857Y-99059523D01*
X171452380Y-99250000D01*
X171166666Y-99345238D01*
X170976190Y-99345238D01*
X170690476Y-99250000D01*
X170595238Y-99154761D01*
X169357142Y-99345238D02*
X168976190Y-99345238D01*
X168785714Y-99250000D01*
X168595238Y-99059523D01*
X168500000Y-98678571D01*
X168500000Y-98011904D01*
X168595238Y-97630952D01*
X168785714Y-97440476D01*
X168976190Y-97345238D01*
X169357142Y-97345238D01*
X169547619Y-97440476D01*
X169738095Y-97630952D01*
X169833333Y-98011904D01*
X169833333Y-98678571D01*
X169738095Y-99059523D01*
X169547619Y-99250000D01*
X169357142Y-99345238D01*
X167642857Y-98107142D02*
X166119047Y-98107142D01*
X165261904Y-97916666D02*
X164309523Y-97916666D01*
X165452380Y-97345238D02*
X164785714Y-99345238D01*
X164119047Y-97345238D01*
X163738095Y-99345238D02*
X162595238Y-99345238D01*
X163166666Y-97345238D02*
X163166666Y-99345238D01*
X160690476Y-98678571D02*
X159928571Y-98678571D01*
X160404761Y-97345238D02*
X160404761Y-99059523D01*
X160309523Y-99250000D01*
X160119047Y-99345238D01*
X159928571Y-99345238D01*
X158976190Y-97345238D02*
X159166666Y-97440476D01*
X159261904Y-97535714D01*
X159357142Y-97726190D01*
X159357142Y-98297619D01*
X159261904Y-98488095D01*
X159166666Y-98583333D01*
X158976190Y-98678571D01*
X158690476Y-98678571D01*
X158500000Y-98583333D01*
X158404761Y-98488095D01*
X158309523Y-98297619D01*
X158309523Y-97726190D01*
X158404761Y-97535714D01*
X158500000Y-97440476D01*
X158690476Y-97345238D01*
X158976190Y-97345238D01*
X157452380Y-97345238D02*
X157452380Y-98678571D01*
X157452380Y-98297619D02*
X157357142Y-98488095D01*
X157261904Y-98583333D01*
X157071428Y-98678571D01*
X156880952Y-98678571D01*
X154690476Y-97345238D02*
X154690476Y-99345238D01*
X154214285Y-99345238D01*
X153928571Y-99250000D01*
X153738095Y-99059523D01*
X153642857Y-98869047D01*
X153547619Y-98488095D01*
X153547619Y-98202380D01*
X153642857Y-97821428D01*
X153738095Y-97630952D01*
X153928571Y-97440476D01*
X154214285Y-97345238D01*
X154690476Y-97345238D01*
X152690476Y-98392857D02*
X152023809Y-98392857D01*
X151738095Y-97345238D02*
X152690476Y-97345238D01*
X152690476Y-99345238D01*
X151738095Y-99345238D01*
X149738095Y-97535714D02*
X149833333Y-97440476D01*
X150119047Y-97345238D01*
X150309523Y-97345238D01*
X150595238Y-97440476D01*
X150785714Y-97630952D01*
X150880952Y-97821428D01*
X150976190Y-98202380D01*
X150976190Y-98488095D01*
X150880952Y-98869047D01*
X150785714Y-99059523D01*
X150595238Y-99250000D01*
X150309523Y-99345238D01*
X150119047Y-99345238D01*
X149833333Y-99250000D01*
X149738095Y-99154761D01*
X174119047Y-94416666D02*
X173166666Y-94416666D01*
X174309523Y-93845238D02*
X173642857Y-95845238D01*
X172976190Y-93845238D01*
X172023809Y-93845238D02*
X172214285Y-93940476D01*
X172309523Y-94130952D01*
X172309523Y-95845238D01*
X171261904Y-95178571D02*
X171261904Y-93178571D01*
X171261904Y-95083333D02*
X171071428Y-95178571D01*
X170690476Y-95178571D01*
X170500000Y-95083333D01*
X170404761Y-94988095D01*
X170309523Y-94797619D01*
X170309523Y-94226190D01*
X170404761Y-94035714D01*
X170500000Y-93940476D01*
X170690476Y-93845238D01*
X171071428Y-93845238D01*
X171261904Y-93940476D01*
X169452380Y-93845238D02*
X169452380Y-95845238D01*
X168595238Y-93845238D02*
X168595238Y-94892857D01*
X168690476Y-95083333D01*
X168880952Y-95178571D01*
X169166666Y-95178571D01*
X169357142Y-95083333D01*
X169452380Y-94988095D01*
X166785714Y-93845238D02*
X166785714Y-94892857D01*
X166880952Y-95083333D01*
X167071428Y-95178571D01*
X167452380Y-95178571D01*
X167642857Y-95083333D01*
X166785714Y-93940476D02*
X166976190Y-93845238D01*
X167452380Y-93845238D01*
X167642857Y-93940476D01*
X167738095Y-94130952D01*
X167738095Y-94321428D01*
X167642857Y-94511904D01*
X167452380Y-94607142D01*
X166976190Y-94607142D01*
X166785714Y-94702380D01*
X165928571Y-93940476D02*
X165642857Y-93845238D01*
X165166666Y-93845238D01*
X164976190Y-93940476D01*
X164880952Y-94035714D01*
X164785714Y-94226190D01*
X164785714Y-94416666D01*
X164880952Y-94607142D01*
X164976190Y-94702380D01*
X165166666Y-94797619D01*
X165547619Y-94892857D01*
X165738095Y-94988095D01*
X165833333Y-95083333D01*
X165928571Y-95273809D01*
X165928571Y-95464285D01*
X165833333Y-95654761D01*
X165738095Y-95750000D01*
X165547619Y-95845238D01*
X165071428Y-95845238D01*
X164785714Y-95750000D01*
X164214285Y-95178571D02*
X163452380Y-95178571D01*
X163928571Y-95845238D02*
X163928571Y-94130952D01*
X163833333Y-93940476D01*
X163642857Y-93845238D01*
X163452380Y-93845238D01*
X161928571Y-93845238D02*
X161928571Y-94892857D01*
X162023809Y-95083333D01*
X162214285Y-95178571D01*
X162595238Y-95178571D01*
X162785714Y-95083333D01*
X161928571Y-93940476D02*
X162119047Y-93845238D01*
X162595238Y-93845238D01*
X162785714Y-93940476D01*
X162880952Y-94130952D01*
X162880952Y-94321428D01*
X162785714Y-94511904D01*
X162595238Y-94607142D01*
X162119047Y-94607142D01*
X161928571Y-94702380D01*
X161261904Y-95178571D02*
X160500000Y-95178571D01*
X160976190Y-95845238D02*
X160976190Y-94130952D01*
X160880952Y-93940476D01*
X160690476Y-93845238D01*
X160500000Y-93845238D01*
X159833333Y-93845238D02*
X159833333Y-95178571D01*
X159833333Y-95845238D02*
X159928571Y-95750000D01*
X159833333Y-95654761D01*
X159738095Y-95750000D01*
X159833333Y-95845238D01*
X159833333Y-95654761D01*
X158595238Y-93845238D02*
X158785714Y-93940476D01*
X158880952Y-94035714D01*
X158976190Y-94226190D01*
X158976190Y-94797619D01*
X158880952Y-94988095D01*
X158785714Y-95083333D01*
X158595238Y-95178571D01*
X158309523Y-95178571D01*
X158119047Y-95083333D01*
X158023809Y-94988095D01*
X157928571Y-94797619D01*
X157928571Y-94226190D01*
X158023809Y-94035714D01*
X158119047Y-93940476D01*
X158309523Y-93845238D01*
X158595238Y-93845238D01*
X157071428Y-95178571D02*
X157071428Y-93845238D01*
X157071428Y-94988095D02*
X156976190Y-95083333D01*
X156785714Y-95178571D01*
X156500000Y-95178571D01*
X156309523Y-95083333D01*
X156214285Y-94892857D01*
X156214285Y-93845238D01*
X153833333Y-95654761D02*
X153738095Y-95750000D01*
X153547619Y-95845238D01*
X153071428Y-95845238D01*
X152880952Y-95750000D01*
X152785714Y-95654761D01*
X152690476Y-95464285D01*
X152690476Y-95273809D01*
X152785714Y-94988095D01*
X153928571Y-93845238D01*
X152690476Y-93845238D01*
X151452380Y-95845238D02*
X151261904Y-95845238D01*
X151071428Y-95750000D01*
X150976190Y-95654761D01*
X150880952Y-95464285D01*
X150785714Y-95083333D01*
X150785714Y-94607142D01*
X150880952Y-94226190D01*
X150976190Y-94035714D01*
X151071428Y-93940476D01*
X151261904Y-93845238D01*
X151452380Y-93845238D01*
X151642857Y-93940476D01*
X151738095Y-94035714D01*
X151833333Y-94226190D01*
X151928571Y-94607142D01*
X151928571Y-95083333D01*
X151833333Y-95464285D01*
X151738095Y-95654761D01*
X151642857Y-95750000D01*
X151452380Y-95845238D01*
X149547619Y-95845238D02*
X149357142Y-95845238D01*
X149166666Y-95750000D01*
X149071428Y-95654761D01*
X148976190Y-95464285D01*
X148880952Y-95083333D01*
X148880952Y-94607142D01*
X148976190Y-94226190D01*
X149071428Y-94035714D01*
X149166666Y-93940476D01*
X149357142Y-93845238D01*
X149547619Y-93845238D01*
X149738095Y-93940476D01*
X149833333Y-94035714D01*
X149928571Y-94226190D01*
X150023809Y-94607142D01*
X150023809Y-95083333D01*
X149928571Y-95464285D01*
X149833333Y-95654761D01*
X149738095Y-95750000D01*
X149547619Y-95845238D01*
D11*
X154082095Y-110577333D02*
X153605904Y-110577333D01*
X154177333Y-110291619D02*
X153844000Y-111291619D01*
X153510666Y-110291619D01*
X153320190Y-111291619D02*
X152748761Y-111291619D01*
X153034476Y-110291619D02*
X153034476Y-111291619D01*
X152510666Y-111291619D02*
X151844000Y-110291619D01*
X151844000Y-111291619D02*
X152510666Y-110291619D01*
X150129714Y-110386857D02*
X150177333Y-110339238D01*
X150320190Y-110291619D01*
X150415428Y-110291619D01*
X150558285Y-110339238D01*
X150653523Y-110434476D01*
X150701142Y-110529714D01*
X150748761Y-110720190D01*
X150748761Y-110863047D01*
X150701142Y-111053523D01*
X150653523Y-111148761D01*
X150558285Y-111244000D01*
X150415428Y-111291619D01*
X150320190Y-111291619D01*
X150177333Y-111244000D01*
X150129714Y-111196380D01*
X149558285Y-110291619D02*
X149653523Y-110339238D01*
X149701142Y-110386857D01*
X149748761Y-110482095D01*
X149748761Y-110767809D01*
X149701142Y-110863047D01*
X149653523Y-110910666D01*
X149558285Y-110958285D01*
X149415428Y-110958285D01*
X149320190Y-110910666D01*
X149272571Y-110863047D01*
X149224952Y-110767809D01*
X149224952Y-110482095D01*
X149272571Y-110386857D01*
X149320190Y-110339238D01*
X149415428Y-110291619D01*
X149558285Y-110291619D01*
X148796380Y-110958285D02*
X148796380Y-110291619D01*
X148796380Y-110863047D02*
X148748761Y-110910666D01*
X148653523Y-110958285D01*
X148510666Y-110958285D01*
X148415428Y-110910666D01*
X148367809Y-110815428D01*
X148367809Y-110291619D01*
X147891619Y-110958285D02*
X147891619Y-110291619D01*
X147891619Y-110863047D02*
X147844000Y-110910666D01*
X147748761Y-110958285D01*
X147605904Y-110958285D01*
X147510666Y-110910666D01*
X147463047Y-110815428D01*
X147463047Y-110291619D01*
X146605904Y-110339238D02*
X146701142Y-110291619D01*
X146891619Y-110291619D01*
X146986857Y-110339238D01*
X147034476Y-110434476D01*
X147034476Y-110815428D01*
X146986857Y-110910666D01*
X146891619Y-110958285D01*
X146701142Y-110958285D01*
X146605904Y-110910666D01*
X146558285Y-110815428D01*
X146558285Y-110720190D01*
X147034476Y-110624952D01*
X145701142Y-110339238D02*
X145796380Y-110291619D01*
X145986857Y-110291619D01*
X146082095Y-110339238D01*
X146129714Y-110386857D01*
X146177333Y-110482095D01*
X146177333Y-110767809D01*
X146129714Y-110863047D01*
X146082095Y-110910666D01*
X145986857Y-110958285D01*
X145796380Y-110958285D01*
X145701142Y-110910666D01*
X145415428Y-110958285D02*
X145034476Y-110958285D01*
X145272571Y-111291619D02*
X145272571Y-110434476D01*
X145224952Y-110339238D01*
X145129714Y-110291619D01*
X145034476Y-110291619D01*
X144558285Y-110291619D02*
X144653523Y-110339238D01*
X144701142Y-110386857D01*
X144748761Y-110482095D01*
X144748761Y-110767809D01*
X144701142Y-110863047D01*
X144653523Y-110910666D01*
X144558285Y-110958285D01*
X144415428Y-110958285D01*
X144320190Y-110910666D01*
X144272571Y-110863047D01*
X144224952Y-110767809D01*
X144224952Y-110482095D01*
X144272571Y-110386857D01*
X144320190Y-110339238D01*
X144415428Y-110291619D01*
X144558285Y-110291619D01*
X143796380Y-110291619D02*
X143796380Y-110958285D01*
X143796380Y-110767809D02*
X143748761Y-110863047D01*
X143701142Y-110910666D01*
X143605904Y-110958285D01*
X143510666Y-110958285D01*
%TO.C,J1*%
D12*
X173576666Y-103804523D02*
X173576666Y-104711666D01*
X173516190Y-104893095D01*
X173395238Y-105014047D01*
X173213809Y-105074523D01*
X173092857Y-105074523D01*
X174846666Y-105074523D02*
X174120952Y-105074523D01*
X174483809Y-105074523D02*
X174483809Y-103804523D01*
X174362857Y-103985952D01*
X174241904Y-104106904D01*
X174120952Y-104167380D01*
%TD*%
M02*
