%TF.GenerationSoftware,KiCad,Pcbnew,(5.1.12)-1*%
%TF.CreationDate,2023-10-03T16:06:22+02:00*%
%TF.ProjectId,PICO-AT,5049434f-2d41-4542-9e6b-696361645f70,rev?*%
%TF.SameCoordinates,Original*%
%TF.FileFunction,Legend,Bot*%
%TF.FilePolarity,Positive*%
%FSLAX46Y46*%
G04 Gerber Fmt 4.6, Leading zero omitted, Abs format (unit mm)*
G04 Created by KiCad (PCBNEW (5.1.12)-1) date 2023-10-03 16:06:22*
%MOMM*%
%LPD*%
G01*
G04 APERTURE LIST*
%ADD10C,0.250000*%
%ADD11C,0.150000*%
%ADD12C,0.500000*%
%ADD13C,0.120000*%
G04 APERTURE END LIST*
D10*
X138756190Y-98522380D02*
X138756190Y-97522380D01*
X138756190Y-97903333D02*
X138660952Y-97855714D01*
X138470476Y-97855714D01*
X138375238Y-97903333D01*
X138327619Y-97950952D01*
X138280000Y-98046190D01*
X138280000Y-98331904D01*
X138327619Y-98427142D01*
X138375238Y-98474761D01*
X138470476Y-98522380D01*
X138660952Y-98522380D01*
X138756190Y-98474761D01*
X137946666Y-97855714D02*
X137708571Y-98522380D01*
X137470476Y-97855714D02*
X137708571Y-98522380D01*
X137803809Y-98760476D01*
X137851428Y-98808095D01*
X137946666Y-98855714D01*
X136327619Y-97855714D02*
X136327619Y-98522380D01*
X136327619Y-97950952D02*
X136280000Y-97903333D01*
X136184761Y-97855714D01*
X136041904Y-97855714D01*
X135946666Y-97903333D01*
X135899047Y-97998571D01*
X135899047Y-98522380D01*
X134994285Y-98522380D02*
X134994285Y-97998571D01*
X135041904Y-97903333D01*
X135137142Y-97855714D01*
X135327619Y-97855714D01*
X135422857Y-97903333D01*
X134994285Y-98474761D02*
X135089523Y-98522380D01*
X135327619Y-98522380D01*
X135422857Y-98474761D01*
X135470476Y-98379523D01*
X135470476Y-98284285D01*
X135422857Y-98189047D01*
X135327619Y-98141428D01*
X135089523Y-98141428D01*
X134994285Y-98093809D01*
X133994285Y-98522380D02*
X134565714Y-98522380D01*
X134280000Y-98522380D02*
X134280000Y-97522380D01*
X134375238Y-97665238D01*
X134470476Y-97760476D01*
X134565714Y-97808095D01*
X133375238Y-97522380D02*
X133280000Y-97522380D01*
X133184761Y-97570000D01*
X133137142Y-97617619D01*
X133089523Y-97712857D01*
X133041904Y-97903333D01*
X133041904Y-98141428D01*
X133089523Y-98331904D01*
X133137142Y-98427142D01*
X133184761Y-98474761D01*
X133280000Y-98522380D01*
X133375238Y-98522380D01*
X133470476Y-98474761D01*
X133518095Y-98427142D01*
X133565714Y-98331904D01*
X133613333Y-98141428D01*
X133613333Y-97903333D01*
X133565714Y-97712857D01*
X133518095Y-97617619D01*
X133470476Y-97570000D01*
X133375238Y-97522380D01*
X132708571Y-97522380D02*
X132089523Y-97522380D01*
X132422857Y-97903333D01*
X132280000Y-97903333D01*
X132184761Y-97950952D01*
X132137142Y-97998571D01*
X132089523Y-98093809D01*
X132089523Y-98331904D01*
X132137142Y-98427142D01*
X132184761Y-98474761D01*
X132280000Y-98522380D01*
X132565714Y-98522380D01*
X132660952Y-98474761D01*
X132708571Y-98427142D01*
X130089523Y-98522380D02*
X130137142Y-98522380D01*
X130232380Y-98474761D01*
X130375238Y-98331904D01*
X130613333Y-98046190D01*
X130708571Y-97903333D01*
X130756190Y-97760476D01*
X130756190Y-97665238D01*
X130708571Y-97570000D01*
X130613333Y-97522380D01*
X130565714Y-97522380D01*
X130470476Y-97570000D01*
X130422857Y-97665238D01*
X130422857Y-97712857D01*
X130470476Y-97808095D01*
X130518095Y-97855714D01*
X130803809Y-98046190D01*
X130851428Y-98093809D01*
X130899047Y-98189047D01*
X130899047Y-98331904D01*
X130851428Y-98427142D01*
X130803809Y-98474761D01*
X130708571Y-98522380D01*
X130565714Y-98522380D01*
X130470476Y-98474761D01*
X130422857Y-98427142D01*
X130280000Y-98236666D01*
X130232380Y-98093809D01*
X130232380Y-97998571D01*
X128470476Y-98522380D02*
X128470476Y-97522380D01*
X128470476Y-98474761D02*
X128565714Y-98522380D01*
X128756190Y-98522380D01*
X128851428Y-98474761D01*
X128899047Y-98427142D01*
X128946666Y-98331904D01*
X128946666Y-98046190D01*
X128899047Y-97950952D01*
X128851428Y-97903333D01*
X128756190Y-97855714D01*
X128565714Y-97855714D01*
X128470476Y-97903333D01*
X127565714Y-98522380D02*
X127565714Y-97998571D01*
X127613333Y-97903333D01*
X127708571Y-97855714D01*
X127899047Y-97855714D01*
X127994285Y-97903333D01*
X127565714Y-98474761D02*
X127660952Y-98522380D01*
X127899047Y-98522380D01*
X127994285Y-98474761D01*
X128041904Y-98379523D01*
X128041904Y-98284285D01*
X127994285Y-98189047D01*
X127899047Y-98141428D01*
X127660952Y-98141428D01*
X127565714Y-98093809D01*
X127184761Y-97855714D02*
X126946666Y-98522380D01*
X126708571Y-97855714D01*
D11*
X171410380Y-109013809D02*
X171410380Y-109632857D01*
X171791333Y-109299523D01*
X171791333Y-109442380D01*
X171838952Y-109537619D01*
X171886571Y-109585238D01*
X171981809Y-109632857D01*
X172219904Y-109632857D01*
X172315142Y-109585238D01*
X172362761Y-109537619D01*
X172410380Y-109442380D01*
X172410380Y-109156666D01*
X172362761Y-109061428D01*
X172315142Y-109013809D01*
X172315142Y-110061428D02*
X172362761Y-110109047D01*
X172410380Y-110061428D01*
X172362761Y-110013809D01*
X172315142Y-110061428D01*
X172410380Y-110061428D01*
X171410380Y-110442380D02*
X171410380Y-111061428D01*
X171791333Y-110728095D01*
X171791333Y-110870952D01*
X171838952Y-110966190D01*
X171886571Y-111013809D01*
X171981809Y-111061428D01*
X172219904Y-111061428D01*
X172315142Y-111013809D01*
X172362761Y-110966190D01*
X172410380Y-110870952D01*
X172410380Y-110585238D01*
X172362761Y-110490000D01*
X172315142Y-110442380D01*
X171410380Y-111347142D02*
X172410380Y-111680476D01*
X171410380Y-112013809D01*
X171410380Y-103425809D02*
X171410380Y-104044857D01*
X171791333Y-103711523D01*
X171791333Y-103854380D01*
X171838952Y-103949619D01*
X171886571Y-103997238D01*
X171981809Y-104044857D01*
X172219904Y-104044857D01*
X172315142Y-103997238D01*
X172362761Y-103949619D01*
X172410380Y-103854380D01*
X172410380Y-103568666D01*
X172362761Y-103473428D01*
X172315142Y-103425809D01*
X172315142Y-104473428D02*
X172362761Y-104521047D01*
X172410380Y-104473428D01*
X172362761Y-104425809D01*
X172315142Y-104473428D01*
X172410380Y-104473428D01*
X171410380Y-104854380D02*
X171410380Y-105473428D01*
X171791333Y-105140095D01*
X171791333Y-105282952D01*
X171838952Y-105378190D01*
X171886571Y-105425809D01*
X171981809Y-105473428D01*
X172219904Y-105473428D01*
X172315142Y-105425809D01*
X172362761Y-105378190D01*
X172410380Y-105282952D01*
X172410380Y-104997238D01*
X172362761Y-104902000D01*
X172315142Y-104854380D01*
X171410380Y-105759142D02*
X172410380Y-106092476D01*
X171410380Y-106425809D01*
X167346380Y-109013809D02*
X167346380Y-109632857D01*
X167727333Y-109299523D01*
X167727333Y-109442380D01*
X167774952Y-109537619D01*
X167822571Y-109585238D01*
X167917809Y-109632857D01*
X168155904Y-109632857D01*
X168251142Y-109585238D01*
X168298761Y-109537619D01*
X168346380Y-109442380D01*
X168346380Y-109156666D01*
X168298761Y-109061428D01*
X168251142Y-109013809D01*
X168251142Y-110061428D02*
X168298761Y-110109047D01*
X168346380Y-110061428D01*
X168298761Y-110013809D01*
X168251142Y-110061428D01*
X168346380Y-110061428D01*
X167346380Y-110442380D02*
X167346380Y-111061428D01*
X167727333Y-110728095D01*
X167727333Y-110870952D01*
X167774952Y-110966190D01*
X167822571Y-111013809D01*
X167917809Y-111061428D01*
X168155904Y-111061428D01*
X168251142Y-111013809D01*
X168298761Y-110966190D01*
X168346380Y-110870952D01*
X168346380Y-110585238D01*
X168298761Y-110490000D01*
X168251142Y-110442380D01*
X167346380Y-111347142D02*
X168346380Y-111680476D01*
X167346380Y-112013809D01*
X167965428Y-103314666D02*
X167965428Y-104076571D01*
X168346380Y-105076571D02*
X168346380Y-104505142D01*
X168346380Y-104790857D02*
X167346380Y-104790857D01*
X167489238Y-104695619D01*
X167584476Y-104600380D01*
X167632095Y-104505142D01*
X167441619Y-105457523D02*
X167394000Y-105505142D01*
X167346380Y-105600380D01*
X167346380Y-105838476D01*
X167394000Y-105933714D01*
X167441619Y-105981333D01*
X167536857Y-106028952D01*
X167632095Y-106028952D01*
X167774952Y-105981333D01*
X168346380Y-105409904D01*
X168346380Y-106028952D01*
X163076000Y-109728095D02*
X163028380Y-109632857D01*
X163028380Y-109490000D01*
X163076000Y-109347142D01*
X163171238Y-109251904D01*
X163266476Y-109204285D01*
X163456952Y-109156666D01*
X163599809Y-109156666D01*
X163790285Y-109204285D01*
X163885523Y-109251904D01*
X163980761Y-109347142D01*
X164028380Y-109490000D01*
X164028380Y-109585238D01*
X163980761Y-109728095D01*
X163933142Y-109775714D01*
X163599809Y-109775714D01*
X163599809Y-109585238D01*
X164028380Y-110204285D02*
X163028380Y-110204285D01*
X164028380Y-110775714D01*
X163028380Y-110775714D01*
X164028380Y-111251904D02*
X163028380Y-111251904D01*
X163028380Y-111490000D01*
X163076000Y-111632857D01*
X163171238Y-111728095D01*
X163266476Y-111775714D01*
X163456952Y-111823333D01*
X163599809Y-111823333D01*
X163790285Y-111775714D01*
X163885523Y-111728095D01*
X163980761Y-111632857D01*
X164028380Y-111490000D01*
X164028380Y-111251904D01*
X163076000Y-104140095D02*
X163028380Y-104044857D01*
X163028380Y-103902000D01*
X163076000Y-103759142D01*
X163171238Y-103663904D01*
X163266476Y-103616285D01*
X163456952Y-103568666D01*
X163599809Y-103568666D01*
X163790285Y-103616285D01*
X163885523Y-103663904D01*
X163980761Y-103759142D01*
X164028380Y-103902000D01*
X164028380Y-103997238D01*
X163980761Y-104140095D01*
X163933142Y-104187714D01*
X163599809Y-104187714D01*
X163599809Y-103997238D01*
X164028380Y-104616285D02*
X163028380Y-104616285D01*
X164028380Y-105187714D01*
X163028380Y-105187714D01*
X164028380Y-105663904D02*
X163028380Y-105663904D01*
X163028380Y-105902000D01*
X163076000Y-106044857D01*
X163171238Y-106140095D01*
X163266476Y-106187714D01*
X163456952Y-106235333D01*
X163599809Y-106235333D01*
X163790285Y-106187714D01*
X163885523Y-106140095D01*
X163980761Y-106044857D01*
X164028380Y-105902000D01*
X164028380Y-105663904D01*
X158710380Y-109791523D02*
X158710380Y-109315333D01*
X159186571Y-109267714D01*
X159138952Y-109315333D01*
X159091333Y-109410571D01*
X159091333Y-109648666D01*
X159138952Y-109743904D01*
X159186571Y-109791523D01*
X159281809Y-109839142D01*
X159519904Y-109839142D01*
X159615142Y-109791523D01*
X159662761Y-109743904D01*
X159710380Y-109648666D01*
X159710380Y-109410571D01*
X159662761Y-109315333D01*
X159615142Y-109267714D01*
X158710380Y-110124857D02*
X159710380Y-110458190D01*
X158710380Y-110791523D01*
X158885380Y-103655904D02*
X157885380Y-103655904D01*
X157885380Y-104036857D01*
X157933000Y-104132095D01*
X157980619Y-104179714D01*
X158075857Y-104227333D01*
X158218714Y-104227333D01*
X158313952Y-104179714D01*
X158361571Y-104132095D01*
X158409190Y-104036857D01*
X158409190Y-103655904D01*
X158837761Y-104608285D02*
X158885380Y-104751142D01*
X158885380Y-104989238D01*
X158837761Y-105084476D01*
X158790142Y-105132095D01*
X158694904Y-105179714D01*
X158599666Y-105179714D01*
X158504428Y-105132095D01*
X158456809Y-105084476D01*
X158409190Y-104989238D01*
X158361571Y-104798761D01*
X158313952Y-104703523D01*
X158266333Y-104655904D01*
X158171095Y-104608285D01*
X158075857Y-104608285D01*
X157980619Y-104655904D01*
X157933000Y-104703523D01*
X157885380Y-104798761D01*
X157885380Y-105036857D01*
X157933000Y-105179714D01*
X159535380Y-103774952D02*
X159535380Y-103965428D01*
X159583000Y-104060666D01*
X159678238Y-104155904D01*
X159868714Y-104203523D01*
X160202047Y-104203523D01*
X160392523Y-104155904D01*
X160487761Y-104060666D01*
X160535380Y-103965428D01*
X160535380Y-103774952D01*
X160487761Y-103679714D01*
X160392523Y-103584476D01*
X160202047Y-103536857D01*
X159868714Y-103536857D01*
X159678238Y-103584476D01*
X159583000Y-103679714D01*
X159535380Y-103774952D01*
X160535380Y-104632095D02*
X159535380Y-104632095D01*
X160535380Y-105203523D01*
X159535380Y-105203523D01*
X154694000Y-109728095D02*
X154646380Y-109632857D01*
X154646380Y-109490000D01*
X154694000Y-109347142D01*
X154789238Y-109251904D01*
X154884476Y-109204285D01*
X155074952Y-109156666D01*
X155217809Y-109156666D01*
X155408285Y-109204285D01*
X155503523Y-109251904D01*
X155598761Y-109347142D01*
X155646380Y-109490000D01*
X155646380Y-109585238D01*
X155598761Y-109728095D01*
X155551142Y-109775714D01*
X155217809Y-109775714D01*
X155217809Y-109585238D01*
X155646380Y-110204285D02*
X154646380Y-110204285D01*
X155646380Y-110775714D01*
X154646380Y-110775714D01*
X155646380Y-111251904D02*
X154646380Y-111251904D01*
X154646380Y-111490000D01*
X154694000Y-111632857D01*
X154789238Y-111728095D01*
X154884476Y-111775714D01*
X155074952Y-111823333D01*
X155217809Y-111823333D01*
X155408285Y-111775714D01*
X155503523Y-111728095D01*
X155598761Y-111632857D01*
X155646380Y-111490000D01*
X155646380Y-111251904D01*
X154694000Y-104140095D02*
X154646380Y-104044857D01*
X154646380Y-103902000D01*
X154694000Y-103759142D01*
X154789238Y-103663904D01*
X154884476Y-103616285D01*
X155074952Y-103568666D01*
X155217809Y-103568666D01*
X155408285Y-103616285D01*
X155503523Y-103663904D01*
X155598761Y-103759142D01*
X155646380Y-103902000D01*
X155646380Y-103997238D01*
X155598761Y-104140095D01*
X155551142Y-104187714D01*
X155217809Y-104187714D01*
X155217809Y-103997238D01*
X155646380Y-104616285D02*
X154646380Y-104616285D01*
X155646380Y-105187714D01*
X154646380Y-105187714D01*
X155646380Y-105663904D02*
X154646380Y-105663904D01*
X154646380Y-105902000D01*
X154694000Y-106044857D01*
X154789238Y-106140095D01*
X154884476Y-106187714D01*
X155074952Y-106235333D01*
X155217809Y-106235333D01*
X155408285Y-106187714D01*
X155503523Y-106140095D01*
X155598761Y-106044857D01*
X155646380Y-105902000D01*
X155646380Y-105663904D01*
X150328380Y-109791523D02*
X150328380Y-109315333D01*
X150804571Y-109267714D01*
X150756952Y-109315333D01*
X150709333Y-109410571D01*
X150709333Y-109648666D01*
X150756952Y-109743904D01*
X150804571Y-109791523D01*
X150899809Y-109839142D01*
X151137904Y-109839142D01*
X151233142Y-109791523D01*
X151280761Y-109743904D01*
X151328380Y-109648666D01*
X151328380Y-109410571D01*
X151280761Y-109315333D01*
X151233142Y-109267714D01*
X150328380Y-110124857D02*
X151328380Y-110458190D01*
X150328380Y-110791523D01*
X150376000Y-104140095D02*
X150328380Y-104044857D01*
X150328380Y-103902000D01*
X150376000Y-103759142D01*
X150471238Y-103663904D01*
X150566476Y-103616285D01*
X150756952Y-103568666D01*
X150899809Y-103568666D01*
X151090285Y-103616285D01*
X151185523Y-103663904D01*
X151280761Y-103759142D01*
X151328380Y-103902000D01*
X151328380Y-103997238D01*
X151280761Y-104140095D01*
X151233142Y-104187714D01*
X150899809Y-104187714D01*
X150899809Y-103997238D01*
X151328380Y-104616285D02*
X150328380Y-104616285D01*
X151328380Y-105187714D01*
X150328380Y-105187714D01*
X151328380Y-105663904D02*
X150328380Y-105663904D01*
X150328380Y-105902000D01*
X150376000Y-106044857D01*
X150471238Y-106140095D01*
X150566476Y-106187714D01*
X150756952Y-106235333D01*
X150899809Y-106235333D01*
X151090285Y-106187714D01*
X151185523Y-106140095D01*
X151280761Y-106044857D01*
X151328380Y-105902000D01*
X151328380Y-105663904D01*
X146312000Y-109728095D02*
X146264380Y-109632857D01*
X146264380Y-109490000D01*
X146312000Y-109347142D01*
X146407238Y-109251904D01*
X146502476Y-109204285D01*
X146692952Y-109156666D01*
X146835809Y-109156666D01*
X147026285Y-109204285D01*
X147121523Y-109251904D01*
X147216761Y-109347142D01*
X147264380Y-109490000D01*
X147264380Y-109585238D01*
X147216761Y-109728095D01*
X147169142Y-109775714D01*
X146835809Y-109775714D01*
X146835809Y-109585238D01*
X147264380Y-110204285D02*
X146264380Y-110204285D01*
X147264380Y-110775714D01*
X146264380Y-110775714D01*
X147264380Y-111251904D02*
X146264380Y-111251904D01*
X146264380Y-111490000D01*
X146312000Y-111632857D01*
X146407238Y-111728095D01*
X146502476Y-111775714D01*
X146692952Y-111823333D01*
X146835809Y-111823333D01*
X147026285Y-111775714D01*
X147121523Y-111728095D01*
X147216761Y-111632857D01*
X147264380Y-111490000D01*
X147264380Y-111251904D01*
X146312000Y-104140095D02*
X146264380Y-104044857D01*
X146264380Y-103902000D01*
X146312000Y-103759142D01*
X146407238Y-103663904D01*
X146502476Y-103616285D01*
X146692952Y-103568666D01*
X146835809Y-103568666D01*
X147026285Y-103616285D01*
X147121523Y-103663904D01*
X147216761Y-103759142D01*
X147264380Y-103902000D01*
X147264380Y-103997238D01*
X147216761Y-104140095D01*
X147169142Y-104187714D01*
X146835809Y-104187714D01*
X146835809Y-103997238D01*
X147264380Y-104616285D02*
X146264380Y-104616285D01*
X147264380Y-105187714D01*
X146264380Y-105187714D01*
X147264380Y-105663904D02*
X146264380Y-105663904D01*
X146264380Y-105902000D01*
X146312000Y-106044857D01*
X146407238Y-106140095D01*
X146502476Y-106187714D01*
X146692952Y-106235333D01*
X146835809Y-106235333D01*
X147026285Y-106187714D01*
X147121523Y-106140095D01*
X147216761Y-106044857D01*
X147264380Y-105902000D01*
X147264380Y-105663904D01*
X142946380Y-109220095D02*
X141946380Y-109220095D01*
X141946380Y-109601047D01*
X141994000Y-109696285D01*
X142041619Y-109743904D01*
X142136857Y-109791523D01*
X142279714Y-109791523D01*
X142374952Y-109743904D01*
X142422571Y-109696285D01*
X142470190Y-109601047D01*
X142470190Y-109220095D01*
X141994000Y-110743904D02*
X141946380Y-110648666D01*
X141946380Y-110505809D01*
X141994000Y-110362952D01*
X142089238Y-110267714D01*
X142184476Y-110220095D01*
X142374952Y-110172476D01*
X142517809Y-110172476D01*
X142708285Y-110220095D01*
X142803523Y-110267714D01*
X142898761Y-110362952D01*
X142946380Y-110505809D01*
X142946380Y-110601047D01*
X142898761Y-110743904D01*
X142851142Y-110791523D01*
X142517809Y-110791523D01*
X142517809Y-110601047D01*
X142946380Y-103608285D02*
X141946380Y-103608285D01*
X142946380Y-104179714D01*
X141946380Y-104179714D01*
X142851142Y-105227333D02*
X142898761Y-105179714D01*
X142946380Y-105036857D01*
X142946380Y-104941619D01*
X142898761Y-104798761D01*
X142803523Y-104703523D01*
X142708285Y-104655904D01*
X142517809Y-104608285D01*
X142374952Y-104608285D01*
X142184476Y-104655904D01*
X142089238Y-104703523D01*
X141994000Y-104798761D01*
X141946380Y-104941619D01*
X141946380Y-105036857D01*
X141994000Y-105179714D01*
X142041619Y-105227333D01*
X137628380Y-109831333D02*
X137628380Y-109355142D01*
X138104571Y-109307523D01*
X138056952Y-109355142D01*
X138009333Y-109450380D01*
X138009333Y-109688476D01*
X138056952Y-109783714D01*
X138104571Y-109831333D01*
X138199809Y-109878952D01*
X138437904Y-109878952D01*
X138533142Y-109831333D01*
X138580761Y-109783714D01*
X138628380Y-109688476D01*
X138628380Y-109450380D01*
X138580761Y-109355142D01*
X138533142Y-109307523D01*
X137628380Y-110164666D02*
X138628380Y-110498000D01*
X137628380Y-110831333D01*
X138580761Y-111117047D02*
X138628380Y-111259904D01*
X138628380Y-111498000D01*
X138580761Y-111593238D01*
X138533142Y-111640857D01*
X138437904Y-111688476D01*
X138342666Y-111688476D01*
X138247428Y-111640857D01*
X138199809Y-111593238D01*
X138152190Y-111498000D01*
X138104571Y-111307523D01*
X138056952Y-111212285D01*
X138009333Y-111164666D01*
X137914095Y-111117047D01*
X137818857Y-111117047D01*
X137723619Y-111164666D01*
X137676000Y-111212285D01*
X137628380Y-111307523D01*
X137628380Y-111545619D01*
X137676000Y-111688476D01*
X138104571Y-112450380D02*
X138152190Y-112593238D01*
X138199809Y-112640857D01*
X138295047Y-112688476D01*
X138437904Y-112688476D01*
X138533142Y-112640857D01*
X138580761Y-112593238D01*
X138628380Y-112498000D01*
X138628380Y-112117047D01*
X137628380Y-112117047D01*
X137628380Y-112450380D01*
X137676000Y-112545619D01*
X137723619Y-112593238D01*
X137818857Y-112640857D01*
X137914095Y-112640857D01*
X138009333Y-112593238D01*
X138056952Y-112545619D01*
X138104571Y-112450380D01*
X138104571Y-112117047D01*
X137882380Y-104203523D02*
X137882380Y-103727333D01*
X138358571Y-103679714D01*
X138310952Y-103727333D01*
X138263333Y-103822571D01*
X138263333Y-104060666D01*
X138310952Y-104155904D01*
X138358571Y-104203523D01*
X138453809Y-104251142D01*
X138691904Y-104251142D01*
X138787142Y-104203523D01*
X138834761Y-104155904D01*
X138882380Y-104060666D01*
X138882380Y-103822571D01*
X138834761Y-103727333D01*
X138787142Y-103679714D01*
X137882380Y-104536857D02*
X138882380Y-104870190D01*
X137882380Y-105203523D01*
X134564380Y-109870952D02*
X134564380Y-109299523D01*
X134564380Y-109585238D02*
X133564380Y-109585238D01*
X133707238Y-109490000D01*
X133802476Y-109394761D01*
X133850095Y-109299523D01*
X133659619Y-110251904D02*
X133612000Y-110299523D01*
X133564380Y-110394761D01*
X133564380Y-110632857D01*
X133612000Y-110728095D01*
X133659619Y-110775714D01*
X133754857Y-110823333D01*
X133850095Y-110823333D01*
X133992952Y-110775714D01*
X134564380Y-110204285D01*
X134564380Y-110823333D01*
X133564380Y-111109047D02*
X134564380Y-111442380D01*
X133564380Y-111775714D01*
X133564380Y-104203523D02*
X133564380Y-103727333D01*
X134040571Y-103679714D01*
X133992952Y-103727333D01*
X133945333Y-103822571D01*
X133945333Y-104060666D01*
X133992952Y-104155904D01*
X134040571Y-104203523D01*
X134135809Y-104251142D01*
X134373904Y-104251142D01*
X134469142Y-104203523D01*
X134516761Y-104155904D01*
X134564380Y-104060666D01*
X134564380Y-103822571D01*
X134516761Y-103727333D01*
X134469142Y-103679714D01*
X133564380Y-104536857D02*
X134564380Y-104870190D01*
X133564380Y-105203523D01*
X130246380Y-109870952D02*
X130246380Y-109299523D01*
X130246380Y-109585238D02*
X129246380Y-109585238D01*
X129389238Y-109490000D01*
X129484476Y-109394761D01*
X129532095Y-109299523D01*
X129341619Y-110251904D02*
X129294000Y-110299523D01*
X129246380Y-110394761D01*
X129246380Y-110632857D01*
X129294000Y-110728095D01*
X129341619Y-110775714D01*
X129436857Y-110823333D01*
X129532095Y-110823333D01*
X129674952Y-110775714D01*
X130246380Y-110204285D01*
X130246380Y-110823333D01*
X129246380Y-111109047D02*
X130246380Y-111442380D01*
X129246380Y-111775714D01*
X129500380Y-104203523D02*
X129500380Y-103727333D01*
X129976571Y-103679714D01*
X129928952Y-103727333D01*
X129881333Y-103822571D01*
X129881333Y-104060666D01*
X129928952Y-104155904D01*
X129976571Y-104203523D01*
X130071809Y-104251142D01*
X130309904Y-104251142D01*
X130405142Y-104203523D01*
X130452761Y-104155904D01*
X130500380Y-104060666D01*
X130500380Y-103822571D01*
X130452761Y-103727333D01*
X130405142Y-103679714D01*
X129500380Y-104536857D02*
X130500380Y-104870190D01*
X129500380Y-105203523D01*
X125182380Y-109013809D02*
X125182380Y-109632857D01*
X125563333Y-109299523D01*
X125563333Y-109442380D01*
X125610952Y-109537619D01*
X125658571Y-109585238D01*
X125753809Y-109632857D01*
X125991904Y-109632857D01*
X126087142Y-109585238D01*
X126134761Y-109537619D01*
X126182380Y-109442380D01*
X126182380Y-109156666D01*
X126134761Y-109061428D01*
X126087142Y-109013809D01*
X126087142Y-110061428D02*
X126134761Y-110109047D01*
X126182380Y-110061428D01*
X126134761Y-110013809D01*
X126087142Y-110061428D01*
X126182380Y-110061428D01*
X125182380Y-110442380D02*
X125182380Y-111061428D01*
X125563333Y-110728095D01*
X125563333Y-110870952D01*
X125610952Y-110966190D01*
X125658571Y-111013809D01*
X125753809Y-111061428D01*
X125991904Y-111061428D01*
X126087142Y-111013809D01*
X126134761Y-110966190D01*
X126182380Y-110870952D01*
X126182380Y-110585238D01*
X126134761Y-110490000D01*
X126087142Y-110442380D01*
X125182380Y-111347142D02*
X126182380Y-111680476D01*
X125182380Y-112013809D01*
X125230000Y-104140095D02*
X125182380Y-104044857D01*
X125182380Y-103902000D01*
X125230000Y-103759142D01*
X125325238Y-103663904D01*
X125420476Y-103616285D01*
X125610952Y-103568666D01*
X125753809Y-103568666D01*
X125944285Y-103616285D01*
X126039523Y-103663904D01*
X126134761Y-103759142D01*
X126182380Y-103902000D01*
X126182380Y-103997238D01*
X126134761Y-104140095D01*
X126087142Y-104187714D01*
X125753809Y-104187714D01*
X125753809Y-103997238D01*
X126182380Y-104616285D02*
X125182380Y-104616285D01*
X126182380Y-105187714D01*
X125182380Y-105187714D01*
X126182380Y-105663904D02*
X125182380Y-105663904D01*
X125182380Y-105902000D01*
X125230000Y-106044857D01*
X125325238Y-106140095D01*
X125420476Y-106187714D01*
X125610952Y-106235333D01*
X125753809Y-106235333D01*
X125944285Y-106187714D01*
X126039523Y-106140095D01*
X126134761Y-106044857D01*
X126182380Y-105902000D01*
X126182380Y-105663904D01*
D12*
X173690476Y-95654761D02*
X173690476Y-93654761D01*
X172928571Y-93654761D01*
X172738095Y-93750000D01*
X172642857Y-93845238D01*
X172547619Y-94035714D01*
X172547619Y-94321428D01*
X172642857Y-94511904D01*
X172738095Y-94607142D01*
X172928571Y-94702380D01*
X173690476Y-94702380D01*
X171690476Y-95654761D02*
X171690476Y-93654761D01*
X169595238Y-95464285D02*
X169690476Y-95559523D01*
X169976190Y-95654761D01*
X170166666Y-95654761D01*
X170452380Y-95559523D01*
X170642857Y-95369047D01*
X170738095Y-95178571D01*
X170833333Y-94797619D01*
X170833333Y-94511904D01*
X170738095Y-94130952D01*
X170642857Y-93940476D01*
X170452380Y-93750000D01*
X170166666Y-93654761D01*
X169976190Y-93654761D01*
X169690476Y-93750000D01*
X169595238Y-93845238D01*
X168357142Y-93654761D02*
X167976190Y-93654761D01*
X167785714Y-93750000D01*
X167595238Y-93940476D01*
X167500000Y-94321428D01*
X167500000Y-94988095D01*
X167595238Y-95369047D01*
X167785714Y-95559523D01*
X167976190Y-95654761D01*
X168357142Y-95654761D01*
X168547619Y-95559523D01*
X168738095Y-95369047D01*
X168833333Y-94988095D01*
X168833333Y-94321428D01*
X168738095Y-93940476D01*
X168547619Y-93750000D01*
X168357142Y-93654761D01*
X166642857Y-94892857D02*
X165119047Y-94892857D01*
X164261904Y-95083333D02*
X163309523Y-95083333D01*
X164452380Y-95654761D02*
X163785714Y-93654761D01*
X163119047Y-95654761D01*
X162738095Y-93654761D02*
X161595238Y-93654761D01*
X162166666Y-95654761D02*
X162166666Y-93654761D01*
X159690476Y-94321428D02*
X158928571Y-94321428D01*
X159404761Y-95654761D02*
X159404761Y-93940476D01*
X159309523Y-93750000D01*
X159119047Y-93654761D01*
X158928571Y-93654761D01*
X157976190Y-95654761D02*
X158166666Y-95559523D01*
X158261904Y-95464285D01*
X158357142Y-95273809D01*
X158357142Y-94702380D01*
X158261904Y-94511904D01*
X158166666Y-94416666D01*
X157976190Y-94321428D01*
X157690476Y-94321428D01*
X157500000Y-94416666D01*
X157404761Y-94511904D01*
X157309523Y-94702380D01*
X157309523Y-95273809D01*
X157404761Y-95464285D01*
X157500000Y-95559523D01*
X157690476Y-95654761D01*
X157976190Y-95654761D01*
X156452380Y-95654761D02*
X156452380Y-94321428D01*
X156452380Y-94702380D02*
X156357142Y-94511904D01*
X156261904Y-94416666D01*
X156071428Y-94321428D01*
X155880952Y-94321428D01*
X153690476Y-95654761D02*
X153690476Y-93654761D01*
X153214285Y-93654761D01*
X152928571Y-93750000D01*
X152738095Y-93940476D01*
X152642857Y-94130952D01*
X152547619Y-94511904D01*
X152547619Y-94797619D01*
X152642857Y-95178571D01*
X152738095Y-95369047D01*
X152928571Y-95559523D01*
X153214285Y-95654761D01*
X153690476Y-95654761D01*
X151690476Y-94607142D02*
X151023809Y-94607142D01*
X150738095Y-95654761D02*
X151690476Y-95654761D01*
X151690476Y-93654761D01*
X150738095Y-93654761D01*
X148738095Y-95464285D02*
X148833333Y-95559523D01*
X149119047Y-95654761D01*
X149309523Y-95654761D01*
X149595238Y-95559523D01*
X149785714Y-95369047D01*
X149880952Y-95178571D01*
X149976190Y-94797619D01*
X149976190Y-94511904D01*
X149880952Y-94130952D01*
X149785714Y-93940476D01*
X149595238Y-93750000D01*
X149309523Y-93654761D01*
X149119047Y-93654761D01*
X148833333Y-93750000D01*
X148738095Y-93845238D01*
X173119047Y-98583333D02*
X172166666Y-98583333D01*
X173309523Y-99154761D02*
X172642857Y-97154761D01*
X171976190Y-99154761D01*
X171023809Y-99154761D02*
X171214285Y-99059523D01*
X171309523Y-98869047D01*
X171309523Y-97154761D01*
X170261904Y-97821428D02*
X170261904Y-99821428D01*
X170261904Y-97916666D02*
X170071428Y-97821428D01*
X169690476Y-97821428D01*
X169500000Y-97916666D01*
X169404761Y-98011904D01*
X169309523Y-98202380D01*
X169309523Y-98773809D01*
X169404761Y-98964285D01*
X169500000Y-99059523D01*
X169690476Y-99154761D01*
X170071428Y-99154761D01*
X170261904Y-99059523D01*
X168452380Y-99154761D02*
X168452380Y-97154761D01*
X167595238Y-99154761D02*
X167595238Y-98107142D01*
X167690476Y-97916666D01*
X167880952Y-97821428D01*
X168166666Y-97821428D01*
X168357142Y-97916666D01*
X168452380Y-98011904D01*
X165785714Y-99154761D02*
X165785714Y-98107142D01*
X165880952Y-97916666D01*
X166071428Y-97821428D01*
X166452380Y-97821428D01*
X166642857Y-97916666D01*
X165785714Y-99059523D02*
X165976190Y-99154761D01*
X166452380Y-99154761D01*
X166642857Y-99059523D01*
X166738095Y-98869047D01*
X166738095Y-98678571D01*
X166642857Y-98488095D01*
X166452380Y-98392857D01*
X165976190Y-98392857D01*
X165785714Y-98297619D01*
X164928571Y-99059523D02*
X164642857Y-99154761D01*
X164166666Y-99154761D01*
X163976190Y-99059523D01*
X163880952Y-98964285D01*
X163785714Y-98773809D01*
X163785714Y-98583333D01*
X163880952Y-98392857D01*
X163976190Y-98297619D01*
X164166666Y-98202380D01*
X164547619Y-98107142D01*
X164738095Y-98011904D01*
X164833333Y-97916666D01*
X164928571Y-97726190D01*
X164928571Y-97535714D01*
X164833333Y-97345238D01*
X164738095Y-97250000D01*
X164547619Y-97154761D01*
X164071428Y-97154761D01*
X163785714Y-97250000D01*
X163214285Y-97821428D02*
X162452380Y-97821428D01*
X162928571Y-97154761D02*
X162928571Y-98869047D01*
X162833333Y-99059523D01*
X162642857Y-99154761D01*
X162452380Y-99154761D01*
X160928571Y-99154761D02*
X160928571Y-98107142D01*
X161023809Y-97916666D01*
X161214285Y-97821428D01*
X161595238Y-97821428D01*
X161785714Y-97916666D01*
X160928571Y-99059523D02*
X161119047Y-99154761D01*
X161595238Y-99154761D01*
X161785714Y-99059523D01*
X161880952Y-98869047D01*
X161880952Y-98678571D01*
X161785714Y-98488095D01*
X161595238Y-98392857D01*
X161119047Y-98392857D01*
X160928571Y-98297619D01*
X160261904Y-97821428D02*
X159500000Y-97821428D01*
X159976190Y-97154761D02*
X159976190Y-98869047D01*
X159880952Y-99059523D01*
X159690476Y-99154761D01*
X159500000Y-99154761D01*
X158833333Y-99154761D02*
X158833333Y-97821428D01*
X158833333Y-97154761D02*
X158928571Y-97250000D01*
X158833333Y-97345238D01*
X158738095Y-97250000D01*
X158833333Y-97154761D01*
X158833333Y-97345238D01*
X157595238Y-99154761D02*
X157785714Y-99059523D01*
X157880952Y-98964285D01*
X157976190Y-98773809D01*
X157976190Y-98202380D01*
X157880952Y-98011904D01*
X157785714Y-97916666D01*
X157595238Y-97821428D01*
X157309523Y-97821428D01*
X157119047Y-97916666D01*
X157023809Y-98011904D01*
X156928571Y-98202380D01*
X156928571Y-98773809D01*
X157023809Y-98964285D01*
X157119047Y-99059523D01*
X157309523Y-99154761D01*
X157595238Y-99154761D01*
X156071428Y-97821428D02*
X156071428Y-99154761D01*
X156071428Y-98011904D02*
X155976190Y-97916666D01*
X155785714Y-97821428D01*
X155500000Y-97821428D01*
X155309523Y-97916666D01*
X155214285Y-98107142D01*
X155214285Y-99154761D01*
X152833333Y-97345238D02*
X152738095Y-97250000D01*
X152547619Y-97154761D01*
X152071428Y-97154761D01*
X151880952Y-97250000D01*
X151785714Y-97345238D01*
X151690476Y-97535714D01*
X151690476Y-97726190D01*
X151785714Y-98011904D01*
X152928571Y-99154761D01*
X151690476Y-99154761D01*
X150452380Y-97154761D02*
X150261904Y-97154761D01*
X150071428Y-97250000D01*
X149976190Y-97345238D01*
X149880952Y-97535714D01*
X149785714Y-97916666D01*
X149785714Y-98392857D01*
X149880952Y-98773809D01*
X149976190Y-98964285D01*
X150071428Y-99059523D01*
X150261904Y-99154761D01*
X150452380Y-99154761D01*
X150642857Y-99059523D01*
X150738095Y-98964285D01*
X150833333Y-98773809D01*
X150928571Y-98392857D01*
X150928571Y-97916666D01*
X150833333Y-97535714D01*
X150738095Y-97345238D01*
X150642857Y-97250000D01*
X150452380Y-97154761D01*
X148547619Y-97154761D02*
X148357142Y-97154761D01*
X148166666Y-97250000D01*
X148071428Y-97345238D01*
X147976190Y-97535714D01*
X147880952Y-97916666D01*
X147880952Y-98392857D01*
X147976190Y-98773809D01*
X148071428Y-98964285D01*
X148166666Y-99059523D01*
X148357142Y-99154761D01*
X148547619Y-99154761D01*
X148738095Y-99059523D01*
X148833333Y-98964285D01*
X148928571Y-98773809D01*
X149023809Y-98392857D01*
X149023809Y-97916666D01*
X148928571Y-97535714D01*
X148833333Y-97345238D01*
X148738095Y-97250000D01*
X148547619Y-97154761D01*
D13*
%TO.C,U1*%
X147948000Y-110958000D02*
X147948000Y-121198000D01*
X147948000Y-113538000D02*
X150488000Y-113538000D01*
X147948000Y-116078000D02*
X150488000Y-116078000D01*
X147948000Y-118618000D02*
X150488000Y-118618000D01*
%TO.C,+12V*%
X138330000Y-87670000D02*
X137000000Y-87670000D01*
X138330000Y-89000000D02*
X138330000Y-87670000D01*
X138330000Y-90270000D02*
X135670000Y-90270000D01*
X135670000Y-90270000D02*
X135670000Y-92870000D01*
X138330000Y-90270000D02*
X138330000Y-92870000D01*
X138330000Y-92870000D02*
X135670000Y-92870000D01*
%TO.C,C1*%
X122801000Y-113352000D02*
X129736000Y-113352000D01*
X122801000Y-116772000D02*
X122801000Y-113352000D01*
X129736000Y-116772000D02*
X122801000Y-116772000D01*
%TO.C,C2*%
X129736000Y-121090000D02*
X122801000Y-121090000D01*
X122801000Y-121090000D02*
X122801000Y-117670000D01*
X122801000Y-117670000D02*
X129736000Y-117670000D01*
%TO.C,D4*%
X172078000Y-119832000D02*
X169218000Y-119832000D01*
X172078000Y-117912000D02*
X172078000Y-119832000D01*
X169218000Y-117912000D02*
X172078000Y-117912000D01*
%TO.C,R4*%
X170470252Y-116280000D02*
X169947748Y-116280000D01*
X170470252Y-114860000D02*
X169947748Y-114860000D01*
%TO.C,U1*%
D11*
X137374380Y-115316095D02*
X138183904Y-115316095D01*
X138279142Y-115363714D01*
X138326761Y-115411333D01*
X138374380Y-115506571D01*
X138374380Y-115697047D01*
X138326761Y-115792285D01*
X138279142Y-115839904D01*
X138183904Y-115887523D01*
X137374380Y-115887523D01*
X138374380Y-116887523D02*
X138374380Y-116316095D01*
X138374380Y-116601809D02*
X137374380Y-116601809D01*
X137517238Y-116506571D01*
X137612476Y-116411333D01*
X137660095Y-116316095D01*
%TO.C,+12V*%
X138761904Y-86071428D02*
X138000000Y-86071428D01*
X138380952Y-86452380D02*
X138380952Y-85690476D01*
X137000000Y-86452380D02*
X137571428Y-86452380D01*
X137285714Y-86452380D02*
X137285714Y-85452380D01*
X137380952Y-85595238D01*
X137476190Y-85690476D01*
X137571428Y-85738095D01*
X136619047Y-85547619D02*
X136571428Y-85500000D01*
X136476190Y-85452380D01*
X136238095Y-85452380D01*
X136142857Y-85500000D01*
X136095238Y-85547619D01*
X136047619Y-85642857D01*
X136047619Y-85738095D01*
X136095238Y-85880952D01*
X136666666Y-86452380D01*
X136047619Y-86452380D01*
X135761904Y-85452380D02*
X135428571Y-86452380D01*
X135095238Y-85452380D01*
X133428571Y-87095238D02*
X133428571Y-87428571D01*
X133952380Y-87571428D02*
X133952380Y-87095238D01*
X132952380Y-87095238D01*
X132952380Y-87571428D01*
X133952380Y-87904761D02*
X133285714Y-88428571D01*
X133285714Y-87904761D02*
X133952380Y-88428571D01*
X133285714Y-88666666D02*
X133285714Y-89047619D01*
X132952380Y-88809523D02*
X133809523Y-88809523D01*
X133904761Y-88857142D01*
X133952380Y-88952380D01*
X133952380Y-89047619D01*
X133857142Y-89380952D02*
X133904761Y-89428571D01*
X133952380Y-89380952D01*
X133904761Y-89333333D01*
X133857142Y-89380952D01*
X133952380Y-89380952D01*
X133428571Y-90952380D02*
X133428571Y-90619047D01*
X133952380Y-90619047D02*
X132952380Y-90619047D01*
X132952380Y-91095238D01*
X133666666Y-91428571D02*
X133666666Y-91904761D01*
X133952380Y-91333333D02*
X132952380Y-91666666D01*
X133952380Y-92000000D01*
X133952380Y-92333333D02*
X132952380Y-92333333D01*
X133952380Y-92904761D01*
X132952380Y-92904761D01*
%TO.C,GND*%
X137761904Y-94000000D02*
X137857142Y-93952380D01*
X138000000Y-93952380D01*
X138142857Y-94000000D01*
X138238095Y-94095238D01*
X138285714Y-94190476D01*
X138333333Y-94380952D01*
X138333333Y-94523809D01*
X138285714Y-94714285D01*
X138238095Y-94809523D01*
X138142857Y-94904761D01*
X138000000Y-94952380D01*
X137904761Y-94952380D01*
X137761904Y-94904761D01*
X137714285Y-94857142D01*
X137714285Y-94523809D01*
X137904761Y-94523809D01*
X137285714Y-94952380D02*
X137285714Y-93952380D01*
X136714285Y-94952380D01*
X136714285Y-93952380D01*
X136238095Y-94952380D02*
X136238095Y-93952380D01*
X136000000Y-93952380D01*
X135857142Y-94000000D01*
X135761904Y-94095238D01*
X135714285Y-94190476D01*
X135666666Y-94380952D01*
X135666666Y-94523809D01*
X135714285Y-94714285D01*
X135761904Y-94809523D01*
X135857142Y-94904761D01*
X136000000Y-94952380D01*
X136238095Y-94952380D01*
X124452380Y-85238095D02*
X123452380Y-85238095D01*
X123452380Y-85619047D01*
X123500000Y-85714285D01*
X123547619Y-85761904D01*
X123642857Y-85809523D01*
X123785714Y-85809523D01*
X123880952Y-85761904D01*
X123928571Y-85714285D01*
X123976190Y-85619047D01*
X123976190Y-85238095D01*
X124452380Y-86380952D02*
X124404761Y-86285714D01*
X124357142Y-86238095D01*
X124261904Y-86190476D01*
X123976190Y-86190476D01*
X123880952Y-86238095D01*
X123833333Y-86285714D01*
X123785714Y-86380952D01*
X123785714Y-86523809D01*
X123833333Y-86619047D01*
X123880952Y-86666666D01*
X123976190Y-86714285D01*
X124261904Y-86714285D01*
X124357142Y-86666666D01*
X124404761Y-86619047D01*
X124452380Y-86523809D01*
X124452380Y-86380952D01*
X123785714Y-87047619D02*
X124452380Y-87238095D01*
X123976190Y-87428571D01*
X124452380Y-87619047D01*
X123785714Y-87809523D01*
X124404761Y-88571428D02*
X124452380Y-88476190D01*
X124452380Y-88285714D01*
X124404761Y-88190476D01*
X124309523Y-88142857D01*
X123928571Y-88142857D01*
X123833333Y-88190476D01*
X123785714Y-88285714D01*
X123785714Y-88476190D01*
X123833333Y-88571428D01*
X123928571Y-88619047D01*
X124023809Y-88619047D01*
X124119047Y-88142857D01*
X124452380Y-89047619D02*
X123785714Y-89047619D01*
X123976190Y-89047619D02*
X123880952Y-89095238D01*
X123833333Y-89142857D01*
X123785714Y-89238095D01*
X123785714Y-89333333D01*
X124404761Y-90380952D02*
X124452380Y-90523809D01*
X124452380Y-90761904D01*
X124404761Y-90857142D01*
X124357142Y-90904761D01*
X124261904Y-90952380D01*
X124166666Y-90952380D01*
X124071428Y-90904761D01*
X124023809Y-90857142D01*
X123976190Y-90761904D01*
X123928571Y-90571428D01*
X123880952Y-90476190D01*
X123833333Y-90428571D01*
X123738095Y-90380952D01*
X123642857Y-90380952D01*
X123547619Y-90428571D01*
X123500000Y-90476190D01*
X123452380Y-90571428D01*
X123452380Y-90809523D01*
X123500000Y-90952380D01*
X123785714Y-91285714D02*
X124452380Y-91476190D01*
X123976190Y-91666666D01*
X124452380Y-91857142D01*
X123785714Y-92047619D01*
X124452380Y-92428571D02*
X123785714Y-92428571D01*
X123452380Y-92428571D02*
X123500000Y-92380952D01*
X123547619Y-92428571D01*
X123500000Y-92476190D01*
X123452380Y-92428571D01*
X123547619Y-92428571D01*
X123785714Y-92761904D02*
X123785714Y-93142857D01*
X123452380Y-92904761D02*
X124309523Y-92904761D01*
X124404761Y-92952380D01*
X124452380Y-93047619D01*
X124452380Y-93142857D01*
X124404761Y-93904761D02*
X124452380Y-93809523D01*
X124452380Y-93619047D01*
X124404761Y-93523809D01*
X124357142Y-93476190D01*
X124261904Y-93428571D01*
X123976190Y-93428571D01*
X123880952Y-93476190D01*
X123833333Y-93523809D01*
X123785714Y-93619047D01*
X123785714Y-93809523D01*
X123833333Y-93904761D01*
X124452380Y-94333333D02*
X123452380Y-94333333D01*
X124452380Y-94761904D02*
X123928571Y-94761904D01*
X123833333Y-94714285D01*
X123785714Y-94619047D01*
X123785714Y-94476190D01*
X123833333Y-94380952D01*
X123880952Y-94333333D01*
%TO.C,C1*%
X126559333Y-114704857D02*
X126511714Y-114657238D01*
X126368857Y-114609619D01*
X126273619Y-114609619D01*
X126130761Y-114657238D01*
X126035523Y-114752476D01*
X125987904Y-114847714D01*
X125940285Y-115038190D01*
X125940285Y-115181047D01*
X125987904Y-115371523D01*
X126035523Y-115466761D01*
X126130761Y-115562000D01*
X126273619Y-115609619D01*
X126368857Y-115609619D01*
X126511714Y-115562000D01*
X126559333Y-115514380D01*
X127511714Y-114609619D02*
X126940285Y-114609619D01*
X127226000Y-114609619D02*
X127226000Y-115609619D01*
X127130761Y-115466761D01*
X127035523Y-115371523D01*
X126940285Y-115323904D01*
%TO.C,C2*%
X126569333Y-119022857D02*
X126521714Y-118975238D01*
X126378857Y-118927619D01*
X126283619Y-118927619D01*
X126140761Y-118975238D01*
X126045523Y-119070476D01*
X125997904Y-119165714D01*
X125950285Y-119356190D01*
X125950285Y-119499047D01*
X125997904Y-119689523D01*
X126045523Y-119784761D01*
X126140761Y-119880000D01*
X126283619Y-119927619D01*
X126378857Y-119927619D01*
X126521714Y-119880000D01*
X126569333Y-119832380D01*
X126950285Y-119832380D02*
X126997904Y-119880000D01*
X127093142Y-119927619D01*
X127331238Y-119927619D01*
X127426476Y-119880000D01*
X127474095Y-119832380D01*
X127521714Y-119737142D01*
X127521714Y-119641904D01*
X127474095Y-119499047D01*
X126902666Y-118927619D01*
X127521714Y-118927619D01*
%TO.C,D4*%
X169479904Y-116769619D02*
X169479904Y-117769619D01*
X169718000Y-117769619D01*
X169860857Y-117722000D01*
X169956095Y-117626761D01*
X170003714Y-117531523D01*
X170051333Y-117341047D01*
X170051333Y-117198190D01*
X170003714Y-117007714D01*
X169956095Y-116912476D01*
X169860857Y-116817238D01*
X169718000Y-116769619D01*
X169479904Y-116769619D01*
X170908476Y-117436285D02*
X170908476Y-116769619D01*
X170670380Y-117817238D02*
X170432285Y-117102952D01*
X171051333Y-117102952D01*
X172956095Y-121452380D02*
X172956095Y-120452380D01*
X172575142Y-120452380D01*
X172479904Y-120500000D01*
X172432285Y-120547619D01*
X172384666Y-120642857D01*
X172384666Y-120785714D01*
X172432285Y-120880952D01*
X172479904Y-120928571D01*
X172575142Y-120976190D01*
X172956095Y-120976190D01*
X172051333Y-120452380D02*
X171813238Y-121452380D01*
X171622761Y-120738095D01*
X171432285Y-121452380D01*
X171194190Y-120452380D01*
X170241809Y-121452380D02*
X170575142Y-120976190D01*
X170813238Y-121452380D02*
X170813238Y-120452380D01*
X170432285Y-120452380D01*
X170337047Y-120500000D01*
X170289428Y-120547619D01*
X170241809Y-120642857D01*
X170241809Y-120785714D01*
X170289428Y-120880952D01*
X170337047Y-120928571D01*
X170432285Y-120976190D01*
X170813238Y-120976190D01*
X168860857Y-120452380D02*
X168670380Y-120452380D01*
X168575142Y-120500000D01*
X168479904Y-120595238D01*
X168432285Y-120785714D01*
X168432285Y-121119047D01*
X168479904Y-121309523D01*
X168575142Y-121404761D01*
X168670380Y-121452380D01*
X168860857Y-121452380D01*
X168956095Y-121404761D01*
X169051333Y-121309523D01*
X169098952Y-121119047D01*
X169098952Y-120785714D01*
X169051333Y-120595238D01*
X168956095Y-120500000D01*
X168860857Y-120452380D01*
X168003714Y-121452380D02*
X168003714Y-120452380D01*
X167432285Y-121452380D02*
X167860857Y-120880952D01*
X167432285Y-120452380D02*
X168003714Y-121023809D01*
%TO.C,R4*%
X170042333Y-113467619D02*
X169709000Y-113943809D01*
X169470904Y-113467619D02*
X169470904Y-114467619D01*
X169851857Y-114467619D01*
X169947095Y-114420000D01*
X169994714Y-114372380D01*
X170042333Y-114277142D01*
X170042333Y-114134285D01*
X169994714Y-114039047D01*
X169947095Y-113991428D01*
X169851857Y-113943809D01*
X169470904Y-113943809D01*
X170899476Y-114134285D02*
X170899476Y-113467619D01*
X170661380Y-114515238D02*
X170423285Y-113800952D01*
X171042333Y-113800952D01*
%TO.C,+3.3V*%
X157500000Y-89071428D02*
X156738095Y-89071428D01*
X157119047Y-89452380D02*
X157119047Y-88690476D01*
X156357142Y-88452380D02*
X155738095Y-88452380D01*
X156071428Y-88833333D01*
X155928571Y-88833333D01*
X155833333Y-88880952D01*
X155785714Y-88928571D01*
X155738095Y-89023809D01*
X155738095Y-89261904D01*
X155785714Y-89357142D01*
X155833333Y-89404761D01*
X155928571Y-89452380D01*
X156214285Y-89452380D01*
X156309523Y-89404761D01*
X156357142Y-89357142D01*
X155309523Y-89357142D02*
X155261904Y-89404761D01*
X155309523Y-89452380D01*
X155357142Y-89404761D01*
X155309523Y-89357142D01*
X155309523Y-89452380D01*
X154928571Y-88452380D02*
X154309523Y-88452380D01*
X154642857Y-88833333D01*
X154500000Y-88833333D01*
X154404761Y-88880952D01*
X154357142Y-88928571D01*
X154309523Y-89023809D01*
X154309523Y-89261904D01*
X154357142Y-89357142D01*
X154404761Y-89404761D01*
X154500000Y-89452380D01*
X154785714Y-89452380D01*
X154880952Y-89404761D01*
X154928571Y-89357142D01*
X154023809Y-88452380D02*
X153690476Y-89452380D01*
X153357142Y-88452380D01*
X163190476Y-83952380D02*
X163000000Y-83952380D01*
X162904761Y-84000000D01*
X162809523Y-84095238D01*
X162761904Y-84285714D01*
X162761904Y-84619047D01*
X162809523Y-84809523D01*
X162904761Y-84904761D01*
X163000000Y-84952380D01*
X163190476Y-84952380D01*
X163285714Y-84904761D01*
X163380952Y-84809523D01*
X163428571Y-84619047D01*
X163428571Y-84285714D01*
X163380952Y-84095238D01*
X163285714Y-84000000D01*
X163190476Y-83952380D01*
X162333333Y-84952380D02*
X162333333Y-84285714D01*
X162333333Y-84476190D02*
X162285714Y-84380952D01*
X162238095Y-84333333D01*
X162142857Y-84285714D01*
X162047619Y-84285714D01*
X161285714Y-84952380D02*
X161285714Y-84428571D01*
X161333333Y-84333333D01*
X161428571Y-84285714D01*
X161619047Y-84285714D01*
X161714285Y-84333333D01*
X161285714Y-84904761D02*
X161380952Y-84952380D01*
X161619047Y-84952380D01*
X161714285Y-84904761D01*
X161761904Y-84809523D01*
X161761904Y-84714285D01*
X161714285Y-84619047D01*
X161619047Y-84571428D01*
X161380952Y-84571428D01*
X161285714Y-84523809D01*
X160809523Y-84285714D02*
X160809523Y-84952380D01*
X160809523Y-84380952D02*
X160761904Y-84333333D01*
X160666666Y-84285714D01*
X160523809Y-84285714D01*
X160428571Y-84333333D01*
X160380952Y-84428571D01*
X160380952Y-84952380D01*
X159476190Y-84285714D02*
X159476190Y-85095238D01*
X159523809Y-85190476D01*
X159571428Y-85238095D01*
X159666666Y-85285714D01*
X159809523Y-85285714D01*
X159904761Y-85238095D01*
X159476190Y-84904761D02*
X159571428Y-84952380D01*
X159761904Y-84952380D01*
X159857142Y-84904761D01*
X159904761Y-84857142D01*
X159952380Y-84761904D01*
X159952380Y-84476190D01*
X159904761Y-84380952D01*
X159857142Y-84333333D01*
X159761904Y-84285714D01*
X159571428Y-84285714D01*
X159476190Y-84333333D01*
X158619047Y-84904761D02*
X158714285Y-84952380D01*
X158904761Y-84952380D01*
X159000000Y-84904761D01*
X159047619Y-84809523D01*
X159047619Y-84428571D01*
X159000000Y-84333333D01*
X158904761Y-84285714D01*
X158714285Y-84285714D01*
X158619047Y-84333333D01*
X158571428Y-84428571D01*
X158571428Y-84523809D01*
X159047619Y-84619047D01*
%TO.C,+5V Red*%
X140047619Y-75071428D02*
X139285714Y-75071428D01*
X139666666Y-75452380D02*
X139666666Y-74690476D01*
X138333333Y-74452380D02*
X138809523Y-74452380D01*
X138857142Y-74928571D01*
X138809523Y-74880952D01*
X138714285Y-74833333D01*
X138476190Y-74833333D01*
X138380952Y-74880952D01*
X138333333Y-74928571D01*
X138285714Y-75023809D01*
X138285714Y-75261904D01*
X138333333Y-75357142D01*
X138380952Y-75404761D01*
X138476190Y-75452380D01*
X138714285Y-75452380D01*
X138809523Y-75404761D01*
X138857142Y-75357142D01*
X138000000Y-74452380D02*
X137666666Y-75452380D01*
X137333333Y-74452380D01*
X135666666Y-75452380D02*
X136000000Y-74976190D01*
X136238095Y-75452380D02*
X136238095Y-74452380D01*
X135857142Y-74452380D01*
X135761904Y-74500000D01*
X135714285Y-74547619D01*
X135666666Y-74642857D01*
X135666666Y-74785714D01*
X135714285Y-74880952D01*
X135761904Y-74928571D01*
X135857142Y-74976190D01*
X136238095Y-74976190D01*
X134857142Y-75404761D02*
X134952380Y-75452380D01*
X135142857Y-75452380D01*
X135238095Y-75404761D01*
X135285714Y-75309523D01*
X135285714Y-74928571D01*
X135238095Y-74833333D01*
X135142857Y-74785714D01*
X134952380Y-74785714D01*
X134857142Y-74833333D01*
X134809523Y-74928571D01*
X134809523Y-75023809D01*
X135285714Y-75119047D01*
X133952380Y-75452380D02*
X133952380Y-74452380D01*
X133952380Y-75404761D02*
X134047619Y-75452380D01*
X134238095Y-75452380D01*
X134333333Y-75404761D01*
X134380952Y-75357142D01*
X134428571Y-75261904D01*
X134428571Y-74976190D01*
X134380952Y-74880952D01*
X134333333Y-74833333D01*
X134238095Y-74785714D01*
X134047619Y-74785714D01*
X133952380Y-74833333D01*
%TO.C,+12V Blue*%
X131785714Y-75071428D02*
X131023809Y-75071428D01*
X131404761Y-75452380D02*
X131404761Y-74690476D01*
X130023809Y-75452380D02*
X130595238Y-75452380D01*
X130309523Y-75452380D02*
X130309523Y-74452380D01*
X130404761Y-74595238D01*
X130500000Y-74690476D01*
X130595238Y-74738095D01*
X129642857Y-74547619D02*
X129595238Y-74500000D01*
X129500000Y-74452380D01*
X129261904Y-74452380D01*
X129166666Y-74500000D01*
X129119047Y-74547619D01*
X129071428Y-74642857D01*
X129071428Y-74738095D01*
X129119047Y-74880952D01*
X129690476Y-75452380D01*
X129071428Y-75452380D01*
X128785714Y-74452380D02*
X128452380Y-75452380D01*
X128119047Y-74452380D01*
X126690476Y-74928571D02*
X126547619Y-74976190D01*
X126500000Y-75023809D01*
X126452380Y-75119047D01*
X126452380Y-75261904D01*
X126500000Y-75357142D01*
X126547619Y-75404761D01*
X126642857Y-75452380D01*
X127023809Y-75452380D01*
X127023809Y-74452380D01*
X126690476Y-74452380D01*
X126595238Y-74500000D01*
X126547619Y-74547619D01*
X126500000Y-74642857D01*
X126500000Y-74738095D01*
X126547619Y-74833333D01*
X126595238Y-74880952D01*
X126690476Y-74928571D01*
X127023809Y-74928571D01*
X125880952Y-75452380D02*
X125976190Y-75404761D01*
X126023809Y-75309523D01*
X126023809Y-74452380D01*
X125071428Y-74785714D02*
X125071428Y-75452380D01*
X125500000Y-74785714D02*
X125500000Y-75309523D01*
X125452380Y-75404761D01*
X125357142Y-75452380D01*
X125214285Y-75452380D01*
X125119047Y-75404761D01*
X125071428Y-75357142D01*
X124214285Y-75404761D02*
X124309523Y-75452380D01*
X124500000Y-75452380D01*
X124595238Y-75404761D01*
X124642857Y-75309523D01*
X124642857Y-74928571D01*
X124595238Y-74833333D01*
X124500000Y-74785714D01*
X124309523Y-74785714D01*
X124214285Y-74833333D01*
X124166666Y-74928571D01*
X124166666Y-75023809D01*
X124642857Y-75119047D01*
%TO.C,GND*%
X171061904Y-74300000D02*
X171157142Y-74252380D01*
X171300000Y-74252380D01*
X171442857Y-74300000D01*
X171538095Y-74395238D01*
X171585714Y-74490476D01*
X171633333Y-74680952D01*
X171633333Y-74823809D01*
X171585714Y-75014285D01*
X171538095Y-75109523D01*
X171442857Y-75204761D01*
X171300000Y-75252380D01*
X171204761Y-75252380D01*
X171061904Y-75204761D01*
X171014285Y-75157142D01*
X171014285Y-74823809D01*
X171204761Y-74823809D01*
X170585714Y-75252380D02*
X170585714Y-74252380D01*
X170014285Y-75252380D01*
X170014285Y-74252380D01*
X169538095Y-75252380D02*
X169538095Y-74252380D01*
X169300000Y-74252380D01*
X169157142Y-74300000D01*
X169061904Y-74395238D01*
X169014285Y-74490476D01*
X168966666Y-74680952D01*
X168966666Y-74823809D01*
X169014285Y-75014285D01*
X169061904Y-75109523D01*
X169157142Y-75204761D01*
X169300000Y-75252380D01*
X169538095Y-75252380D01*
X174428571Y-77023809D02*
X174476190Y-77166666D01*
X174523809Y-77214285D01*
X174619047Y-77261904D01*
X174761904Y-77261904D01*
X174857142Y-77214285D01*
X174904761Y-77166666D01*
X174952380Y-77071428D01*
X174952380Y-76690476D01*
X173952380Y-76690476D01*
X173952380Y-77023809D01*
X174000000Y-77119047D01*
X174047619Y-77166666D01*
X174142857Y-77214285D01*
X174238095Y-77214285D01*
X174333333Y-77166666D01*
X174380952Y-77119047D01*
X174428571Y-77023809D01*
X174428571Y-76690476D01*
X174952380Y-77833333D02*
X174904761Y-77738095D01*
X174809523Y-77690476D01*
X173952380Y-77690476D01*
X174952380Y-78642857D02*
X174428571Y-78642857D01*
X174333333Y-78595238D01*
X174285714Y-78500000D01*
X174285714Y-78309523D01*
X174333333Y-78214285D01*
X174904761Y-78642857D02*
X174952380Y-78547619D01*
X174952380Y-78309523D01*
X174904761Y-78214285D01*
X174809523Y-78166666D01*
X174714285Y-78166666D01*
X174619047Y-78214285D01*
X174571428Y-78309523D01*
X174571428Y-78547619D01*
X174523809Y-78642857D01*
X174904761Y-79547619D02*
X174952380Y-79452380D01*
X174952380Y-79261904D01*
X174904761Y-79166666D01*
X174857142Y-79119047D01*
X174761904Y-79071428D01*
X174476190Y-79071428D01*
X174380952Y-79119047D01*
X174333333Y-79166666D01*
X174285714Y-79261904D01*
X174285714Y-79452380D01*
X174333333Y-79547619D01*
X174952380Y-79976190D02*
X173952380Y-79976190D01*
X174571428Y-80071428D02*
X174952380Y-80357142D01*
X174285714Y-80357142D02*
X174666666Y-79976190D01*
X161761904Y-74400000D02*
X161857142Y-74352380D01*
X162000000Y-74352380D01*
X162142857Y-74400000D01*
X162238095Y-74495238D01*
X162285714Y-74590476D01*
X162333333Y-74780952D01*
X162333333Y-74923809D01*
X162285714Y-75114285D01*
X162238095Y-75209523D01*
X162142857Y-75304761D01*
X162000000Y-75352380D01*
X161904761Y-75352380D01*
X161761904Y-75304761D01*
X161714285Y-75257142D01*
X161714285Y-74923809D01*
X161904761Y-74923809D01*
X161285714Y-75352380D02*
X161285714Y-74352380D01*
X160714285Y-75352380D01*
X160714285Y-74352380D01*
X160238095Y-75352380D02*
X160238095Y-74352380D01*
X160000000Y-74352380D01*
X159857142Y-74400000D01*
X159761904Y-74495238D01*
X159714285Y-74590476D01*
X159666666Y-74780952D01*
X159666666Y-74923809D01*
X159714285Y-75114285D01*
X159761904Y-75209523D01*
X159857142Y-75304761D01*
X160000000Y-75352380D01*
X160238095Y-75352380D01*
X164928571Y-77023809D02*
X164976190Y-77166666D01*
X165023809Y-77214285D01*
X165119047Y-77261904D01*
X165261904Y-77261904D01*
X165357142Y-77214285D01*
X165404761Y-77166666D01*
X165452380Y-77071428D01*
X165452380Y-76690476D01*
X164452380Y-76690476D01*
X164452380Y-77023809D01*
X164500000Y-77119047D01*
X164547619Y-77166666D01*
X164642857Y-77214285D01*
X164738095Y-77214285D01*
X164833333Y-77166666D01*
X164880952Y-77119047D01*
X164928571Y-77023809D01*
X164928571Y-76690476D01*
X165452380Y-77833333D02*
X165404761Y-77738095D01*
X165309523Y-77690476D01*
X164452380Y-77690476D01*
X165452380Y-78642857D02*
X164928571Y-78642857D01*
X164833333Y-78595238D01*
X164785714Y-78500000D01*
X164785714Y-78309523D01*
X164833333Y-78214285D01*
X165404761Y-78642857D02*
X165452380Y-78547619D01*
X165452380Y-78309523D01*
X165404761Y-78214285D01*
X165309523Y-78166666D01*
X165214285Y-78166666D01*
X165119047Y-78214285D01*
X165071428Y-78309523D01*
X165071428Y-78547619D01*
X165023809Y-78642857D01*
X165404761Y-79547619D02*
X165452380Y-79452380D01*
X165452380Y-79261904D01*
X165404761Y-79166666D01*
X165357142Y-79119047D01*
X165261904Y-79071428D01*
X164976190Y-79071428D01*
X164880952Y-79119047D01*
X164833333Y-79166666D01*
X164785714Y-79261904D01*
X164785714Y-79452380D01*
X164833333Y-79547619D01*
X165452380Y-79976190D02*
X164452380Y-79976190D01*
X165071428Y-80071428D02*
X165452380Y-80357142D01*
X164785714Y-80357142D02*
X165166666Y-79976190D01*
X171261904Y-84500000D02*
X171357142Y-84452380D01*
X171500000Y-84452380D01*
X171642857Y-84500000D01*
X171738095Y-84595238D01*
X171785714Y-84690476D01*
X171833333Y-84880952D01*
X171833333Y-85023809D01*
X171785714Y-85214285D01*
X171738095Y-85309523D01*
X171642857Y-85404761D01*
X171500000Y-85452380D01*
X171404761Y-85452380D01*
X171261904Y-85404761D01*
X171214285Y-85357142D01*
X171214285Y-85023809D01*
X171404761Y-85023809D01*
X170785714Y-85452380D02*
X170785714Y-84452380D01*
X170214285Y-85452380D01*
X170214285Y-84452380D01*
X169738095Y-85452380D02*
X169738095Y-84452380D01*
X169500000Y-84452380D01*
X169357142Y-84500000D01*
X169261904Y-84595238D01*
X169214285Y-84690476D01*
X169166666Y-84880952D01*
X169166666Y-85023809D01*
X169214285Y-85214285D01*
X169261904Y-85309523D01*
X169357142Y-85404761D01*
X169500000Y-85452380D01*
X169738095Y-85452380D01*
X174428571Y-87523809D02*
X174476190Y-87666666D01*
X174523809Y-87714285D01*
X174619047Y-87761904D01*
X174761904Y-87761904D01*
X174857142Y-87714285D01*
X174904761Y-87666666D01*
X174952380Y-87571428D01*
X174952380Y-87190476D01*
X173952380Y-87190476D01*
X173952380Y-87523809D01*
X174000000Y-87619047D01*
X174047619Y-87666666D01*
X174142857Y-87714285D01*
X174238095Y-87714285D01*
X174333333Y-87666666D01*
X174380952Y-87619047D01*
X174428571Y-87523809D01*
X174428571Y-87190476D01*
X174952380Y-88333333D02*
X174904761Y-88238095D01*
X174809523Y-88190476D01*
X173952380Y-88190476D01*
X174952380Y-89142857D02*
X174428571Y-89142857D01*
X174333333Y-89095238D01*
X174285714Y-89000000D01*
X174285714Y-88809523D01*
X174333333Y-88714285D01*
X174904761Y-89142857D02*
X174952380Y-89047619D01*
X174952380Y-88809523D01*
X174904761Y-88714285D01*
X174809523Y-88666666D01*
X174714285Y-88666666D01*
X174619047Y-88714285D01*
X174571428Y-88809523D01*
X174571428Y-89047619D01*
X174523809Y-89142857D01*
X174904761Y-90047619D02*
X174952380Y-89952380D01*
X174952380Y-89761904D01*
X174904761Y-89666666D01*
X174857142Y-89619047D01*
X174761904Y-89571428D01*
X174476190Y-89571428D01*
X174380952Y-89619047D01*
X174333333Y-89666666D01*
X174285714Y-89761904D01*
X174285714Y-89952380D01*
X174333333Y-90047619D01*
X174952380Y-90476190D02*
X173952380Y-90476190D01*
X174571428Y-90571428D02*
X174952380Y-90857142D01*
X174285714Y-90857142D02*
X174666666Y-90476190D01*
%TO.C,-12V*%
X155261904Y-75571428D02*
X154500000Y-75571428D01*
X153500000Y-75952380D02*
X154071428Y-75952380D01*
X153785714Y-75952380D02*
X153785714Y-74952380D01*
X153880952Y-75095238D01*
X153976190Y-75190476D01*
X154071428Y-75238095D01*
X153119047Y-75047619D02*
X153071428Y-75000000D01*
X152976190Y-74952380D01*
X152738095Y-74952380D01*
X152642857Y-75000000D01*
X152595238Y-75047619D01*
X152547619Y-75142857D01*
X152547619Y-75238095D01*
X152595238Y-75380952D01*
X153166666Y-75952380D01*
X152547619Y-75952380D01*
X152261904Y-74952380D02*
X151928571Y-75952380D01*
X151595238Y-74952380D01*
X154928571Y-82476190D02*
X154928571Y-82952380D01*
X155261904Y-81952380D02*
X154928571Y-82476190D01*
X154595238Y-81952380D01*
X153880952Y-82904761D02*
X153976190Y-82952380D01*
X154166666Y-82952380D01*
X154261904Y-82904761D01*
X154309523Y-82809523D01*
X154309523Y-82428571D01*
X154261904Y-82333333D01*
X154166666Y-82285714D01*
X153976190Y-82285714D01*
X153880952Y-82333333D01*
X153833333Y-82428571D01*
X153833333Y-82523809D01*
X154309523Y-82619047D01*
X153261904Y-82952380D02*
X153357142Y-82904761D01*
X153404761Y-82809523D01*
X153404761Y-81952380D01*
X152738095Y-82952380D02*
X152833333Y-82904761D01*
X152880952Y-82809523D01*
X152880952Y-81952380D01*
X152214285Y-82952380D02*
X152309523Y-82904761D01*
X152357142Y-82857142D01*
X152404761Y-82761904D01*
X152404761Y-82476190D01*
X152357142Y-82380952D01*
X152309523Y-82333333D01*
X152214285Y-82285714D01*
X152071428Y-82285714D01*
X151976190Y-82333333D01*
X151928571Y-82380952D01*
X151880952Y-82476190D01*
X151880952Y-82761904D01*
X151928571Y-82857142D01*
X151976190Y-82904761D01*
X152071428Y-82952380D01*
X152214285Y-82952380D01*
X151547619Y-82285714D02*
X151357142Y-82952380D01*
X151166666Y-82476190D01*
X150976190Y-82952380D01*
X150785714Y-82285714D01*
%TO.C,-5V*%
X146785714Y-75571428D02*
X146023809Y-75571428D01*
X145071428Y-74952380D02*
X145547619Y-74952380D01*
X145595238Y-75428571D01*
X145547619Y-75380952D01*
X145452380Y-75333333D01*
X145214285Y-75333333D01*
X145119047Y-75380952D01*
X145071428Y-75428571D01*
X145023809Y-75523809D01*
X145023809Y-75761904D01*
X145071428Y-75857142D01*
X145119047Y-75904761D01*
X145214285Y-75952380D01*
X145452380Y-75952380D01*
X145547619Y-75904761D01*
X145595238Y-75857142D01*
X144738095Y-74952380D02*
X144404761Y-75952380D01*
X144071428Y-74952380D01*
X146380952Y-82000000D02*
X146476190Y-81952380D01*
X146619047Y-81952380D01*
X146761904Y-82000000D01*
X146857142Y-82095238D01*
X146904761Y-82190476D01*
X146952380Y-82380952D01*
X146952380Y-82523809D01*
X146904761Y-82714285D01*
X146857142Y-82809523D01*
X146761904Y-82904761D01*
X146619047Y-82952380D01*
X146523809Y-82952380D01*
X146380952Y-82904761D01*
X146333333Y-82857142D01*
X146333333Y-82523809D01*
X146523809Y-82523809D01*
X145904761Y-82952380D02*
X145904761Y-82285714D01*
X145904761Y-82476190D02*
X145857142Y-82380952D01*
X145809523Y-82333333D01*
X145714285Y-82285714D01*
X145619047Y-82285714D01*
X144857142Y-82952380D02*
X144857142Y-82428571D01*
X144904761Y-82333333D01*
X145000000Y-82285714D01*
X145190476Y-82285714D01*
X145285714Y-82333333D01*
X144857142Y-82904761D02*
X144952380Y-82952380D01*
X145190476Y-82952380D01*
X145285714Y-82904761D01*
X145333333Y-82809523D01*
X145333333Y-82714285D01*
X145285714Y-82619047D01*
X145190476Y-82571428D01*
X144952380Y-82571428D01*
X144857142Y-82523809D01*
X144476190Y-82285714D02*
X144238095Y-82952380D01*
X144000000Y-82285714D02*
X144238095Y-82952380D01*
X144333333Y-83190476D01*
X144380952Y-83238095D01*
X144476190Y-83285714D01*
%TO.C,PG*%
X153761904Y-86452380D02*
X153761904Y-85452380D01*
X153380952Y-85452380D01*
X153285714Y-85500000D01*
X153238095Y-85547619D01*
X153190476Y-85642857D01*
X153190476Y-85785714D01*
X153238095Y-85880952D01*
X153285714Y-85928571D01*
X153380952Y-85976190D01*
X153761904Y-85976190D01*
X152238095Y-85500000D02*
X152333333Y-85452380D01*
X152476190Y-85452380D01*
X152619047Y-85500000D01*
X152714285Y-85595238D01*
X152761904Y-85690476D01*
X152809523Y-85880952D01*
X152809523Y-86023809D01*
X152761904Y-86214285D01*
X152714285Y-86309523D01*
X152619047Y-86404761D01*
X152476190Y-86452380D01*
X152380952Y-86452380D01*
X152238095Y-86404761D01*
X152190476Y-86357142D01*
X152190476Y-86023809D01*
X152380952Y-86023809D01*
X151333333Y-88952380D02*
X151095238Y-89952380D01*
X150904761Y-89238095D01*
X150714285Y-89952380D01*
X150476190Y-88952380D01*
X150095238Y-89952380D02*
X150095238Y-88952380D01*
X149666666Y-89952380D02*
X149666666Y-89428571D01*
X149714285Y-89333333D01*
X149809523Y-89285714D01*
X149952380Y-89285714D01*
X150047619Y-89333333D01*
X150095238Y-89380952D01*
X149190476Y-89952380D02*
X149190476Y-89285714D01*
X149190476Y-88952380D02*
X149238095Y-89000000D01*
X149190476Y-89047619D01*
X149142857Y-89000000D01*
X149190476Y-88952380D01*
X149190476Y-89047619D01*
X148857142Y-89285714D02*
X148476190Y-89285714D01*
X148714285Y-88952380D02*
X148714285Y-89809523D01*
X148666666Y-89904761D01*
X148571428Y-89952380D01*
X148476190Y-89952380D01*
X147761904Y-89904761D02*
X147857142Y-89952380D01*
X148047619Y-89952380D01*
X148142857Y-89904761D01*
X148190476Y-89809523D01*
X148190476Y-89428571D01*
X148142857Y-89333333D01*
X148047619Y-89285714D01*
X147857142Y-89285714D01*
X147761904Y-89333333D01*
X147714285Y-89428571D01*
X147714285Y-89523809D01*
X148190476Y-89619047D01*
%TD*%
M02*
